<?xml version="1.0" encoding="utf-8"?>
<!-- Generator: Adobe Illustrator 26.5.0, SVG Export Plug-In . SVG Version: 6.00 Build 0)  -->
<svg version="1.1" id="Layer_1" xmlns="http://www.w3.org/2000/svg" xmlns:xlink="http://www.w3.org/1999/xlink" x="0px" y="0px"
	 viewBox="0 0 790 528" style="enable-background:new 0 0 790 528;" xml:space="preserve">
<style type="text/css">
	.st0{fill:#FFFFFF;stroke:#000000;stroke-width:2;}
	.st1{font-family:'Arial-BoldMT';}
	.st2{font-size:9px;}
	.st3{fill:#FFFFCC;stroke:#000000;}
	.st4{font-family:'ArialMT';}
	.st5{fill:none;stroke:#000000;stroke-width:2;stroke-opacity:0.2;}
	.st6{fill-opacity:0.2;stroke:#000000;stroke-width:2;stroke-opacity:0.2;}
	.st7{fill:#CCFFCC;stroke:#000000;}
	.st8{opacity:0.4;}
	.st9{fill:#646465;}
</style>
<g id="graph0" transform="scale(1 1) rotate(0) translate(4 260)">
	<g id="clust1_00000131334281584773658420000018269037768581700530_">
		<path class="st0" d="M150.4,252.5h598.3c10.3,0,20.7-6.9,20.7-13.8V-9.6c0-6.9-10.3-13.8-20.7-13.8H150.4
			c-10.3,0-20.7,6.9-20.7,13.8v248.3C129.7,245.6,140,252.5,150.4,252.5"/>
	</g>
	<g id="clust1">
		<path class="st0" d="M402.5,244h347c6,0,12-6,12-12V16c0-6-6-12-12-12h-347c-6,0-12,6-12,12v216C390.5,238,396.5,244,402.5,244"/>
		<text transform="matrix(1 0 0 1 569.2434 15.2)" class="st1 st2">src</text>
	</g>
	<g id="clust4">
		<path class="st0" d="M591.5,176h150c6,0,12-6,12-12V42c0-6-6-12-12-12h-150c-6,0-12,6-12,12v122C579.5,170,585.5,176,591.5,176"/>
		<text transform="matrix(1 0 0 1 644.9866 41.2)" class="st1 st2">resources</text>
	</g>
	<g id="clust5">
		<path class="st0" d="M599.5,168h134c6,0,12-6,12-12v-28c0-6-6-12-12-12h-134c-6,0-12,6-12,12v28C587.5,162,593.5,168,599.5,168"/>
		<text transform="matrix(1 0 0 1 658.9919 127.2)" class="st1 st2">css</text>
	</g>
	<g id="clust6">
		<path class="st0" d="M642.5,108h48c6,0,12-6,12-12V68c0-6-6-12-12-12h-48c-6,0-12,6-12,12v28C630.5,102,636.5,108,642.5,108"/>
		<text transform="matrix(1 0 0 1 656.4893 67.2)" class="st1 st2">sass</text>
	</g>
	<g id="clust2">
		<path class="st0" d="M412,210h147.5c6,0,12-6,12-12V50c0-6-6-12-12-12H412c-6,0-12,6-12,12v148C400,204,406,210,412,210"/>
		<text transform="matrix(1 0 0 1 475.2471 49.2)" class="st1 st2">page</text>
	</g>
	<g id="clust3">
		<path class="st0" d="M491.5,176h60c6,0,12-6,12-12v-28c0-6-6-12-12-12h-60c-6,0-12,6-12,12v28C479.5,170,485.5,176,491.5,176"/>
		<text transform="matrix(1 0 0 1 500.248 135.2)" class="st1 st2">animation</text>
	</g>
	<g id="node1">
		<g id="a_node1">
			<a xlink:href="src/index.js" >
				<path class="st3" d="M542.5,218h-42c-3,0-6,3-6,6v6c0,3,3,6,6,6h42c3,0,6-3,6-6v-6C548.5,221,545.5,218,542.5,218"/>
				<text transform="matrix(1 0 0 1 505.5 229.2)" class="st4 st2">index.js</text>
			</a>
		</g>
	</g>
	<g id="node2">
		<g id="a_node2">
			<a xlink:href="src/page/Page1.js" >
				<path class="st3" d="M542.5,184h-42c-3,0-6,3-6,6v6c0,3,3,6,6,6h42c3,0,6-3,6-6v-6C548.5,187,545.5,184,542.5,184"/>
				<text transform="matrix(1 0 0 1 503 195.2)" class="st4 st2">Page1.js</text>
			</a>
		</g>
	</g>
	<g id="edge1">
		<path class="st5" d="M521.5,218c0-0.5,0-1,0-1.5"/>
		<polygon class="st6" points="519.4,208.4 521.5,202.4 523.6,208.4 		"/>
		<line class="st5" x1="521.5" y1="208.4" x2="521.5" y2="211.4"/>
		<ellipse class="st5" cx="521.5" cy="213.8" rx="2.4" ry="2.4"/>
	</g>
	<g id="node3">
		<g id="a_node3">
			<a xlink:href="src/page/Page2.js" >
				<path class="st3" d="M456,94h-42c-3,0-6,3-6,6v6c0,3,3,6,6,6h42c3,0,6-3,6-6v-6C462,97,459,94,456,94"/>
				<text transform="matrix(1 0 0 1 416.5 105.2)" class="st4 st2">Page2.js</text>
			</a>
		</g>
	</g>
	<g id="edge2">
		<path class="st5" d="M496.4,218c-6.4-2.3-12.7-5.6-16.9-11c-11.3-14.4,0.2-62-10.5-90.8"/>
		<polygon class="st6" points="463.2,110.3 462.1,104.1 466.9,108.2 		"/>
		<line class="st5" x1="465" y1="109.3" x2="466.5" y2="111.9"/>
		<ellipse class="st5" cx="467.7" cy="114" rx="2.4" ry="2.4"/>
	</g>
	<g id="node4">
		<g id="a_node4">
			<a xlink:href="src/page/Page3.js" >
				<path class="st3" d="M456,184h-42c-3,0-6,3-6,6v6c0,3,3,6,6,6h42c3,0,6-3,6-6v-6C462,187,459,184,456,184"/>
				<text transform="matrix(1 0 0 1 416.5 195.2)" class="st4 st2">Page3.js</text>
			</a>
		</g>
	</g>
	<g id="edge3">
		<path class="st5" d="M505.1,217.9c-8-2.9-17.6-6.3-25.6-10.9c-2.2-1.3-3.1-2.5-5.6-4.4"/>
		<polygon class="st6" points="466.1,200.3 462.1,195.3 468.3,196.7 		"/>
		<line class="st5" x1="467.2" y1="198.5" x2="469.8" y2="200.1"/>
		<ellipse class="st5" cx="471.8" cy="201.3" rx="2.4" ry="2.4"/>
	</g>
	<g id="node5">
		<g id="a_node5">
			<a xlink:href="src/page/Page4.js" >
				<path class="st3" d="M456,154h-42c-3,0-6,3-6,6v6c0,3,3,6,6,6h42c3,0,6-3,6-6v-6C462,157,459,154,456,154"/>
				<text transform="matrix(1 0 0 1 416.5 165.2)" class="st4 st2">Page4.js</text>
			</a>
		</g>
	</g>
	<g id="edge4">
		<path class="st5" d="M497.7,217.9c-6.7-2.3-13.5-5.6-18.2-10.9c-8.5-9.4-2-18.3-9-31.4"/>
		<polygon class="st6" points="464,170.6 462,164.6 467.4,168.1 		"/>
		<line class="st5" x1="465.7" y1="169.3" x2="467.5" y2="171.7"/>
		<ellipse class="st5" cx="469" cy="173.6" rx="2.4" ry="2.4"/>
	</g>
	<g id="node6">
		<g id="a_node6">
			<a xlink:href="src/page/Page5.js" >
				<path class="st3" d="M456,124h-42c-3,0-6,3-6,6v6c0,3,3,6,6,6h42c3,0,6-3,6-6v-6C462,127,459,124,456,124"/>
				<text transform="matrix(1 0 0 1 416.5 135.2)" class="st4 st2">Page5.js</text>
			</a>
		</g>
	</g>
	<g id="edge5">
		<path class="st5" d="M496.5,217.9c-6.4-2.3-12.8-5.6-17-10.9c-16-19.7,3.1-36.8-9.4-61.2"/>
		<polygon class="st6" points="464,140.5 462.3,134.4 467.4,138.1 		"/>
		<line class="st5" x1="465.7" y1="139.3" x2="467.4" y2="141.8"/>
		<ellipse class="st5" cx="468.8" cy="143.8" rx="2.4" ry="2.4"/>
	</g>
	<g id="node7">
		<g id="a_node7">
			<a xlink:href="src/page/Page6.js" >
				<path class="st3" d="M456,64h-42c-3,0-6,3-6,6v6c0,3,3,6,6,6h42c3,0,6-3,6-6v-6C462,67,459,64,456,64"/>
				<text transform="matrix(1 0 0 1 416.5 75.2)" class="st4 st2">Page6.js</text>
			</a>
		</g>
	</g>
	<g id="edge6">
		<path class="st5" d="M495.9,217.9c-6.3-2.3-12.4-5.6-16.4-10.9c-15-19.6,3-84.9-10.5-120.8"/>
		<polygon class="st6" points="463.2,80.3 462.1,74 466.9,78.2 		"/>
		<line class="st5" x1="465.1" y1="79.3" x2="466.5" y2="81.9"/>
		<ellipse class="st5" cx="467.7" cy="84" rx="2.4" ry="2.4"/>
	</g>
	<g id="node8">
		<g id="a_node8">
			<a xlink:href="src/reportWebVitals.js" >
				<path class="st3" d="M706.5,218h-80c-3,0-6,3-6,6v6c0,3,3,6,6,6h80c3,0,6-3,6-6v-6C712.5,221,709.5,218,706.5,218"/>
				<text transform="matrix(1 0 0 1 628.5 229.2)" class="st4 st2">reportWebVitals.js</text>
			</a>
		</g>
	</g>
	<g id="edge7">
		<path class="st5" d="M548.7,227c18.3,0,43.3,0,65.4,0"/>
		<polygon class="st6" points="614.3,224.9 620.3,227 614.3,229.1 		"/>
	</g>
	<g id="edge8">
		<path class="st5" d="M521.5,202.4c0,0.5,0,1,0,1.5"/>
		<polygon class="st6" points="523.6,212 521.5,218 519.4,212 		"/>
		<line class="st5" x1="521.5" y1="212" x2="521.5" y2="209"/>
		<ellipse class="st5" cx="521.5" cy="206.6" rx="2.4" ry="2.4"/>
	</g>
	<g id="node9">
		<g id="a_node9">
			<a xlink:href="src/resources/sass/App.sass" >
				<path class="st3" d="M688.5,82h-44c-3,0-6,3-6,6v6c0,3,3,6,6,6h44c3,0,6-3,6-6v-6C694.5,85,691.5,82,688.5,82"/>
				<text transform="matrix(1 0 0 1 646.5 93.2)" class="st4 st2">App.sass</text>
			</a>
		</g>
	</g>
	<g id="edge9">
		<path class="st5" d="M548.5,191.2c8.5-1.9,17.2-5.5,23-12.2c19.2-22.5-11.5-43.8,8-66c13-14.8,34.4-20.3,52.6-22.1"/>
		<polygon class="st6" points="632,88.8 638.1,90.4 632.3,93 		"/>
	</g>
	<g id="edge10">
		<path class="st5" d="M454,112.1c6.5,2.6,13.4,6.2,17.5,11.9c12.4,17.1-5,78.3,8,95c0.8,1,1.7,2,2.7,2.9"/>
		<polygon class="st6" points="490.1,224 494.3,228.8 488,227.6 		"/>
		<line class="st5" x1="489" y1="225.8" x2="486.4" y2="224.3"/>
		<ellipse class="st5" cx="484.4" cy="223.1" rx="2.4" ry="2.4"/>
	</g>
	<g id="edge14">
		<path class="st5" d="M462.3,110.3c3.5,2,6.8,4.5,9.2,7.7c16.6,21.8-9.3,39.8,8,61c0.8,1,1.8,2,2.7,2.8"/>
		<polygon class="st6" points="490.3,184 494.4,188.9 488.2,187.7 		"/>
		<line class="st5" x1="489.2" y1="185.9" x2="486.6" y2="184.4"/>
		<ellipse class="st5" cx="484.5" cy="183.2" rx="2.4" ry="2.4"/>
	</g>
	<g id="edge12">
		<path class="st5" d="M462.3,94.7c3.4-1.8,6.6-4,9.2-6.7c6.5-6.5,0.4-13.9,8-19c50.1-33.3,125-6.9,162.6,10.2"/>
		<polygon class="st6" points="643.3,77.4 647.8,81.9 641.5,81.2 		"/>
	</g>
	<g id="node10">
		<g id="a_node10">
			<a xlink:href="src/resources/css/characters_threeLittlePigs.css" >
				<path class="st3" d="M731.5,142h-130c-3,0-6,3-6,6v6c0,3,3,6,6,6h130c3,0,6-3,6-6v-6C737.5,145,734.5,142,731.5,142"/>
				<text transform="matrix(1 0 0 1 603.5 153.2)" class="st4 st2">characters_threeLittlePigs.css</text>
			</a>
		</g>
	</g>
	<g id="edge11">
		<path class="st5" d="M462.2,105.1c27.5,2.5,71.8,7.5,109.3,15.9c21.6,4.8,45.4,12.5,63.6,18.8"/>
		<polygon class="st6" points="636.1,137.9 641.1,141.9 634.7,141.9 		"/>
	</g>
	<g id="node11">
		<g id="a_node11">
			<a xlink:href="src/page/animation/animation.js" >
				<path class="st3" d="M549.5,150h-56c-3,0-6,3-6,6v6c0,3,3,6,6,6h56c3,0,6-3,6-6v-6C555.5,153,552.5,150,549.5,150"/>
				<text transform="matrix(1 0 0 1 495.5 161.2)" class="st4 st2">animation.js</text>
			</a>
		</g>
	</g>
	<g id="edge13">
		<path class="st5" d="M462.2,110.8c3.5,1.9,6.7,4.3,9.3,7.2c6.3,7.1,2.8,13.9,7.2,23"/>
		<polygon class="st6" points="485.3,145.9 487.4,151.9 482,148.5 		"/>
		<line class="st5" x1="483.7" y1="147.2" x2="481.8" y2="144.8"/>
		<ellipse class="st5" cx="480.3" cy="143" rx="2.4" ry="2.4"/>
	</g>
	<g id="edge15">
		<path class="st5" d="M449.7,202.1c6.8,2.8,15.1,5.9,21.8,9.9c4.1,2.4,3.9,4.6,8,7c0.6,0.3,1.1,0.6,1.7,1"/>
		<polygon class="st6" points="489.6,221.3 494.2,225.6 487.9,225.1 		"/>
		<line class="st5" x1="488.7" y1="223.2" x2="486" y2="222"/>
		<ellipse class="st5" cx="483.8" cy="221.1" rx="2.4" ry="2.4"/>
	</g>
	<g id="edge16">
		<path class="st5" d="M462.3,185.7c3.5-2,6.8-4.5,9.2-7.7c15.6-20.3-10.3-39.1,8-57c14.7-14.4,71.7-7.7,92-11
			c20.4-3.3,43.1-7.8,61-11.7"/>
		<polygon class="st6" points="632.2,96.3 638.5,97.1 633,100.4 		"/>
	</g>
	<g id="edge17">
		<path class="st5" d="M452.9,172.1c6.7,2.7,13.9,6.3,18.6,11.9c10.2,12.2-2.7,23.1,8,35c0.7,0.8,1.5,1.6,2.4,2.3"/>
		<polygon class="st6" points="490.1,223.5 494.3,228.3 488,227.2 		"/>
		<line class="st5" x1="489.1" y1="225.3" x2="486.4" y2="223.9"/>
		<ellipse class="st5" cx="484.3" cy="222.7" rx="2.4" ry="2.4"/>
	</g>
	<g id="edge18">
		<path class="st5" d="M462.1,155.5c3.6-2,6.9-4.4,9.4-7.5c10.7-12.9-4.5-25.8,8-37c11.1-10,102-15.9,152.5-18.5"/>
		<polygon class="st6" points="632.1,90.4 638.2,92.2 632.3,94.6 		"/>
	</g>
	<g id="edge19">
		<path class="st5" d="M453.5,142c6.6,2.6,13.6,6.2,18,12c17.5,23.2-10.4,42.4,8,65c0.8,1,1.7,2,2.7,2.9"/>
		<polygon class="st6" points="490.2,223.9 494.4,228.7 488.1,227.6 		"/>
		<line class="st5" x1="489.2" y1="225.8" x2="486.5" y2="224.3"/>
		<ellipse class="st5" cx="484.5" cy="223.1" rx="2.4" ry="2.4"/>
	</g>
	<g id="edge21">
		<path class="st5" d="M462.3,140.8c3.5,1.9,6.7,4.3,9.2,7.2c9.3,10.8-1.7,20.6,8,31c0.9,0.9,1.8,1.8,2.8,2.6"/>
		<polygon class="st6" points="490.2,183.6 494.4,188.4 488.1,187.3 		"/>
		<line class="st5" x1="489.1" y1="185.4" x2="486.5" y2="184"/>
		<ellipse class="st5" cx="484.4" cy="182.8" rx="2.4" ry="2.4"/>
	</g>
	<g id="edge20">
		<path class="st5" d="M462,125c3.5-1.9,6.8-4.2,9.5-7c6.9-7.2-0.1-15.2,8-21C524.3,65,591.9,73,632,81.8"/>
		<polygon class="st6" points="632.9,79.9 638.2,83.3 631.9,84 		"/>
	</g>
	<g id="edge22">
		<path class="st5" d="M454,82c6.6,2.6,13.3,6.2,17.5,12c16.1,22.7-8.9,102.9,8,125c0.8,1.1,1.7,2,2.6,2.9"/>
		<polygon class="st6" points="490,224 494.2,228.8 487.9,227.7 		"/>
		<line class="st5" x1="489" y1="225.9" x2="486.4" y2="224.4"/>
		<ellipse class="st5" cx="484.3" cy="223.2" rx="2.4" ry="2.4"/>
	</g>
	<g id="edge26">
		<path class="st5" d="M462.1,80c3.7,2,7,4.6,9.4,8c12,16.4-4.5,75,8,91c0.8,1,1.7,2,2.7,2.9"/>
		<polygon class="st6" points="490.1,184.1 494.3,189 488,187.8 		"/>
		<line class="st5" x1="489.1" y1="185.9" x2="486.5" y2="184.4"/>
		<ellipse class="st5" cx="484.4" cy="183.2" rx="2.4" ry="2.4"/>
	</g>
	<g id="edge24">
		<path class="st5" d="M444.7,63.9c8.2-7.8,21.1-18.4,34.8-22.9c38.8-12.8,52.3-9.9,92,0c28.8,7.2,58.4,25,76.5,37.3"/>
		<polygon class="st6" points="649.5,76.8 653.2,81.9 647.1,80.2 		"/>
	</g>
	<g id="edge23">
		<path class="st5" d="M462,79.2c27.5,6.8,72,18.6,109.5,31.8c24,8.4,50.5,19.9,69.3,28.4"/>
		<polygon class="st6" points="641.8,137.6 646.3,142 640,141.4 		"/>
	</g>
	<g id="edge25">
		<path class="st5" d="M462.3,80.3c3.5,2,6.8,4.5,9.2,7.7c13.4,17.5-2.2,32.7,7.8,53"/>
		<polygon class="st6" points="485.7,146.3 487.5,152.4 482.3,148.8 		"/>
		<line class="st5" x1="484" y1="147.5" x2="482.2" y2="145.1"/>
		<ellipse class="st5" cx="480.8" cy="143.1" rx="2.4" ry="2.4"/>
	</g>
	<g id="edge27">
		<path class="st5" d="M487.2,165.1c-5.4,2.8-9.9,6.9-11.7,12.9c-3.7,12.3-3.7,16.7,0,29c0.9,3.1,1.5,4.1,4,6c0.7,0.5,1.4,1,2.1,1.5
			"/>
		<polygon class="st6" points="490,216.4 494.4,220.9 488.1,220.1 		"/>
		<line class="st5" x1="489" y1="218.2" x2="486.4" y2="216.9"/>
		<ellipse class="st5" cx="484.2" cy="215.8" rx="2.4" ry="2.4"/>
	</g>
	<g id="edge28">
		<path class="st5" d="M555.7,157.1c10.1-0.6,21.7-1.2,33.4-1.9"/>
		<polygon class="st6" points="589.2,153.2 595.3,154.9 589.4,157.4 		"/>
	</g>
	<g id="node12">
		<g id="a_node12">
			<a xlink:href="src/setupTests.js" >
				<path class="st7" d="M465.5,218h-61c-3,0-6,3-6,6v6c0,3,3,6,6,6h61c3,0,6-3,6-6v-6C471.5,221,468.5,218,465.5,218"/>
				<text transform="matrix(1 0 0 1 406.5 229.2)" class="st4 st2">setupTests.js</text>
			</a>
		</g>
	</g>
	<text transform="matrix(1 0 0 1 443.4915 -12.0076)" class="st1 st2">client</text>
	<g id="clust4_00000113353685291349586940000000914688545768637826_">
		<path class="st0" d="M147.1,146.1h134.6c5.4,0,10.8-5.8,10.8-11.5V17.5c0-5.8-5.4-11.5-10.8-11.5H147.1c-5.4,0-10.8,5.8-10.8,11.5
			v117.1C136.3,140.3,141.7,146.1,147.1,146.1"/>
		<text transform="matrix(1 0 0 1 200.1376 17.2861)" class="st1 st2">dataset</text>
		<g id="node10_00000041298004071776960690000006500599251918406830_">
			<g id="a_node10_00000168827066955334298600000014995272590438449303_">
				<a xlink:href="src/resources/css/characters_threeLittlePigs.css" >
					<path class="st3" d="M251.2,36.9H149.1c-2.4,0-4.7,3-4.7,6v6c0,3,2.4,6,4.7,6h102.1c2.4,0,4.7-3,4.7-6v-6
						C255.9,39.9,253.5,36.9,251.2,36.9"/>
					<text transform="matrix(1 0 0 1 152.3861 48.1293)" class="st4 st2">dataset_hearStory.json</text>
				</a>
			</g>
		</g>
		<g id="node10_00000024716723313643166400000003019324913696581543_">
			<g id="a_node10_00000094606249954270737600000012169819158394883985_">
				<a xlink:href="src/resources/css/characters_threeLittlePigs.css" >
					<path class="st3" d="M251.2,64.9H149.1c-2.4,0-4.7,3-4.7,6v6c0,3,2.4,6,4.7,6h102.1c2.4,0,4.7-3,4.7-6v-6
						C255.9,67.9,253.5,64.9,251.2,64.9"/>
					<text transform="matrix(1 0 0 1 152.3861 76.1093)" class="st4 st2">dataset_intro.json</text>
				</a>
			</g>
		</g>
		<g id="node10_00000083083868416966582840000003514338456753605252_">
			<g id="a_node10_00000023282203941736854800000013049003232971305117_">
				<a xlink:href="src/resources/css/characters_threeLittlePigs.css" >
					<path class="st3" d="M268,92.8H149.8c-2.7,0-5.5,3-5.5,6v6c0,3,2.7,6,5.5,6H268c2.7,0,5.5-3,5.5-6v-6
						C273.4,95.8,270.7,92.8,268,92.8"/>
					<text transform="matrix(1 0 0 1 152.3861 104.0293)" class="st4 st2">dataset_joinTellingStory.json</text>
				</a>
			</g>
		</g>
		<g id="node10_00000045580244411707827660000015099413999581704071_">
			<g id="a_node10_00000152952053839420550240000008164353730650814135_">
				<a xlink:href="src/resources/css/characters_threeLittlePigs.css" >
					<path class="st3" d="M277.5,120.8H150.3c-2.9,0-5.9,3-5.9,6v6c0,3,2.9,6,5.9,6h127.2c2.9,0,5.9-3,5.9-6v-6
						C283.4,123.8,280.4,120.8,277.5,120.8"/>
					<text transform="matrix(1 0 0 1 152.3861 132.0093)" class="st4 st2">dataset_tellYourOwnStory.json</text>
				</a>
			</g>
		</g>
	</g>
	<g id="node1_00000111895583160326801650000015965049653756107695_">
		<g id="a_node1_00000045593107560775713110000007079644816485176476_">
			<a xlink:href="src/index.js" >
				<path class="st3" d="M363.9,75h-42c-3,0-6,3-6,6v6c0,3,3,6,6,6h42c3,0,6-3,6-6v-6C369.9,78,366.9,75,363.9,75"/>
				<text transform="matrix(1 0 0 1 326.8887 86.18)" class="st4 st2">server.js</text>
			</a>
		</g>
	</g>
	<g class="st8">
		<g>
			<g>
				<path class="st9" d="M300.8,74.3l-1.2,2.8c5,0.7,9.9,1.2,14.9,1.5c-4.1-2.7-8.1-5.6-11.9-8.5l-1.2,2.8l-1-0.4
					c-1.1-0.5-2.2-1-3.3-1.5c-1.1-0.5-2.2-1-3.3-1.5c-4.4-2.1-8.7-4.3-12.9-6.8c-8.4-4.9-16.4-10.4-23.8-16.6l-1,1.2
					c7.6,6.2,15.6,11.8,24.1,16.7c4.2,2.5,8.6,4.7,13,6.8c1.1,0.5,2.2,1.1,3.3,1.5c1.1,0.5,2.2,1,3.4,1.5L300.8,74.3z"/>
			</g>
		</g>
	</g>
	<g class="st8">
		<g>
			<g>
				<path class="st9" d="M295.8,84l-0.3,3c5-0.8,9.9-1.8,14.7-3c-4.8-1.3-9.4-2.9-13.9-4.6l-0.3,3l-1.1-0.1
					c-1.8-0.2-3.7-0.4-5.5-0.7c-3.6-0.5-7.3-1.1-10.9-1.7c-7.2-1.3-14.4-3.1-21.3-5.4l-0.5,1.5c7.1,2.3,14.3,4.1,21.6,5.4
					c3.6,0.7,7.3,1.3,11,1.8c1.8,0.2,3.7,0.5,5.5,0.7L295.8,84z"/>
			</g>
		</g>
	</g>
	<g class="st8">
		<g>
			<g>
				<path class="st9" d="M298.9,95.3l1,2.9c4.2-2.7,8.3-5.7,12.2-8.7c-4.9,0.7-9.7,1.2-14.6,1.5l1,2.9l-1,0.3
					c-1.1,0.3-2.2,0.7-3.3,1c-2.2,0.7-4.4,1.3-6.6,1.8c-4.4,1.1-8.9,2-13.4,2.7l0.2,1.6c4.6-0.7,9.1-1.6,13.5-2.8
					c2.2-0.6,4.5-1.2,6.7-1.8c1.1-0.3,2.2-0.7,3.3-1L298.9,95.3z"/>
			</g>
		</g>
	</g>
	<g class="st8">
		<g>
			<g>
				<path class="st9" d="M309.1,105.3l2.2,2.1c2.4-4.4,4.6-8.9,6.5-13.5c-3.9,3-8,5.7-12.1,8.2l2.2,2.1l-0.8,0.8c-1,1-1.9,2-2.9,3
					c-2,2-4,3.9-6.1,5.7c-4.2,3.7-8.5,7.2-13.1,10.4l0.9,1.3c4.6-3.2,9-6.7,13.2-10.5c2.1-1.9,4.2-3.8,6.2-5.8c1-1,2-2,3-3
					L309.1,105.3z"/>
			</g>
		</g>
	</g>
	<g class="st8">
		<g>
			<g>
				<path class="st9" d="M390.9,94.2l-1.2,2.8c5,0.8,9.9,1.4,14.8,1.9c-4-2.8-7.9-5.8-11.7-8.9l-1.2,2.8l-3.7-1.7
					c-1.8-0.9-3.6-1.7-5.5-2.7c-3.6-1.8-7.2-3.8-10.6-5.8l-0.8,1.4c3.5,2.1,7.1,4,10.7,5.9c1.8,0.9,3.7,1.8,5.5,2.7L390.9,94.2z"/>
			</g>
		</g>
	</g>
	<g class="st8">
		<g>
			<g>
				<path class="st9" d="M391.8,73.4l0.3,3c4.4-1.8,9.1-3.3,13.8-4.6c-4.8-1.3-9.7-2.3-14.7-3l0.3,3l-1.1,0.1l-2.9,0.4
					c-1.9,0.3-3.9,0.6-5.8,1c-3.8,0.7-7.6,1.6-11.4,1.5l0,1.6c4.1,0.1,8-0.8,11.8-1.6c1.9-0.4,3.8-0.7,5.7-1l2.9-0.4L391.8,73.4z"/>
			</g>
		</g>
	</g>
</g>
</svg>
