<svg width="140" height="134" viewBox="0 0 140 134" fill="none" xmlns="http://www.w3.org/2000/svg">
<g filter="url(#filter0_d_1318_247)">
<path d="M66.2876 2.09655C29.5175 4.35227 3.77635 27.1091 6.15184 69.5185C8.52733 111.928 41.5646 128.127 65.0999 126.939C88.6352 125.752 131.344 113.834 134.348 70.2372C137.353 26.6399 97.4285 0.190174 66.2876 2.09655V2.09655Z" fill="white"/>
<path d="M66.2876 2.09655C29.5175 4.35227 3.77635 27.1091 6.15184 69.5185C8.52733 111.928 41.5646 128.127 65.0999 126.939C88.6352 125.752 131.344 113.834 134.348 70.2372C137.353 26.6399 97.4285 0.190174 66.2876 2.09655V2.09655Z" stroke="#E3E3E3" stroke-width="3" stroke-miterlimit="10"/>
</g>
<path d="M68.0942 11.6985C36.1848 13.6448 13.8472 33.3574 15.9033 70.0676C17.9594 106.778 46.635 120.811 67.0562 119.783C87.4774 118.755 124.547 108.435 127.152 70.6865C129.757 32.9382 95.1129 10.0416 68.0842 11.6985H68.0942Z" fill="url(#paint0_linear_1318_247)" stroke="#C56DAE" stroke-width="5" stroke-miterlimit="10"/>
<g filter="url(#filter1_d_1318_247)">
<path d="M109.086 39.5153C106.002 40.9925 106.561 44.6655 108.877 48.3784C111.192 52.0914 115.973 51.3029 116.882 49.2268C117.79 47.1508 117.281 44.386 115.933 42.3798C114.586 40.3736 112.071 38.088 109.086 39.5153V39.5153Z" fill="white"/>
</g>
<g filter="url(#filter2_d_1318_247)">
<path d="M101.93 26.2008C97.5981 22.0287 93.0967 18.7449 89.0144 22.0287C85.4412 24.9132 88.196 31.86 92.4878 36.2517C96.7797 40.6433 102.169 40.6932 105.154 38.4775C108.138 36.2617 107.529 31.5905 101.93 26.2008V26.2008Z" fill="white"/>
</g>
<g filter="url(#filter3_d_1318_247)">
<path d="M71.7038 31.9099C64.9567 31.85 53.7579 40.783 45.7132 46.5521C37.6685 52.3211 34.3648 56.2437 33.9555 64.9072C33.5463 73.5708 47.9789 80.2082 57.4709 88.5423C66.9629 96.8765 74.3888 98.3238 74.5884 91.9259C74.788 85.5281 74.5884 77.9025 74.5884 77.9025H85.318C85.318 77.9025 96.6665 80.5276 96.6665 68.9995C96.6665 57.4713 96.6665 60.1562 96.6665 60.1562C96.6665 60.1562 96.8761 51.7023 88.4121 51.0835C79.9482 50.4647 75.4168 51.0835 75.4168 51.0835V37.4693C75.4168 37.4693 75.7062 31.9398 71.7038 31.8999V31.9099Z" fill="white"/>
</g>
<defs>
<filter id="filter0_d_1318_247" x="0.5" y="0.5" width="139.509" height="136" filterUnits="userSpaceOnUse" color-interpolation-filters="sRGB">
<feFlood flood-opacity="0" result="BackgroundImageFix"/>
<feColorMatrix in="SourceAlpha" type="matrix" values="0 0 0 0 0 0 0 0 0 0 0 0 0 0 0 0 0 0 127 0" result="hardAlpha"/>
<feOffset dy="4"/>
<feGaussianBlur stdDeviation="2"/>
<feComposite in2="hardAlpha" operator="out"/>
<feColorMatrix type="matrix" values="0 0 0 0 0 0 0 0 0 0 0 0 0 0 0 0 0 0 0.25 0"/>
<feBlend mode="normal" in2="BackgroundImageFix" result="effect1_dropShadow_1318_247"/>
<feBlend mode="normal" in="SourceGraphic" in2="effect1_dropShadow_1318_247" result="shape"/>
</filter>
<filter id="filter1_d_1318_247" x="102.955" y="39.0698" width="18.3848" height="19.9038" filterUnits="userSpaceOnUse" color-interpolation-filters="sRGB">
<feFlood flood-opacity="0" result="BackgroundImageFix"/>
<feColorMatrix in="SourceAlpha" type="matrix" values="0 0 0 0 0 0 0 0 0 0 0 0 0 0 0 0 0 0 127 0" result="hardAlpha"/>
<feOffset dy="4"/>
<feGaussianBlur stdDeviation="2"/>
<feComposite in2="hardAlpha" operator="out"/>
<feColorMatrix type="matrix" values="0 0 0 0 0 0 0 0 0 0 0 0 0 0 0 0 0 0 0.25 0"/>
<feBlend mode="normal" in2="BackgroundImageFix" result="effect1_dropShadow_1318_247"/>
<feBlend mode="normal" in="SourceGraphic" in2="effect1_dropShadow_1318_247" result="shape"/>
</filter>
<filter id="filter2_d_1318_247" x="83.3711" y="20.6899" width="27.552" height="27.2271" filterUnits="userSpaceOnUse" color-interpolation-filters="sRGB">
<feFlood flood-opacity="0" result="BackgroundImageFix"/>
<feColorMatrix in="SourceAlpha" type="matrix" values="0 0 0 0 0 0 0 0 0 0 0 0 0 0 0 0 0 0 127 0" result="hardAlpha"/>
<feOffset dy="4"/>
<feGaussianBlur stdDeviation="2"/>
<feComposite in2="hardAlpha" operator="out"/>
<feColorMatrix type="matrix" values="0 0 0 0 0 0 0 0 0 0 0 0 0 0 0 0 0 0 0.25 0"/>
<feBlend mode="normal" in2="BackgroundImageFix" result="effect1_dropShadow_1318_247"/>
<feBlend mode="normal" in="SourceGraphic" in2="effect1_dropShadow_1318_247" result="shape"/>
</filter>
<filter id="filter3_d_1318_247" x="29.947" y="31.8999" width="70.72" height="72.0068" filterUnits="userSpaceOnUse" color-interpolation-filters="sRGB">
<feFlood flood-opacity="0" result="BackgroundImageFix"/>
<feColorMatrix in="SourceAlpha" type="matrix" values="0 0 0 0 0 0 0 0 0 0 0 0 0 0 0 0 0 0 127 0" result="hardAlpha"/>
<feOffset dy="4"/>
<feGaussianBlur stdDeviation="2"/>
<feComposite in2="hardAlpha" operator="out"/>
<feColorMatrix type="matrix" values="0 0 0 0 0 0 0 0 0 0 0 0 0 0 0 0 0 0 0.25 0"/>
<feBlend mode="normal" in2="BackgroundImageFix" result="effect1_dropShadow_1318_247"/>
<feBlend mode="normal" in="SourceGraphic" in2="effect1_dropShadow_1318_247" result="shape"/>
</filter>
<linearGradient id="paint0_linear_1318_247" x1="71.5314" y1="11.6143" x2="71.5314" y2="119.836" gradientUnits="userSpaceOnUse">
<stop stop-color="#E098BD"/>
<stop offset="0.375" stop-color="#CD609E"/>
<stop offset="1" stop-color="#93328E"/>
</linearGradient>
</defs>
</svg>
