<svg width="140" height="134" viewBox="0 0 140 134" fill="none" xmlns="http://www.w3.org/2000/svg">
<g filter="url(#filter0_d_1318_265)">
<path d="M66.2876 2.09655C29.5175 4.35227 3.77635 27.1091 6.15184 69.5185C8.52733 111.928 41.5646 128.127 65.0999 126.939C88.6352 125.752 131.344 113.834 134.348 70.2372C137.353 26.6399 97.4285 0.190174 66.2876 2.09655V2.09655Z" fill="white"/>
<path d="M66.2876 2.09655C29.5175 4.35227 3.77635 27.1091 6.15184 69.5185C8.52733 111.928 41.5646 128.127 65.0999 126.939C88.6352 125.752 131.344 113.834 134.348 70.2372C137.353 26.6399 97.4285 0.190174 66.2876 2.09655V2.09655Z" stroke="#E3E3E3" stroke-width="3" stroke-miterlimit="10"/>
</g>
<path d="M68.0942 11.6985C36.1848 13.6448 13.8472 33.3574 15.9033 70.0676C17.9594 106.778 46.635 120.811 67.0562 119.783C87.4774 118.755 124.547 108.435 127.152 70.6865C129.757 32.9382 95.1129 10.0416 68.0842 11.6985H68.0942Z" fill="url(#paint0_linear_1318_265)" stroke="#E3494B" stroke-width="5" stroke-miterlimit="10"/>
<g filter="url(#filter1_d_1318_265)">
<path d="M109.086 39.5153C106.002 40.9925 106.561 44.6655 108.877 48.3784C111.192 52.0914 115.973 51.3029 116.882 49.2268C117.79 47.1508 117.281 44.386 115.933 42.3798C114.586 40.3736 112.071 38.088 109.086 39.5153V39.5153Z" fill="white"/>
</g>
<g filter="url(#filter2_d_1318_265)">
<path d="M101.93 26.2008C97.5981 22.0287 93.0967 18.7449 89.0144 22.0287C85.4412 24.9132 88.196 31.86 92.4878 36.2517C96.7797 40.6433 102.169 40.6932 105.154 38.4775C108.138 36.2617 107.529 31.5905 101.93 26.2008V26.2008Z" fill="white"/>
</g>
<g filter="url(#filter3_d_1318_265)">
<path d="M69.4531 30H67.5965C60.0511 30 53.9343 36.2396 53.9343 43.9366V67.0145C53.9343 74.7114 60.0511 80.951 67.5965 80.951H69.4531C76.9985 80.951 83.1153 74.7114 83.1153 67.0145V43.9366C83.1153 36.2396 76.9985 30 69.4531 30Z" fill="white"/>
<path d="M78.3545 96.311H58.5308C57.2258 96.311 56.168 97.5891 56.168 99.1658C56.168 100.742 57.2258 102.02 58.5308 102.02H78.3545C79.6595 102.02 80.7173 100.742 80.7173 99.1658C80.7173 97.5891 79.6595 96.311 78.3545 96.311Z" fill="white"/>
<path d="M68.0176 93.1303C55.3324 93.1303 45 82.6187 45 69.6878C45 68.3572 45.9011 67.2686 47.0024 67.2686C48.1037 67.2686 49.0048 68.3572 49.0048 69.6878C49.0048 79.9454 57.535 88.2918 68.0176 88.2918C78.5001 88.2918 87.0303 79.9454 87.0303 69.6878C87.0303 68.3572 87.9314 67.2686 89.0327 67.2686C90.134 67.2686 91.0351 68.3572 91.0351 69.6878C91.0351 82.6066 80.7128 93.1303 68.0176 93.1303Z" fill="white"/>
</g>
<defs>
<filter id="filter0_d_1318_265" x="0.5" y="0.5" width="139.509" height="136" filterUnits="userSpaceOnUse" color-interpolation-filters="sRGB">
<feFlood flood-opacity="0" result="BackgroundImageFix"/>
<feColorMatrix in="SourceAlpha" type="matrix" values="0 0 0 0 0 0 0 0 0 0 0 0 0 0 0 0 0 0 127 0" result="hardAlpha"/>
<feOffset dy="4"/>
<feGaussianBlur stdDeviation="2"/>
<feComposite in2="hardAlpha" operator="out"/>
<feColorMatrix type="matrix" values="0 0 0 0 0 0 0 0 0 0 0 0 0 0 0 0 0 0 0.25 0"/>
<feBlend mode="normal" in2="BackgroundImageFix" result="effect1_dropShadow_1318_265"/>
<feBlend mode="normal" in="SourceGraphic" in2="effect1_dropShadow_1318_265" result="shape"/>
</filter>
<filter id="filter1_d_1318_265" x="102.955" y="39.0698" width="18.3848" height="19.9038" filterUnits="userSpaceOnUse" color-interpolation-filters="sRGB">
<feFlood flood-opacity="0" result="BackgroundImageFix"/>
<feColorMatrix in="SourceAlpha" type="matrix" values="0 0 0 0 0 0 0 0 0 0 0 0 0 0 0 0 0 0 127 0" result="hardAlpha"/>
<feOffset dy="4"/>
<feGaussianBlur stdDeviation="2"/>
<feComposite in2="hardAlpha" operator="out"/>
<feColorMatrix type="matrix" values="0 0 0 0 0 0 0 0 0 0 0 0 0 0 0 0 0 0 0.25 0"/>
<feBlend mode="normal" in2="BackgroundImageFix" result="effect1_dropShadow_1318_265"/>
<feBlend mode="normal" in="SourceGraphic" in2="effect1_dropShadow_1318_265" result="shape"/>
</filter>
<filter id="filter2_d_1318_265" x="83.3711" y="20.6899" width="27.552" height="27.2271" filterUnits="userSpaceOnUse" color-interpolation-filters="sRGB">
<feFlood flood-opacity="0" result="BackgroundImageFix"/>
<feColorMatrix in="SourceAlpha" type="matrix" values="0 0 0 0 0 0 0 0 0 0 0 0 0 0 0 0 0 0 127 0" result="hardAlpha"/>
<feOffset dy="4"/>
<feGaussianBlur stdDeviation="2"/>
<feComposite in2="hardAlpha" operator="out"/>
<feColorMatrix type="matrix" values="0 0 0 0 0 0 0 0 0 0 0 0 0 0 0 0 0 0 0.25 0"/>
<feBlend mode="normal" in2="BackgroundImageFix" result="effect1_dropShadow_1318_265"/>
<feBlend mode="normal" in="SourceGraphic" in2="effect1_dropShadow_1318_265" result="shape"/>
</filter>
<filter id="filter3_d_1318_265" x="41" y="30" width="54.0352" height="80.0205" filterUnits="userSpaceOnUse" color-interpolation-filters="sRGB">
<feFlood flood-opacity="0" result="BackgroundImageFix"/>
<feColorMatrix in="SourceAlpha" type="matrix" values="0 0 0 0 0 0 0 0 0 0 0 0 0 0 0 0 0 0 127 0" result="hardAlpha"/>
<feOffset dy="4"/>
<feGaussianBlur stdDeviation="2"/>
<feComposite in2="hardAlpha" operator="out"/>
<feColorMatrix type="matrix" values="0 0 0 0 0 0 0 0 0 0 0 0 0 0 0 0 0 0 0.25 0"/>
<feBlend mode="normal" in2="BackgroundImageFix" result="effect1_dropShadow_1318_265"/>
<feBlend mode="normal" in="SourceGraphic" in2="effect1_dropShadow_1318_265" result="shape"/>
</filter>
<linearGradient id="paint0_linear_1318_265" x1="71.5314" y1="11.6143" x2="71.5314" y2="119.836" gradientUnits="userSpaceOnUse">
<stop stop-color="#E098BD"/>
<stop offset="0.0001" stop-color="#FE5453"/>
<stop offset="0.494792" stop-color="#F04444"/>
<stop offset="1" stop-color="#D9292B"/>
</linearGradient>
</defs>
</svg>
