<svg width="72" height="46" viewBox="0 0 72 46" fill="none" xmlns="http://www.w3.org/2000/svg">
<rect width="72" height="46" rx="5" fill="#00CAFF"/>
<path d="M8.96805 19.483C9.43271 19.483 9.88605 19.551 10.328 19.687C10.7814 19.8117 11.1724 20.0043 11.501 20.265C11.841 20.0383 12.2207 19.8513 12.64 19.704C13.0707 19.5567 13.5864 19.483 14.187 19.483C14.6177 19.483 15.037 19.5397 15.445 19.653C15.8644 19.7663 16.2327 19.9477 16.55 20.197C16.8787 20.435 17.1394 20.758 17.332 21.166C17.5247 21.5627 17.621 22.05 17.621 22.628V27.983C17.5077 28.017 17.3264 28.051 17.077 28.085C16.839 28.119 16.5897 28.136 16.329 28.136C16.0797 28.136 15.853 28.119 15.649 28.085C15.4564 28.051 15.292 27.983 15.156 27.881C15.02 27.779 14.9124 27.643 14.833 27.473C14.765 27.2917 14.731 27.0593 14.731 26.776V22.713C14.731 22.373 14.6347 22.1293 14.442 21.982C14.2494 21.8233 13.9887 21.744 13.66 21.744C13.5014 21.744 13.3314 21.7837 13.15 21.863C12.9687 21.931 12.8327 22.0047 12.742 22.084C12.7534 22.1293 12.759 22.1747 12.759 22.22C12.759 22.254 12.759 22.288 12.759 22.322V27.983C12.6344 28.017 12.4474 28.051 12.198 28.085C11.96 28.119 11.7164 28.136 11.467 28.136C11.2177 28.136 10.991 28.119 10.787 28.085C10.5944 28.051 10.43 27.983 10.294 27.881C10.158 27.779 10.0504 27.643 9.97105 27.473C9.90305 27.2917 9.86905 27.0593 9.86905 26.776V22.713C9.86905 22.373 9.76138 22.1293 9.54605 21.982C9.34205 21.8233 9.09271 21.744 8.79805 21.744C8.59405 21.744 8.41838 21.778 8.27105 21.846C8.12371 21.9027 7.99905 21.9593 7.89705 22.016V27.983C7.78371 28.017 7.60238 28.051 7.35305 28.085C7.11505 28.119 6.86571 28.136 6.60505 28.136C6.35571 28.136 6.12905 28.119 5.92505 28.085C5.73238 28.051 5.56805 27.983 5.43205 27.881C5.29605 27.779 5.18838 27.643 5.10905 27.473C5.04105 27.2917 5.00705 27.0593 5.00705 26.776V21.642C5.00705 21.336 5.06938 21.0923 5.19405 20.911C5.33005 20.7297 5.51138 20.5597 5.73805 20.401C6.12338 20.129 6.59938 19.908 7.16605 19.738C7.74405 19.568 8.34471 19.483 8.96805 19.483ZM19.316 17.443C19.316 17.0123 19.4577 16.6497 19.741 16.355C20.0357 16.0603 20.421 15.913 20.897 15.913C21.373 15.913 21.7527 16.0603 22.036 16.355C22.3307 16.6497 22.478 17.0123 22.478 17.443C22.478 17.8737 22.3307 18.2363 22.036 18.531C21.7527 18.8257 21.373 18.973 20.897 18.973C20.421 18.973 20.0357 18.8257 19.741 18.531C19.4577 18.2363 19.316 17.8737 19.316 17.443ZM22.342 27.983C22.2173 28.0057 22.0303 28.034 21.781 28.068C21.543 28.1133 21.2993 28.136 21.05 28.136C20.8007 28.136 20.574 28.119 20.37 28.085C20.1773 28.051 20.013 27.983 19.877 27.881C19.741 27.779 19.6333 27.643 19.554 27.473C19.486 27.2917 19.452 27.0593 19.452 26.776V19.857C19.5767 19.8343 19.758 19.806 19.996 19.772C20.2453 19.7267 20.4947 19.704 20.744 19.704C20.9933 19.704 21.2143 19.721 21.407 19.755C21.611 19.789 21.781 19.857 21.917 19.959C22.053 20.061 22.155 20.2027 22.223 20.384C22.3023 20.554 22.342 20.7807 22.342 21.064V27.983ZM31.1519 25.535C31.1519 26.3963 30.8289 27.0707 30.1829 27.558C29.5369 28.0453 28.5849 28.289 27.3269 28.289C26.8509 28.289 26.4089 28.255 26.0009 28.187C25.5929 28.119 25.2415 28.017 24.9469 27.881C24.6635 27.7337 24.4369 27.5523 24.2669 27.337C24.1082 27.1217 24.0289 26.8667 24.0289 26.572C24.0289 26.3 24.0855 26.0733 24.1989 25.892C24.3122 25.6993 24.4482 25.5407 24.6069 25.416C24.9355 25.5973 25.3095 25.7617 25.7289 25.909C26.1595 26.045 26.6525 26.113 27.2079 26.113C27.5592 26.113 27.8255 26.062 28.0069 25.96C28.1995 25.858 28.2959 25.722 28.2959 25.552C28.2959 25.3933 28.2279 25.2687 28.0919 25.178C27.9559 25.0873 27.7292 25.0137 27.4119 24.957L26.9019 24.855C25.9159 24.6623 25.1792 24.362 24.6919 23.954C24.2159 23.5347 23.9779 22.9397 23.9779 22.169C23.9779 21.7497 24.0685 21.37 24.2499 21.03C24.4312 20.69 24.6862 20.4067 25.0149 20.18C25.3435 19.9533 25.7345 19.7777 26.1879 19.653C26.6525 19.5283 27.1625 19.466 27.7179 19.466C28.1372 19.466 28.5282 19.5 28.8909 19.568C29.2649 19.6247 29.5879 19.7153 29.8599 19.84C30.1319 19.9647 30.3472 20.129 30.5059 20.333C30.6645 20.5257 30.7439 20.758 30.7439 21.03C30.7439 21.2907 30.6929 21.5173 30.5909 21.71C30.5002 21.8913 30.3812 22.0443 30.2339 22.169C30.1432 22.1123 30.0072 22.0557 29.8259 21.999C29.6445 21.931 29.4462 21.8743 29.2309 21.829C29.0155 21.7723 28.7945 21.727 28.5679 21.693C28.3525 21.659 28.1542 21.642 27.9729 21.642C27.5989 21.642 27.3099 21.6873 27.1059 21.778C26.9019 21.8573 26.7999 21.9877 26.7999 22.169C26.7999 22.2937 26.8565 22.3957 26.9699 22.475C27.0832 22.5543 27.2985 22.628 27.6159 22.696L28.1429 22.815C29.2309 23.0643 30.0015 23.41 30.4549 23.852C30.9195 24.2827 31.1519 24.8437 31.1519 25.535ZM35.439 27.983C35.3257 28.017 35.1444 28.051 34.895 28.085C34.657 28.119 34.4077 28.136 34.147 28.136C33.8977 28.136 33.671 28.119 33.467 28.085C33.2744 28.051 33.11 27.983 32.974 27.881C32.838 27.779 32.7304 27.643 32.651 27.473C32.583 27.2917 32.549 27.0593 32.549 26.776V21.676C32.549 21.4153 32.5944 21.1943 32.685 21.013C32.787 20.8203 32.9287 20.6503 33.11 20.503C33.2914 20.3557 33.5124 20.2253 33.773 20.112C34.045 19.9873 34.334 19.8797 34.64 19.789C34.946 19.6983 35.2634 19.6303 35.592 19.585C35.9207 19.5283 36.2494 19.5 36.578 19.5C37.122 19.5 37.5527 19.6077 37.87 19.823C38.1874 20.027 38.346 20.367 38.346 20.843C38.346 21.0017 38.3234 21.1603 38.278 21.319C38.2327 21.4663 38.176 21.6023 38.108 21.727C37.87 21.727 37.6264 21.7383 37.377 21.761C37.1277 21.7837 36.884 21.8177 36.646 21.863C36.408 21.9083 36.1814 21.9593 35.966 22.016C35.762 22.0613 35.5864 22.118 35.439 22.186V27.983ZM43.5919 28.272C42.9232 28.272 42.2999 28.1813 41.7219 28C41.1552 27.8073 40.6565 27.524 40.2259 27.15C39.8065 26.776 39.4722 26.3057 39.2229 25.739C38.9849 25.1723 38.8659 24.5093 38.8659 23.75C38.8659 23.002 38.9849 22.3617 39.2229 21.829C39.4722 21.285 39.7952 20.843 40.1919 20.503C40.5885 20.1517 41.0419 19.8967 41.5519 19.738C42.0619 19.568 42.5832 19.483 43.1159 19.483C43.7165 19.483 44.2605 19.5737 44.7479 19.755C45.2465 19.9363 45.6715 20.1857 46.0229 20.503C46.3855 20.8203 46.6632 21.2 46.8559 21.642C47.0599 22.084 47.1619 22.5657 47.1619 23.087C47.1619 23.4723 47.0542 23.767 46.8389 23.971C46.6235 24.175 46.3232 24.3053 45.9379 24.362L41.7389 24.991C41.8635 25.365 42.1185 25.6483 42.5039 25.841C42.8892 26.0223 43.3312 26.113 43.8299 26.113C44.2945 26.113 44.7309 26.0563 45.1389 25.943C45.5582 25.8183 45.8982 25.6767 46.1589 25.518C46.3402 25.6313 46.4932 25.79 46.6179 25.994C46.7425 26.198 46.8049 26.4133 46.8049 26.64C46.8049 27.15 46.5669 27.5297 46.0909 27.779C45.7282 27.9717 45.3202 28.102 44.8669 28.17C44.4135 28.238 43.9885 28.272 43.5919 28.272ZM43.1159 21.591C42.8439 21.591 42.6059 21.6363 42.4019 21.727C42.2092 21.8177 42.0505 21.9367 41.9259 22.084C41.8012 22.22 41.7049 22.3787 41.6369 22.56C41.5802 22.73 41.5462 22.9057 41.5349 23.087L44.4419 22.611C44.4079 22.3843 44.2832 22.1577 44.0679 21.931C43.8525 21.7043 43.5352 21.591 43.1159 21.591ZM52.0889 26.164C52.2816 26.164 52.4913 26.147 52.7179 26.113C52.9559 26.0677 53.1316 26.011 53.2449 25.943V24.583L52.0209 24.685C51.7036 24.7077 51.4429 24.7757 51.2389 24.889C51.0349 25.0023 50.9329 25.1723 50.9329 25.399C50.9329 25.6257 51.0179 25.8127 51.1879 25.96C51.3693 26.096 51.6696 26.164 52.0889 26.164ZM51.9529 19.483C52.5649 19.483 53.1203 19.5453 53.6189 19.67C54.1289 19.7947 54.5596 19.9873 54.9109 20.248C55.2736 20.4973 55.5513 20.8203 55.7439 21.217C55.9366 21.6023 56.0329 22.0613 56.0329 22.594V26.402C56.0329 26.6967 55.9479 26.9403 55.7779 27.133C55.6193 27.3143 55.4266 27.473 55.1999 27.609C54.4633 28.051 53.4263 28.272 52.0889 28.272C51.4883 28.272 50.9443 28.2153 50.4569 28.102C49.9809 27.9887 49.5673 27.8187 49.2159 27.592C48.8759 27.3653 48.6096 27.0763 48.4169 26.725C48.2356 26.3737 48.1449 25.9657 48.1449 25.501C48.1449 24.719 48.3773 24.1183 48.8419 23.699C49.3066 23.2797 50.0263 23.019 51.0009 22.917L53.2279 22.679V22.56C53.2279 22.2313 53.0806 21.999 52.7859 21.863C52.5026 21.7157 52.0889 21.642 51.5449 21.642C51.1143 21.642 50.6949 21.6873 50.2869 21.778C49.8789 21.8687 49.5106 21.982 49.1819 22.118C49.0346 22.016 48.9099 21.863 48.8079 21.659C48.7059 21.4437 48.6549 21.2227 48.6549 20.996C48.6549 20.7013 48.7229 20.469 48.8589 20.299C49.0063 20.1177 49.2273 19.9647 49.5219 19.84C49.8506 19.7153 50.2359 19.6247 50.6779 19.568C51.1313 19.5113 51.5563 19.483 51.9529 19.483ZM57.443 23.869C57.443 23.121 57.5563 22.475 57.783 21.931C58.0097 21.3757 58.3213 20.9167 58.718 20.554C59.126 20.1913 59.5963 19.925 60.129 19.755C60.673 19.5737 61.2567 19.483 61.88 19.483C62.1067 19.483 62.3277 19.5057 62.543 19.551C62.7583 19.585 62.934 19.6303 63.07 19.687V16.933C63.1833 16.899 63.3647 16.865 63.614 16.831C63.8633 16.7857 64.1183 16.763 64.379 16.763C64.6283 16.763 64.8493 16.78 65.042 16.814C65.246 16.848 65.416 16.916 65.552 17.018C65.688 17.12 65.79 17.2617 65.858 17.443C65.926 17.613 65.96 17.8397 65.96 18.123V26.181C65.96 26.7137 65.7107 27.1387 65.212 27.456C64.8833 27.6713 64.4583 27.8583 63.937 28.017C63.4157 28.187 62.815 28.272 62.135 28.272C61.3983 28.272 60.7353 28.17 60.146 27.966C59.568 27.762 59.075 27.4673 58.667 27.082C58.2703 26.6967 57.9643 26.2377 57.749 25.705C57.545 25.161 57.443 24.549 57.443 23.869ZM62.271 21.744C61.659 21.744 61.1887 21.9197 60.86 22.271C60.5313 22.6223 60.367 23.155 60.367 23.869C60.367 24.5717 60.52 25.1043 60.826 25.467C61.132 25.8183 61.574 25.994 62.152 25.994C62.356 25.994 62.5373 25.9657 62.696 25.909C62.866 25.841 62.9963 25.7673 63.087 25.688V21.948C62.8603 21.812 62.5883 21.744 62.271 21.744Z" fill="white"/>
</svg>
