<svg width="207" height="154" viewBox="0 0 207 154" fill="none" xmlns="http://www.w3.org/2000/svg">
<path d="M49.6182 0.816249C2.50597 5.22886 0 40.5298 0 96.633C5.01194 134.455 33.58 161.561 113.27 152.106C192.96 142.65 205.991 111.132 206.993 60.0714C207.996 9.01116 96.7305 -3.59636 49.6182 0.816249Z" fill="#F03E56"/>
<path d="M62.6903 63.86C62.4336 63.93 62.0253 64 61.4653 64.07C60.9286 64.14 60.392 64.175 59.8553 64.175C59.3186 64.175 58.8403 64.1283 58.4203 64.035C58.0236 63.965 57.6853 63.825 57.4053 63.615C57.1253 63.405 56.9153 63.1133 56.7753 62.74C56.6353 62.3667 56.5653 61.8767 56.5653 61.27V55.81H49.8453V63.86C49.5886 63.93 49.1803 64 48.6203 64.07C48.0836 64.14 47.547 64.175 47.0103 64.175C46.4736 64.175 45.9953 64.1283 45.5753 64.035C45.1786 63.965 44.8403 63.825 44.5603 63.615C44.2803 63.405 44.0703 63.1133 43.9303 62.74C43.7903 62.3667 43.7203 61.8767 43.7203 61.27V42.79C43.977 42.7433 44.3853 42.685 44.9453 42.615C45.5053 42.5217 46.042 42.475 46.5553 42.475C47.092 42.475 47.5586 42.5217 47.9553 42.615C48.3753 42.685 48.7253 42.825 49.0053 43.035C49.2853 43.245 49.4953 43.5367 49.6353 43.91C49.7753 44.2833 49.8453 44.7733 49.8453 45.38V50.98H56.5653V42.79C56.822 42.7433 57.2303 42.685 57.7903 42.615C58.3503 42.5217 58.887 42.475 59.4003 42.475C59.937 42.475 60.4036 42.5217 60.8003 42.615C61.2203 42.685 61.5703 42.825 61.8503 43.035C62.1303 43.245 62.3403 43.5367 62.4803 43.91C62.6203 44.2833 62.6903 44.7733 62.6903 45.38V63.86ZM75.7759 64.56C74.3993 64.56 73.1159 64.3733 71.9259 64C70.7593 63.6033 69.7326 63.02 68.8459 62.25C67.9826 61.48 67.2943 60.5117 66.7809 59.345C66.2909 58.1783 66.0459 56.8133 66.0459 55.25C66.0459 53.71 66.2909 52.3917 66.7809 51.295C67.2943 50.175 67.9593 49.265 68.7759 48.565C69.5926 47.8417 70.5259 47.3167 71.5759 46.99C72.6259 46.64 73.6993 46.465 74.7959 46.465C76.0326 46.465 77.1526 46.6517 78.1559 47.025C79.1826 47.3983 80.0576 47.9117 80.7809 48.565C81.5276 49.2183 82.0993 50 82.4959 50.91C82.9159 51.82 83.1259 52.8117 83.1259 53.885C83.1259 54.6783 82.9043 55.285 82.4609 55.705C82.0176 56.125 81.3993 56.3933 80.6059 56.51L71.9609 57.805C72.2176 58.575 72.7426 59.1583 73.5359 59.555C74.3293 59.9283 75.2393 60.115 76.2659 60.115C77.2226 60.115 78.1209 59.9983 78.9609 59.765C79.8243 59.5083 80.5243 59.2167 81.0609 58.89C81.4343 59.1233 81.7493 59.45 82.0059 59.87C82.2626 60.29 82.3909 60.7333 82.3909 61.2C82.3909 62.25 81.9009 63.0317 80.9209 63.545C80.1743 63.9417 79.3343 64.21 78.4009 64.35C77.4676 64.49 76.5926 64.56 75.7759 64.56ZM74.7959 50.805C74.2359 50.805 73.7459 50.8983 73.3259 51.085C72.9293 51.2717 72.6026 51.5167 72.3459 51.82C72.0893 52.1 71.8909 52.4267 71.7509 52.8C71.6343 53.15 71.5643 53.5117 71.5409 53.885L77.5259 52.905C77.4559 52.4383 77.1993 51.9717 76.7559 51.505C76.3126 51.0383 75.6593 50.805 74.7959 50.805ZM93.2699 60.22C93.6666 60.22 94.0983 60.185 94.5649 60.115C95.0549 60.0217 95.4166 59.905 95.6499 59.765V56.965L93.1299 57.175C92.4766 57.2217 91.9399 57.3617 91.5199 57.595C91.0999 57.8283 90.8899 58.1783 90.8899 58.645C90.8899 59.1117 91.0649 59.4967 91.4149 59.8C91.7883 60.08 92.4066 60.22 93.2699 60.22ZM92.9899 46.465C94.2499 46.465 95.3933 46.5933 96.4199 46.85C97.4699 47.1067 98.3566 47.5033 99.0799 48.04C99.8266 48.5533 100.398 49.2183 100.795 50.035C101.192 50.8283 101.39 51.7733 101.39 52.87V60.71C101.39 61.3167 101.215 61.8183 100.865 62.215C100.538 62.5883 100.142 62.915 99.6749 63.195C98.1583 64.105 96.0233 64.56 93.2699 64.56C92.0333 64.56 90.9133 64.4433 89.9099 64.21C88.9299 63.9767 88.0783 63.6267 87.3549 63.16C86.6549 62.6933 86.1066 62.0983 85.7099 61.375C85.3366 60.6517 85.1499 59.8117 85.1499 58.855C85.1499 57.245 85.6283 56.0083 86.5849 55.145C87.5416 54.2817 89.0233 53.745 91.0299 53.535L95.6149 53.045V52.8C95.6149 52.1233 95.3116 51.645 94.7049 51.365C94.1216 51.0617 93.2699 50.91 92.1499 50.91C91.2633 50.91 90.3999 51.0033 89.5599 51.19C88.7199 51.3767 87.9616 51.61 87.2849 51.89C86.9816 51.68 86.7249 51.365 86.5149 50.945C86.3049 50.5017 86.1999 50.0467 86.1999 49.58C86.1999 48.9733 86.3399 48.495 86.6199 48.145C86.9233 47.7717 87.3783 47.4567 87.9849 47.2C88.6616 46.9433 89.4549 46.7567 90.3649 46.64C91.2983 46.5233 92.1733 46.465 92.9899 46.465ZM110.978 63.965C110.745 64.035 110.371 64.105 109.858 64.175C109.368 64.245 108.855 64.28 108.318 64.28C107.805 64.28 107.338 64.245 106.918 64.175C106.521 64.105 106.183 63.965 105.903 63.755C105.623 63.545 105.401 63.265 105.238 62.915C105.098 62.5417 105.028 62.0633 105.028 61.48V50.98C105.028 50.4433 105.121 49.9883 105.308 49.615C105.518 49.2183 105.81 48.8683 106.183 48.565C106.556 48.2617 107.011 47.9933 107.548 47.76C108.108 47.5033 108.703 47.2817 109.333 47.095C109.963 46.9083 110.616 46.7683 111.293 46.675C111.97 46.5583 112.646 46.5 113.323 46.5C114.443 46.5 115.33 46.7217 115.983 47.165C116.636 47.585 116.963 48.285 116.963 49.265C116.963 49.5917 116.916 49.9183 116.823 50.245C116.73 50.5483 116.613 50.8283 116.473 51.085C115.983 51.085 115.481 51.1083 114.968 51.155C114.455 51.2017 113.953 51.2717 113.463 51.365C112.973 51.4583 112.506 51.5633 112.063 51.68C111.643 51.7733 111.281 51.89 110.978 52.03V63.965ZM131.394 43.42C131.791 43.1867 132.386 42.965 133.179 42.755C133.996 42.545 134.813 42.44 135.629 42.44C136.796 42.44 137.823 42.615 138.709 42.965C139.619 43.2917 140.203 43.8167 140.459 44.54C140.879 45.7533 141.334 47.165 141.824 48.775C142.314 50.385 142.804 52.0533 143.294 53.78C143.784 55.4833 144.263 57.175 144.729 58.855C145.196 60.5117 145.604 61.9817 145.954 63.265C145.674 63.5917 145.254 63.8483 144.694 64.035C144.134 64.245 143.469 64.35 142.699 64.35C142.139 64.35 141.661 64.3033 141.264 64.21C140.891 64.1167 140.576 63.9767 140.319 63.79C140.086 63.6033 139.888 63.3583 139.724 63.055C139.584 62.7517 139.456 62.4017 139.339 62.005L138.709 59.59H132.374C132.188 60.29 132.001 61.0133 131.814 61.76C131.628 62.5067 131.441 63.23 131.254 63.93C130.928 64.0467 130.578 64.14 130.204 64.21C129.854 64.3033 129.423 64.35 128.909 64.35C127.719 64.35 126.833 64.1517 126.249 63.755C125.689 63.335 125.409 62.7633 125.409 62.04C125.409 61.7133 125.456 61.3867 125.549 61.06C125.643 60.7333 125.748 60.3483 125.864 59.905C126.028 59.275 126.249 58.4933 126.529 57.56C126.833 56.6267 127.159 55.6233 127.509 54.55C127.859 53.4533 128.233 52.3333 128.629 51.19C129.026 50.0467 129.399 48.9733 129.749 47.97C130.099 46.9433 130.414 46.0333 130.694 45.24C130.998 44.4467 131.231 43.84 131.394 43.42ZM135.594 47.935C135.268 48.915 134.894 50.0117 134.474 51.225C134.078 52.415 133.716 53.6283 133.389 54.865H137.729C137.403 53.605 137.064 52.38 136.714 51.19C136.388 49.9767 136.084 48.8917 135.804 47.935H135.594ZM61.8912 95.565C60.8645 95.215 59.9312 94.865 59.0912 94.515C58.2512 94.1417 57.5279 93.6983 56.9212 93.185C56.3145 92.6717 55.8362 92.065 55.4862 91.365C55.1595 90.6417 54.9962 89.7667 54.9962 88.74C54.9962 86.7567 55.7545 85.17 57.2712 83.98C58.8112 82.79 60.9579 82.195 63.7112 82.195C64.7145 82.195 65.6479 82.265 66.5112 82.405C67.3745 82.545 68.1095 82.7667 68.7162 83.07C69.3462 83.35 69.8362 83.7233 70.1862 84.19C70.5362 84.6333 70.7112 85.1583 70.7112 85.765C70.7112 86.3717 70.5712 86.8967 70.2912 87.34C70.0112 87.76 69.6729 88.1217 69.2762 88.425C68.7629 88.0983 68.0745 87.8183 67.2112 87.585C66.3479 87.3283 65.4029 87.2 64.3762 87.2C63.3262 87.2 62.5562 87.3517 62.0662 87.655C61.5762 87.935 61.3312 88.2967 61.3312 88.74C61.3312 89.09 61.4829 89.3817 61.7862 89.615C62.0895 89.825 62.5445 90.0233 63.1512 90.21L65.0062 90.805C67.1995 91.505 68.8795 92.4033 70.0462 93.5C71.2362 94.5733 71.8312 96.0433 71.8312 97.91C71.8312 99.8933 71.0495 101.503 69.4862 102.74C67.9229 103.953 65.6245 104.56 62.5912 104.56C61.5179 104.56 60.5145 104.467 59.5812 104.28C58.6712 104.117 57.8662 103.872 57.1662 103.545C56.4895 103.195 55.9529 102.775 55.5562 102.285C55.1829 101.772 54.9962 101.188 54.9962 100.535C54.9962 99.8583 55.1945 99.2867 55.5912 98.82C55.9879 98.33 56.4195 97.9567 56.8862 97.7C57.5395 98.2133 58.3329 98.6567 59.2662 99.03C60.2229 99.4033 61.2612 99.59 62.3812 99.59C63.5245 99.59 64.3295 99.415 64.7962 99.065C65.2629 98.715 65.4962 98.3067 65.4962 97.84C65.4962 97.3733 65.3095 97.0233 64.9362 96.79C64.5629 96.5333 64.0379 96.2883 63.3612 96.055L61.8912 95.565ZM80.6435 98.155C80.6435 98.7617 80.8302 99.1933 81.2035 99.45C81.6002 99.7067 82.1485 99.835 82.8485 99.835C83.1985 99.835 83.5602 99.8117 83.9335 99.765C84.3069 99.695 84.6335 99.6133 84.9135 99.52C85.1235 99.7767 85.2985 100.068 85.4385 100.395C85.6019 100.698 85.6835 101.072 85.6835 101.515C85.6835 102.402 85.3452 103.125 84.6685 103.685C84.0152 104.245 82.8485 104.525 81.1685 104.525C79.1152 104.525 77.5285 104.058 76.4085 103.125C75.3119 102.192 74.7635 100.675 74.7635 98.575V83.595C75.0202 83.525 75.3819 83.455 75.8485 83.385C76.3385 83.2917 76.8519 83.245 77.3885 83.245C78.4152 83.245 79.2085 83.4317 79.7685 83.805C80.3519 84.155 80.6435 84.9133 80.6435 86.08V88.32H85.2285C85.3685 88.5767 85.4969 88.9033 85.6135 89.3C85.7535 89.6733 85.8235 90.0933 85.8235 90.56C85.8235 91.3767 85.6369 91.9717 85.2635 92.345C84.9135 92.695 84.4352 92.87 83.8285 92.87H80.6435V98.155ZM106.107 95.495C106.107 96.9417 105.885 98.2367 105.442 99.38C104.999 100.5 104.369 101.445 103.552 102.215C102.759 102.985 101.802 103.568 100.682 103.965C99.5621 104.362 98.3138 104.56 96.9371 104.56C95.5605 104.56 94.3121 104.35 93.1921 103.93C92.0721 103.51 91.1038 102.915 90.2871 102.145C89.4938 101.352 88.8755 100.395 88.4321 99.275C87.9888 98.155 87.7671 96.895 87.7671 95.495C87.7671 94.1183 87.9888 92.87 88.4321 91.75C88.8755 90.63 89.4938 89.685 90.2871 88.915C91.1038 88.1217 92.0721 87.515 93.1921 87.095C94.3121 86.675 95.5605 86.465 96.9371 86.465C98.3138 86.465 99.5621 86.6867 100.682 87.13C101.802 87.55 102.759 88.1567 103.552 88.95C104.369 89.72 104.999 90.665 105.442 91.785C105.885 92.905 106.107 94.1417 106.107 95.495ZM93.8571 95.495C93.8571 96.9183 94.1255 98.015 94.6621 98.785C95.2221 99.5317 95.9921 99.905 96.9721 99.905C97.9521 99.905 98.6988 99.52 99.2121 98.75C99.7488 97.98 100.017 96.895 100.017 95.495C100.017 94.095 99.7488 93.0217 99.2121 92.275C98.6755 91.505 97.9171 91.12 96.9371 91.12C95.9571 91.12 95.1988 91.505 94.6621 92.275C94.1255 93.0217 93.8571 94.095 93.8571 95.495ZM114.96 103.965C114.727 104.035 114.353 104.105 113.84 104.175C113.35 104.245 112.837 104.28 112.3 104.28C111.787 104.28 111.32 104.245 110.9 104.175C110.503 104.105 110.165 103.965 109.885 103.755C109.605 103.545 109.383 103.265 109.22 102.915C109.08 102.542 109.01 102.063 109.01 101.48V90.98C109.01 90.4433 109.103 89.9883 109.29 89.615C109.5 89.2183 109.792 88.8683 110.165 88.565C110.538 88.2617 110.993 87.9933 111.53 87.76C112.09 87.5033 112.685 87.2817 113.315 87.095C113.945 86.9083 114.598 86.7683 115.275 86.675C115.952 86.5583 116.628 86.5 117.305 86.5C118.425 86.5 119.312 86.7217 119.965 87.165C120.618 87.585 120.945 88.285 120.945 89.265C120.945 89.5917 120.898 89.9183 120.805 90.245C120.712 90.5483 120.595 90.8283 120.455 91.085C119.965 91.085 119.463 91.1083 118.95 91.155C118.437 91.2017 117.935 91.2717 117.445 91.365C116.955 91.4583 116.488 91.5633 116.045 91.68C115.625 91.7733 115.263 91.89 114.96 92.03V103.965ZM126.606 99.66C126.35 99.0767 126.07 98.4233 125.766 97.7C125.486 96.9767 125.183 96.1483 124.856 95.215C124.553 94.2817 124.226 93.22 123.876 92.03C123.55 90.8167 123.2 89.4283 122.826 87.865C123.153 87.5383 123.585 87.2583 124.121 87.025C124.681 86.7683 125.288 86.64 125.941 86.64C126.758 86.64 127.435 86.815 127.971 87.165C128.508 87.4917 128.905 88.1217 129.161 89.055L131.926 98.68H132.066C132.346 97.8867 132.615 97.0233 132.871 96.09C133.151 95.1567 133.42 94.2 133.676 93.22C133.933 92.2167 134.166 91.225 134.376 90.245C134.61 89.2417 134.808 88.2617 134.971 87.305C135.811 86.8617 136.733 86.64 137.736 86.64C138.553 86.64 139.23 86.815 139.766 87.165C140.303 87.515 140.571 88.1217 140.571 88.985C140.571 89.615 140.49 90.35 140.326 91.19C140.163 92.0067 139.941 92.8817 139.661 93.815C139.405 94.7483 139.09 95.7167 138.716 96.72C138.366 97.7 137.993 98.6683 137.596 99.625C137.2 100.582 136.791 101.492 136.371 102.355C135.951 103.195 135.543 103.953 135.146 104.63C134.493 105.773 133.886 106.707 133.326 107.43C132.766 108.153 132.23 108.713 131.716 109.11C131.203 109.53 130.69 109.81 130.176 109.95C129.663 110.113 129.126 110.195 128.566 110.195C127.586 110.195 126.793 109.903 126.186 109.32C125.58 108.737 125.218 107.978 125.101 107.045C125.848 106.462 126.595 105.808 127.341 105.085C128.088 104.385 128.765 103.662 129.371 102.915C128.975 102.798 128.543 102.53 128.076 102.11C127.633 101.667 127.143 100.85 126.606 99.66Z" fill="white"/>
</svg>
