<svg width="140" height="134" viewBox="0 0 140 134" fill="none" xmlns="http://www.w3.org/2000/svg">
<g filter="url(#filter0_d_1318_301)">
<path d="M66.2876 2.09655C29.5175 4.35227 3.77635 27.1091 6.15184 69.5185C8.52733 111.928 41.5646 128.127 65.0999 126.939C88.6352 125.752 131.344 113.834 134.348 70.2372C137.353 26.6399 97.4285 0.190174 66.2876 2.09655V2.09655Z" fill="white"/>
<path d="M66.2876 2.09655C29.5175 4.35227 3.77635 27.1091 6.15184 69.5185C8.52733 111.928 41.5646 128.127 65.0999 126.939C88.6352 125.752 131.344 113.834 134.348 70.2372C137.353 26.6399 97.4285 0.190174 66.2876 2.09655V2.09655Z" stroke="#E3E3E3" stroke-width="3" stroke-miterlimit="10"/>
</g>
<path d="M68.0942 11.6985C36.1848 13.6448 13.8472 33.3574 15.9033 70.0676C17.9594 106.778 46.635 120.811 67.0562 119.783C87.4774 118.755 124.547 108.435 127.152 70.6865C129.757 32.9382 95.1129 10.0416 68.0842 11.6985H68.0942Z" fill="url(#paint0_linear_1318_301)" stroke="#54B999" stroke-width="5" stroke-miterlimit="10"/>
<g filter="url(#filter1_d_1318_301)">
<path d="M109.086 39.5153C106.002 40.9925 106.561 44.6655 108.877 48.3784C111.192 52.0914 115.973 51.3029 116.882 49.2268C117.79 47.1508 117.281 44.386 115.933 42.3798C114.586 40.3736 112.071 38.088 109.086 39.5153V39.5153Z" fill="white"/>
</g>
<g filter="url(#filter2_d_1318_301)">
<path d="M101.93 26.2008C97.5981 22.0287 93.0967 18.7449 89.0144 22.0287C85.4412 24.9132 88.196 31.86 92.4878 36.2517C96.7797 40.6433 102.169 40.6932 105.154 38.4775C108.138 36.2617 107.529 31.5905 101.93 26.2008V26.2008Z" fill="white"/>
</g>
<g filter="url(#filter3_d_1318_301)">
<path d="M71.5203 65.7086C70.8185 65.9829 70.0391 65.9831 69.3371 65.7091L49.7762 58.0728C47.7577 57.2848 45.5951 58.831 45.6879 60.9958L46.8945 89.142C46.9676 90.8477 45.6046 92.2705 43.8973 92.2705H43.4748C41.7673 92.2705 40.4041 90.8474 40.4776 89.1415L41.8976 56.1532C41.9274 55.4607 41.5132 54.8259 40.8674 54.5743V54.5743C39.4926 54.0387 39.4914 52.0937 40.8656 51.5565L69.3366 40.427C70.0388 40.1524 70.8188 40.1524 71.521 40.427L96.7099 50.2735C99.2536 51.2679 99.2536 54.8674 96.7099 55.8617L71.5203 65.7086ZM70.4288 49.8007C68.5902 49.8007 67.0859 50.5194 67.0859 51.4342C67.0859 52.3489 68.5902 53.0676 70.4288 53.0676C72.2674 53.0676 73.7717 52.3489 73.7717 51.4342C73.7717 50.5194 72.2674 49.8007 70.4288 49.8007ZM69.3357 68.9745C70.0385 69.2494 70.8191 69.2494 71.5219 68.9745L86.956 62.9357C88.1964 62.4504 89.6259 62.8308 90.3354 63.9581C91.4741 65.7671 92.3703 67.7457 92.9635 69.8454C93.3914 71.36 92.0599 72.6691 90.4861 72.6691V72.6691C83.7499 72.6691 77.6817 75.4639 73.4198 79.9252C71.8698 81.5477 68.9917 81.5451 67.4422 79.9221C65.8353 78.2391 63.9705 76.7963 61.906 75.6497C58.3901 73.6969 54.4156 72.6698 50.3715 72.6691V72.6691C48.7977 72.6691 47.4662 71.36 47.8941 69.8454C48.4873 67.7457 49.3835 65.7671 50.5222 63.9581C51.2317 62.8308 52.6612 62.4504 53.9016 62.9357L69.3357 68.9745Z" fill="white"/>
</g>
<defs>
<filter id="filter0_d_1318_301" x="0.5" y="0.5" width="139.509" height="136" filterUnits="userSpaceOnUse" color-interpolation-filters="sRGB">
<feFlood flood-opacity="0" result="BackgroundImageFix"/>
<feColorMatrix in="SourceAlpha" type="matrix" values="0 0 0 0 0 0 0 0 0 0 0 0 0 0 0 0 0 0 127 0" result="hardAlpha"/>
<feOffset dy="4"/>
<feGaussianBlur stdDeviation="2"/>
<feComposite in2="hardAlpha" operator="out"/>
<feColorMatrix type="matrix" values="0 0 0 0 0 0 0 0 0 0 0 0 0 0 0 0 0 0 0.25 0"/>
<feBlend mode="normal" in2="BackgroundImageFix" result="effect1_dropShadow_1318_301"/>
<feBlend mode="normal" in="SourceGraphic" in2="effect1_dropShadow_1318_301" result="shape"/>
</filter>
<filter id="filter1_d_1318_301" x="102.955" y="39.0698" width="18.3848" height="19.9038" filterUnits="userSpaceOnUse" color-interpolation-filters="sRGB">
<feFlood flood-opacity="0" result="BackgroundImageFix"/>
<feColorMatrix in="SourceAlpha" type="matrix" values="0 0 0 0 0 0 0 0 0 0 0 0 0 0 0 0 0 0 127 0" result="hardAlpha"/>
<feOffset dy="4"/>
<feGaussianBlur stdDeviation="2"/>
<feComposite in2="hardAlpha" operator="out"/>
<feColorMatrix type="matrix" values="0 0 0 0 0 0 0 0 0 0 0 0 0 0 0 0 0 0 0.25 0"/>
<feBlend mode="normal" in2="BackgroundImageFix" result="effect1_dropShadow_1318_301"/>
<feBlend mode="normal" in="SourceGraphic" in2="effect1_dropShadow_1318_301" result="shape"/>
</filter>
<filter id="filter2_d_1318_301" x="83.3711" y="20.6899" width="27.552" height="27.2271" filterUnits="userSpaceOnUse" color-interpolation-filters="sRGB">
<feFlood flood-opacity="0" result="BackgroundImageFix"/>
<feColorMatrix in="SourceAlpha" type="matrix" values="0 0 0 0 0 0 0 0 0 0 0 0 0 0 0 0 0 0 127 0" result="hardAlpha"/>
<feOffset dy="4"/>
<feGaussianBlur stdDeviation="2"/>
<feComposite in2="hardAlpha" operator="out"/>
<feColorMatrix type="matrix" values="0 0 0 0 0 0 0 0 0 0 0 0 0 0 0 0 0 0 0.25 0"/>
<feBlend mode="normal" in2="BackgroundImageFix" result="effect1_dropShadow_1318_301"/>
<feBlend mode="normal" in="SourceGraphic" in2="effect1_dropShadow_1318_301" result="shape"/>
</filter>
<filter id="filter3_d_1318_301" x="35.8357" y="40.2212" width="66.782" height="60.0493" filterUnits="userSpaceOnUse" color-interpolation-filters="sRGB">
<feFlood flood-opacity="0" result="BackgroundImageFix"/>
<feColorMatrix in="SourceAlpha" type="matrix" values="0 0 0 0 0 0 0 0 0 0 0 0 0 0 0 0 0 0 127 0" result="hardAlpha"/>
<feOffset dy="4"/>
<feGaussianBlur stdDeviation="2"/>
<feComposite in2="hardAlpha" operator="out"/>
<feColorMatrix type="matrix" values="0 0 0 0 0 0 0 0 0 0 0 0 0 0 0 0 0 0 0.25 0"/>
<feBlend mode="normal" in2="BackgroundImageFix" result="effect1_dropShadow_1318_301"/>
<feBlend mode="normal" in="SourceGraphic" in2="effect1_dropShadow_1318_301" result="shape"/>
</filter>
<linearGradient id="paint0_linear_1318_301" x1="71.5314" y1="11.6143" x2="71.5314" y2="119.836" gradientUnits="userSpaceOnUse">
<stop stop-color="#85C6A0"/>
<stop offset="0.494792" stop-color="#4CAD92"/>
<stop offset="1" stop-color="#2C857D"/>
</linearGradient>
</defs>
</svg>
