<svg width="140" height="134" viewBox="0 0 140 134" fill="none" xmlns="http://www.w3.org/2000/svg">
<g filter="url(#filter0_d_1318_302)">
<path d="M66.2876 2.09655C29.5175 4.35227 3.77635 27.1091 6.15184 69.5185C8.52733 111.928 41.5646 128.127 65.0999 126.939C88.6352 125.752 131.344 113.834 134.348 70.2372C137.353 26.6399 97.4285 0.190174 66.2876 2.09655V2.09655Z" fill="white"/>
<path d="M66.2876 2.09655C29.5175 4.35227 3.77635 27.1091 6.15184 69.5185C8.52733 111.928 41.5646 128.127 65.0999 126.939C88.6352 125.752 131.344 113.834 134.348 70.2372C137.353 26.6399 97.4285 0.190174 66.2876 2.09655V2.09655Z" stroke="#E3E3E3" stroke-width="3" stroke-miterlimit="10"/>
</g>
<path d="M68.0942 11.6985C36.1848 13.6448 13.8472 33.3574 15.9033 70.0676C17.9594 106.778 46.635 120.811 67.0562 119.783C87.4774 118.755 124.547 108.435 127.152 70.6865C129.757 32.9382 95.1129 10.0416 68.0842 11.6985H68.0942Z" fill="url(#paint0_linear_1318_302)" stroke="#E3494B" stroke-width="5" stroke-miterlimit="10"/>
<g filter="url(#filter1_d_1318_302)">
<path d="M109.086 39.5153C106.002 40.9925 106.561 44.6655 108.877 48.3784C111.192 52.0914 115.973 51.3029 116.882 49.2268C117.79 47.1508 117.281 44.386 115.933 42.3798C114.586 40.3736 112.071 38.088 109.086 39.5153V39.5153Z" fill="white"/>
</g>
<g filter="url(#filter2_d_1318_302)">
<path d="M101.93 26.2008C97.5981 22.0287 93.0967 18.7449 89.0144 22.0287C85.4412 24.9132 88.196 31.86 92.4878 36.2517C96.7797 40.6433 102.169 40.6932 105.154 38.4775C108.138 36.2617 107.529 31.5905 101.93 26.2008V26.2008Z" fill="white"/>
</g>
<g filter="url(#filter3_d_1318_302)">
<path fill-rule="evenodd" clip-rule="evenodd" d="M96.8436 69.8587C94.9814 69.8587 93.4717 71.3684 93.4717 73.2307V87C93.4717 89.7614 91.2331 92 88.4717 92H82.7931C80.0317 92 77.7931 89.7614 77.7931 87V78.8844C77.7931 76.123 75.5546 73.8844 72.7931 73.8844H67.2068C64.4454 73.8844 62.2068 76.123 62.2068 78.8844V87C62.2068 89.7614 59.9683 92 57.2068 92H51.5283C48.7669 92 46.5283 89.7614 46.5283 87V73.2263C46.5283 71.3664 45.0206 69.8587 43.1608 69.8587V69.8587C40.1563 69.8587 38.6558 66.2225 40.786 64.1037L66.5154 38.5118C68.4677 36.57 71.6225 36.5721 73.5722 38.5165L99.2247 64.0992C101.353 66.2221 99.85 69.8587 96.8436 69.8587V69.8587Z" fill="white"/>
</g>
<defs>
<filter id="filter0_d_1318_302" x="0.5" y="0.5" width="139.509" height="136" filterUnits="userSpaceOnUse" color-interpolation-filters="sRGB">
<feFlood flood-opacity="0" result="BackgroundImageFix"/>
<feColorMatrix in="SourceAlpha" type="matrix" values="0 0 0 0 0 0 0 0 0 0 0 0 0 0 0 0 0 0 127 0" result="hardAlpha"/>
<feOffset dy="4"/>
<feGaussianBlur stdDeviation="2"/>
<feComposite in2="hardAlpha" operator="out"/>
<feColorMatrix type="matrix" values="0 0 0 0 0 0 0 0 0 0 0 0 0 0 0 0 0 0 0.25 0"/>
<feBlend mode="normal" in2="BackgroundImageFix" result="effect1_dropShadow_1318_302"/>
<feBlend mode="normal" in="SourceGraphic" in2="effect1_dropShadow_1318_302" result="shape"/>
</filter>
<filter id="filter1_d_1318_302" x="102.955" y="39.0698" width="18.3848" height="19.9038" filterUnits="userSpaceOnUse" color-interpolation-filters="sRGB">
<feFlood flood-opacity="0" result="BackgroundImageFix"/>
<feColorMatrix in="SourceAlpha" type="matrix" values="0 0 0 0 0 0 0 0 0 0 0 0 0 0 0 0 0 0 127 0" result="hardAlpha"/>
<feOffset dy="4"/>
<feGaussianBlur stdDeviation="2"/>
<feComposite in2="hardAlpha" operator="out"/>
<feColorMatrix type="matrix" values="0 0 0 0 0 0 0 0 0 0 0 0 0 0 0 0 0 0 0.25 0"/>
<feBlend mode="normal" in2="BackgroundImageFix" result="effect1_dropShadow_1318_302"/>
<feBlend mode="normal" in="SourceGraphic" in2="effect1_dropShadow_1318_302" result="shape"/>
</filter>
<filter id="filter2_d_1318_302" x="83.3711" y="20.6899" width="27.552" height="27.2271" filterUnits="userSpaceOnUse" color-interpolation-filters="sRGB">
<feFlood flood-opacity="0" result="BackgroundImageFix"/>
<feColorMatrix in="SourceAlpha" type="matrix" values="0 0 0 0 0 0 0 0 0 0 0 0 0 0 0 0 0 0 127 0" result="hardAlpha"/>
<feOffset dy="4"/>
<feGaussianBlur stdDeviation="2"/>
<feComposite in2="hardAlpha" operator="out"/>
<feColorMatrix type="matrix" values="0 0 0 0 0 0 0 0 0 0 0 0 0 0 0 0 0 0 0.25 0"/>
<feBlend mode="normal" in2="BackgroundImageFix" result="effect1_dropShadow_1318_302"/>
<feBlend mode="normal" in="SourceGraphic" in2="effect1_dropShadow_1318_302" result="shape"/>
</filter>
<filter id="filter3_d_1318_302" x="35.7866" y="37.0566" width="68.4358" height="62.9434" filterUnits="userSpaceOnUse" color-interpolation-filters="sRGB">
<feFlood flood-opacity="0" result="BackgroundImageFix"/>
<feColorMatrix in="SourceAlpha" type="matrix" values="0 0 0 0 0 0 0 0 0 0 0 0 0 0 0 0 0 0 127 0" result="hardAlpha"/>
<feOffset dy="4"/>
<feGaussianBlur stdDeviation="2"/>
<feComposite in2="hardAlpha" operator="out"/>
<feColorMatrix type="matrix" values="0 0 0 0 0 0 0 0 0 0 0 0 0 0 0 0 0 0 0.25 0"/>
<feBlend mode="normal" in2="BackgroundImageFix" result="effect1_dropShadow_1318_302"/>
<feBlend mode="normal" in="SourceGraphic" in2="effect1_dropShadow_1318_302" result="shape"/>
</filter>
<linearGradient id="paint0_linear_1318_302" x1="71.5314" y1="11.6143" x2="71.5314" y2="119.836" gradientUnits="userSpaceOnUse">
<stop stop-color="#E098BD"/>
<stop offset="0.0001" stop-color="#FE5453"/>
<stop offset="0.494792" stop-color="#F04444"/>
<stop offset="1" stop-color="#D9292B"/>
</linearGradient>
</defs>
</svg>
