<svg width="196" height="188" viewBox="0 0 196 188" fill="none" xmlns="http://www.w3.org/2000/svg">
<path fill-rule="evenodd" clip-rule="evenodd" d="M85.0057 6.74063C90.9341 -2.24689 104.12 -2.24687 110.048 6.74064L133.909 42.9143C135.898 45.9287 138.907 48.1246 142.384 49.0988L184.091 60.7834C194.398 63.671 198.451 76.1151 191.821 84.5184L164.829 118.729C162.606 121.546 161.467 125.068 161.618 128.654L163.46 172.204C163.914 182.937 153.269 190.654 143.21 186.884L102.791 171.735C99.3971 170.463 95.6569 170.463 92.2626 171.735L51.8445 186.884C41.7851 190.654 31.1396 182.937 31.5935 172.204L33.4355 128.654C33.5872 125.068 32.4481 121.546 30.2249 118.729L3.23329 84.5184C-3.39688 76.1151 0.655597 63.671 10.9627 60.7834L52.6699 49.0988C56.1472 48.1246 59.1563 45.9287 61.1447 42.9143L85.0057 6.74063Z" fill="#EBEBEB"/>
</svg>
