<svg width="179" height="57" viewBox="0 0 179 57" fill="none" xmlns="http://www.w3.org/2000/svg">
<path fill-rule="evenodd" clip-rule="evenodd" d="M169.13 48.36C141.87 73.61 108.2 32.15 132.3 10.22C159.9 -14.89 196.96 22.6 169.13 48.36Z" fill="white"/>
<path fill-rule="evenodd" clip-rule="evenodd" d="M159.08 36.51C139.65 54.51 115.65 24.95 132.82 9.32005C152.5 -8.57995 178.91 18.14 159.08 36.51Z" fill="#231F20"/>
<path fill-rule="evenodd" clip-rule="evenodd" d="M146.48 22.1299C139.77 28.3399 131.48 18.1399 137.41 12.7499C144.21 6.5699 153.33 15.7999 146.48 22.1299Z" fill="white"/>
<path fill-rule="evenodd" clip-rule="evenodd" d="M45.0801 46.4401C17.8201 71.6801 -15.8399 30.2201 8.26006 8.3001C35.8601 -16.8099 72.9201 20.6701 45.0901 46.4401H45.0801Z" fill="white"/>
<path fill-rule="evenodd" clip-rule="evenodd" d="M35.0399 34.58C15.5999 52.58 -8.39013 23.02 8.78987 7.40001C28.4599 -10.5 54.8799 16.22 35.0399 34.58Z" fill="#231F20"/>
<path fill-rule="evenodd" clip-rule="evenodd" d="M22.4402 20.2C15.7302 26.42 7.44017 16.21 13.3702 10.82C20.1602 4.64 29.2802 13.86 22.4402 20.2Z" fill="white"/>
</svg>
