<svg width="463" height="541" viewBox="0 0 463 541" fill="none" xmlns="http://www.w3.org/2000/svg">
<path d="M430.72 231.14C441.58 247.08 443.34 269.62 441.65 291.39C438.84 327.55 419.53 387.58 384.78 427.25C352.45 464.15 289.47 466.42 261.05 464.3C264.63 473.51 269.61 479.89 275.95 480.61C300.52 483.42 370.73 483.77 405.49 444.1C440.24 404.43 459.55 344.4 462.36 308.24C464.81 276.66 460.03 243.48 430.71 231.14H430.72Z" fill="#3F1900"/>
<path d="M384.78 427.26C419.53 387.59 438.84 327.56 441.65 291.4C443.34 269.62 441.58 247.09 430.72 231.15C426.47 229.36 421.71 228.01 416.38 227.16C356.7 217.71 326.16 255.6 312.47 301.23C298.78 346.87 285.79 370.74 266.48 380.57C252.16 387.86 250.78 437.83 261.05 464.31C289.47 466.43 352.45 464.16 384.78 427.26V427.26Z" fill="#512200"/>
<path fill-rule="evenodd" clip-rule="evenodd" d="M90.9001 445.55C82.6201 484.3 116.42 493.13 119.88 511.75C124.18 534.83 123.05 540.22 140.08 537.29C154.96 534.72 159.34 503.86 147.64 484.23C130.34 455.19 110.76 467.94 92.9501 446.35C92.2001 445.44 90.9501 445.25 90.8901 445.55H90.9001Z" fill="#875214"/>
<path d="M295.53 319.21C289.41 290.68 281 265.41 271.64 248.61C264.57 235.92 256.96 228.05 249.39 227.27C247.51 227.08 209.46 238.67 185.22 239.01C161.7 239.34 149.42 236.7 133.86 232.92C123.37 245.35 113.62 257.72 104.91 270.01C90.8098 289.93 79.4798 309.67 72.2898 329.23C56.1598 373.13 60.8998 416.16 102.06 458.36C120.86 477.64 162.13 482.61 200.09 476.32C241.92 469.39 243.08 469.86 243.52 475.4C246.85 516.58 227.82 517.01 232.44 531.71C234.93 539.62 245.04 540.97 250.88 540.01C273.75 536.24 302.64 459.84 304.48 439.09C307.8 401.68 303.72 357.51 295.51 319.19L295.53 319.21Z" fill="#875214"/>
<path fill-rule="evenodd" clip-rule="evenodd" d="M240.99 362.84C264.99 432.06 215.79 475.23 146.79 470.71C63.93 465.27 64.92 356.28 115.11 321.35C156.09 292.83 220.8 304.63 240.99 362.85V362.84Z" fill="#9D6A38"/>
<path d="M355.35 185.35C350.17 174.5 347.38 167.27 331.98 145.44C330.39 143.19 328.88 140.88 327.43 138.53C324.94 134.5 322.63 130.35 320.49 126.22C318.94 123.24 317.48 120.28 316.08 117.36C314.46 113.84 312.83 110.34 311.16 106.88C310.34 105.11 309.54 103.38 308.76 101.72C305.48 94.74 302.51 88.83 299.58 84.97C299.48 84.84 299.37 84.69 299.27 84.56C283.67 58.8 262.38 38.31 223.03 33.05C222.15 32.49 221.29 31.91 220.45 31.32C199.35 16.49 187.84 -1.85003 179.3 0.149969C177.71 0.519969 180.99 3.84997 184.61 9.99997C189.62 18.53 189.43 19.48 189.12 19.35C187.13 18.53 188.85 12.12 167.34 6.87997C145.83 1.63997 138.53 5.62997 138.53 7.37997C138.53 9.12997 148.49 9.12997 156.59 14.74C164.69 20.35 167.59 22.72 168 23.47C168.41 24.22 151.68 16.11 140.26 16.98C128.84 17.85 110.12 29.7 110.12 32.2C110.12 32.2 107.4 33.82 116.46 31.95C123.37 30.52 127.32 32.79 128.93 34.34C103.24 39.13 84.0798 50.2 73.0598 73.96C72.8498 74.31 72.6698 74.67 72.4698 75.02C68.5598 81.86 65.2298 88.63 62.2498 95.25C58.1698 104.29 54.7098 113.03 51.3098 121.24C49.3398 125.99 47.3798 130.56 45.3198 134.9C41.8198 142.29 38.0298 149.05 33.3598 154.91C17.5598 174.75 -1.97024 185.56 0.159763 193.58C0.559763 195.08 4.09976 191.99 10.6498 188.59C19.7298 183.88 20.7398 184.07 20.6098 184.35C19.7298 186.22 12.9098 184.6 7.32976 204.8C1.74976 225.01 5.99976 231.87 7.85976 231.87C9.71976 231.87 9.71976 222.52 15.6898 214.91C21.6698 207.3 24.1898 204.57 24.9798 204.19C25.7798 203.81 17.1498 219.52 18.0798 230.25C19.0098 240.98 31.6198 258.56 34.2798 258.56C34.2798 258.56 36.0098 261.11 34.0098 252.6C32.0198 244.09 36.7998 240.35 37.7298 240.1C38.6598 239.85 46.6298 263.09 61.0998 272.24C75.5698 281.39 85.9298 284.27 105.98 285.7C126.03 287.13 128.55 285.7 128.55 285.7C128.55 285.7 137.85 299.73 163.27 299.98C188.7 300.23 193.08 288.01 193.08 288.01C193.08 288.01 237.16 292.75 254.16 288.14C271.16 283.53 303.42 270.43 311.52 261.82C319.62 253.21 321.35 250.35 322.41 250.47C323.47 250.59 319.22 262.44 316.97 265.94C314.71 269.43 315.51 269.06 319.09 268.06C322.68 267.06 329.31 261.95 331.97 254.34C334.63 246.73 336.35 237.56 335.95 233.48C335.55 229.4 336.33 226.7 336.01 226.36C335.69 226.02 344.85 234.09 345.38 242.53C345.91 250.97 343.39 253.46 345.38 253.46C347.37 253.46 352.68 242.86 352.82 235.62C352.95 228.39 351.76 216.41 348.44 209.18C345.12 201.95 343 200.2 343.39 199.83C343.79 199.46 350.83 201.95 355.34 207.81C359.85 213.67 360.65 214.3 361.05 213.67C361.45 213.05 360.52 196.21 355.34 185.36L355.35 185.35Z" fill="#9D6A38"/>
<path d="M151.66 261.62C163.94 260.71 166.18 261.62 171.66 264.46C173.95 265.65 176.16 268.8 177.97 272.06C189.44 257.21 194.13 233.62 194.13 233.62C194.13 233.62 191.34 233.3 186.1 233.34C181.96 243.9 170.81 259.58 151.98 259.18C135.31 258.82 128.48 242.73 125.79 233.34C121.48 233.36 119.19 233.62 119.19 233.62C119.19 233.62 124.67 256.39 136.33 271.27C139.88 266.88 145.18 262.1 151.68 261.62H151.66Z" fill="#3E1717"/>
<path d="M151.97 259.18C170.8 259.59 181.96 243.9 186.09 233.34C184.08 233.36 181.73 233.43 179 233.6C169.8 234.17 164.85 222.78 157.45 221.28V221.11C157.18 221.11 156.92 221.16 156.65 221.19C156.38 221.16 156.12 221.11 155.85 221.11V221.28C148.45 222.78 143.5 234.17 134.3 233.6C130.88 233.39 128.06 233.33 125.77 233.34C128.46 242.73 135.29 258.82 151.96 259.18H151.97Z" fill="#3E1717"/>
<path d="M157.68 283.85C166.01 283.85 172.7 278.88 177.97 272.07C176.16 268.8 173.95 265.65 171.66 264.47C166.18 261.63 163.95 260.71 151.66 261.63C145.16 262.11 139.87 266.89 136.31 271.28C141.95 278.48 149.03 283.86 157.67 283.86L157.68 283.85Z" fill="#B86E68"/>
<path d="M153.67 239.15C153.75 239.88 153.83 240.67 153.91 241.51C154.82 250.28 156.22 264.12 156.68 270.35C156.72 270.94 156.76 271.47 156.79 271.91C158.74 271.79 161.06 271.31 163.7 270.14C170.18 267.29 172.5 249.74 173.26 240.71C164.36 238.77 156.87 236.67 153.29 235.61C153.39 236.52 153.51 237.72 153.66 239.15H153.67Z" fill="#FFFEFF"/>
<path d="M173.27 240.71C172.5 249.74 170.19 267.29 163.71 270.14C161.07 271.3 158.75 271.79 156.8 271.91C156.83 272.4 156.85 272.79 156.85 273.07C156.85 273.6 156.8 274.14 156.69 274.66C157.28 275 157.95 275.3 158.68 275.58C159.83 276.02 161.13 276.38 162.65 276.63C167.61 277.43 171.52 274.5 174.57 270C180.1 261.87 182.81 248.61 183.79 242.76C180.18 242.14 176.63 241.44 173.28 240.71H173.27Z" fill="#AEB1B3"/>
<path d="M144.23 240.1C141.75 241.7 138.38 243.77 133.77 246.44C132.67 247.08 131.56 247.61 130.44 248.04C131.21 253.22 133.17 263.43 137.33 270.45C138.77 272.88 140.48 274.94 142.49 276.26C144.27 277.42 145.85 278.2 147.28 278.7C148.53 277.9 149.45 276.79 150.11 275.45C154.45 266.66 147.43 247.79 144.22 240.1H144.23Z" fill="#FFFEFF"/>
<path d="M156.79 271.91C156.76 271.47 156.73 270.94 156.68 270.35C156.21 264.12 154.81 250.28 153.91 241.51C153.82 240.68 153.74 239.89 153.67 239.15C153.52 237.73 153.4 236.53 153.3 235.61C151.85 235.18 151.03 234.93 151.03 234.93C151.03 234.93 150.67 235.93 144.23 240.1C147.44 247.79 154.46 266.65 150.12 275.45C149.46 276.79 148.53 277.9 147.29 278.7C152.39 280.49 155.29 278.49 156.36 275.75C156.5 275.4 156.61 275.03 156.69 274.66C156.8 274.13 156.86 273.6 156.85 273.07C156.85 272.79 156.83 272.39 156.8 271.91H156.79Z" fill="#AEB1B3"/>
<path d="M222.4 148.36C197.88 143.7 173.45 148.5 159.91 153.29C146.37 158.08 126.92 153.97 126.92 153.97C126.92 153.97 96.7802 137.12 78.7002 153.97C60.6202 170.82 63.7702 205.61 81.5802 223.83C94.8402 237.39 108.09 248.59 120.84 249.48C121.62 249.53 122.4 249.55 123.18 249.52C125.62 249.44 128.04 248.97 130.44 248.03C131.55 247.59 132.66 247.07 133.77 246.43C138.37 243.77 141.75 241.7 144.23 240.09C150.67 235.92 151.03 234.92 151.03 234.92C151.03 234.92 151.85 235.18 153.3 235.6C156.88 236.65 164.37 238.76 173.27 240.7C176.62 241.43 180.17 242.14 183.78 242.75C185.88 243.11 188 243.43 190.11 243.71C191.82 243.94 193.53 244.15 195.22 244.31C197.47 244.53 199.69 244.69 201.85 244.77C223.9 245.59 248.01 227.51 252.26 205.87C256.51 184.23 246.92 153 222.4 148.34V148.36Z" fill="#DEB785"/>
<path d="M159.01 127.06C135.46 126.4 122.16 140.62 126.41 156.1C130.66 171.58 141.48 187.06 155.31 186.24C169.15 185.42 185.58 172.82 190.38 160.49C195.17 148.16 188.19 127.89 159.01 127.07V127.06Z" fill="#3A3229"/>
<path d="M167.39 134.89C167.09 131.43 159.04 129.56 150.06 130.95C141.08 132.34 139.01 136.91 139.76 138.94C140.51 140.97 141.31 142.56 152.96 142C164.61 141.44 167.63 137.67 167.39 134.88V134.89Z" fill="#615C55"/>
<path d="M90.7198 201.87C90.4198 199.62 67.5798 203.54 53.9298 210.41C40.2798 217.29 22.2998 235.06 24.4698 234.47C26.6298 233.88 43.8198 215.32 59.7298 210.41C75.6398 205.5 74.5598 204.62 82.5198 204.32C90.4798 204.03 90.8898 203.04 90.7298 201.86L90.7198 201.87Z" fill="#3A3229"/>
<path d="M117.28 221.27C115.76 219.58 99.1399 235.74 91.7699 249.13C84.3999 262.52 79.6299 287.35 81.0799 285.64C82.5299 283.93 86.1999 258.9 96.5499 245.85C106.89 232.8 105.5 232.68 111.9 227.94C118.3 223.2 118.08 222.15 117.28 221.27V221.27Z" fill="#3A3229"/>
<path d="M106.7 212.42C105.28 210.07 75.09 227.12 59.06 242.37C43.03 257.63 25.78 287.46 28.54 285.61C31.3 283.75 47.09 253.47 67.16 239.16C87.22 224.85 85.32 224.46 96.31 219.72C107.3 214.98 107.44 213.65 106.7 212.42V212.42Z" fill="#3A3229"/>
<path d="M214.94 196.54C215.24 194.29 238.08 198.21 251.73 205.08C265.38 211.96 283.36 229.73 281.19 229.14C279.03 228.55 261.84 209.99 245.93 205.08C230.02 200.17 231.1 199.29 223.14 198.99C215.18 198.7 214.77 197.71 214.93 196.53L214.94 196.54Z" fill="#3A3229"/>
<path d="M180.85 222.02C181.99 219.13 205.37 231.08 217.7 244.21C230.03 257.34 243.1 286.14 240.97 284.72C238.84 283.3 226.91 253.69 211.41 242.49C195.92 231.29 197.41 230.44 188.88 227.7C180.35 224.95 180.26 223.53 180.85 222.02V222.02Z" fill="#3A3229"/>
<path d="M198.89 212.73C199.83 210.67 226.27 221.7 240.93 232.63C255.59 243.56 272.68 266.32 270.23 265.07C267.78 263.82 251.84 240.56 233.97 230.79C216.1 221.02 217.62 220.52 208.13 217.7C198.64 214.88 198.4 213.81 198.89 212.73V212.73Z" fill="#3A3229"/>
<path d="M268.42 52.0801C268.42 52.0801 289.66 66.3401 314.81 67.0201C339.96 67.7001 347.22 78.6501 339.17 89.7301C331.12 100.81 320.38 115.4 300.56 109.97C280.75 104.54 268.42 52.0801 268.42 52.0801V52.0801Z" fill="#9D6A38"/>
<path d="M283.88 73.96C283.88 73.96 301.9 79.29 316.03 78.36C330.17 77.43 326.19 95.5 308.76 94.3C291.33 93.09 283.87 73.97 283.87 73.97L283.88 73.96Z" fill="#E8CE9C"/>
<path d="M90.5902 52.73C90.5902 52.73 69.1902 66.76 44.0402 67.16C18.8802 67.56 11.5102 78.43 19.4302 89.6C27.3502 100.77 37.9402 115.48 57.8102 110.26C77.6802 105.04 90.5902 52.73 90.5902 52.73V52.73Z" fill="#9D6A38"/>
<path d="M74.8904 74.4299C74.8904 74.4299 56.8104 79.5599 42.6904 78.4699C28.5704 77.3799 32.3404 95.4999 49.7804 94.4799C67.2204 93.4599 74.8904 74.4199 74.8904 74.4199V74.4299Z" fill="#E8CE9C"/>
<path fill-rule="evenodd" clip-rule="evenodd" d="M212.53 61.8899C228.51 51.7099 245.65 70.8899 235.61 73.9599C218.37 79.2399 208.23 64.6299 212.53 61.8899V61.8899Z" fill="#6B3900"/>
<path fill-rule="evenodd" clip-rule="evenodd" d="M85.7502 67.8699C94.1302 50.8799 118.73 58.3899 111.74 66.2199C99.7302 79.6699 83.4902 72.4399 85.7502 67.8699Z" fill="#6B3900"/>
<path fill-rule="evenodd" clip-rule="evenodd" d="M271.67 156.16C261.07 163.8 247.5 150.73 256.87 144.09C267.6 136.49 282.49 148.36 271.67 156.16Z" fill="#F05F7C"/>
<path fill-rule="evenodd" clip-rule="evenodd" d="M67.5599 156.16C56.9599 163.8 43.3799 150.73 52.7599 144.09C63.4899 136.49 78.3799 148.36 67.5599 156.16Z" fill="#F05F7C"/>
<path d="M103.59 250.46C106.1 243.57 101.97 229.41 89.8098 228.18C80.2998 227.22 67.5098 237.51 61.2798 247.48C55.8498 256.18 47.1798 276.17 48.0298 298.4C48.9498 322.2 63.7998 345.96 71.2498 355.24C77.5498 338.09 87.4798 320.78 99.8498 303.31C97.6298 298.24 90.4998 286.29 103.59 250.46V250.46Z" fill="#875214"/>
<path d="M293.42 282.08C292.5 259.84 282.26 240.58 276.15 232.35C269.13 222.9 255.55 213.66 246.15 215.37C234.12 217.56 231.13 232.02 234.19 238.7C245.26 262.86 246.59 276.57 246.03 284.54C254.24 299.27 261.62 321.43 266.98 346.44C273.27 339.67 294.54 309.07 293.42 282.08V282.08Z" fill="#875214"/>
</svg>
