<svg width="556" height="800" viewBox="0 0 556 800" fill="none" xmlns="http://www.w3.org/2000/svg">
<path d="M547.123 630.994C544.537 646.111 522.544 647.58 522.544 647.58C522.544 647.58 523.998 644.569 527.818 633.844C531.638 623.119 525.673 598.349 494.16 606.826C462.646 615.303 492 650.166 492 650.166C492 650.166 491.471 651.106 481.246 651.033C471.02 650.96 453.493 638.354 453.493 638.354L452.538 657.615C452.538 657.615 458.988 662.86 476.588 666.973C494.189 671.087 512.436 657.6 512.436 657.6C512.436 657.6 533.577 658.746 544.934 647.58C556.305 636.415 555.85 628.863 554.337 621.444C552.823 614.025 549.694 615.861 547.108 630.979L547.123 630.994ZM507.955 643.922C500.668 645.568 487.137 625.572 495.217 621.444C503.313 617.316 511.305 616.023 513.464 627.438C515.624 638.854 513.626 642.644 507.955 643.922Z" fill="#DCABAD"/>
<path fill-rule="evenodd" clip-rule="evenodd" d="M169.151 405.814C126.81 431.451 79.2086 576.002 107.519 635.606C163.01 752.479 342.483 749.305 414.516 697.076C523.999 617.683 450.247 504.41 388.806 427.381C346.7 374.609 355.779 360.725 272.712 370.26C146.82 384.717 220.513 374.697 169.151 405.814V405.814Z" fill="#DCABAD"/>
<path fill-rule="evenodd" clip-rule="evenodd" d="M207.334 513.944C167.461 557.226 160.615 605.885 173.91 634.798C207.54 707.904 325.69 705.083 382.797 666.708C427.371 636.767 399.736 554.949 378.727 528.621C336.533 475.746 253.73 463.581 207.334 513.944V513.944Z" fill="#CC8787"/>
<path d="M379.579 409.046C379.579 409.046 470.873 453.033 497.994 467.695C525.1 482.358 534.797 506.702 531.477 523.024C528.156 539.347 471.711 536.305 425.799 515.825C379.873 495.345 337.547 489.777 338.648 471.265C339.75 452.754 361.538 400.305 379.594 409.046H379.579Z" fill="#DCABAD"/>
<path d="M154.752 412.704C154.752 412.704 63.4585 456.691 36.3377 471.354C9.23154 486.016 -0.450267 510.36 2.87005 526.682C6.19037 543.005 62.6357 539.964 108.547 519.484C154.473 499.003 196.8 493.435 195.698 474.924C194.596 456.412 172.809 403.963 154.752 412.704V412.704Z" fill="#DCABAD"/>
<path d="M176.804 696.944C176.804 696.944 177.98 749.217 152.049 757.459C126.118 765.716 134.757 793.616 172.882 791.25C211.007 788.9 211.389 788.503 236.541 758.238C261.693 727.973 271.904 715.397 271.904 715.397L176.804 696.93V696.944Z" fill="#DCABAD"/>
<path d="M336.312 717.41C336.312 717.41 376.787 750.496 366.18 775.574C355.587 800.638 382.4 812.215 405.392 781.73C428.384 751.245 428.34 750.687 421.714 711.901C415.089 673.115 412.18 657.174 412.18 657.174L336.297 717.41H336.312Z" fill="#DCABAD"/>
<path d="M103.449 585.332C98.6746 586.83 95.8832 590.165 101.951 618.829C108.019 647.492 148.773 730.221 287.213 733.409C425.652 736.612 455.359 656.175 468.611 631.948C481.863 607.722 479.585 584.876 468.611 585.332C457.636 585.787 119.449 580.307 103.449 585.332V585.332Z" fill="#D37B72"/>
<path d="M167.725 683.604C167.725 683.604 152.754 723.507 152.99 733.497C153.225 743.487 230.488 764.452 244.254 764.452C258.02 764.452 274.798 727.914 277.193 711.151C279.588 694.388 167.725 683.604 167.725 683.604V683.604Z" fill="#D37B72"/>
<path d="M364.652 693.271C335.445 703.056 327.967 707.684 331.185 717.645C334.387 727.62 346.493 753.963 351.841 753.61C357.189 753.257 385.573 741.489 403.247 733.482C420.921 725.475 431.749 727.253 429.178 714.795C426.622 702.336 421.979 675.627 406.67 680.607C391.362 685.588 364.652 693.257 364.652 693.257V693.271Z" fill="#D37B72"/>
<path d="M169.782 413.233C155.59 412.205 159.072 408.194 155.458 426.485C151.844 444.776 128.058 582.54 128.058 582.54C128.058 582.54 119.948 606.752 126.383 615.641C132.818 624.529 161.144 631.698 168.489 610.234C175.835 588.769 180.683 520.439 181.55 510.654C182.241 502.882 187.118 434.86 187.912 419.786C188 418.214 187.824 416.319 186.252 416.186L169.782 413.263V413.233Z" fill="#C9736F"/>
<path d="M138.21 568.363C137.137 568.495 136.109 568.73 135.11 569.038C143.352 569.538 150.315 575.841 151.344 584.332C152.372 592.824 147.113 600.611 139.238 603.064C140.281 603.123 141.339 603.108 142.411 602.976C151.976 601.816 158.778 593.133 157.617 583.568C156.457 574.004 147.774 567.202 138.21 568.363Z" fill="#CBA270"/>
<path d="M151.344 584.333C150.316 575.841 143.352 569.538 135.11 569.039C127.235 571.492 121.975 579.279 123.004 587.77C124.032 596.262 130.996 602.565 139.238 603.064C147.113 600.611 152.372 592.824 151.344 584.333Z" fill="#E2DF90"/>
<path d="M378.051 408.576C377.419 408.312 376.729 408.223 376.053 408.312C363.095 410.075 365.196 409.59 365.446 427.749C365.681 445.908 370.999 574.43 371.278 581.1C371.278 581.277 371.278 581.438 371.263 581.629C370.984 584.303 368.854 607.163 376.494 614.098C384.618 621.458 413.825 622.604 416.573 600.082C419.32 577.56 407.39 511.08 405.657 499.371C404.555 491.995 395.725 435.388 393.183 419.066C392.757 416.333 390.95 414.027 388.409 412.939L378.066 408.561L378.051 408.576Z" fill="#C9736F"/>
<path d="M378.286 565.424C377.258 565.777 376.303 566.218 375.392 566.732C383.561 565.512 391.685 570.243 394.447 578.324C397.209 586.419 393.683 595.116 386.484 599.156C387.513 599.009 388.541 598.774 389.569 598.422C398.678 595.307 403.541 585.39 400.427 576.281C397.312 567.173 387.395 562.31 378.286 565.424Z" fill="#CBA270"/>
<path d="M394.447 578.324C391.685 570.228 383.561 565.512 375.392 566.732C368.193 570.772 364.653 579.469 367.429 587.565C370.191 595.66 378.316 600.376 386.484 599.156C393.683 595.116 397.224 586.419 394.447 578.324V578.324Z" fill="#E2DF90"/>
<path fill-rule="evenodd" clip-rule="evenodd" d="M411.005 93.9103C416.544 4.99635 514.508 7.64086 529.831 11.6517C544.229 48.1311 526.717 128.113 438.728 133.137C436.73 133.255 410.902 95.4529 411.005 93.9103Z" fill="#E8B4B5"/>
<path fill-rule="evenodd" clip-rule="evenodd" d="M431.72 94.5861C453.479 48.1899 502.52 21.8918 519.151 31.2798C524.484 45.5454 479.38 117.872 443.944 119.753C442.298 119.856 431.177 95.7468 431.72 94.5861Z" fill="#D18C8C"/>
<path fill-rule="evenodd" clip-rule="evenodd" d="M123.327 90.9719C117.789 2.05794 19.8245 4.70244 4.5011 8.69858C-9.89674 45.178 7.61573 125.159 95.6041 130.184C97.6022 130.301 123.43 92.4998 123.327 90.9572V90.9719Z" fill="#E8B4B5"/>
<path fill-rule="evenodd" clip-rule="evenodd" d="M102.612 91.6476C80.8536 45.2367 31.8276 18.9533 15.1819 28.3412C9.84882 42.6069 54.9522 114.934 90.3885 116.814C92.034 116.917 103.156 92.8083 102.612 91.6476V91.6476Z" fill="#D18C8C"/>
<path d="M211.169 48.8801C114.439 58.268 31.2253 172.143 26.4652 257.134C21.7051 342.126 63.591 406.872 216.884 420.197C370.177 433.522 486.329 383.071 500.609 306.895C514.89 230.733 475.854 23.1697 211.169 48.8801V48.8801Z" fill="#E8B4B5"/>
<path fill-rule="evenodd" clip-rule="evenodd" d="M59.6098 289.06C77.9157 304.559 104.61 282.566 88.4055 269.094C69.8499 253.667 40.922 273.251 59.6098 289.06Z" fill="#EF99B0"/>
<path fill-rule="evenodd" clip-rule="evenodd" d="M400.941 309.304C419.246 324.789 445.941 302.811 429.736 289.338C411.195 273.912 382.268 293.496 400.941 309.304Z" fill="#EF99B0"/>
<path d="M254.421 356.347C294.512 356.347 327.013 331.655 327.013 301.195C327.013 270.735 294.512 246.042 254.421 246.042C214.33 246.042 181.83 270.735 181.83 301.195C181.83 331.655 214.33 356.347 254.421 356.347Z" fill="#CC8787"/>
<path d="M223.378 327.963C232.425 327.963 239.759 316.603 239.759 302.59C239.759 288.577 232.425 277.218 223.378 277.218C214.331 277.218 206.996 288.577 206.996 302.59C206.996 316.603 214.331 327.963 223.378 327.963Z" fill="#694E4E"/>
<path d="M283.658 326.567C292.705 326.567 300.039 315.208 300.039 301.195C300.039 287.182 292.705 275.822 283.658 275.822C274.611 275.822 267.277 287.182 267.277 301.195C267.277 315.208 274.611 326.567 283.658 326.567Z" fill="#694E4E"/>
<path d="M204.234 38.787C206.6 38.5813 209.083 37.6704 211.712 36.26C218.97 39.9623 233.985 44.8399 256.595 53.6109C275.959 61.1183 295.661 65.9666 310.896 68.9784C303.153 69.2575 290.871 69.375 268.437 69.5513C203.235 70.0802 167.52 72.0489 165.83 58.2241C164.155 44.3992 190.556 39.9623 204.234 38.787V38.787Z" fill="#F5C86A"/>
<path d="M266.688 1.20572C267.099 1.04411 267.555 0.91189 268.025 0.779665C285.728 -3.92167 344.113 13.5467 360.48 28.8114C362.522 30.7213 363.917 32.6018 364.49 34.3795C369.735 50.8782 375.979 58.8264 344.524 63.9538C323.897 67.3035 325.631 68.4495 310.881 68.9784C295.645 65.9666 275.944 61.133 256.58 53.6109C233.955 44.84 218.955 39.9623 211.697 36.26C224.259 29.5313 240.449 11.2107 266.688 1.20572V1.20572Z" fill="#FED592"/>
<path fill-rule="evenodd" clip-rule="evenodd" d="M434.467 149.224C421.568 116.932 375.495 127.172 387.16 142.51C407.199 168.823 437.934 157.922 434.467 149.224Z" fill="#694E4E"/>
<path fill-rule="evenodd" clip-rule="evenodd" d="M151.241 139.675C131.32 158.157 102.656 138.514 120.286 122.412C140.487 103.959 171.575 120.825 151.241 139.675Z" fill="#765858"/>
</svg>
