<svg width="328" height="121" viewBox="0 0 328 121" fill="none" xmlns="http://www.w3.org/2000/svg">
<path fill-rule="evenodd" clip-rule="evenodd" d="M242.167 103.488C288.445 153.557 355.924 82.5085 314.964 38.9624C268.053 -10.9011 194.918 52.3906 242.167 103.488V103.488Z" fill="white"/>
<path fill-rule="evenodd" clip-rule="evenodd" d="M258.548 81.4655C291.545 117.166 339.631 66.5241 310.439 35.4806C277.001 -0.0585173 224.875 45.0596 258.548 81.4655V81.4655Z" fill="#765858"/>
<path fill-rule="evenodd" clip-rule="evenodd" d="M281.026 53.9039C292.412 66.2302 309.043 48.7324 298.95 38.0222C287.403 25.74 269.405 41.3278 281.026 53.9039V53.9039Z" fill="white"/>
<path fill-rule="evenodd" clip-rule="evenodd" d="M15.4298 83.4486C61.7233 133.518 129.187 62.4689 88.2564 18.9375C41.3459 -30.926 -31.7892 32.3657 15.4298 83.4486V83.4486Z" fill="white"/>
<path fill-rule="evenodd" clip-rule="evenodd" d="M32.6629 65.8042C65.6604 101.49 113.746 50.8627 84.5539 19.8192C51.1303 -15.7199 -1.01039 29.3982 32.6629 65.8042Z" fill="#765858"/>
<path fill-rule="evenodd" clip-rule="evenodd" d="M56.2284 35.3191C67.6144 47.6454 84.2307 30.1623 74.1522 19.4374C62.6045 7.16985 44.6072 22.7577 56.2284 35.3191Z" fill="white"/>
</svg>
