<svg width="400" height="539" viewBox="0 0 400 539" fill="none" xmlns="http://www.w3.org/2000/svg">
<path d="M389.939 429.53C388.139 439.83 373.239 440.83 373.239 440.83C373.239 440.83 374.239 438.73 376.839 431.43C379.439 424.13 375.339 407.23 353.939 413.03C332.539 418.83 352.439 442.53 352.439 442.53C352.439 442.53 352.039 443.13 345.139 443.13C338.139 443.13 326.239 434.53 326.239 434.53L325.539 447.63C325.539 447.63 329.939 451.23 341.939 454.03C353.939 456.83 366.339 447.63 366.339 447.63C366.339 447.63 380.739 448.43 388.439 440.83C396.139 433.23 395.839 428.13 394.839 423.03C393.839 417.93 391.639 419.23 389.939 429.53V429.53ZM363.239 438.33C358.239 439.43 349.039 425.83 354.539 423.03C360.039 420.23 365.539 419.33 366.939 427.13C368.439 434.93 367.039 437.43 363.139 438.33H363.239Z" fill="#DCABAD"/>
<path d="M268.039 481.53C268.039 481.53 325.339 501.93 325.439 520.53C325.639 539.03 345.539 539.03 351.639 513.73C357.739 488.43 357.539 488.13 342.939 465.73C328.339 443.33 322.139 434.13 322.139 434.13L268.039 481.53V481.53Z" fill="#DCABAD"/>
<path fill-rule="evenodd" clip-rule="evenodd" d="M132.64 276.23C103.84 293.73 71.4399 392.03 90.6399 432.63C128.44 512.23 250.54 510.03 299.64 474.43C374.14 420.43 323.94 343.33 282.14 290.83C253.44 254.93 259.64 245.43 203.14 251.93C117.44 261.73 167.64 254.93 132.64 276.13V276.23Z" fill="#DCABAD"/>
<path fill-rule="evenodd" clip-rule="evenodd" d="M158.639 349.83C131.539 379.33 126.839 412.43 135.939 432.13C158.839 481.93 239.239 479.93 278.139 453.83C308.439 433.43 289.639 377.73 275.339 359.83C246.639 323.83 190.239 315.53 158.639 349.83Z" fill="#CC8787"/>
<path d="M270.542 274.53C270.542 274.53 336.542 254.43 356.842 249.23C377.142 244.03 393.242 251.73 399.142 261.43C405.042 271.13 375.342 295.63 342.942 306.63C310.542 317.53 286.742 334.33 278.742 324.53C270.742 314.73 257.442 278.43 270.542 274.53V274.53Z" fill="#DCABAD"/>
<path d="M125.04 276.73C125.04 276.73 64.34 244.03 45.34 234.93C26.44 225.83 9.14001 230.23 1.44001 238.63C-6.25999 247.03 18.04 276.83 47.64 293.93C77.24 311.03 97.24 332.13 107.04 324.13C116.84 316.13 136.94 283.13 124.94 276.73H125.04Z" fill="#DCABAD"/>
<path d="M137.842 474.43C137.842 474.43 138.642 510.03 120.942 515.63C103.242 521.23 109.142 540.23 135.142 538.63C161.042 537.03 161.342 536.73 178.442 516.13C195.542 495.53 202.542 486.93 202.542 486.93L137.842 474.33V474.43Z" fill="#DCABAD"/>
<path d="M87.9411 398.43C84.6411 399.43 82.7411 401.73 86.9411 421.23C91.0411 440.73 118.841 497.03 213.041 499.23C307.241 501.43 327.541 446.63 336.541 430.13C345.541 413.63 344.041 398.13 336.541 398.43C329.041 398.73 98.8411 395.03 88.0411 398.43H87.9411Z" fill="#D37B72"/>
<path d="M133.14 281.33C123.44 280.63 125.84 277.93 123.44 290.33C120.94 302.73 104.74 396.53 104.74 396.53C104.74 396.53 99.2397 413.03 103.64 419.03C108.04 425.03 127.34 429.93 132.34 415.33C137.34 400.73 140.64 354.23 141.24 347.53C141.84 340.83 145.04 295.93 145.54 285.63C145.54 284.53 145.54 283.23 144.44 283.13L133.24 281.13L133.14 281.33Z" fill="#C9736F"/>
<path d="M111.643 386.93C110.943 386.93 110.243 387.23 109.543 387.43C115.143 387.73 119.943 392.03 120.643 397.83C121.343 403.63 117.743 408.93 112.443 410.53C113.143 410.53 113.843 410.53 114.643 410.53C121.143 409.73 125.743 403.83 125.043 397.33C124.243 390.83 118.343 386.23 111.843 386.93H111.643Z" fill="#CBA270"/>
<path d="M120.541 397.73C119.841 391.93 115.141 387.63 109.441 387.33C104.041 389.03 100.541 394.33 101.241 400.03C101.941 405.83 106.641 410.13 112.341 410.43C117.741 408.73 121.241 403.43 120.541 397.73Z" fill="#E2DF90"/>
<path d="M274.839 278.13C274.439 277.93 273.939 277.93 273.439 277.93C264.639 279.13 266.039 278.83 266.239 291.13C266.439 303.53 270.039 390.93 270.239 395.53C270.239 395.63 270.239 395.73 270.239 395.93C270.039 397.73 268.639 413.33 273.839 418.03C279.339 423.03 299.239 423.83 301.139 408.53C303.039 393.23 294.939 347.93 293.739 340.03C293.039 335.03 286.939 296.43 285.239 285.33C284.939 283.43 283.739 281.93 281.939 281.13L274.939 278.13H274.839Z" fill="#C9736F"/>
<path d="M275.039 384.93C274.339 385.13 273.739 385.43 273.039 385.83C278.639 385.03 284.139 388.23 286.039 393.73C287.939 399.23 285.539 405.13 280.639 407.93C281.339 407.83 282.039 407.63 282.739 407.43C288.939 405.33 292.239 398.53 290.139 392.33C288.039 386.13 281.239 382.83 275.039 384.93V384.93Z" fill="#CBA270"/>
<path d="M286.039 393.63C284.139 388.13 278.639 384.93 273.039 385.73C268.139 388.43 265.739 394.43 267.639 399.93C269.539 405.43 275.039 408.63 280.639 407.83C285.539 405.13 287.939 399.13 286.039 393.63Z" fill="#E2DF90"/>
<path d="M131.741 465.33C131.741 465.33 121.541 492.53 121.741 499.33C121.941 506.13 174.441 520.43 183.841 520.43C193.241 520.43 204.641 495.53 206.241 484.13C207.841 472.73 131.741 465.33 131.741 465.33V465.33Z" fill="#D37B72"/>
<path d="M292.439 460.33C278.639 476.03 275.739 481.33 281.039 486.13C286.339 490.93 302.439 502.23 305.539 500.23C308.639 498.23 321.239 481.53 328.939 470.83C336.639 460.03 343.539 457.43 337.839 450.93C332.139 444.43 320.239 430.33 312.939 438.53C305.639 446.73 292.539 460.33 292.539 460.33H292.439Z" fill="#D37B72"/>
<path fill-rule="evenodd" clip-rule="evenodd" d="M297.34 63.9303C301.14 3.43026 367.74 5.23026 378.24 7.93026C388.04 32.7303 376.14 87.2303 316.24 90.6303C314.84 90.6303 297.34 64.9303 297.34 63.9303V63.9303Z" fill="#E8B4B5"/>
<path fill-rule="evenodd" clip-rule="evenodd" d="M311.441 64.43C326.241 32.83 359.641 14.93 370.941 21.33C374.541 31.03 343.841 80.23 319.741 81.53C318.641 81.53 311.041 65.23 311.441 64.43Z" fill="#D18C8C"/>
<path fill-rule="evenodd" clip-rule="evenodd" d="M101.54 61.9303C97.7399 1.43026 31.0399 3.23026 20.6399 5.93026C10.8399 30.7303 22.7399 85.2303 82.6399 88.6303C84.0399 88.6303 101.54 62.9303 101.54 61.9303V61.9303Z" fill="#E8B4B5"/>
<path fill-rule="evenodd" clip-rule="evenodd" d="M87.4404 62.43C72.5404 30.83 39.2404 12.93 27.8404 19.33C24.2404 29.03 54.9404 78.23 79.0404 79.53C80.1404 79.53 87.7404 63.23 87.3404 62.43H87.4404Z" fill="#D18C8C"/>
<path d="M161.242 33.3303C95.4416 39.7303 38.7416 117.23 35.5416 175.13C32.3416 232.93 60.8416 277.03 165.142 286.13C269.442 295.23 348.542 260.83 358.242 209.03C367.942 157.23 341.442 15.9303 161.242 33.4303V33.3303Z" fill="#E8B4B5"/>
<path d="M156.541 26.4305C158.141 26.3305 159.841 25.6305 161.641 24.7305C166.541 27.2305 176.841 30.5305 192.241 36.5305C205.441 41.6305 218.841 44.9305 229.241 47.0305C223.941 47.2305 215.641 47.3305 200.341 47.4305C155.941 47.8305 131.641 49.1305 130.541 39.7305C129.441 30.3305 147.341 27.3305 156.641 26.5305L156.541 26.4305Z" fill="#F5C86A"/>
<path d="M199.041 0.830316C199.341 0.730316 199.641 0.630316 199.941 0.530316C212.041 -2.66968 251.741 9.23032 262.841 19.6303C264.241 20.9303 265.141 22.2303 265.541 23.4303C269.141 34.6303 273.341 40.0303 251.941 43.5303C237.941 45.8303 239.041 46.6303 229.041 46.9303C218.641 44.9303 205.241 41.6303 192.041 36.4303C176.641 30.4303 166.441 27.1303 161.441 24.6303C170.041 20.0303 181.041 7.53032 198.841 0.730316L199.041 0.830316Z" fill="#FED592"/>
<path fill-rule="evenodd" clip-rule="evenodd" d="M58.1412 196.73C70.6412 207.23 88.7412 192.33 77.7412 183.13C65.1412 172.63 45.4412 185.93 58.1412 196.73V196.73Z" fill="#EF99B0"/>
<path fill-rule="evenodd" clip-rule="evenodd" d="M290.442 210.53C302.942 221.03 321.042 206.13 310.042 196.93C297.442 186.43 277.742 199.73 290.442 210.53Z" fill="#EF99B0"/>
<path d="M190.74 242.53C218.023 242.53 240.14 225.741 240.14 205.03C240.14 184.32 218.023 167.53 190.74 167.53C163.457 167.53 141.34 184.32 141.34 205.03C141.34 225.741 163.457 242.53 190.74 242.53Z" fill="#CC8787"/>
<path d="M169.54 223.33C175.725 223.33 180.74 215.585 180.74 206.03C180.74 196.476 175.725 188.73 169.54 188.73C163.354 188.73 158.34 196.476 158.34 206.03C158.34 215.585 163.354 223.33 169.54 223.33Z" fill="#694E4E"/>
<path d="M210.641 222.33C216.827 222.33 221.841 214.585 221.841 205.03C221.841 195.476 216.827 187.73 210.641 187.73C204.456 187.73 199.441 195.476 199.441 205.03C199.441 214.585 204.456 222.33 210.641 222.33Z" fill="#694E4E"/>
<path d="M149.541 112.83C149.541 112.83 107.441 137.73 76.6406 135.33L92.5406 112.83H149.541V112.83Z" fill="#E8B4B5"/>
<path d="M240.141 125.93C240.141 125.93 282.241 150.83 313.041 148.43L297.141 125.93H240.141Z" fill="#E8B4B5"/>
<path d="M281.94 90.3303C275.24 92.8303 282.64 105.93 296.94 107.83C311.24 109.83 313.94 104.43 313.94 102.33C313.94 100.23 306.14 102.93 298.24 99.3303C290.34 95.7303 287.34 88.3303 281.94 90.3303Z" fill="#765858"/>
<path d="M124.539 81.6301C131.239 84.1301 123.839 97.2301 109.539 99.1301C95.2391 101.13 92.5391 95.7301 92.5391 93.6301C92.5391 91.5301 100.339 94.2301 108.239 90.6301C116.139 87.0301 119.139 79.6301 124.539 81.6301Z" fill="#765858"/>
</svg>
