<svg width="393" height="535" viewBox="0 0 393 535" fill="none" xmlns="http://www.w3.org/2000/svg">
<path d="M386.9 425.6C385.1 435.9 370.2 436.9 370.2 436.9C370.2 436.9 371.2 434.8 373.8 427.5C376.4 420.2 372.3 403.3 350.9 409.1C329.5 414.9 349.4 438.6 349.4 438.6C349.4 438.6 349 439.2 342.1 439.2C335.2 439.2 323.2 430.6 323.2 430.6L322.5 443.7C322.5 443.7 326.9 447.3 338.9 450.1C350.9 452.9 363.3 443.7 363.3 443.7C363.3 443.7 377.7 444.5 385.4 436.9C393.1 429.3 392.8 424.2 391.8 419.1C390.8 414 388.6 415.3 386.9 425.6V425.6ZM360.2 434.4C355.2 435.5 346 421.9 351.5 419.1C357 416.3 362.5 415.4 363.9 423.2C365.4 431 364 433.5 360.1 434.4H360.2Z" fill="#DCABAD"/>
<path fill-rule="evenodd" clip-rule="evenodd" d="M129.699 272.3C100.899 289.8 68.4985 388.1 87.6985 428.7C125.499 508.3 247.599 506.1 296.699 470.5C371.199 416.5 320.999 339.4 279.199 286.9C250.499 251 256.699 241.5 200.199 248C114.499 257.8 164.699 251 129.699 272.2V272.3Z" fill="#DCABAD"/>
<path fill-rule="evenodd" clip-rule="evenodd" d="M155.6 345.9C128.5 375.4 123.8 408.5 132.9 428.2C155.8 478 236.2 476 275.1 449.9C305.4 429.5 286.6 373.8 272.3 355.9C243.6 319.9 187.2 311.6 155.6 345.9V345.9Z" fill="#CC8787"/>
<path d="M258.099 275.8C258.099 275.8 320.899 247.2 340.399 239.5C359.899 231.7 376.799 237.3 383.899 246.1C390.999 255 364.799 283.1 334.099 298.2C303.399 313.3 281.999 333 272.799 324.3C263.599 315.7 245.699 281.4 258.099 275.8Z" fill="#DCABAD"/>
<path d="M125.901 276.7C125.901 276.7 65.2015 243.9 46.3015 234.8C27.4015 225.7 10.1015 230.1 2.40148 238.4C-5.29852 246.7 18.9015 276.7 48.5015 293.8C78.1015 311 98.1015 332.1 107.801 324.1C117.601 316.1 137.801 283.2 125.801 276.7H125.901Z" fill="#DCABAD"/>
<path d="M134.901 470.5C134.901 470.5 135.701 506.1 118.001 511.7C100.301 517.3 106.201 536.3 132.201 534.7C158.101 533.1 158.401 532.8 175.501 512.2C192.601 491.6 199.601 483 199.601 483L134.901 470.4V470.5Z" fill="#DCABAD"/>
<path d="M265 477.6C265 477.6 322.3 498 322.4 516.6C322.6 535.1 342.5 535.1 348.6 509.8C354.7 484.5 354.5 484.2 339.9 461.8C325.3 439.4 319.1 430.2 319.1 430.2L265 477.6V477.6Z" fill="#DCABAD"/>
<path fill-rule="evenodd" clip-rule="evenodd" d="M294.301 60.0001C298.001 -0.499912 364.701 1.30009 375.201 4.00009C385.001 28.8001 373.101 83.3001 313.201 86.7001C311.801 86.7001 294.301 61.0001 294.301 60.0001Z" fill="#E8B4B5"/>
<path fill-rule="evenodd" clip-rule="evenodd" d="M308.402 60.4999C323.202 28.8999 356.602 10.9999 367.902 17.3999C371.502 27.0999 340.802 76.2999 316.702 77.5999C315.602 77.5999 308.002 61.2999 308.402 60.4999V60.4999Z" fill="#D18C8C"/>
<path fill-rule="evenodd" clip-rule="evenodd" d="M98.5009 58.0001C94.7009 -2.49991 28.0009 -0.699913 17.6009 2.00009C7.80088 26.8001 19.7009 81.3001 79.6009 84.7001C81.0009 84.7001 98.5009 59.0001 98.5009 58.0001Z" fill="#E8B4B5"/>
<path fill-rule="evenodd" clip-rule="evenodd" d="M84.399 58.4999C69.599 26.8999 36.199 8.99986 24.899 15.3999C21.299 25.0999 51.999 74.2999 76.099 75.5999C77.199 75.5999 84.799 59.2999 84.399 58.4999V58.4999Z" fill="#D18C8C"/>
<path d="M158.299 29.4001C92.3986 35.8001 35.7986 113.3 32.4986 171.1C29.2986 228.9 57.7986 273 162.099 282.1C266.399 291.2 345.499 256.8 355.199 205C364.899 153.2 338.399 11.9001 158.199 29.4001H158.299Z" fill="#E8B4B5"/>
<path fill-rule="evenodd" clip-rule="evenodd" d="M55.0982 192.9C67.5982 203.4 85.6982 188.5 74.6982 179.3C62.0982 168.8 42.3982 182.1 55.0982 192.9Z" fill="#EF99B0"/>
<path fill-rule="evenodd" clip-rule="evenodd" d="M287.399 206.6C299.899 217.1 317.999 202.2 306.999 193C294.399 182.5 274.699 195.8 287.399 206.6Z" fill="#EF99B0"/>
<path d="M187.701 238.6C214.984 238.6 237.101 221.811 237.101 201.1C237.101 180.389 214.984 163.6 187.701 163.6C160.418 163.6 138.301 180.389 138.301 201.1C138.301 221.811 160.418 238.6 187.701 238.6Z" fill="#CC8787"/>
<path d="M166.602 219.4C172.788 219.4 177.802 211.655 177.802 202.1C177.802 192.546 172.788 184.8 166.602 184.8C160.417 184.8 155.402 192.546 155.402 202.1C155.402 211.655 160.417 219.4 166.602 219.4Z" fill="#694E4E"/>
<path d="M207.602 218.4C213.788 218.4 218.802 210.655 218.802 201.1C218.802 191.546 213.788 183.8 207.602 183.8C201.417 183.8 196.402 191.546 196.402 201.1C196.402 210.655 201.417 218.4 207.602 218.4Z" fill="#694E4E"/>
<path d="M278.901 86.4001C272.201 88.9001 279.601 102 293.901 103.9C308.201 105.8 310.901 100.5 310.901 98.4001C310.901 96.3001 303.101 99.0001 295.201 95.4001C287.301 91.8001 284.301 84.4001 278.901 86.4001Z" fill="#765858"/>
<path d="M121.5 77.6999C128.2 80.1999 120.8 93.2999 106.5 95.1999C92.2 97.1999 89.5 91.7999 89.5 89.6999C89.5 87.5999 97.3 90.2999 105.2 86.6999C113.1 83.0999 116.1 75.6999 121.5 77.6999Z" fill="#765858"/>
<path d="M261.3 75.6998C261.3 75.6998 211.5 67.0998 214.9 42.7998C218.3 18.4998 244.9 16.7998 235.8 10.9998C226.6 5.29983 206 12.3998 197.7 23.2998C197.7 23.2998 209.7 5.79983 199.1 2.99983C188.5 0.099833 172.5 14.6998 169.1 22.1998C165.7 29.5998 164.5 30.7998 164.5 30.7998C164.5 30.7998 171.9 14.4998 164.5 12.4998C157.1 10.4998 150.8 27.6998 149.3 36.2998C147.9 44.8998 141 82.0998 190.5 82.8998C240 83.7998 266.9 80.8998 261.2 75.6998H261.3Z" fill="#E8B4B5"/>
</svg>
