<svg width="561" height="800" viewBox="0 0 561 800" fill="none" xmlns="http://www.w3.org/2000/svg">
<path d="M552.081 629.462C549.472 644.717 527.279 646.199 527.279 646.199C527.279 646.199 528.746 643.16 532.601 632.338C536.455 621.516 530.437 596.522 498.637 605.075C466.838 613.629 496.458 648.809 496.458 648.809C496.458 648.809 495.924 649.757 485.606 649.683C475.288 649.609 457.602 636.889 457.602 636.889L456.639 656.325C456.639 656.325 463.147 661.617 480.907 665.768C498.667 669.919 517.079 656.31 517.079 656.31C517.079 656.31 538.412 657.466 549.872 646.199C561.346 634.933 560.887 627.313 559.36 619.826C557.833 612.34 554.675 614.193 552.066 629.447L552.081 629.462ZM512.558 642.508C505.205 644.168 491.551 623.992 499.705 619.826C507.873 615.66 515.938 614.356 518.117 625.875C520.296 637.393 518.28 641.218 512.558 642.508Z" fill="#DCABAD"/>
<path fill-rule="evenodd" clip-rule="evenodd" d="M170.683 402.243C127.958 428.112 79.9259 573.973 108.493 634.117C164.487 752.048 345.586 748.846 418.272 696.144C528.747 616.031 454.326 501.732 392.329 424.005C349.841 370.755 359.003 356.745 275.183 366.367C148.15 380.954 222.511 370.844 170.683 402.243V402.243Z" fill="#DCABAD"/>
<path fill-rule="evenodd" clip-rule="evenodd" d="M209.213 511.353C168.978 555.027 162.07 604.127 175.487 633.302C209.42 707.07 328.641 704.224 386.265 665.501C431.244 635.288 403.358 552.729 382.159 526.163C339.582 472.809 256.03 460.534 209.213 511.353V511.353Z" fill="#CC8787"/>
<path d="M383.019 405.504C383.019 405.504 475.14 449.89 502.507 464.685C529.858 479.48 539.643 504.044 536.292 520.515C532.942 536.985 475.985 533.916 429.658 513.251C383.315 492.585 340.605 486.966 341.717 468.287C342.829 449.608 364.814 396.683 383.034 405.504H383.019Z" fill="#DCABAD"/>
<path d="M156.155 409.195C156.155 409.195 64.0336 453.581 36.667 468.376C9.31525 483.171 -0.454287 507.736 2.89612 524.206C6.24652 540.676 63.2034 537.608 109.531 516.942C155.873 496.276 198.583 490.658 197.472 471.978C196.36 453.299 174.374 400.375 156.155 409.195V409.195Z" fill="#DCABAD"/>
<path d="M178.407 696.011C178.407 696.011 179.593 748.757 153.427 757.074C127.261 765.406 135.978 793.558 174.449 791.171C212.919 788.799 213.305 788.399 238.685 757.86C264.065 727.321 274.368 714.631 274.368 714.631L178.407 695.996V696.011Z" fill="#DCABAD"/>
<path d="M339.359 716.662C339.359 716.662 380.202 750.047 369.498 775.353C358.809 800.644 385.865 812.326 409.065 781.564C432.266 750.803 432.222 750.24 425.536 711.102C418.85 671.965 415.915 655.88 415.915 655.88L339.344 716.662H339.359Z" fill="#DCABAD"/>
<path fill-rule="evenodd" clip-rule="evenodd" d="M414.729 87.5122C420.318 -2.2075 519.17 0.460963 534.632 4.49331C549.16 41.3033 531.489 122.009 442.703 127.08C440.687 127.198 414.625 89.0539 414.729 87.4973V87.5122Z" fill="#E8B4B5"/>
<path fill-rule="evenodd" clip-rule="evenodd" d="M435.632 88.194C457.588 41.3773 507.073 14.8409 523.854 24.314C529.236 38.7088 483.724 111.691 447.966 113.589C446.306 113.693 435.083 89.3652 435.632 88.194V88.194Z" fill="#D18C8C"/>
<path fill-rule="evenodd" clip-rule="evenodd" d="M124.445 84.5473C118.856 -5.17235 20.0041 -2.50388 4.54188 1.52846C-9.98642 38.3384 7.68474 119.045 96.4704 124.115C98.4866 124.233 124.549 86.0891 124.445 84.5325V84.5473Z" fill="#E8B4B5"/>
<path fill-rule="evenodd" clip-rule="evenodd" d="M103.542 85.2292C81.5867 38.3977 32.1163 11.8761 15.3198 21.3343C9.93845 35.7292 55.4506 108.712 91.208 110.609C92.8683 110.713 104.091 86.3855 103.542 85.2144V85.2292Z" fill="#D18C8C"/>
<path d="M213.082 42.0742C115.476 51.5473 31.5082 166.454 26.7049 252.216C21.9017 337.977 64.1672 403.31 218.849 416.756C373.531 430.202 490.736 379.294 505.146 302.427C519.555 225.576 480.166 16.1308 213.082 42.0742V42.0742Z" fill="#E8B4B5"/>
<path fill-rule="evenodd" clip-rule="evenodd" d="M438.404 143.327C425.388 110.743 378.897 121.075 390.668 136.553C410.889 163.104 441.903 152.104 438.404 143.327Z" fill="#694E4E"/>
<path fill-rule="evenodd" clip-rule="evenodd" d="M152.612 133.691C132.51 152.341 103.586 132.52 121.376 116.272C141.76 97.6524 173.129 114.671 152.612 133.691Z" fill="#765858"/>
<path fill-rule="evenodd" clip-rule="evenodd" d="M60.1495 284.43C78.6212 300.07 105.558 277.877 89.2061 264.283C70.4824 248.717 41.2924 268.479 60.1495 284.43Z" fill="#EF99B0"/>
<path fill-rule="evenodd" clip-rule="evenodd" d="M404.575 304.859C423.046 320.484 449.983 298.306 433.631 284.712C414.922 269.146 385.732 288.907 404.575 304.859Z" fill="#EF99B0"/>
<path d="M256.726 352.328C297.181 352.328 329.976 327.411 329.976 296.675C329.976 265.939 297.181 241.023 256.726 241.023C216.272 241.023 183.477 265.939 183.477 296.675C183.477 327.411 216.272 352.328 256.726 352.328Z" fill="#CC8787"/>
<path d="M225.402 323.671C234.531 323.671 241.931 312.209 241.931 298.069C241.931 283.929 234.531 272.466 225.402 272.466C216.273 272.466 208.872 283.929 208.872 298.069C208.872 312.209 216.273 323.671 225.402 323.671Z" fill="#694E4E"/>
<path d="M286.228 322.278C295.357 322.278 302.757 310.815 302.757 296.675C302.757 282.535 295.357 271.073 286.228 271.073C277.099 271.073 269.698 282.535 269.698 296.675C269.698 310.815 277.099 322.278 286.228 322.278Z" fill="#694E4E"/>
<path d="M365.896 110.802C365.896 110.802 292.083 98.0675 297.168 62.0136C302.253 25.9597 341.717 23.4099 328.137 14.9301C314.558 6.4503 284.019 17.05 271.714 33.1794C271.714 33.1794 289.534 7.29532 273.834 3.05543C258.135 -1.18446 234.385 20.4449 229.286 31.4746C224.201 42.5042 222.496 44.209 222.496 44.209C222.496 44.209 233.525 20.0298 222.496 17.0649C211.466 14.0999 202.127 39.5541 200.007 52.2737C197.887 65.0082 187.702 120.156 261.1 121.431C334.497 122.706 374.376 118.466 365.881 110.832L365.896 110.802Z" fill="#E8B4B5"/>
</svg>
