<svg width="48" height="34" viewBox="0 0 48 34" fill="none" xmlns="http://www.w3.org/2000/svg">
<path d="M40.7899 14.73C43.3299 14.66 45.3699 15.03 47.0399 15.64C45.4599 8.43003 40.5199 2.00003 32.5099 0.940026C23.0499 -0.339974 0.969903 0.0600261 0.969903 0.0600261C-1.9501 0.450026 2.4699 4.16003 4.6799 6.68003C6.6899 8.98003 12.2999 19.2 12.9099 24.81C20.4199 16.27 32.1199 14.96 40.7899 14.72V14.73Z" fill="#AF300F"/>
<path d="M12.95 26.3199C12.48 31.3699 8.77003 30.7399 10.43 33.0199C10.43 33.0199 7.43003 33.8099 27.62 33.5699C47.81 33.3299 47.96 28.2899 47.57 19.6099C47.51 18.2699 47.32 16.9399 47.03 15.6299C45.36 15.0299 43.33 14.6499 40.78 14.7199C32.11 14.9599 20.4 16.2699 12.9 24.8099C12.96 25.3499 12.99 25.8699 12.95 26.3099V26.3199Z" fill="#E38072"/>
</svg>
