<svg width="395" height="578" viewBox="0 0 395 578" fill="none" xmlns="http://www.w3.org/2000/svg">
<path d="M162.94 62.1901C162.94 62.1901 128.19 31.4401 89.3 29.9001C50.4 28.3701 1.50998 68.3401 2.27998 86.0201C3.04998 103.7 50.39 49.5801 82.61 60.1901C114.82 70.8001 134.66 89.6001 134.66 89.6001L162.95 62.1901H162.94Z" fill="#564F50"/>
<path d="M191.96 41.59C191.96 41.59 178.78 16.64 155.62 5.25004C132.46 -6.13996 91.1401 2.82004 91.5301 14.85C91.9101 26.88 113.41 10.5 126.97 17.66C140.53 24.83 157.42 64.49 157.42 64.49L191.97 41.59H191.96Z" fill="#564F50"/>
<path d="M150.1 166.02C152.37 147.67 154.01 138.19 110.31 132.32C66.6102 126.45 66.3902 140.36 33.5602 145.8C0.730167 151.24 -5.57983 152.98 4.21017 164.5C13.9902 176.02 46.6102 195.59 91.1802 191.68C135.75 187.77 147.93 183.64 150.1 166.02V166.02Z" fill="#F1DFCB"/>
<path d="M134.25 160.8C134.25 160.8 122.99 150.59 80.59 153.42C38.19 156.25 34.1901 158.63 26.1501 161.46C18.1201 164.29 47.47 177.55 68.34 177.98C89.21 178.41 135.27 176.48 134.24 160.8H134.25Z" fill="#EE8F97"/>
<path d="M298.69 237.23C298.69 237.23 295.66 251.45 287.51 273.33C279.36 295.21 280.64 302.56 285.59 309.27C290.54 315.98 299.33 321.25 285.11 317.42C270.89 313.59 259.87 305.6 258.76 286.27C257.65 266.94 265.79 257.04 253.01 247.46C240.23 237.88 298.69 237.24 298.69 237.24V237.23Z" fill="#FFEEE1"/>
<path d="M125.39 114.41C126.85 90.0501 156.54 53.0801 178.96 48.0401C192 45.1101 215.94 49.5501 233.69 53.7701C236.59 62.0201 242.16 75.1201 252.05 89.6101C268.66 113.93 281.92 128.63 286.71 151.95C291.5 175.27 296.45 177.03 280.8 186.77C266.82 195.47 262.93 221.12 289.46 241.86C275.06 246.34 250.94 262.52 221.87 259.12C194.56 255.93 134.34 236.28 129.87 216.63C125.4 196.98 124.28 133.1 125.4 114.41H125.39Z" fill="#F1DFCB"/>
<path d="M217.44 53.5201C217.44 53.5201 226.81 39.2601 239.97 36.0401C253.12 32.8101 256.9 32.0201 255.88 29.7401C254.86 27.4601 239.58 24.2301 223.43 28.5601C207.28 32.8901 200.98 39.2701 200.98 39.2701C200.98 39.2701 198.6 20.3101 187.67 21.7901C184.76 22.1801 190.03 22.9701 189.4 31.6401C188.77 40.3001 179.16 44.4001 177.59 51.2501C176.01 58.1001 215.79 68.7301 217.44 53.5301V53.5201Z" fill="#F1DFCB"/>
<path d="M333.99 136.61C323.59 132.82 313.25 118.69 302.45 103.54C300.67 101.04 298.88 98.52 297.07 96.01C292.58 89.78 288 83.65 283.29 78.24C278.46 72.68 273.49 67.91 268.34 64.57C264.35 61.98 260.26 60.24 256.04 59.73C256.04 59.73 246.46 56.8 233.7 53.76C236.6 62.01 242.17 75.11 252.06 89.6C268.67 113.92 281.93 128.62 286.72 151.94C291.51 175.26 296.46 177.02 280.81 186.76C266.83 195.46 262.94 221.11 289.47 241.85C291.06 241.36 292.56 240.95 293.91 240.74C307.49 238.66 331.29 256.23 342.31 244.73C353.33 233.23 348.96 217.69 341.16 212.37C333.36 207.04 376.97 211.03 378.56 188.83C380.16 166.63 358.12 145.38 334 136.6L333.99 136.61Z" fill="#FFECDC"/>
<path d="M283.28 78.2399C289.08 75.1399 294.65 71.77 297.7 68.87C305.89 61.07 309.36 54.69 310.54 55.72C311.72 56.74 310.93 77.54 303.77 87.54C301.83 90.25 299.51 93.17 297.07 96.01C298.88 98.52 300.67 101.04 302.45 103.54C303.78 102.01 305.14 100.36 306.52 98.41C314.16 87.62 324.16 49.18 322.35 41.49C320.54 33.79 305.34 38.4799 295.96 49.3499C290.44 55.7599 277.8 61.19 268.33 64.58C273.47 67.91 278.44 72.69 283.28 78.25V78.2399Z" fill="#FFECDC"/>
<path d="M303.76 87.54C310.93 77.54 311.72 56.74 310.53 55.72C309.35 54.7 305.88 61.08 297.69 68.87C294.65 71.77 289.07 75.14 283.27 78.24C287.98 83.65 292.56 89.78 297.05 96.01C299.49 93.17 301.81 90.25 303.75 87.54H303.76Z" fill="#EE8F97"/>
<path d="M341.15 212.38C339.35 209.29 332.7 212.11 326.3 209.71C319.9 207.31 298.73 194.33 295.89 191.13C293.04 187.93 294.29 196.38 303.89 207.49C313.49 218.61 327.17 228.72 334.39 228.92C344.62 229.2 347.02 222.43 341.15 212.38V212.38Z" fill="#E63336"/>
<path d="M352.2 148.59C328.99 149.17 324.09 159.45 335.75 172.15C347.41 184.85 357.1 185.99 365.94 178.3C374.78 170.61 384.31 147.79 352.2 148.59Z" fill="#F6A5A6"/>
<path fill-rule="evenodd" clip-rule="evenodd" d="M197.56 101.45C198.28 103.78 192.74 109.3 186.47 111.98C179.14 115.12 171.03 114.82 173.81 107.53C176.19 101.25 194.86 92.6901 197.56 101.45Z" fill="#564F50"/>
<path d="M113.62 98.75C113.55 98.74 113.47 98.72 113.62 98.75V98.75Z" fill="#BB9053"/>
<path fill-rule="evenodd" clip-rule="evenodd" d="M192.77 421.22C182.56 433.39 165.13 447.63 152.18 458.1C151.83 468.37 151.92 480.19 150.85 496.44C150.78 497.51 149.91 498.36 148.84 498.37C143.06 498.47 128.41 502.54 127.77 490.46C126.79 470.88 124.88 456 128.64 446.58C131.09 441.62 154.72 396.33 161.2 400.88C172.49 408.81 182.82 414.22 192.77 421.21V421.22Z" fill="#F1DFCB"/>
<path fill-rule="evenodd" clip-rule="evenodd" d="M151.29 488.05C144.16 487.6 136.19 488.1 127.62 487.7C127.54 487.7 127.18 498.21 131.89 499.06C138.49 499.76 141.57 499.45 147.75 499.12C152.39 498.87 150.78 492.6 151.29 488.05Z" fill="#5F514E"/>
<path fill-rule="evenodd" clip-rule="evenodd" d="M203.6 562.3C203.5 562.76 203.15 563.11 202.7 563.19C198 564.05 182.84 565.51 182.04 561.89C178.08 544.2 179.88 486.85 176.63 465.77C175.03 455.41 181.59 425.63 195.38 424.8C222.26 423.18 207.57 543.88 203.61 562.29L203.6 562.3Z" fill="#F1DFCB"/>
<path fill-rule="evenodd" clip-rule="evenodd" d="M312.45 474.88C310.48 497.74 306.6 540.99 301.83 562.17C301.65 562.95 301.02 563.52 300.23 563.64C295.4 564.37 283.93 564.85 283.16 561.39C279.21 543.7 280.58 520.03 277.33 498.95C276.61 494.27 273.75 474.05 280.53 474.05C291.53 474.05 300.86 472.93 310.49 472.77C311.63 472.75 312.54 473.74 312.44 474.87L312.45 474.88Z" fill="#F1DFCB"/>
<path d="M378.7 402.77C384.13 401.78 394.76 393.88 394.76 387.08C394.76 380.28 394.64 377.94 392.04 383.37C389.45 388.8 388.71 388.31 387.1 387.69C385.49 387.07 387.72 385.84 388.46 376.45C389.2 367.06 388.46 355.45 381.79 347.55C375.12 339.65 372.77 340.26 373.76 342.73C374.75 345.2 381.79 364.59 371.17 374.47C364.94 380.27 357.24 383.29 351.92 384.81C356.3 394.88 359.33 405.81 361.21 417.38C366.08 417.88 370.98 415.49 376.6 413.88C385.62 411.29 387.59 407.21 383.15 407.21C378.71 407.21 373.27 403.75 378.7 402.76V402.77Z" fill="#F1DFCB"/>
<path d="M177.6 243.31C176 227.65 179.84 216.46 156.5 214.22C134.65 212.13 128.12 197.37 129.04 212.35C129.54 220.43 130.31 242.19 131.3 262.06C145.7 266.7 164.63 271.74 181.97 273.02C180.05 261.64 178.28 250.01 177.59 243.31H177.6Z" fill="#F1DFCB"/>
<path d="M361.21 417.39C359.32 405.82 356.3 394.9 351.92 384.82C338.68 354.4 313.06 331.76 268.99 322.63C234.96 315.58 199.39 328.33 188.1 304.82C187.51 303.15 186.04 295.87 184.37 286.67C172.2 286.47 150.55 285.18 132.27 279.12C132.88 288.66 133.55 296.23 134.27 299.19C138.57 360.24 153.55 424.26 178.56 456.78C188.54 469.76 198.16 479.13 208.63 485.72C224.53 495.74 242.38 499.31 266.43 499.31C294.15 499.31 328.13 483.94 328.11 484.02C326.45 491 322.49 559.93 322.74 573.71C322.77 575.16 324.06 575.54 325.47 575.86C329.61 576.8 335.28 576.78 339.67 576.05C341.99 575.66 343.06 574.55 343.69 572.28C358.3 519.14 368.69 463.2 361.22 417.38L361.21 417.39Z" fill="#F1DFCB"/>
<path d="M131.31 262.06C131.61 268.06 131.93 273.88 132.26 279.11C150.55 285.16 172.19 286.46 184.36 286.66C183.59 282.4 182.77 277.73 181.98 273.02C164.64 271.74 145.71 266.7 131.31 262.06V262.06Z" fill="#BF804C"/>
<path fill-rule="evenodd" clip-rule="evenodd" d="M204 559.69C196.79 559.59 188.72 560.49 181.49 559.05C181.41 559.05 181.79 570.45 186.29 571.35C192.92 572.14 192.84 571.94 198.74 571.59C203.17 571.33 203.51 564.5 204.01 559.69H204Z" fill="#5F514E"/>
<path fill-rule="evenodd" clip-rule="evenodd" d="M303.49 553.61C296.9 553.03 288.4 553.56 281.72 553.19C281.65 553.19 281.85 563.68 286.06 564.53C292.35 565.16 293.99 565.04 299.51 564.71C303.66 564.46 303.02 558.16 303.49 553.6V553.61Z" fill="#5F514E"/>
<path fill-rule="evenodd" clip-rule="evenodd" d="M345.16 566.83C338.48 565.37 330.38 566.02 322.86 564.87C322.79 564.86 320.5 575.48 324.86 576.64C330.39 578.13 334.54 577.65 340.35 577.74C344.72 577.8 344.35 571.33 345.16 566.83Z" fill="#5F514E"/>
</svg>
