<svg width="65" height="69" viewBox="0 0 65 69" fill="none" xmlns="http://www.w3.org/2000/svg">
<path fill-rule="evenodd" clip-rule="evenodd" d="M64.402 42.9797C63.482 56.0997 45.232 69.9297 28.402 68.1997C8.74203 66.1897 -8.99796 45.4897 5.03204 16.3497C17.092 -8.70034 67.852 -6.39034 64.402 42.9697V42.9797Z" fill="white"/>
<path fill-rule="evenodd" clip-rule="evenodd" d="M59.4324 37.8101C58.7324 47.7701 44.8724 58.2701 32.0924 56.9601C17.1724 55.4401 3.70243 39.7301 14.3524 17.6101C23.5124 -1.39992 62.0424 0.34008 59.4224 37.8101H59.4324Z" fill="#221F1F"/>
<path fill-rule="evenodd" clip-rule="evenodd" d="M51.5018 22.8992C51.2918 25.8092 47.2418 28.8792 43.5118 28.4992C39.1318 28.0492 35.1918 23.4592 38.3218 16.9892C41.0018 11.4192 52.2718 11.9292 51.5018 22.8992Z" fill="white"/>
</svg>
