<svg width="366" height="568" viewBox="0 0 366 568" fill="none" xmlns="http://www.w3.org/2000/svg">
<path d="M11.26 549.209C6.72997 547.259 3.73994 545.399 1.79994 543.919C2.50994 540.899 3.29993 537.939 3.34993 534.679C3.46993 527.259 5.85995 528.449 2.98995 521.389C0.119946 514.329 0.119978 510.849 3.70998 501.509C7.29998 492.169 20.2299 471.689 20.2299 471.689L45.7399 478.869C45.7399 478.869 28.74 508.329 24.31 517.069C19.88 525.809 27.18 532.879 35.03 542.459C37.11 544.999 38.6999 547.339 39.9899 549.459C38.8699 549.969 37.5699 550.369 36.0399 550.599C25.7399 552.159 21.67 553.689 11.25 549.209H11.26Z" fill="#BC9154"/>
<path d="M32.9401 566.999C20.9701 567.599 3.12012 564.959 1.21012 556.459C0.14012 551.689 0.910096 547.759 1.8101 543.909C3.7401 545.389 6.73012 547.249 11.2701 549.199C21.6901 553.679 25.7601 552.149 36.0601 550.589C37.5901 550.359 38.8901 549.959 40.0101 549.449C43.5801 555.339 44.7301 559.569 46.8401 561.699C49.7101 564.599 44.9201 566.389 32.9501 566.989L32.9401 566.999Z" fill="#633200"/>
<path d="M209.321 389.019C212.521 386.029 226.721 388.809 229.611 392.539C229.611 392.539 235.701 426.819 252.781 428.199C269.861 429.589 280.761 429.049 302.651 425.209C313.061 423.379 318.431 422.469 322.661 422.169C322.451 423.099 322.521 423.829 323.251 423.849C325.331 423.919 335.781 423.299 335.161 425.439C334.601 427.349 327.11 438.469 319.94 441.969H319.901C307.571 441.219 270.521 444.319 252.791 446.769C235.061 449.229 230.371 441.749 222.361 436.199C214.351 430.649 206.131 391.989 209.331 388.999L209.321 389.019Z" fill="#BC9154"/>
<path d="M335.151 425.45C335.771 423.3 325.321 423.93 323.241 423.86C322.521 423.84 322.451 423.11 322.651 422.18C326.911 421.88 330.021 422.18 335.981 422.8C336.551 422.86 337.141 422.92 337.771 422.98C351.441 424.37 368.741 418.39 364.571 429.81C360.411 441.24 352.081 454.16 344.501 451.27C337.181 448.49 332.521 443.12 321.101 442.09C320.711 442.05 320.331 442.01 319.921 441.99C327.091 438.48 334.591 427.37 335.141 425.46L335.151 425.45Z" fill="#633200"/>
<path d="M182.03 532.87C176.97 528.4 170.76 523.34 170.21 509.48C169.75 497.67 171.63 476.23 172.19 470.16C172.27 469.27 173.11 468.68 173.98 468.87L196.34 473.68C197.2 473.87 197.72 474.73 197.45 475.57C195.56 481.41 189.31 502.41 193.64 512.61C198.7 524.53 207.94 523.34 221.35 536.15C222.38 537.14 223.28 538.07 224.09 538.96C223.67 539.96 222.93 540.82 221.73 541.43C214.67 545.02 205.09 548.49 197.42 547.18C193.16 546.45 189.16 546.12 185.75 545.42C185.05 545.28 184.58 544.64 184.59 543.93C184.62 539.37 184.52 535.09 182.02 532.88L182.03 532.87Z" fill="#BC9154"/>
<path d="M221.73 541.419C222.93 540.809 223.671 539.949 224.091 538.949C233.741 549.619 227.781 553.589 222.691 555.649C217.181 557.879 190.66 563.399 186.49 556.839C184.57 553.819 184.541 549.429 184.581 545.139C188.231 546.029 192.66 546.339 197.42 547.159C205.08 548.479 214.66 544.999 221.73 541.409V541.419Z" fill="#633200"/>
<path d="M76.0402 538.41C70.9802 533.94 64.7702 528.88 64.2202 515.02C63.7602 503.21 65.6402 481.77 66.2002 475.7C66.2802 474.81 67.1202 474.22 67.9902 474.41L90.3502 479.22C91.2102 479.41 91.7303 480.27 91.4603 481.11C89.5703 486.95 83.3203 507.95 87.6503 518.15C92.7103 530.07 101.95 528.88 115.36 541.69C116.39 542.68 117.29 543.61 118.1 544.5C117.68 545.5 116.94 546.36 115.74 546.97C108.68 550.56 99.1002 554.03 91.4302 552.72C87.1702 551.99 83.1702 551.66 79.7602 550.96C79.0602 550.82 78.5902 550.18 78.6002 549.47C78.6302 544.91 78.5303 540.63 76.0303 538.42L76.0402 538.41Z" fill="#BC9154"/>
<path d="M115.75 546.959C116.95 546.349 117.69 545.489 118.11 544.489C127.76 555.159 121.8 559.129 116.71 561.189C111.2 563.419 84.6801 568.939 80.5101 562.379C78.5901 559.359 78.5601 554.969 78.6001 550.679C82.2501 551.569 86.6801 551.879 91.4401 552.699C99.1001 554.019 108.68 550.539 115.75 546.949V546.959Z" fill="#633200"/>
<path fill-rule="evenodd" clip-rule="evenodd" d="M245.69 164.8C227.12 156.42 216.86 202.46 211.91 240.47C206.95 278.48 217.4 299.08 170.14 306.47C122.88 313.86 51.8201 303.9 24.1601 360.12C-3.4999 416.34 -11.1499 481.51 40.9401 494.95C93.0201 508.38 156.38 533.6 193.11 493.13C229.84 452.66 245.78 418.83 258.7 348.18C271.63 277.53 275.86 178.42 245.69 164.8V164.8Z" fill="#BC9154"/>
<path fill-rule="evenodd" clip-rule="evenodd" d="M273.59 144.649C273.4 140.759 273.08 136.699 272.59 132.519C272.34 128.279 270.94 121.929 270.4 118.659C270.34 118.669 270.28 118.679 270.4 118.659C269.26 113.059 267.77 107.379 265.85 101.709C265.63 101.029 265.37 100.299 265.11 99.5493C265 99.2393 264.9 98.9393 264.78 98.6293C263.68 95.5893 262.37 92.2593 261.25 90.0593C249.51 64.5093 235.99 41.3093 194.99 32.2193C182.37 29.4193 169.48 30.4693 157.67 33.2293C157.5 33.2693 157.31 33.2993 157.15 33.3293V33.3493C154.03 34.0993 150.98 34.9493 148.04 35.8893V35.8693C148.08 35.6093 141.94 37.5993 137.28 39.8193C133.52 41.3693 130.05 42.9593 126.92 44.5093C126.94 44.3693 125.54 45.1093 123.58 46.2093C122.95 46.5393 122.3 46.8693 121.71 47.1893C120.18 48.0093 118.71 48.8893 117.27 49.8193C115.82 50.6593 114.45 51.4693 113.36 52.1293C113.39 52.2393 113.43 52.3693 113.46 52.4793C76.1998 80.4793 73.5998 145.739 95.6498 203.459C63.2298 205.629 50.0298 266.229 107.83 273.219C116.72 274.289 125.72 274.449 134.71 273.849C137.5 273.659 140.28 273.379 143.06 273.039C181.03 268.419 218.08 250.119 244.84 224.979C264 206.979 271.33 189.229 273.55 161.479C273.55 161.479 273.57 161.479 273.58 161.479C273.87 161.529 274.26 150.199 273.58 144.639L273.59 144.649Z" fill="#BC9154"/>
<path fill-rule="evenodd" clip-rule="evenodd" d="M154.54 252.459C154.84 250.459 152.66 250.339 151.92 252.239C147.98 262.359 143.67 269.079 134.72 273.849C137.51 273.659 140.29 273.379 143.07 273.039C148.4 269.049 153.03 262.609 154.55 252.459H154.54Z" fill="#47321B"/>
<path fill-rule="evenodd" clip-rule="evenodd" d="M211.32 116.32C211.65 118.45 218.16 120.69 224.16 120.41C231.18 120.08 237.5 116.73 232.49 112.01C228.19 107.94 210.09 108.32 211.31 116.32H211.32Z" fill="#674219"/>
<path fill-rule="evenodd" clip-rule="evenodd" d="M95.3401 117.76C95.6701 119.89 102.18 122.13 108.19 121.85C115.21 121.53 121.53 118.17 116.53 113.45C112.22 109.39 94.1201 109.76 95.3401 117.76Z" fill="#674219"/>
<path d="M344.27 311.299C332.64 303.579 327.54 304.579 322.71 302.319C317.88 300.059 306.12 298.459 310.18 297.539C314.24 296.619 314.81 295.509 322.45 294.209C330.09 292.909 335.29 288.579 334.91 286.989C334.52 285.399 331.17 288.079 321.85 289.519C312.54 290.959 310.66 286.809 302.22 277.529C293.78 268.249 309.13 246.729 310.69 239.349C312.25 231.969 310.87 214.699 310.5 211.119C310.13 207.539 312.71 212.649 316.94 221.979C321.16 231.309 316.47 253.059 317.18 254.019C317.89 254.979 320.68 253.409 324.99 241.039C329.3 228.669 324.42 210.429 322.26 200.949C320.1 191.469 306.11 180.949 309.06 180.259C312.01 179.569 317.02 189.699 334.83 200.959C352.64 212.219 354.2 204.839 354.3 202.689C354.4 200.539 354.2 204.839 339.78 198.689C325.36 192.539 326.67 186.829 324.68 175.839C322.69 164.849 314.24 146.979 319.99 153.699C325.74 160.419 334.22 175.509 336.08 181.649C337.94 187.789 337.63 186.829 338.87 180.079C340.11 173.329 339.38 165.379 332.33 140.039C325.97 117.189 303.82 105.119 300.51 103.619C300.31 103.579 300.17 103.519 300.08 103.469C299.95 103.379 300.15 103.459 300.51 103.619C303.34 104.269 316.92 103.539 323.72 99.3495C330.99 94.8695 332.16 87.4895 329.35 91.0395C326.54 94.5895 326.63 93.1095 309.56 89.8095C295.46 87.0795 280.38 70.9495 270.47 55.1895C265.8 62.1295 262.59 66.7095 257.17 77.0595L261.89 95.7895C261.89 95.7895 256.92 273.999 269.61 289.439C282.3 304.879 283.7 309.179 303.45 315.449C323.2 321.719 327.63 314.589 338.67 315.629C349.71 316.669 352.67 325.349 354.19 324.729C355.71 324.109 355.9 319.019 344.27 311.299V311.299Z" fill="#734921"/>
<path fill-rule="evenodd" clip-rule="evenodd" d="M228.32 218.77C208.63 229.13 190.18 207.5 207.54 198.53C227.42 188.26 248.4 208.2 228.32 218.77Z" fill="#F05742"/>
<path d="M154.121 218.21C147.461 204.7 115.151 196.27 88.2306 202.44C61.3006 208.6 65.0307 221.66 65.0307 221.66C65.0307 221.66 53.9406 219.84 56.9606 236.61C59.9806 253.38 70.0206 252.08 70.0206 252.08C70.0206 252.08 74.1406 264.24 88.7306 267.47C103.321 270.7 103.381 269.19 103.381 269.19C103.381 269.19 104.781 271.22 115.001 269.21C116.911 268.83 119.141 268.31 121.721 267.61C132.691 264.63 148.691 253.95 154.581 240.19C157.471 233.43 157.941 225.93 154.141 218.22L154.121 218.21Z" fill="#CB9C5D"/>
<path d="M132.561 219.29C132.561 219.29 129.661 209.74 118.871 212.41C108.081 215.08 105.921 225.57 108.181 238.75C110.431 251.94 125.471 253.66 130.501 244.39C135.521 235.12 135.451 225.79 132.571 219.29H132.561Z" fill="#896233"/>
<path d="M124.201 222.8C127.071 225.71 126.611 231.88 123.251 237.71C122.141 239.64 121.161 240.81 120.311 241.39C121.441 244.3 123.501 244.46 126.471 239.31C130.771 231.84 130.341 223.82 124.211 222.8H124.201Z" fill="#332214"/>
<path d="M123.251 237.71C126.611 231.87 127.071 225.71 124.201 222.8C124.121 222.79 124.051 222.76 123.961 222.75C118.711 222.05 119.011 228.49 119.341 235.74C119.451 238.06 119.771 240.03 120.301 241.39C121.161 240.81 122.141 239.64 123.241 237.71H123.251Z" fill="#47321B"/>
<path d="M64.6105 226.149C61.9505 229.259 62.8505 235.369 66.6105 240.959C67.8505 242.799 68.9105 243.909 69.8105 244.419C68.8905 247.399 66.8405 247.709 63.5205 242.779C58.7105 235.629 58.5605 227.599 64.6105 226.149V226.149Z" fill="#47321B"/>
<path d="M66.6201 240.96C62.8601 235.38 61.9601 229.26 64.6201 226.15C64.7001 226.13 64.7701 226.1 64.8501 226.08C70.0401 225.01 70.2001 231.45 70.3801 238.71C70.4401 241.03 70.2502 243.02 69.8202 244.42C68.9302 243.91 67.8601 242.8 66.6201 240.96Z" fill="#896233"/>
<path fill-rule="evenodd" clip-rule="evenodd" d="M256.431 84.0896C289.111 56.0696 259.561 19.0496 253.561 14.3096C235.291 19.3796 209.87 36.9396 233.55 72.3396C234.08 73.1296 255.871 84.5796 256.441 84.0996L256.431 84.0896Z" fill="#BC9154"/>
<path fill-rule="evenodd" clip-rule="evenodd" d="M250.141 76.2994C261.701 54.3994 257.561 27.8294 249.101 24.1494C242.041 26.2494 225.461 55.8394 235.061 70.0594C235.511 70.7194 249.861 76.8494 250.151 76.2994H250.141Z" fill="#FACED5"/>
<path fill-rule="evenodd" clip-rule="evenodd" d="M115.75 75.15C136.3 37.32 95.5104 13.26 88.2104 10.96C72.9504 22.21 59.6004 59.46 94.3404 84.1C95.1204 84.65 115.4 75.8 115.76 75.15H115.75Z" fill="#BC9154"/>
<path fill-rule="evenodd" clip-rule="evenodd" d="M107.09 70.11C110.09 45.52 96.7602 22.17 87.5402 21.75C81.6902 26.22 81.6003 67.41 95.6303 77.28C96.2803 77.74 107.02 70.73 107.09 70.11V70.11Z" fill="#FACED5"/>
<path d="M270.4 118.65C270.47 118.64 270.54 118.62 270.4 118.65V118.65Z" fill="#BC9154"/>
<path d="M110.32 23.4997C110.25 23.3397 110.16 23.1697 110.09 23.0097C113.14 18.5597 121.54 11.1397 144.66 4.92972C180.28 -4.64028 196.44 4.34972 205.94 7.92972C215.44 11.4997 211.52 10.3497 206.68 11.3897C201.84 12.4297 190.66 17.2997 192.16 18.5497C193.66 19.7997 207.26 17.2597 221.55 23.8297C235.84 30.3997 240.11 34.0897 240.22 35.1297C240.34 36.1697 242.06 36.1697 233.07 39.0497C224.08 41.9297 224.54 41.1197 224.54 42.2797C224.54 43.4297 227.31 45.5097 236.64 45.6197C245.98 45.7397 250.52 46.8897 256.26 43.6597C262 40.4297 251.7 60.2597 246.94 62.9697C242.18 65.6797 227.65 64.1997 221.31 60.4897C214.97 56.7797 216.24 57.2597 215.43 57.3797C214.62 57.4997 219.93 71.1297 225.34 74.2297C230.76 77.3197 222.11 78.0197 210.12 73.0597C198.13 68.0997 190.87 61.8797 189.37 61.5297C187.87 61.1797 188.33 69.4797 189.49 75.8197C190.64 82.1597 190.18 83.9997 188.45 83.4297C186.72 82.8497 176.92 66.8297 164.82 61.9897C152.72 57.1497 138.54 55.0697 123.09 59.7997C118.26 61.2797 114.82 63.1597 112.35 64.6797C114.02 56.2397 116.56 37.6697 110.3 23.4997H110.32Z" fill="#734921"/>
</svg>
