<svg width="202" height="165" viewBox="0 0 202 165" fill="none" xmlns="http://www.w3.org/2000/svg">
<path fill-rule="evenodd" clip-rule="evenodd" d="M199.84 144.61C170.78 170.17 159.12 164.68 145.15 162.48C99.6898 155.32 109.09 32.3599 102.31 26.4299C74.8798 2.40989 37.9598 39.4799 31.5598 43.3999C29.6298 44.5899 22.1698 44.6299 20.3998 40.0699C14.0598 23.7299 80.2198 -15.3701 112.3 8.54989C135.76 26.0499 115.1 91.6199 138.7 135.72C145.07 147.62 165.78 152.43 183.16 140.17C186.15 138.07 206.13 139.07 199.84 144.6V144.61Z" fill="#BC9154"/>
<path fill-rule="evenodd" clip-rule="evenodd" d="M60.9099 32.03C57.8999 35.99 57.5099 74.5 19.5399 61.13C14.7899 59.46 1.88986 61.22 1.04986 58.63C0.259857 56.22 8.29986 48.25 11.9999 36.11C19.0399 13.02 45.8999 3.53002 54.3999 13.46C56.3599 15.76 61.7699 30.9 60.9099 32.03Z" fill="#734921"/>
</svg>
