<svg width="153" height="54" viewBox="0 0 153 54" fill="none" xmlns="http://www.w3.org/2000/svg">
<path fill-rule="evenodd" clip-rule="evenodd" d="M0.121731 30.9297C0.791731 40.4997 14.1117 50.5997 26.4017 49.3397C40.7517 47.8697 53.6917 32.7697 43.4517 11.4997C34.6517 -6.78033 -2.38827 -5.10033 0.121731 30.9297V30.9297Z" fill="white"/>
<path fill-rule="evenodd" clip-rule="evenodd" d="M3.75202 27.1694C4.26202 34.4294 14.372 42.0994 23.702 41.1494C34.592 40.0294 44.422 28.5694 36.642 12.4294C29.962 -1.46058 1.84202 -0.170578 3.75202 27.1794V27.1694Z" fill="#231F20"/>
<path fill-rule="evenodd" clip-rule="evenodd" d="M9.54191 16.2795C9.69191 18.4095 12.6519 20.6495 15.3819 20.3695C18.5719 20.0395 21.4419 16.6895 19.1719 11.9695C17.2119 7.90951 8.98191 8.27951 9.54191 16.2795Z" fill="white"/>
<path fill-rule="evenodd" clip-rule="evenodd" d="M105.402 34.5996C106.072 44.1696 119.392 54.2696 131.682 53.0096C146.032 51.5396 158.982 36.4396 148.732 15.1696C139.932 -3.11041 102.882 -1.4304 105.402 34.5996V34.5996Z" fill="white"/>
<path fill-rule="evenodd" clip-rule="evenodd" d="M109.032 30.8292C109.542 38.0992 119.652 45.7592 128.982 44.8092C139.872 43.6992 149.702 32.2392 141.922 16.0892C135.242 2.20916 107.122 3.48916 109.022 30.8392L109.032 30.8292Z" fill="#231F20"/>
<path fill-rule="evenodd" clip-rule="evenodd" d="M114.812 19.94C114.962 22.06 117.922 24.31 120.642 24.03C123.842 23.7 126.712 20.35 124.432 15.63C122.482 11.57 114.252 11.94 114.812 19.95V19.94Z" fill="white"/>
</svg>
