<svg width="62" height="20" viewBox="0 0 62 20" fill="none" xmlns="http://www.w3.org/2000/svg">
<path fill-rule="evenodd" clip-rule="evenodd" d="M0.952737 2.48679C4.53539 3.4334 9.1452 0.479981 8.66256 3.87516C7.57353 4.26011 6.74439 4.10865 6.62063 4.86594C6.04518 8.28005 20.2768 19.4437 34.2485 18.1122C44.5448 17.1277 54.3213 11.3344 57.0377 2.32272C56.9696 2.27223 52.6383 -0.422453 55.7321 0.0571626C57.4399 0.315903 60.9421 1.49601 61.6537 2.41738C62.52 3.54069 61.7218 3.21884 59.6984 3.1368C58.696 3.09894 53.4674 20.1442 30.8577 19.9991C12.072 19.8792 3.70625 4.56303 3.53918 4.60089C-0.717932 5.54119 -0.519927 2.10184 0.952737 2.48679Z" fill="#765858"/>
</svg>
