<svg width="225" height="94" viewBox="0 0 225 94" fill="none" xmlns="http://www.w3.org/2000/svg">
<path fill-rule="evenodd" clip-rule="evenodd" d="M18.5644 19.5999C18.5644 19.5999 13.4644 23.6999 11.8644 21.0999C9.16438 16.7999 11.0644 5.69991 11.5644 7.29991C12.0644 8.89991 17.6644 14.3999 18.5644 19.5999ZM28.3644 14.3999C28.3644 9.19991 23.6644 2.79991 23.4644 1.09991C23.2644 -0.500095 19.5644 10.0999 21.4644 14.7999C22.6644 17.6999 28.3644 14.3999 28.3644 14.3999ZM10.5644 24.8999C8.66438 19.9999 2.06438 15.6999 1.26438 14.2999C0.464385 12.7999 0.864385 24.0999 4.26438 27.7999C6.36438 29.9999 10.5644 24.9999 10.5644 24.9999V24.8999Z" fill="#765858"/>
<path fill-rule="evenodd" clip-rule="evenodd" d="M10.7653 67.9998C42.2653 102.1 88.1653 53.6998 60.3653 24.0998C28.4653 -9.80021 -21.3347 33.1998 10.7653 67.9998V67.9998Z" fill="white"/>
<path fill-rule="evenodd" clip-rule="evenodd" d="M24.4666 54.1999C46.9666 78.4999 79.6666 43.9999 59.7666 22.8999C36.9666 -1.30012 1.56662 29.3999 24.4666 54.1999Z" fill="#765858"/>
<path fill-rule="evenodd" clip-rule="evenodd" d="M41.4644 37.4998C49.2644 45.8998 60.5644 33.9998 53.6644 26.6998C45.7644 18.3998 33.5644 28.9998 41.4644 37.4998Z" fill="white"/>
<path fill-rule="evenodd" clip-rule="evenodd" d="M206.566 33.9002C206.566 33.9002 211.666 38.0002 213.266 35.4002C215.966 31.1002 214.066 20.0002 213.566 21.6002C213.066 23.2002 207.466 28.7002 206.566 33.9002ZM196.766 28.7002C196.766 23.5002 201.466 17.1002 201.666 15.4002C201.866 13.8002 205.566 24.4002 203.666 29.1002C202.466 32.0002 196.766 28.7002 196.766 28.7002ZM214.466 39.2002C216.366 34.3002 223.066 30.0002 223.866 28.6002C224.666 27.2002 224.366 38.4002 220.866 42.1002C218.766 44.3002 214.566 39.3002 214.566 39.3002L214.466 39.2002Z" fill="#765858"/>
<path fill-rule="evenodd" clip-rule="evenodd" d="M165.066 81.5999C196.566 115.7 242.466 67.2999 214.666 37.6999C182.766 3.79989 132.966 46.7999 165.066 81.5999Z" fill="white"/>
<path fill-rule="evenodd" clip-rule="evenodd" d="M182.263 67.8C204.763 92.1 237.463 57.6 217.563 36.5C194.763 12.3 159.363 43 182.263 67.8Z" fill="#765858"/>
<path fill-rule="evenodd" clip-rule="evenodd" d="M195.867 51.0999C203.667 59.4999 214.967 47.5999 208.067 40.2999C200.167 31.8999 187.967 42.5999 195.867 51.0999Z" fill="white"/>
</svg>
