<svg width="27" height="48" viewBox="0 0 27 48" fill="none" xmlns="http://www.w3.org/2000/svg">
<path d="M19.5977 1.29997C19.5977 1.29997 19.3977 1.49997 19.1977 1.69997C22.4977 8.89997 21.9977 30.8 19.4977 39.7C18.0977 44.8 12.8977 47 7.59766 46.6C13.9977 49.2 22.2977 47.5 24.1977 40.8C27.4977 29.1 27.3977 -5.00003 19.5977 1.19997V1.29997Z" fill="#92D8EA"/>
<path d="M19.4989 39.7002C21.9989 30.8002 22.4989 8.8002 19.1989 1.7002C16.5989 4.5002 2.59894 19.6002 0.19894 33.5002C-0.90106 40.2002 2.79894 44.6002 7.59894 46.6002C12.7989 47.0002 17.9989 44.8002 19.4989 39.7002Z" fill="white"/>
</svg>
