<svg width="408" height="579" viewBox="0 0 408 579" fill="none" xmlns="http://www.w3.org/2000/svg">
<path fill-rule="evenodd" clip-rule="evenodd" d="M103.399 270.3C68.1988 291.6 28.6988 411.7 52.1988 461.3C98.2988 558.4 247.499 555.8 307.299 512.4C398.299 446.4 336.999 352.3 285.899 288.3C250.899 244.4 258.499 232.9 189.399 240.8C84.7988 252.8 145.999 244.5 103.299 270.3H103.399Z" fill="#DCABAD"/>
<path d="M402.099 446.7C400.299 457 385.399 458 385.399 458C385.399 458 386.399 455.9 388.999 448.6C391.599 441.3 387.499 424.4 366.099 430.2C344.699 436 364.599 459.7 364.599 459.7C364.599 459.7 364.199 460.3 357.299 460.3C350.299 460.3 338.399 451.7 338.399 451.7L337.699 464.8C337.699 464.8 342.099 468.4 354.099 471.2C366.099 474 378.499 464.8 378.499 464.8C378.499 464.8 392.899 465.6 400.599 458C408.299 450.4 407.999 445.3 406.999 440.2C405.999 435.2 403.799 436.4 402.099 446.7V446.7ZM375.399 455.5C370.399 456.6 361.199 443 366.699 440.2C372.199 437.4 377.699 436.5 379.099 444.3C380.599 452.1 379.199 454.6 375.299 455.5H375.399Z" fill="#DCABAD"/>
<path fill-rule="evenodd" clip-rule="evenodd" d="M85.5 550.9C94.2 576.7 113.2 579.5 127.8 577.6C153.4 574.1 158.8 550.5 144 546.8C131.4 543.6 131 548 127.9 548.2C126.1 548.3 132.8 524.8 126.2 520.1C123.4 518.1 78.4 498 77.8 498C76.2 498 84.4 547.9 85.5 551V550.9Z" fill="#DCABAD"/>
<path fill-rule="evenodd" clip-rule="evenodd" d="M334.101 533.6C333.201 560.7 311.401 571.5 296.901 573.7C271.301 577.5 259.401 556.3 272.501 548.6C283.701 542.1 289.501 548.2 288.301 545.5C272.201 508.8 285.401 487.4 293.601 483.3C339.801 460 334.801 510.6 334.101 533.7V533.6Z" fill="#DCABAD"/>
<path fill-rule="evenodd" clip-rule="evenodd" d="M135.199 388.2C102.099 424.2 96.399 464.6 107.399 488.6C135.299 549.4 233.499 547 280.999 515.1C317.999 490.2 295.099 422.2 277.599 400.3C242.499 356.4 173.699 346.3 135.199 388.1V388.2Z" fill="#CC8787"/>
<path fill-rule="evenodd" clip-rule="evenodd" d="M200.599 506.9C199.599 508 199.399 509.2 199.799 509.9C200.599 511.7 203.599 511.7 204.999 510.7C206.099 510 205.399 507.9 204.999 507.3C203.899 506 201.899 505.7 200.699 506.9H200.599Z" fill="#DCABAD"/>
<path d="M136.103 303.2C136.103 303.2 116.703 324.3 106.903 332.1C97.1031 339.9 93.7031 341.2 92.7031 344C91.7031 346.8 95.4031 353.1 110.503 352.6C125.603 352.1 142.003 352.1 151.503 338C161.003 323.9 162.303 320.2 162.303 320.2L149.803 298L136.103 303.2V303.2Z" fill="#A7C6C1"/>
<path d="M174.304 314.3C174.304 314.3 170.004 329.5 204.504 342.7C239.004 355.9 244.104 351.8 244.104 351.8C244.104 351.8 233.604 309.7 215.704 299.5C197.704 289.3 176.104 296.6 174.404 314.3H174.304Z" fill="#A7C6C1"/>
<path d="M127.302 275.9L97.5017 273.6C95.4017 273.4 93.7017 275.4 94.3017 277.5C95.8017 283 99.9017 292.8 111.202 299.7C127.802 309.7 145.802 307 151.102 305.2C156.402 303.4 157.902 296 161.702 295C165.602 294 153.002 281.2 152.602 280.6C152.202 280 129.302 276.4 127.502 276.1C125.702 275.8 127.302 276.1 127.302 276.1V275.9Z" fill="#B6D7D3"/>
<path d="M202.304 282.8L179.504 303.6C179.504 303.6 194.304 306.2 208.904 307.6C223.504 309 232.204 302.7 257.404 295.9C282.604 289.1 273.804 291.3 295.904 284.1C314.904 277.9 310.604 265.7 310.604 265.7C310.604 265.7 308.004 246.5 287.204 250.9C269.104 254.7 273.904 251.2 247.904 263.3C222.804 274.9 218.704 275.6 205.004 281.1C204.004 281.5 203.104 282.1 202.304 282.8V282.8Z" fill="#B6D7D3"/>
<path d="M169.802 291.6C156.902 291.3 152.802 291.9 150.902 298.4C149.002 304.9 148.702 317.9 158.502 322.4C168.302 326.8 179.902 321.1 179.902 321.1C179.902 321.1 178.802 303.5 183.602 301.2C188.402 299 189.002 294.7 189.002 294.7C189.002 294.7 177.702 291.7 169.802 291.5V291.6Z" fill="#EFFDFF"/>
<path fill-rule="evenodd" clip-rule="evenodd" d="M273.7 261C279.3 251.2 303.2 248.1 309.2 259.4C333.9 305.6 292.7 342 258.9 351.1C225.1 360.3 199.8 351.8 195.1 338.8C192.5 331.6 190.4 321.8 210.4 315.8C224.1 311.7 241.4 313.5 249.5 308.2C257.3 303.1 258.6 287.2 273.7 261V261Z" fill="#E8B4B5"/>
<path fill-rule="evenodd" clip-rule="evenodd" d="M94.0018 268.8C65.6018 255.1 40.9018 328.7 88.6018 349.7C136.202 370.7 163.902 322.9 122.602 315.7C103.102 312.3 97.6018 284.5 94.0018 268.8V268.8Z" fill="#E8B4B5"/>
<path fill-rule="evenodd" clip-rule="evenodd" d="M83.9009 63.6998C80.2009 3.19979 13.5009 4.99979 3.10089 7.69979C-6.69912 32.4998 5.20088 86.9998 65.1009 90.3998C66.5009 90.3998 84.0009 64.6998 84.0009 63.6998H83.9009Z" fill="#E8B4B5"/>
<path fill-rule="evenodd" clip-rule="evenodd" d="M69.8013 64.1996C55.0013 32.5996 21.7013 14.6996 10.3013 21.0996C6.70131 30.7996 37.4013 79.9996 61.5013 81.2996C62.6013 81.2996 70.2013 64.9996 69.8013 64.1996V64.1996Z" fill="#D18C8C"/>
<path fill-rule="evenodd" clip-rule="evenodd" d="M279.699 65.6998C283.499 5.19979 350.099 6.99979 360.599 9.69979C370.399 34.4998 358.499 88.9998 298.599 92.3998C297.199 92.3998 279.699 66.6998 279.699 65.6998V65.6998Z" fill="#E8B4B5"/>
<path fill-rule="evenodd" clip-rule="evenodd" d="M293.8 66.1996C308.6 34.5996 342 16.6996 353.3 23.0996C356.9 32.7996 326.2 81.9996 302.1 83.2996C301 83.2996 293.4 66.9996 293.8 66.1996V66.1996Z" fill="#D18C8C"/>
<path d="M143.699 35.0998C77.8986 41.4998 21.1986 119 17.9986 176.8C14.7986 234.6 43.2986 278.7 147.599 287.8C251.899 296.9 330.999 262.5 340.699 210.7C350.399 158.9 323.899 17.5998 143.699 35.0998V35.0998Z" fill="#E8B4B5"/>
<path fill-rule="evenodd" clip-rule="evenodd" d="M276.7 214.1C297.8 226.2 328.6 209 309.9 198.5C288.5 186.5 255.2 201.7 276.7 214.1Z" fill="#EF99B0"/>
<path fill-rule="evenodd" clip-rule="evenodd" d="M34.201 199.4C57.701 210.4 91.801 194.8 71.101 185.2C47.301 174.2 10.301 188.2 34.201 199.4V199.4Z" fill="#EF99B0"/>
<path d="M173.201 244.3C200.484 244.3 222.601 227.51 222.601 206.8C222.601 186.089 200.484 169.3 173.201 169.3C145.918 169.3 123.801 186.089 123.801 206.8C123.801 227.51 145.918 244.3 173.201 244.3Z" fill="#CC8787"/>
<path d="M152.001 225.1C158.186 225.1 163.201 217.355 163.201 207.8C163.201 198.245 158.186 190.5 152.001 190.5C145.815 190.5 140.801 198.245 140.801 207.8C140.801 217.355 145.815 225.1 152.001 225.1Z" fill="#694E4E"/>
<path d="M193.102 224.1C199.288 224.1 204.302 216.355 204.302 206.8C204.302 197.245 199.288 189.5 193.102 189.5C186.917 189.5 181.902 197.245 181.902 206.8C181.902 216.355 186.917 224.1 193.102 224.1Z" fill="#694E4E"/>
<path d="M258.901 92.6999C252.201 95.1999 259.601 108.3 273.901 110.2C288.201 112.2 290.901 106.8 290.901 104.7C290.901 102.6 283.101 105.3 275.201 101.7C267.301 98.0999 264.301 90.6999 258.901 92.6999Z" fill="#694E4E"/>
<path d="M101.5 84.0002C108.2 86.5002 100.8 99.6002 86.5 101.5C72.2 103.4 69.5 98.1002 69.5 96.0002C69.5 93.9002 77.3 96.6002 85.2 93.0002C93.1 89.4002 96.1 82.0002 101.5 84.0002Z" fill="#694E4E"/>
<path d="M285.198 42.9999C280.798 41.6999 251.798 51.3999 250.798 44.9999C234.698 46.6999 164.598 40.4999 154.398 38.3999C148.898 37.1999 141.398 34.3999 135.198 31.9999C135.498 32.2999 135.698 32.4999 135.698 32.4999C135.698 32.4999 115.498 28.6999 101.098 28.1999C86.7981 27.6999 90.1981 34.9999 98.3981 46.2999C106.598 57.5999 113.998 53.2999 117.898 47.1999C121.798 41.0999 131.298 43.7999 131.898 47.1999C132.398 50.5999 129.898 55.3999 140.998 55.2999C152.098 55.0999 158.198 50.4999 161.598 50.2999C164.998 50.0999 169.098 67.4999 181.298 66.0999C193.498 64.6999 192.898 56.7999 202.398 54.4999C211.898 52.1999 207.598 65.5999 226.398 65.2999C245.198 64.8999 239.098 57.0999 245.798 55.5999C252.398 54.1999 254.598 65.5999 266.398 60.2999C278.198 54.8999 289.698 44.6999 284.998 43.2999L285.198 42.9999Z" fill="#EEFEFF"/>
<path d="M250.798 44.9998C250.798 44.4998 250.798 43.9998 250.998 43.3998C254.398 33.8998 268.398 23.4998 259.198 16.6998C250.098 9.89976 191.498 7.39976 187.198 6.69976C155.298 1.39976 114.298 -2.90024 116.398 6.59976C118.298 15.0998 132.298 29.0998 135.198 31.8998C141.398 34.3998 148.898 37.1998 154.398 38.2998C164.598 40.4998 234.598 46.6998 250.798 44.8998V44.9998Z" fill="#B3DBDD"/>
</svg>
