<svg width="514" height="728" viewBox="0 0 514 728" fill="none" xmlns="http://www.w3.org/2000/svg">
<path fill-rule="evenodd" clip-rule="evenodd" d="M130.397 339.473C86.0428 366.333 36.1802 517.748 65.8381 580.19C123.969 702.615 311.975 699.3 387.437 644.573C502.123 561.409 424.872 442.74 360.501 362.06C316.399 306.777 325.903 292.232 238.883 302.227C107.004 317.365 184.205 306.865 130.397 339.473Z" fill="#DCABAD"/>
<path d="M506.849 561.838C504.63 574.808 485.762 576.068 485.762 576.068C485.762 576.068 487.009 573.484 490.287 564.283C493.564 555.082 488.446 533.831 461.41 541.104C434.374 548.377 459.557 578.287 459.557 578.287C459.557 578.287 459.104 579.093 450.331 579.03C441.558 578.967 426.521 568.153 426.521 568.153L425.702 584.677C425.702 584.677 431.235 589.177 446.335 592.706C461.435 596.235 477.09 584.664 477.09 584.664C477.09 584.664 495.228 585.647 504.971 576.068C514.726 566.489 514.336 560.01 513.037 553.645C511.739 547.28 509.054 548.855 506.836 561.825L506.849 561.838ZM473.246 572.93C466.994 574.341 455.385 557.187 462.318 553.645C469.263 550.103 476.119 548.994 477.972 558.788C479.825 568.581 478.111 571.833 473.246 572.93Z" fill="#DCABAD"/>
<path fill-rule="evenodd" clip-rule="evenodd" d="M107.821 693.086C118.736 725.555 142.735 729.185 161.124 726.715C193.429 722.354 200.173 692.519 181.506 687.856C165.624 683.873 165.07 689.406 161.238 689.62C158.944 689.746 167.439 660.101 159.133 654.24C155.591 651.744 98.9474 626.359 98.1408 626.334C96.061 626.246 106.523 689.229 107.821 693.086Z" fill="#DCABAD"/>
<path fill-rule="evenodd" clip-rule="evenodd" d="M421.113 671.294C420.017 705.477 392.54 719.076 374.188 721.812C341.946 726.626 326.871 699.88 343.421 690.213C357.512 681.982 364.886 689.721 363.373 686.267C343.068 640.01 359.718 613.037 370.079 607.806C428.336 578.425 422.034 642.19 421.101 671.281L421.113 671.294Z" fill="#DCABAD"/>
<path fill-rule="evenodd" clip-rule="evenodd" d="M170.39 488.065C128.62 533.403 121.448 584.374 135.388 614.663C170.617 691.234 294.392 688.284 354.199 648.089C400.885 616.717 371.946 531.008 349.939 503.43C305.748 448.034 219.005 435.303 170.403 488.065H170.39Z" fill="#CC8787"/>
<path fill-rule="evenodd" clip-rule="evenodd" d="M252.821 637.716C251.56 639.077 251.346 640.602 251.775 641.522C252.821 643.816 256.552 643.741 258.341 642.531C259.74 641.585 258.871 639.014 258.215 638.182C256.892 636.518 254.27 636.128 252.821 637.728V637.716Z" fill="#DCABAD"/>
<path d="M171.586 380.928C171.586 380.928 147.159 407.586 134.744 417.392C122.328 427.199 118.081 428.799 116.909 432.404C115.736 436.009 120.337 443.811 139.357 443.219C158.377 442.614 179.06 442.614 191.009 424.804C202.958 406.981 204.622 402.381 204.622 402.381L188.804 374.349L171.586 380.928Z" fill="#A7C6C1"/>
<path d="M219.634 394.957C219.634 394.957 214.226 414.178 257.674 430.791C301.121 447.403 307.524 442.198 307.524 442.198C307.524 442.198 294.314 389.134 271.69 376.328C249.065 363.509 221.839 372.723 219.634 394.944V394.957Z" fill="#A7C6C1"/>
<path d="M160.52 346.531L122.972 343.594C120.275 343.38 118.208 345.901 118.901 348.51C120.741 355.48 125.909 367.845 140.177 376.466C161.062 389.096 183.737 385.642 190.43 383.336C197.136 381.029 198.938 371.752 203.841 370.454C208.744 369.168 192.926 353.022 192.409 352.253C191.892 351.485 163.066 346.922 160.81 346.569C160.709 346.556 160.621 346.544 160.52 346.531Z" fill="#B6D7D3"/>
<path d="M255.001 355.228L226.313 381.445C226.313 381.445 244.943 384.735 263.37 386.512C281.798 388.302 292.763 380.323 324.488 371.815C356.201 363.307 345.172 366.03 372.99 356.892C396.875 349.039 391.493 333.649 391.493 333.649C391.493 333.649 388.178 309.474 362.024 315.033C339.21 319.886 345.222 315.436 312.464 330.65C280.865 345.334 275.71 346.191 258.354 353.111C257.118 353.602 255.997 354.333 255.013 355.228H255.001Z" fill="#B6D7D3"/>
<path d="M214.024 366.32C197.777 365.929 192.597 366.723 190.202 374.929C187.794 383.134 187.404 399.557 199.806 405.166C212.221 410.775 226.83 403.566 226.83 403.566C226.83 403.566 225.431 381.344 231.43 378.533C237.443 375.723 238.212 370.378 238.212 370.378C238.212 370.378 224.019 366.559 214.011 366.32H214.024Z" fill="#EFFDFF"/>
<path fill-rule="evenodd" clip-rule="evenodd" d="M345.022 327.738C352.106 315.436 382.155 311.516 389.742 325.759C420.825 384.041 368.945 429.845 326.292 441.378C283.639 452.911 251.813 442.235 245.864 425.9C242.575 416.838 239.978 404.448 265.174 396.91C282.442 391.743 304.273 394.011 314.482 387.268C324.326 380.777 325.977 360.849 345.022 327.738Z" fill="#E8B4B5"/>
<path fill-rule="evenodd" clip-rule="evenodd" d="M118.523 337.557C82.7893 320.314 51.6189 413.12 111.716 439.563C171.763 465.982 206.652 405.759 154.583 396.671C130.03 392.386 123.047 357.295 118.523 337.557Z" fill="#E8B4B5"/>
<path fill-rule="evenodd" clip-rule="evenodd" d="M105.805 79.0679C101.053 2.78669 17.0079 5.05547 3.86159 8.49644C-8.49063 39.7929 6.5337 108.411 82.0209 112.721C83.735 112.822 105.893 80.3914 105.805 79.0679Z" fill="#E8B4B5"/>
<path fill-rule="evenodd" clip-rule="evenodd" d="M88.0333 79.6477C69.3664 39.8433 27.3058 17.2816 13.0251 25.3358C8.44978 37.5746 47.145 99.6255 77.5466 101.239C78.9582 101.327 88.4997 80.6435 88.0333 79.6477Z" fill="#D18C8C"/>
<path fill-rule="evenodd" clip-rule="evenodd" d="M352.61 81.5889C357.361 5.30763 441.407 7.5764 454.553 11.0174C466.905 42.3139 451.881 110.932 376.394 115.242C374.68 115.343 352.521 82.9123 352.61 81.5889Z" fill="#E8B4B5"/>
<path fill-rule="evenodd" clip-rule="evenodd" d="M370.382 82.1687C389.049 42.3643 431.122 19.8026 445.39 27.8567C449.965 40.0955 411.27 102.146 380.869 103.76C379.457 103.848 369.915 83.1644 370.382 82.1687Z" fill="#D18C8C"/>
<path d="M181.166 42.9566C98.1795 51.0107 26.7887 148.707 22.705 221.623C18.6212 294.538 54.556 350.086 186.069 361.518C317.583 372.95 417.232 329.667 429.484 264.313C441.735 198.973 408.245 20.8991 181.166 42.9566Z" fill="#E8B4B5"/>
<path fill-rule="evenodd" clip-rule="evenodd" d="M348.715 268.574C375.323 283.774 414.144 262.196 390.574 248.974C363.614 233.824 321.566 253.058 348.715 268.574Z" fill="#EF99B0"/>
<path fill-rule="evenodd" clip-rule="evenodd" d="M43.1376 250.045C72.6947 263.96 115.776 244.209 89.6349 232.109C59.687 218.257 12.9881 235.853 43.1376 250.045Z" fill="#EF99B0"/>
<path d="M218.272 306.752C252.667 306.752 280.55 285.568 280.55 259.436C280.55 233.303 252.667 212.119 218.272 212.119C183.877 212.119 155.994 233.303 155.994 259.436C155.994 285.568 183.877 306.752 218.272 306.752Z" fill="#CC8787"/>
<path d="M191.639 282.388C199.4 282.388 205.693 272.642 205.693 260.62C205.693 248.598 199.4 238.853 191.639 238.853C183.877 238.853 177.585 248.598 177.585 260.62C177.585 272.642 183.877 282.388 191.639 282.388Z" fill="#694E4E"/>
<path d="M243.355 281.203C251.116 281.203 257.408 271.457 257.408 259.435C257.408 247.414 251.116 237.668 243.355 237.668C235.593 237.668 229.301 247.414 229.301 259.435C229.301 271.457 235.593 281.203 243.355 281.203Z" fill="#694E4E"/>
<path d="M359.529 52.9645C354.046 51.2755 317.405 63.5899 316.12 55.4349C295.776 57.6155 207.458 49.8134 194.652 47.0909C187.758 45.6162 178.241 42.1122 170.477 38.9737C170.893 39.3771 171.17 39.6418 171.17 39.6418C171.17 39.6418 145.647 34.9025 127.585 34.2219C109.523 33.5413 113.808 42.8054 124.194 57.0357C134.58 71.266 143.844 65.8461 148.81 58.1701C153.776 50.4941 165.75 53.8846 166.431 58.1701C167.112 62.4555 163.948 68.556 177.951 68.3292C191.955 68.1023 199.631 62.2287 203.929 62.0018C208.214 61.7749 213.42 83.6812 228.772 81.8788C244.124 80.0764 243.456 70.1316 255.417 67.1948C267.392 64.258 261.972 81.1981 285.68 80.7444C309.389 80.2906 301.713 70.3584 310.07 68.5434C318.426 66.741 321.136 81.1855 336.047 74.417C350.958 67.6359 365.403 54.7669 359.542 52.9645H359.529Z" fill="#EEFEFF"/>
<path d="M316.132 55.4348C316.044 54.8676 316.12 54.1996 316.397 53.4181C320.683 41.4441 338.303 28.3482 326.783 19.7647C315.263 11.1811 241.477 8.01744 235.994 7.12254C195.761 0.492676 144.071 -4.86415 146.781 7.10993C149.214 17.8488 166.872 35.457 170.49 38.961C178.267 42.0995 187.77 45.6035 194.665 47.0782C207.471 49.8133 295.789 57.6028 316.132 55.4222V55.4348Z" fill="#B3DBDD"/>
<path fill-rule="evenodd" clip-rule="evenodd" d="M370.747 130.935C359.68 103.23 320.153 112.016 330.161 125.174C347.353 147.749 373.722 138.396 370.747 130.935Z" fill="#694E4E"/>
<path fill-rule="evenodd" clip-rule="evenodd" d="M129.526 120.334C112.435 136.19 87.8435 119.339 102.969 105.524C120.3 89.6932 146.97 104.163 129.526 120.334Z" fill="#765858"/>
</svg>
