<svg width="27" height="50" viewBox="0 0 27 50" fill="none" xmlns="http://www.w3.org/2000/svg">
<path d="M7.80154 2.39995C7.80154 2.39995 7.80156 2.59996 7.60156 2.99996C13.2016 8.49996 20.5015 29.2 21.3015 38.5C21.7015 43.8 17.6016 47.7 12.6016 49.1C19.5016 49.3 26.7016 44.7 26.1016 37.8C25.1016 25.6 12.9016 -6.20005 7.90155 2.39995H7.80154Z" fill="#92D8EA"/>
<path d="M21.3009 38.3999C20.5009 29.0999 13.3009 8.4999 7.60094 2.8999C6.10094 6.3999 -1.69906 25.4999 1.00094 39.3999C2.30094 45.9999 7.30094 48.8999 12.6009 48.9999C17.6009 47.4999 21.7009 43.5999 21.3009 38.3999Z" fill="white"/>
</svg>
