<svg width="378" height="539" viewBox="0 0 378 539" fill="none" xmlns="http://www.w3.org/2000/svg">
<path d="M372.365 429.53C370.565 439.83 355.665 440.83 355.665 440.83C355.665 440.83 356.665 438.73 359.265 431.43C361.865 424.13 357.765 407.23 336.365 413.03C314.965 418.83 334.865 442.53 334.865 442.53C334.865 442.53 334.465 443.13 327.565 443.13C320.665 443.13 308.665 434.53 308.665 434.53L307.965 447.63C307.965 447.63 312.365 451.23 324.365 454.03C336.365 456.83 348.765 447.63 348.765 447.63C348.765 447.63 363.165 448.43 370.865 440.83C378.565 433.23 378.265 428.13 377.265 423.03C376.265 417.93 374.065 419.23 372.365 429.53V429.53ZM345.665 438.33C340.665 439.43 331.465 425.83 336.965 423.03C342.465 420.23 347.965 419.33 349.365 427.13C350.865 434.93 349.465 437.43 345.565 438.33H345.665Z" fill="#DCABAD"/>
<path d="M250.465 481.53C250.465 481.53 307.765 501.93 307.865 520.53C308.065 539.03 327.965 539.03 334.065 513.73C340.165 488.43 339.965 488.13 325.365 465.73C310.765 443.33 304.565 434.13 304.565 434.13L250.465 481.53V481.53Z" fill="#DCABAD"/>
<path fill-rule="evenodd" clip-rule="evenodd" d="M115.066 276.23C86.2657 293.73 53.8657 392.03 73.0657 432.63C110.866 512.23 232.966 510.03 282.066 474.43C356.566 420.43 306.366 343.33 264.566 290.83C235.866 254.93 242.066 245.43 185.566 251.93C99.8657 261.73 150.066 254.93 115.066 276.13V276.23Z" fill="#DCABAD"/>
<path fill-rule="evenodd" clip-rule="evenodd" d="M141.065 349.83C113.965 379.33 109.265 412.43 118.365 432.13C141.265 481.93 221.665 479.93 260.565 453.83C290.865 433.43 272.065 377.73 257.765 359.83C229.065 323.83 172.665 315.53 141.065 349.83V349.83Z" fill="#CC8787"/>
<path d="M258.363 278.43C258.363 278.43 320.463 308.33 338.963 318.33C357.463 328.33 363.963 344.93 361.763 356.03C359.463 367.13 321.063 365.03 289.863 351.13C258.563 337.23 229.763 333.43 230.563 320.83C231.363 308.23 246.163 272.53 258.463 278.43H258.363Z" fill="#DCABAD"/>
<path d="M105.264 280.93C105.264 280.93 43.1639 310.83 24.6639 320.83C6.26385 330.83 -0.336149 347.43 1.86385 358.53C4.16385 369.63 42.5639 367.53 73.7639 353.63C105.064 339.73 133.864 335.93 133.064 323.33C132.264 310.73 117.464 275.03 105.164 280.93H105.264Z" fill="#DCABAD"/>
<path d="M120.264 474.43C120.264 474.43 121.064 510.03 103.364 515.63C85.6638 521.23 91.5638 540.23 117.564 538.63C143.464 537.03 143.764 536.73 160.864 516.13C177.964 495.53 184.964 486.93 184.964 486.93L120.264 474.33V474.43Z" fill="#DCABAD"/>
<path d="M81.9656 404.83C74.9656 405.83 64.4656 406.03 65.9656 397.03C67.3656 388.73 71.0656 362.13 72.7656 357.73C71.3656 358.43 69.9656 358.93 65.3656 360.93C50.2656 367.33 51.1656 358.53 46.6656 343.83C42.1656 329.13 32.2656 313.73 43.6656 306.33C55.0656 298.93 104.666 276.23 104.666 276.23C113.366 273.13 118.266 276.13 134.466 278.93C150.466 281.73 127.766 312.83 191.566 312.83C255.366 312.83 231.766 279.83 242.566 277.03C254.566 273.93 253.166 271.33 263.666 272.53C278.666 270.33 343.566 304.83 341.166 314.33C338.666 324.03 328.266 357.13 325.266 363.13C324.366 365.03 313.366 360.83 311.666 361.03C286.766 353.43 294.366 353.43 294.366 353.43C294.366 353.43 313.066 390.93 296.466 393.33C279.766 395.63 82.0656 404.73 82.0656 404.73L81.9656 404.83Z" fill="#91C8EC"/>
<path d="M190.865 332.73C146.365 335.53 110.465 330.23 95.1654 329.93C79.8654 329.63 74.5654 338.53 70.2654 352.83C65.9654 367.13 59.8654 392.03 66.8654 426.23C73.8654 460.43 111.965 501.13 187.365 499.93C262.765 498.73 294.865 474.73 309.865 449.03C324.865 423.33 322.265 396.03 317.565 369.13C312.865 342.23 292.265 326.53 265.665 328.03C239.065 329.53 190.865 332.73 190.865 332.73V332.73Z" fill="#3A71B9"/>
<path d="M127.764 277.43C107.264 271.73 111.864 275.23 107.764 295.23C103.664 315.23 95.864 342.43 107.764 342.73C119.664 342.93 126.564 349.23 131.164 326.23C135.764 303.23 140.164 279.83 135.564 278.83C130.964 277.83 127.764 277.53 127.764 277.53V277.43Z" fill="#3A71B9"/>
<path d="M114.163 465.33C114.163 465.33 103.963 492.53 104.163 499.33C104.363 506.13 156.863 520.43 166.263 520.43C175.663 520.43 187.063 495.53 188.663 484.13C190.263 472.73 114.163 465.33 114.163 465.33V465.33Z" fill="#3A71B9"/>
<path d="M274.865 460.33C261.065 476.03 258.165 481.33 263.465 486.13C268.765 490.93 284.865 502.23 287.965 500.23C290.965 498.23 303.665 481.53 311.365 470.83C319.065 460.03 325.965 457.43 320.265 450.93C314.565 444.43 302.665 430.33 295.365 438.53C288.065 446.73 274.965 460.33 274.965 460.33H274.865Z" fill="#3A71B9"/>
<path d="M113.666 316.43C112.966 316.53 112.266 316.73 111.566 317.03C117.166 317.03 122.166 320.93 123.266 326.63C124.366 332.33 121.166 337.83 115.866 339.93C116.566 339.93 117.266 339.93 117.966 339.73C124.366 338.53 128.666 332.33 127.366 325.83C126.166 319.43 119.966 315.13 113.466 316.43H113.666Z" fill="#CBA270"/>
<path d="M123.265 326.63C122.165 320.93 117.165 316.93 111.565 317.03C106.365 319.03 103.065 324.63 104.165 330.33C105.265 336.03 110.265 340.03 115.865 339.93C121.065 337.93 124.365 332.33 123.265 326.63Z" fill="#E2DF90"/>
<path d="M250.564 273.43C271.064 268.43 264.464 271.93 268.564 289.73C272.664 307.53 292.364 343.63 262.564 332.83C251.464 328.73 249.764 337.73 245.164 317.33C240.564 296.93 237.264 276.73 241.864 275.83C246.464 274.93 250.564 273.43 250.564 273.43V273.43Z" fill="#3A71B9"/>
<path d="M260.166 316.33C259.466 316.43 258.766 316.63 258.066 316.93C263.666 316.93 268.666 320.83 269.766 326.53C270.866 332.23 267.666 337.73 262.366 339.83C263.066 339.83 263.766 339.83 264.466 339.63C270.866 338.43 275.166 332.23 273.866 325.73C272.666 319.33 266.466 315.03 259.966 316.33H260.166Z" fill="#CBA270"/>
<path d="M269.866 326.531C268.766 320.831 263.766 316.831 258.166 316.931C252.966 318.931 249.666 324.531 250.766 330.231C251.866 335.931 256.866 339.931 262.466 339.831C267.666 337.831 270.966 332.231 269.866 326.531Z" fill="#E2DF90"/>
<path d="M140.366 344.13C140.466 343.23 149.466 343.73 191.266 343.73C233.066 343.73 230.066 343.23 236.466 342.73C239.666 342.53 242.266 345.23 242.066 348.43C241.166 359.33 234.966 380.73 199.066 381.43C150.866 382.33 136.566 369.03 140.366 344.03V344.13Z" stroke="#84AAD6" stroke-width="5" stroke-miterlimit="10"/>
<path fill-rule="evenodd" clip-rule="evenodd" d="M279.664 63.9303C283.464 3.43026 350.064 5.23026 360.564 7.93026C370.364 32.7303 358.464 87.2303 298.564 90.6303C297.164 90.6303 279.664 64.9303 279.664 63.9303V63.9303Z" fill="#E8B4B5"/>
<path fill-rule="evenodd" clip-rule="evenodd" d="M293.765 64.43C308.565 32.83 341.965 14.93 353.265 21.33C356.865 31.03 326.165 80.23 302.065 81.53C300.965 81.53 293.365 65.23 293.765 64.43Z" fill="#D18C8C"/>
<path fill-rule="evenodd" clip-rule="evenodd" d="M83.8657 61.9303C80.1657 1.43026 13.4657 3.23026 3.06573 5.93026C-6.73427 30.7303 5.16573 85.2303 65.0657 88.6303C66.4657 88.6303 83.9657 62.9303 83.9657 61.9303H83.8657Z" fill="#E8B4B5"/>
<path fill-rule="evenodd" clip-rule="evenodd" d="M69.7662 62.43C54.9662 30.83 21.6662 12.93 10.2662 19.33C6.66615 29.03 37.3662 78.23 61.4662 79.53C62.5662 79.53 70.1662 63.23 69.7662 62.43Z" fill="#D18C8C"/>
<path d="M145.464 29.7302C79.6642 36.1302 22.9642 113.63 19.7642 171.53C16.5642 229.33 45.0642 273.43 149.364 282.53C253.664 291.63 332.764 257.23 342.464 205.43C352.164 153.63 325.664 12.3302 145.464 29.8302V29.7302Z" fill="#E8B4B5"/>
<path fill-rule="evenodd" clip-rule="evenodd" d="M275.463 221.131C300.463 238.431 337.063 213.931 314.863 198.831C289.463 181.631 249.863 203.431 275.463 221.131Z" fill="#EF99B0"/>
<path fill-rule="evenodd" clip-rule="evenodd" d="M37.6662 216.33C62.6662 233.63 99.2662 209.13 77.0662 194.03C51.6662 176.83 12.0662 198.63 37.6662 216.33V216.33Z" fill="#EF99B0"/>
<path d="M173.166 242.53C200.448 242.53 222.566 225.741 222.566 205.03C222.566 184.32 200.448 167.53 173.166 167.53C145.883 167.53 123.766 184.32 123.766 205.03C123.766 225.741 145.883 242.53 173.166 242.53Z" fill="#CC8787"/>
<path d="M151.966 223.33C158.151 223.33 163.166 215.585 163.166 206.03C163.166 196.476 158.151 188.73 151.966 188.73C145.78 188.73 140.766 196.476 140.766 206.03C140.766 215.585 145.78 223.33 151.966 223.33Z" fill="#694E4E"/>
<path d="M193.063 222.33C199.249 222.33 204.263 214.585 204.263 205.03C204.263 195.476 199.249 187.73 193.063 187.73C186.878 187.73 181.863 195.476 181.863 205.03C181.863 214.585 186.878 222.33 193.063 222.33Z" fill="#694E4E"/>
<path d="M131.966 112.83C131.966 112.83 89.8664 137.73 59.0664 135.33L74.9664 112.83H131.966V112.83Z" fill="#E8B4B5"/>
<path d="M138.966 26.4305C140.566 26.3305 142.266 25.6305 144.066 24.7305C148.966 27.2305 159.266 30.5305 174.666 36.5305C187.866 41.6305 201.266 44.9305 211.666 47.0305C206.366 47.2305 198.066 47.3305 182.766 47.4305C138.366 47.8305 114.066 49.1305 112.966 39.7305C111.866 30.3305 129.766 27.3305 139.066 26.5305L138.966 26.4305Z" fill="#F2645D"/>
<path d="M181.463 0.830316C181.763 0.730316 182.063 0.630316 182.363 0.530316C194.463 -2.66968 234.163 9.23032 245.263 19.6303C246.663 20.9303 247.563 22.2303 247.963 23.4303C251.563 34.6303 255.763 40.0303 234.363 43.5303C220.363 45.8303 221.463 46.6303 211.463 46.9303C201.063 44.9303 187.663 41.6303 174.463 36.4303C159.063 30.4303 148.863 27.1303 143.863 24.6303C152.463 20.0303 163.463 7.53032 181.263 0.730316L181.463 0.830316Z" fill="#F59288"/>
<path d="M264.365 90.3303C257.665 92.8303 265.065 105.93 279.365 107.83C293.665 109.73 296.365 104.43 296.365 102.33C296.365 100.23 288.565 102.93 280.665 99.3303C272.765 95.7303 269.765 88.3303 264.365 90.3303Z" fill="#765858"/>
<path d="M106.863 81.6301C113.563 84.1301 106.163 97.2301 91.8633 99.1301C77.5633 101.13 74.8633 95.7301 74.8633 93.6301C74.8633 91.5301 82.6633 94.2301 90.5633 90.6301C98.4633 87.0301 101.463 79.6301 106.863 81.6301Z" fill="#765858"/>
</svg>
