<svg width="80" height="40" viewBox="0 0 80 40" fill="none" xmlns="http://www.w3.org/2000/svg">
<path d="M40.8024 23.7997C28.8024 24.1997 22.2023 30.7997 18.9023 35.6997C27.6023 39.1997 38.8024 40.5997 50.5023 37.9997C55.5023 36.8997 59.8023 35.6997 63.4023 34.3997C60.2023 29.7997 53.4023 23.2997 40.9023 23.6997L40.8024 23.7997Z" fill="#E38072"/>
<path d="M79.1007 17.0999C76.8007 8.89987 72.2007 2.19987 60.8007 5.99987C49.4007 9.69987 40.2007 9.09988 40.2007 9.09988C21.9007 5.69988 27.3007 -1.40013 16.7007 0.499869C6.1007 2.29987 -1.99929 8.39988 1.30071 20.1999C3.00071 26.1999 9.60071 32.1999 18.8007 35.8999C22.1007 30.9999 28.7007 24.3999 40.7007 23.9999C53.3007 23.4999 60.0007 30.0999 63.2007 34.6999C76.9007 29.7999 80.8007 23.6999 78.9007 17.1999L79.1007 17.0999Z" fill="#AF300F"/>
</svg>
