<svg width="556" height="800" viewBox="0 0 556 800" fill="none" xmlns="http://www.w3.org/2000/svg">
<path d="M176.218 696.944C176.218 696.944 177.393 749.217 151.462 757.459C125.531 765.716 134.17 793.615 172.295 791.25C210.42 788.899 210.802 788.503 235.954 758.238C261.106 727.973 271.317 715.397 271.317 715.397L176.218 696.929V696.944Z" fill="#DCABAD"/>
<path d="M336.312 717.41C336.312 717.41 376.788 750.496 366.18 775.574C355.588 800.638 382.4 812.215 405.392 781.73C428.385 751.245 428.341 750.687 421.715 711.901C415.089 673.115 412.18 657.174 412.18 657.174L336.297 717.41H336.312Z" fill="#DCABAD"/>
<path fill-rule="evenodd" clip-rule="evenodd" d="M169.15 405.814C126.808 431.451 74.5209 579.264 102.817 638.883C158.307 755.755 342.467 749.305 414.501 697.076C523.983 617.683 450.231 504.41 388.79 427.381C346.684 374.609 355.763 360.725 272.697 370.26C146.804 384.717 220.497 374.697 169.135 405.814H169.15Z" fill="#DCABAD"/>
<path fill-rule="evenodd" clip-rule="evenodd" d="M207.334 513.945C167.46 557.227 160.614 605.886 173.91 634.799C207.539 707.905 325.69 705.084 382.796 666.709C427.371 636.767 399.736 554.95 378.727 528.622C336.532 475.747 253.73 463.582 207.334 513.945V513.945Z" fill="#CC8787"/>
<path d="M379.579 409.047C379.579 409.047 470.873 453.033 497.994 467.696C525.1 482.358 534.797 506.702 531.477 523.024C528.156 539.347 471.711 536.306 425.799 515.826C379.873 495.345 337.547 489.777 338.648 471.266C339.75 452.754 361.538 400.305 379.594 409.047H379.579Z" fill="#DCABAD"/>
<path d="M154.753 412.705C154.753 412.705 63.4591 456.692 36.3383 471.354C9.23215 486.016 -0.449657 510.36 2.87066 526.683C6.19098 543.005 62.6363 539.964 108.548 519.484C154.474 499.004 196.801 493.435 195.699 474.924C194.597 456.412 172.809 403.963 154.753 412.705V412.705Z" fill="#DCABAD"/>
<path d="M213.813 43.694C117.069 53.0967 33.8553 166.957 29.0952 251.948C24.3351 336.94 66.221 401.686 219.514 415.011C372.807 428.337 488.959 377.885 503.239 301.709C517.52 225.547 478.484 17.9836 213.799 43.694H213.813Z" fill="#E8B4B5"/>
<path fill-rule="evenodd" clip-rule="evenodd" d="M411.005 93.9101C416.544 4.99611 514.508 7.64061 529.831 11.6514C544.229 48.1308 526.717 128.112 438.728 133.137C436.73 133.254 410.902 95.4527 411.005 93.9101Z" fill="#E8B4B5"/>
<path fill-rule="evenodd" clip-rule="evenodd" d="M431.72 94.5859C453.479 48.1896 502.52 21.8915 519.151 31.2795C524.484 45.5451 479.38 117.872 443.944 119.753C442.298 119.856 431.177 95.7465 431.72 94.5859Z" fill="#D18C8C"/>
<path fill-rule="evenodd" clip-rule="evenodd" d="M123.327 90.9717C117.789 2.0577 19.8245 4.7022 4.5011 8.69833C-9.89674 45.1777 7.61573 125.159 95.6041 130.184C97.6022 130.301 123.43 92.4996 123.327 90.957V90.9717Z" fill="#E8B4B5"/>
<path fill-rule="evenodd" clip-rule="evenodd" d="M102.613 91.6476C80.8543 45.2367 31.8282 18.9533 15.1825 28.3412C9.84943 42.6069 54.9528 114.934 90.3892 116.814C92.0346 116.917 103.156 92.8083 102.613 91.6476V91.6476Z" fill="#D18C8C"/>
<path fill-rule="evenodd" clip-rule="evenodd" d="M404.687 324.76C441.49 350.133 495.159 314.124 462.573 292.057C425.285 266.787 367.135 298.874 404.687 324.76Z" fill="#EF99B0"/>
<path fill-rule="evenodd" clip-rule="evenodd" d="M55.3639 317.796C92.1665 343.169 145.835 307.16 113.249 285.093C75.9616 259.823 17.812 291.91 55.3639 317.796Z" fill="#EF99B0"/>
<path fill-rule="evenodd" clip-rule="evenodd" d="M434.467 149.224C421.567 116.932 375.494 127.172 387.16 142.51C407.199 168.823 437.934 157.922 434.467 149.224Z" fill="#694E4E"/>
<path fill-rule="evenodd" clip-rule="evenodd" d="M151.241 139.675C131.319 158.157 102.656 138.514 120.286 122.412C140.487 103.959 171.575 120.825 151.241 139.675Z" fill="#765858"/>
<path d="M254.421 356.347C294.512 356.347 327.013 331.655 327.013 301.195C327.013 270.735 294.512 246.042 254.421 246.042C214.33 246.042 181.83 270.735 181.83 301.195C181.83 331.655 214.33 356.347 254.421 356.347Z" fill="#CC8787"/>
<path d="M223.377 327.963C232.424 327.963 239.759 316.603 239.759 302.591C239.759 288.578 232.424 277.218 223.377 277.218C214.33 277.218 206.996 288.578 206.996 302.591C206.996 316.603 214.33 327.963 223.377 327.963Z" fill="#694E4E"/>
<path d="M283.657 326.567C292.704 326.567 300.038 315.208 300.038 301.195C300.038 287.182 292.704 275.822 283.657 275.822C274.61 275.822 267.276 287.182 267.276 301.195C267.276 315.208 274.61 326.567 283.657 326.567Z" fill="#694E4E"/>
<path d="M204.234 38.787C206.6 38.5813 209.083 37.6704 211.713 36.26C218.97 39.9623 233.985 44.8399 256.596 53.6109C275.959 61.1183 295.661 65.9666 310.896 68.9784C303.153 69.2575 290.871 69.375 268.437 69.5513C203.235 70.0802 167.52 72.0489 165.83 58.2241C164.156 44.3992 190.557 39.9623 204.234 38.787V38.787Z" fill="#F2645D"/>
<path d="M266.688 1.20572C267.1 1.04411 267.555 0.91189 268.025 0.779665C285.729 -3.92167 344.114 13.5467 360.48 28.8114C362.522 30.7213 363.918 32.6018 364.491 34.3795C369.736 50.8782 375.98 58.8264 344.525 63.9538C323.898 67.3035 325.631 68.4495 310.881 68.9784C295.646 65.9666 275.944 61.133 256.581 53.6109C233.955 44.84 218.955 39.9623 211.698 36.26C224.259 29.5313 240.449 11.2107 266.688 1.20572V1.20572Z" fill="#F59288"/>
<path d="M547.123 630.993C544.537 646.111 522.544 647.58 522.544 647.58C522.544 647.58 523.998 644.568 527.818 633.844C531.638 623.119 525.673 598.348 494.159 606.826C462.646 615.303 492 650.166 492 650.166C492 650.166 491.471 651.106 481.245 651.033C471.02 650.959 453.493 638.354 453.493 638.354L452.538 657.615C452.538 657.615 458.988 662.86 476.588 666.973C494.189 671.087 512.436 657.6 512.436 657.6C512.436 657.6 533.577 658.746 544.934 647.58C556.305 636.415 555.85 628.863 554.336 621.444C552.823 614.024 549.694 615.861 547.108 630.979L547.123 630.993ZM507.955 643.922C500.668 645.567 487.137 625.572 495.217 621.444C503.312 617.315 511.305 616.023 513.464 627.438C515.624 638.853 513.626 642.644 507.955 643.922Z" fill="#DCABAD"/>
<path d="M120.418 594.675C110.09 596.13 94.7518 596.497 96.9262 583.187C98.9389 570.948 104.463 531.913 106.946 525.463C104.86 526.477 102.847 527.285 96.0447 530.194C73.8602 539.64 75.1237 526.682 68.5712 505.042C62.0334 483.401 47.4887 460.878 64.2078 449.963C80.9269 439.061 153.827 405.799 153.827 405.799C166.653 401.186 173.852 405.652 197.549 409.825C221.115 413.983 187.662 459.644 281.453 459.644C351.268 459.644 340.485 411.206 356.322 407.063C373.967 402.435 371.969 398.659 387.263 400.422C409.359 397.249 504.62 447.935 501.05 461.833C497.421 476.011 482.039 524.758 477.675 533.485C476.309 536.217 460.133 530.047 457.651 530.414C421.068 519.278 432.293 519.278 432.293 519.278C432.293 519.278 459.84 574.43 435.319 577.853C410.814 581.277 120.389 594.661 120.389 594.661L120.418 594.675Z" fill="#91C8EC"/>
<path d="M280.513 488.807C215.106 492.936 162.392 485.12 139.929 484.635C117.48 484.15 109.664 497.329 103.317 518.323C96.9703 539.317 88.0524 575.9 98.3072 626.189C108.562 676.464 164.625 736.274 275.283 734.452C385.941 732.63 433.277 697.444 455.197 659.686C477.117 621.929 473.385 581.894 466.554 542.344C459.722 502.809 429.384 479.699 390.333 481.932C351.283 484.165 280.499 488.822 280.499 488.822L280.513 488.807Z" fill="#3A71B9"/>
<path d="M187.706 407.474C157.617 399.144 164.346 404.183 158.367 433.582C152.387 462.994 140.942 502.985 158.367 503.323C175.791 503.646 186.031 512.799 192.76 479.067C199.489 445.335 205.982 410.854 199.18 409.399C192.363 407.945 187.706 407.46 187.706 407.46V407.474Z" fill="#3A71B9"/>
<path d="M167.726 683.604C167.726 683.604 152.755 723.507 152.99 733.497C153.225 743.488 230.489 764.453 244.255 764.453C258.021 764.453 274.799 727.914 277.193 711.151C279.588 694.388 167.726 683.604 167.726 683.604V683.604Z" fill="#3A71B9"/>
<path d="M364.653 693.271C335.446 703.056 327.968 707.684 331.185 717.645C334.388 727.62 346.494 753.962 351.842 753.61C357.19 753.257 385.574 741.489 403.248 733.482C420.922 725.475 431.75 727.253 429.179 714.794C426.622 702.336 421.98 675.626 406.671 680.607C391.362 685.587 364.653 693.256 364.653 693.256V693.271Z" fill="#3A71B9"/>
<path d="M167.02 464.787C165.962 464.992 164.948 465.301 163.979 465.668C172.235 465.624 179.611 471.442 181.197 479.846C182.784 488.249 178.068 496.374 170.355 499.342C171.398 499.342 172.456 499.253 173.514 499.048C182.975 497.255 189.19 488.132 187.397 478.67C185.605 469.209 176.481 462.994 167.02 464.787V464.787Z" fill="#CBA270"/>
<path d="M181.198 479.846C179.611 471.442 172.236 465.624 163.979 465.668C156.281 468.636 151.55 476.761 153.137 485.164C154.724 493.568 162.099 499.386 170.356 499.342C178.054 496.374 182.785 488.25 181.198 479.846Z" fill="#E2DF90"/>
<path d="M368.164 401.598C398.253 394.178 388.644 399.365 394.624 425.53C400.603 451.696 429.56 504.704 385.823 488.807C369.442 482.857 366.959 496.021 360.23 466.006C353.502 435.991 348.609 406.358 355.426 405.065C362.243 403.772 368.164 401.598 368.164 401.598V401.598Z" fill="#3A71B9"/>
<path d="M382.356 464.639C381.298 464.845 380.284 465.154 379.315 465.521C387.571 465.477 394.947 471.295 396.533 479.698C398.12 488.102 393.404 496.227 385.691 499.194C386.734 499.194 387.792 499.106 388.85 498.9C398.311 497.108 404.526 487.985 402.733 478.523C400.941 469.062 391.817 462.847 382.356 464.639Z" fill="#CBA270"/>
<path d="M396.519 479.698C394.933 471.295 387.557 465.477 379.301 465.521C371.602 468.489 366.872 476.613 368.458 485.017C370.045 493.421 377.42 499.238 385.677 499.194C393.375 496.227 398.106 488.102 396.519 479.698Z" fill="#E2DF90"/>
<path d="M206.306 505.6C206.512 504.263 219.661 505.086 281.057 505.086C318.492 505.086 337.988 504.293 347.537 503.676C352.268 503.367 356.132 507.334 355.764 512.065C354.516 528.049 345.348 559.563 292.576 560.518C221.791 561.796 200.767 542.271 206.306 505.6Z" stroke="#84AAD6" stroke-width="5" stroke-miterlimit="10"/>
</svg>
