<svg width="57" height="32" viewBox="0 0 57 32" fill="none" xmlns="http://www.w3.org/2000/svg">
<path d="M41.7115 9.25553C48.3615 7.05553 52.6715 6.55553 55.4115 6.68553C57.5715 0.865531 56.1115 -0.414468 53.7615 0.105531C51.1015 0.695531 35.3615 4.30553 22.1415 3.93553C8.92155 3.57553 3.00155 0.395532 1.03155 2.23553C-2.88845 5.89553 5.01155 19.9155 13.8215 26.1455C19.1115 18.5355 30.4015 13.0155 41.7115 9.26553V9.25553Z" fill="#AF300F"/>
<path d="M40.7515 29.6155C46.5515 26.8055 50.8615 17.1055 54.4015 9.15546C54.8015 8.24546 55.1315 7.43546 55.4115 6.68546C52.6715 6.55546 48.3615 7.05546 41.7115 9.25546C30.4015 13.0055 19.1115 18.5255 13.8215 26.1355C15.0615 27.0155 16.3215 27.7355 17.5615 28.2555C27.6515 32.4355 34.9515 32.4255 40.7515 29.6155V29.6155Z" fill="#E38072"/>
</svg>
