<svg width="237" height="85" viewBox="0 0 237 85" fill="none" xmlns="http://www.w3.org/2000/svg">
<path fill-rule="evenodd" clip-rule="evenodd" d="M169.699 72.9002C201.199 107 247.099 58.6002 219.299 29.0002C187.399 -4.89982 137.599 38.1002 169.699 72.9002V72.9002Z" fill="white"/>
<path fill-rule="evenodd" clip-rule="evenodd" d="M180.799 57.9001C203.299 82.2001 235.999 47.7001 216.099 26.6001C193.299 2.40007 157.899 33.1001 180.799 57.9001Z" fill="#765858"/>
<path fill-rule="evenodd" clip-rule="evenodd" d="M196.097 39.0999C203.897 47.4999 215.197 35.5999 208.297 28.2999C200.397 19.8999 188.197 30.5999 196.097 39.0999Z" fill="white"/>
<path fill-rule="evenodd" clip-rule="evenodd" d="M15.3004 59.3001C46.8004 93.4001 92.7004 45.0001 64.9004 15.4001C33.0004 -18.4999 -16.7996 24.5001 15.3004 59.3001V59.3001Z" fill="white"/>
<path fill-rule="evenodd" clip-rule="evenodd" d="M27.0994 47.1999C49.5994 71.4999 82.2994 36.9999 62.3994 15.8999C39.5994 -8.30012 4.19943 22.3999 27.0994 47.1999V47.1999Z" fill="#765858"/>
<path fill-rule="evenodd" clip-rule="evenodd" d="M43.1011 26.4998C50.9011 34.8998 62.2011 22.9998 55.3011 15.6998C47.4011 7.39979 35.2011 17.9998 43.1011 26.4998Z" fill="white"/>
<path d="M73.5016 0.899902C73.5016 0.899902 31.4016 25.7999 0.601562 23.3999L16.5016 0.899902H73.5016Z" fill="#E8B4B5"/>
<path d="M164.102 14C164.102 14 206.202 38.9 237.002 36.5L221.102 14H164.102V14Z" fill="#E8B4B5"/>
</svg>
