<svg width="747" height="971" viewBox="0 0 747 971" fill="none" xmlns="http://www.w3.org/2000/svg">
<path d="M244.467 673.209L201.819 642.799C200.902 642.145 199.629 642.359 198.975 643.276L186.849 660.282C186.195 661.199 186.409 662.472 187.325 663.126L229.974 693.535C230.891 694.189 232.164 693.975 232.817 693.059L244.943 676.052C245.597 675.136 245.384 673.862 244.467 673.209Z" fill="#010101"/>
<path d="M515.43 697.881L558.079 667.472C558.995 666.818 559.209 665.545 558.555 664.628L546.429 647.622C545.775 646.705 544.502 646.492 543.585 647.145L500.937 677.555C500.02 678.209 499.807 679.482 500.46 680.399L512.587 697.405C513.24 698.322 514.513 698.535 515.43 697.881Z" fill="#010101"/>
<path d="M236.261 578.127C164.253 587.107 153.213 641.59 153.213 641.59L211.709 955.824H300.223V729.106L236.261 578.127V578.127Z" fill="#FFFCFD"/>
<path d="M607.712 641.59C607.712 641.59 596.325 585.089 520.738 577.65C515.164 577.108 509.655 576.631 504.189 576.175L439.403 729.106V955.824H549.216L607.712 641.59V641.59Z" fill="#F4F2F4"/>
<path d="M421.639 606.649H385.873V628.75H362.21V606.649H326.445V572.445C301.892 573.095 271.723 574.549 240.208 577.65C238.863 577.78 237.584 577.954 236.282 578.127L300.244 729.106V955.824H439.402V729.106L504.188 576.175C473.064 573.616 444.087 572.553 421.617 572.163V606.627L421.639 606.649Z" fill="#3C3C3C"/>
<path d="M370.712 748.54C397.652 748.54 419.491 726.701 419.491 699.761C419.491 672.821 397.652 650.981 370.712 650.981C343.772 650.981 321.932 672.821 321.932 699.761C321.932 726.701 343.772 748.54 370.712 748.54Z" fill="#FFFDFE"/>
<path d="M423.005 770.793H320.024C318.778 770.793 317.768 771.803 317.768 773.049V814.583C317.768 815.829 318.778 816.839 320.024 816.839H423.005C424.25 816.839 425.26 815.829 425.26 814.583V773.049C425.26 771.803 424.25 770.793 423.005 770.793Z" fill="#FFFDFE"/>
<path d="M361.668 606.649V628.75H385.331V606.649H421.096V572.184C401.186 571.837 386.372 572.011 379.93 572.141C372.165 571.989 352.276 571.772 325.881 572.466V606.67H361.646L361.668 606.649Z" fill="#FCFBFD"/>
<path d="M452.308 519.653H308.638C305.883 519.653 303.65 521.886 303.65 524.641V590.49C303.65 593.245 305.883 595.478 308.638 595.478H452.308C455.063 595.478 457.296 593.245 457.296 590.49V524.641C457.296 521.886 455.063 519.653 452.308 519.653Z" fill="#010101"/>
<path d="M284.042 519.653H140.373C137.618 519.653 135.384 521.886 135.384 524.641V590.49C135.384 593.245 137.618 595.478 140.373 595.478H284.042C286.798 595.478 289.031 593.245 289.031 590.49V524.641C289.031 521.886 286.798 519.653 284.042 519.653Z" fill="#010101"/>
<path d="M620.573 519.653H476.904C474.148 519.653 471.915 521.886 471.915 524.641V590.49C471.915 593.245 474.148 595.478 476.904 595.478H620.573C623.328 595.478 625.562 593.245 625.562 590.49V524.641C625.562 521.886 623.328 519.653 620.573 519.653Z" fill="#010101"/>
<path d="M593.722 505.056C593.722 495.968 595.587 487.271 598.862 479.137C566.35 496.033 544.119 529.955 544.119 569.126C544.119 625.15 589.536 670.567 645.559 670.567C701.583 670.567 747 625.15 747 569.126C747 567.261 746.826 565.461 746.718 563.639C730.473 576.327 708.979 584.113 685.337 584.113C634.736 584.113 593.722 548.717 593.722 505.056V505.056Z" fill="#F4F2F4"/>
<path d="M645.56 467.685C628.707 467.685 612.852 471.85 598.863 479.137C595.588 487.271 593.722 495.968 593.722 505.056C593.722 548.716 634.737 584.113 685.338 584.113C708.979 584.113 730.451 576.327 746.718 563.639C743.855 510.196 699.718 467.707 645.56 467.707V467.685Z" fill="#020202"/>
<path d="M166.471 647.518L65.8938 656.583L94.2134 970.801L194.791 961.736L166.471 647.518Z" fill="#020303"/>
<path d="M153.278 507.03C153.278 497.942 151.413 489.245 148.138 481.111C180.65 498.007 202.881 531.929 202.881 571.1C202.881 627.123 157.464 672.54 101.441 672.54C45.4173 672.54 0 627.123 0 571.1C0 569.235 0.173514 567.434 0.28196 565.612C16.5272 578.301 38.0213 586.087 61.6626 586.087C112.264 586.087 153.278 550.69 153.278 507.03V507.03Z" fill="#F4F2F4"/>
<path d="M101.44 469.659C118.293 469.659 134.148 473.824 148.137 481.111C151.412 489.245 153.278 497.942 153.278 507.03C153.278 550.69 112.263 586.087 61.6623 586.087C38.021 586.087 16.5487 578.301 0.281738 565.612C3.14472 512.17 47.2824 469.681 101.44 469.681V469.659Z" fill="#020202"/>
<path d="M137.944 715.68C122.197 717.936 106.473 720.192 90.7264 722.448C88.4707 722.773 89.3166 728.108 91.5723 727.783C107.319 725.527 123.065 723.272 138.79 721.016C141.045 720.691 140.2 715.355 137.944 715.68V715.68Z" fill="#3C3C3C"/>
<path d="M146.425 757.931C130.678 760.187 114.954 762.442 99.2071 764.698C96.9514 765.023 97.7973 770.359 100.053 770.034C115.799 767.778 131.546 765.522 147.27 763.267C149.526 762.941 148.68 757.606 146.425 757.931Z" fill="#3C3C3C"/>
<path d="M149.981 802.654C134.235 804.91 118.51 807.166 102.763 809.421C100.508 809.747 101.354 815.082 103.609 814.757C119.356 812.501 135.102 810.246 150.827 807.99C153.083 807.665 152.237 802.329 149.981 802.654Z" fill="#3C3C3C"/>
<path d="M548.988 961.754L649.566 970.819L677.886 656.6L577.308 647.536L548.988 961.754Z" fill="#020303"/>
<path d="M590.533 507.03C590.533 497.942 592.399 489.245 595.674 481.111C563.162 498.007 540.93 531.929 540.93 571.1C540.93 627.123 586.348 672.54 642.371 672.54C698.394 672.54 743.812 627.123 743.812 571.1C743.812 569.235 743.638 567.434 743.53 565.612C727.284 578.301 705.79 586.087 682.149 586.087C631.548 586.087 590.533 550.69 590.533 507.03V507.03Z" fill="#F4F2F4"/>
<path d="M642.371 469.659C625.519 469.659 609.664 473.824 595.674 481.111C592.399 489.245 590.534 497.942 590.534 507.03C590.534 550.69 631.548 586.087 682.149 586.087C705.79 586.087 727.263 578.301 743.53 565.612C740.667 512.17 696.529 469.681 642.371 469.681V469.659Z" fill="#020202"/>
<path d="M605.846 715.68C621.592 717.936 637.317 720.192 653.064 722.447C655.319 722.773 654.473 728.108 652.218 727.783C636.471 725.527 620.725 723.272 605 721.016C602.745 720.691 603.59 715.355 605.846 715.68Z" fill="#3C3C3C"/>
<path d="M597.387 757.931C613.134 760.187 628.859 762.442 644.605 764.698C646.861 765.023 646.015 770.359 643.759 770.034C628.013 767.778 612.266 765.522 596.542 763.267C594.286 762.941 595.132 757.606 597.387 757.931Z" fill="#3C3C3C"/>
<path d="M593.83 802.654C609.577 804.91 625.301 807.166 641.048 809.421C643.303 809.747 642.457 815.082 640.202 814.757C624.455 812.501 608.709 810.246 592.984 807.99C590.729 807.665 591.574 802.329 593.83 802.654Z" fill="#3C3C3C"/>
<path d="M90.5305 217.24C90.5305 217.24 25.5711 204.508 17.8281 273.003C10.085 341.476 45.6771 387.63 106.776 373.858L90.5305 217.261V217.24Z" fill="#F7F5F7"/>
<path d="M131.48 222.423C131.48 222.423 66.5203 211.21 58.7773 271.615C51.0342 332.019 86.6263 372.73 147.725 360.584L131.48 222.445V222.423Z" fill="#030404"/>
<path d="M669.113 217.24C669.113 217.24 734.072 204.508 741.815 273.003C749.558 341.476 713.966 387.63 652.868 373.858L669.113 217.261V217.24Z" fill="#F7F5F7"/>
<path d="M628.164 222.423C628.164 222.423 693.123 211.21 700.866 271.615C708.609 332.019 673.017 372.73 611.919 360.584L628.164 222.445V222.423Z" fill="#030404"/>
<path d="M383.075 534.25C550.453 534.25 686.139 420.276 686.139 279.683C686.139 139.09 550.453 25.1161 383.075 25.1161C215.698 25.1161 80.0112 139.09 80.0112 279.683C80.0112 420.276 215.698 534.25 383.075 534.25Z" fill="#F7F5F7"/>
<path d="M452.047 0H314.103C309.396 0 305.579 3.81627 305.579 8.52388V84.1326C305.579 88.8402 309.396 92.6565 314.103 92.6565H452.047C456.755 92.6565 460.571 88.8402 460.571 84.1326V8.52388C460.571 3.81627 456.755 0 452.047 0Z" fill="#F7F5F7"/>
<path d="M430.488 17.2863H335.685C332.043 17.2863 329.091 20.2383 329.091 23.8798V68.9284C329.091 72.5699 332.043 75.5219 335.685 75.5219H430.488C434.13 75.5219 437.082 72.5699 437.082 68.9284V23.8798C437.082 20.2383 434.13 17.2863 430.488 17.2863Z" fill="#E0E0E0"/>
<path d="M602.701 235.263H144.949C129.856 235.263 117.621 247.499 117.621 262.592V366.418C117.621 381.511 129.856 393.747 144.949 393.747H602.701C617.794 393.747 630.03 381.511 630.03 366.418V262.592C630.03 247.499 617.794 235.263 602.701 235.263Z" fill="#010101"/>
</svg>
