<svg width="176" height="51" viewBox="0 0 176 51" fill="none" xmlns="http://www.w3.org/2000/svg">
<path d="M3.12 46.48C3.12 46.48 94.32 19.92 115.18 13.06C136.04 6.2 149.7 0 149.7 0C149.7 0 152.19 3.4 162.59 9.12C172.99 14.84 178.92 25.62 172.25 32.04C165.58 38.46 90.3 47.15 55.4 49.79C20.51 52.43 0 45.75 0 45.75" fill="#FDFFFF"/>
<path d="M82.69 34.04C78.32 34.15 74.01 34.64 69.7 35.4C65.62 36.12 61.44 36.96 57.28 36.36C55.56 36.11 54.92 38.76 56.66 39.01C60.92 39.62 65.11 38.95 69.31 38.21C73.78 37.42 78.25 36.87 82.79 36.76C84.54 36.72 84.44 33.99 82.68 34.04H82.69Z" fill="#58595B"/>
<path d="M157.97 15.62C156.86 17.87 155.46 19.95 153.75 21.79C152.9 22.71 151.98 23.58 151 24.36C150.56 24.71 150.11 25.04 149.65 25.36C148.91 25.87 148.82 25.93 148.07 25.46C145.61 23.94 143.33 22.22 141.01 20.52C139.93 19.73 138.9 19.48 137.6 19.78C136.29 20.09 134.98 20.52 133.7 20.94C128.52 22.64 124.14 25.98 118.99 27.76C116.46 28.63 113.88 29.31 111.32 30.09C108.97 30.81 106.42 31.54 104.41 33.02C103.43 33.73 102.7 34.62 101.91 35.52C101.23 36.29 100.56 37.06 99.5301 36.4C98.3801 35.67 97.4501 34.51 96.3401 33.69C95.0901 32.77 93.7701 31.98 92.3601 31.32C90.7801 30.58 89.4701 32.97 91.0601 33.71C92.3001 34.29 93.5001 34.96 94.6101 35.77C95.7401 36.59 96.6701 37.64 97.7901 38.48C99.8101 39.99 101.95 39.45 103.59 37.71C104.35 36.91 104.95 36 105.84 35.33C106.92 34.52 108.19 34.01 109.46 33.56C112.11 32.62 114.83 31.92 117.51 31.1C120.18 30.28 122.79 29.3 125.27 28C127.82 26.66 130.24 25.11 132.94 24.09C134.23 23.6 135.55 23.2 136.88 22.81C137.4 22.66 138.15 22.28 138.72 22.33C139.38 22.38 140.3 23.38 140.82 23.77C141.94 24.61 143.09 25.43 144.25 26.21C145.41 26.99 146.74 28.13 148.1 28.52C149.53 28.92 150.77 27.92 151.84 27.12C153.03 26.23 154.17 25.26 155.21 24.2C157.3 22.07 159.04 19.59 160.36 16.92C161.14 15.35 158.74 14.04 157.97 15.62V15.62Z" fill="#58595B"/>
</svg>
