<svg width="157" height="50" viewBox="0 0 157 50" fill="none" xmlns="http://www.w3.org/2000/svg">
<mask id="mask0_1150_1037" style="mask-type:alpha" maskUnits="userSpaceOnUse" x="-1" y="2" width="67" height="30">
<path d="M51.5 28.0002C44.7 28.8002 15.6667 30.0002 2 30.5002C1.33333 27.6668 0 20.5002 0 14.5002C0 7.00016 7.5 2.50016 8.5 3.00016C9.5 3.50016 47.5 4.50016 59.5 13.0002C71.5 21.5002 60 27.0002 51.5 28.0002Z" fill="#D9D9D9" stroke="black"/>
</mask>
<g mask="url(#mask0_1150_1037)">
<path fill-rule="evenodd" clip-rule="evenodd" d="M53.0275 20.6798C52.4275 29.2798 41.1275 36.0798 26.7275 41.1798C12.3275 46.1798 8.82748 35.2798 6.82748 29.7798C4.82748 24.2798 3.02748 6.87977 10.5275 7.87977C17.9275 8.87977 29.9275 12.5798 39.6275 14.8798C49.2275 17.1798 53.4275 14.8798 53.0275 20.6798V20.6798Z" fill="white"/>
<path fill-rule="evenodd" clip-rule="evenodd" d="M19.9288 33.8799C33.4288 42.3799 43.7288 21.8799 31.8288 14.5799C18.2288 6.1799 6.22884 25.2799 19.9288 33.8799Z" fill="#1D1D1B"/>
<path fill-rule="evenodd" clip-rule="evenodd" d="M27.8258 23.5796C32.5258 26.4796 36.0258 19.4796 31.9258 16.8796C27.2258 13.9796 23.0258 20.5796 27.8258 23.5796Z" fill="white"/>
</g>
<path fill-rule="evenodd" clip-rule="evenodd" d="M112.899 12.3999C87.0991 20.6999 80.1991 21.6999 78.9991 26.4999C77.7991 31.2999 87.299 43.6999 109.299 47.6999C131.299 51.6999 141.099 47.8999 151.099 40.9999C161.099 34.1999 155.999 8.49992 152.799 2.29992C149.599 -3.90008 133.599 5.69992 112.899 12.2999V12.3999Z" fill="white"/>
<path fill-rule="evenodd" clip-rule="evenodd" d="M104.299 39.5997C118.899 55.3997 140.199 32.9997 127.299 19.1997C112.499 3.4997 89.3986 23.3997 104.299 39.5997Z" fill="#1D1D1B"/>
<path fill-rule="evenodd" clip-rule="evenodd" d="M116.4 29.7C121.4 35.2 128.8 27.4 124.3 22.7C119.2 17.3 111.2 24.2 116.4 29.7Z" fill="white"/>
</svg>
