<svg width="20" height="44" viewBox="0 0 20 44" fill="none" xmlns="http://www.w3.org/2000/svg">
<path d="M6.29975 32.1C1.59975 24.5 1.49975 7.4 1.59975 1C0.899746 1.2 0.399748 2.3 0.499748 4.5C0.499748 4.5 -0.700252 28.6 5.19975 38C10.5997 46.7 20.1997 45.4 19.6997 35.1C16.9997 39.5 10.4997 38.7 6.39975 32.1H6.29975Z" fill="#92D8EA"/>
<path d="M6.29997 32.1C10.4 38.6 16.9 39.5 19.6 35.1C19.6 34.2 19.5 33.3 19.3 32.3C17.2 21.5 5.39997 1.5527e-05 1.59997 1.00002C1.49997 7.40002 1.59997 24.5 6.29997 32V32.1Z" fill="white"/>
</svg>
