<svg width="564" height="570" viewBox="0 0 564 570" fill="none" xmlns="http://www.w3.org/2000/svg">
<path d="M410.2 224.5C392.3 215.3 386.9 223.7 352.3 231.4C301.8 242.6 292 238.8 292 238.8C292 238.8 271.7 374.1 280.3 432.4C283.8 456.1 287.7 472.3 294.6 483.1C297 487 299.8 490.1 303.1 492.7C309.3 497.6 317.3 500.3 327.7 501.4C330.9 501.8 334.3 502 338.1 502C342 502 346.3 502 350.8 501.8C368.1 501 384 501 397.4 498.2C413 494.9 425.2 487.6 432.4 470.7C433.1 469 433.8 467.2 434.5 465.3C435.7 461.7 436.6 457.6 437.4 453.2C438.8 445.1 439.6 435.5 439.5 424.3C439.3 344.5 428.2 233.7 410.3 224.4L410.2 224.5Z" fill="#808184"/>
<path fill-rule="evenodd" clip-rule="evenodd" d="M160.299 275.3C157.099 277.1 163.299 287.3 163.299 287.3L172.399 285.2C172.399 285.2 165.899 272.1 160.299 275.3Z" fill="#C3C3C3"/>
<path fill-rule="evenodd" clip-rule="evenodd" d="M148.299 281.8C145.399 284.1 153.899 294.6 153.899 294.6L161.799 289.8C161.799 289.8 153.399 277.8 148.399 281.8H148.299Z" fill="#C3C3C3"/>
<path fill-rule="evenodd" clip-rule="evenodd" d="M138.3 298.5C137.1 302 151.1 306.6 151.1 306.6L153.9 297.9C153.9 297.9 140.4 292.4 138.3 298.5V298.5Z" fill="#C3C3C3"/>
<path d="M306.7 275.8C297.1 272.6 297.4 269.5 270.3 285.1C243.2 300.7 240.2 317.4 224 311.3C207.7 305.2 208.6 301 196.4 290C184.2 279 173.3 280 160.7 288.4C148.1 296.8 140.1 326.9 170.5 340.2C200.9 353.5 226.6 355.9 250.4 345.6C274.2 335.3 304.3 312.9 310.6 305.6C316.8 298.2 316.5 279.2 306.8 275.9L306.7 275.8Z" fill="#808184"/>
<path d="M294.5 483.1C290.7 498 286.1 515.1 282.6 525C276 543.8 256.8 526.5 241.9 533.6C240.6 534.2 239.4 535 238.2 535.9C237.5 536.5 236.9 537 236.4 537.6C235.9 538.1 235.4 538.7 235 539.3C233.7 541.1 232.8 543.1 232.4 545.1C232.2 546.2 232.2 547.2 232.2 548.3C232.4 550.2 232.9 552.2 234 554.1C238.9 563.1 253.8 570.5 278.2 569C319.3 566.4 315.9 565.5 319.3 542.2C320.8 532.1 324.1 516.2 327.4 501.3C317 500.2 309 497.5 302.8 492.6C299.5 490 296.7 486.9 294.3 483L294.5 483.1Z" fill="#929497"/>
<path fill-rule="evenodd" clip-rule="evenodd" d="M238.3 536C239.5 535 240.7 534.3 242 533.7C240.5 532.6 233.6 528.3 231.4 531.7C230.3 533.5 234.7 536.6 236.5 537.7C237.1 537.1 237.6 536.5 238.3 536Z" fill="#C3C3C3"/>
<path fill-rule="evenodd" clip-rule="evenodd" d="M226.1 539.8C225.2 541.9 231.2 544.6 232.6 545.2C233 543.2 233.8 541.2 235.2 539.4C232.4 538.3 227.4 536.8 226.2 539.8H226.1Z" fill="#C3C3C3"/>
<path fill-rule="evenodd" clip-rule="evenodd" d="M225.4 553.6C225.8 556.2 234.1 554.6 234.1 554.6V554.2C233.1 552.3 232.5 550.4 232.4 548.4C229.4 549 224.9 550.5 225.4 553.6V553.6Z" fill="#C3C3C3"/>
<path d="M434.3 465.3C427.6 486.2 414.4 494.5 397.3 498.2C396.1 502.2 395.1 506.4 394.2 510.7C389.6 534 387.7 525.9 380.2 529.8C379.5 530.2 378.6 530.7 377.7 531.2C376.1 532.2 374.2 533.4 372.4 534.8C371.8 535.2 371.3 535.7 370.7 536.2C369.1 537.6 367.5 539.1 366.3 540.8C365.5 541.9 364.8 543 364.3 544.1C363.4 546.1 363.2 548.2 363.8 550.3C364.6 553.1 367 555.9 371.7 558.6C391.4 569.9 415.7 565.8 423.9 553.3C432.1 540.8 420.8 537.1 425.2 510.9C428.8 489.7 435.2 472.3 434.3 465.3V465.3Z" fill="#929497"/>
<path fill-rule="evenodd" clip-rule="evenodd" d="M369.4 527.8C367.9 529.1 370.9 533 372.4 534.8C374.2 533.4 376.1 532.2 377.7 531.2C375.6 529 371.8 525.7 369.4 527.8Z" fill="#C3C3C3"/>
<path fill-rule="evenodd" clip-rule="evenodd" d="M370.7 536.2C368.3 534.3 364.1 531.7 362 534.1C360.7 535.7 364.6 539.4 366.2 540.8C367.4 539.2 369 537.6 370.6 536.2H370.7Z" fill="#C3C3C3"/>
<path fill-rule="evenodd" clip-rule="evenodd" d="M364.3 544.1C361.4 544.1 357.8 544.5 357.5 547.1C357.3 548.9 361.3 549.9 363.8 550.3C363.2 548.2 363.4 546.1 364.3 544.1Z" fill="#C3C3C3"/>
<path d="M536.501 323.1C514.001 300.6 465.301 302 482.801 314.4C500.201 326.7 506.001 375.8 496.601 405.5C496.301 406.4 496.001 407.3 495.701 408.1C506.701 402 517.601 392.8 519.501 379.7C523.501 351.7 524.001 372.8 524.501 381.4C525.001 390 524.501 399.7 524.501 399.7C524.501 399.7 536.401 396.6 535.401 381.7C534.501 366.8 536.801 361.3 539.901 374.4C543.001 387.4 547.001 397.6 541.601 414.7C536.101 431.8 554.901 396.7 555.301 387.9C555.801 379.1 561.501 394.6 560.001 413C559.501 419.1 558.901 425.7 558.401 431.8C572.901 397.4 555.901 342.6 536.501 323.2V323.1Z" fill="#D0D2D3"/>
<path d="M555.3 387.8C554.8 396.6 536.1 431.7 541.6 414.6C547.1 397.5 543 387.3 539.9 374.3C536.8 361.3 534.4 366.7 535.4 381.6C536.3 396.5 524.5 399.6 524.5 399.6C524.5 399.6 525 389.9 524.5 381.3C524 372.7 523.6 351.7 519.5 379.6C517.6 392.7 506.7 401.9 495.7 408C484.4 436.2 439.6 452.9 439.6 452.9C439.6 452.9 438.7 452.9 437.2 453C436.4 457.4 435.5 461.5 434.3 465.1C433.7 467 433 468.8 432.2 470.5C432.9 470.8 433.7 471.1 434.5 471.3C479.9 487.6 519.1 476.7 548.7 446.3C552.8 442.1 556 437 558.3 431.5C558.9 425.4 559.4 418.9 559.9 412.7C561.3 394.3 555.6 378.8 555.2 387.6L555.3 387.8Z" fill="#929497"/>
<path d="M453.5 67.2C453.8 67.2 454.1 67.1 454.4 67C454.1 67 453.8 67.1 453.5 67.2Z" fill="#33B5E5"/>
<path fill-rule="evenodd" clip-rule="evenodd" d="M253.6 286.3C251.1 289 259.9 296.9 259.9 296.9L268 292.3C268 292.3 258 281.6 253.6 286.3Z" fill="#C3C3C3"/>
<path fill-rule="evenodd" clip-rule="evenodd" d="M244.001 296C241.901 299 253.001 306.6 253.001 306.6L259.101 299.7C259.101 299.7 247.601 290.6 243.901 295.9L244.001 296Z" fill="#C3C3C3"/>
<path fill-rule="evenodd" clip-rule="evenodd" d="M239.3 314.9C239.2 318.6 253.9 319 253.9 319V309.8C254 309.8 239.5 308.4 239.3 314.9V314.9Z" fill="#C3C3C3"/>
<path d="M387.9 260.4C373 259.7 369.7 269.2 371.9 281.9C374.1 294.6 382.5 316.8 380.9 324.5C379.4 332.2 361.8 325.2 343.8 315C325.8 304.9 302.9 284.9 282.5 286C262.1 287.1 248.2 297.9 250.6 314.8C253 331.7 254.1 328.6 296.3 339.6C338.5 350.6 363.3 373.2 388 371.3C412.6 369.3 423.6 370.4 426.9 345.8C430.2 321.2 422.3 261.8 388 260.3L387.9 260.4Z" fill="#929497"/>
<path d="M469.7 100.1C465.6 95.1999 461.4 90.5999 457.2 86.3999C453.2 82.3999 449.1 78.6999 444.8 75.3999C431.6 65.0999 417 58.1999 398.6 55.2999C395 54.6999 391.4 54.2999 387.5 54.0999C384.4 53.8999 381.2 53.7999 377.8 53.7999C354 46.2999 326.6 46.8999 304.1 51.6999C298.7 52.7999 293.6 54.1999 288.9 55.7999C282.5 57.8999 276.8 60.3999 272.2 63.0999C256.2 72.3999 250.3 80.1999 243.4 86.1999C241.6 87.7999 239.8 89.1999 237.7 90.4999C234.4 92.4999 230.6 94.1999 225.4 95.5999C204 101.3 207.1 101.6 211.4 103.9C214.2 105.4 220.6 105.6 222.5 107.6C221.7 109.3 221.1 111 220.8 112.7C216.1 117.6 204.3 128.6 198.2 136C257.2 133.6 328.6 130 359.7 120.6C390.8 111.1 446.7 112.3 456.3 156.2C464 191.4 418 200.5 411.5 221C405 241.4 399.3 253.2 370.2 257.1C366 257.7 361.8 257.7 357.7 257.4C362.3 261 366.4 266.7 365.7 275.4C364.3 294.7 366 295.2 372.6 283.5C379.2 271.8 380 261.8 380 261.8C380 261.8 396 276.9 384.3 292.9C372.6 308.9 401.2 294.4 403.7 275.3L406.3 256.3C406.3 256.3 413.7 259.5 417.2 275.3C420.6 291.1 416.3 301.7 422.9 299.7C429.5 297.7 437.5 276.9 437.8 263.7C438.1 250.6 434.9 243.4 434.9 243.4C434.9 243.4 457.7 252.8 456.9 272.8C456 292.8 462 284.1 467.5 276.3C472.9 268.5 484.9 224.8 480.9 210.8C476.9 196.8 487.2 220.2 488.3 225.1C489.4 230 492.7 245.1 494.2 244.5C495.7 243.9 502.3 213.9 498.9 197.4C496.2 184.2 490.9 171.2 488.9 166.4C489.9 166.2 491.1 166.7 492.5 167.6C493.1 168.1 493.8 168.6 494.5 169.1C499 173.1 504 180.7 504.6 186.5C505.2 192.2 507.1 196.3 509.1 189.5C510.5 186.5 512.6 177.3 511.9 171.4C511.9 170.9 511.9 170.4 512 169.9C514.6 139.7 470 99.9999 470 99.9999L469.7 100.1Z" fill="#A6A8AB"/>
<path d="M456.2 156.2C446.6 112.3 390.7 111.1 359.6 120.6C328.5 130.1 257.1 133.6 198.1 136C139.1 138.4 97.3004 115.1 66.3004 133C54.2004 140 43.6004 148.1 36.9004 156.9L54.2004 160.6C54.2004 160.6 153.2 183.8 213.1 184.5C219.9 184.5 227.6 185 235.9 185.7C236.7 183.3 237.7 180.9 238.9 178.6C251.3 154.7 282.5 147.9 322.9 148.2C354.7 148.5 369.8 153 383.7 169.2C393.5 180.7 404.4 209.9 406.1 229.2C406.5 230.4 406.8 231.5 407.1 232.6C408.6 229 410 225.1 411.4 220.8C417.9 200.4 464 191.2 456.2 156V156.2Z" fill="#D0D2D3"/>
<path d="M383.7 169.4C369.8 153.1 354.7 148.6 322.9 148.4C282.4 148.1 251.3 154.8 238.9 178.8C237.7 181 236.7 183.4 235.9 185.9C227.6 185.2 219.9 184.7 213.1 184.7C153.2 184 54.2004 160.8 54.2004 160.8L36.9004 157.1C26.3004 171 25.2004 186.8 42.7004 203.3C71.4004 230.3 112.6 219.8 113.1 224.2C113.6 228.5 91.7004 227.9 93.5004 245C95.3004 262 121.5 244.7 128.4 247.7C135.3 250.7 157.5 265.5 200.6 266.4C243.6 267.3 263.4 246.8 289 243.4C310.8 240.4 333.4 255.6 357.7 257.6C359.6 257.8 361.4 257.8 363.3 257.8C365 257.7 366.5 257.6 367.8 257.6C368.6 257.6 369.4 257.4 370.2 257.3C393.1 254.2 401.5 246.3 407.2 233.1C407 232 406.7 230.8 406.2 229.7C404.6 210.4 393.6 181.1 383.8 169.7L383.7 169.4Z" fill="#EFEFEF"/>
<path d="M288.8 55.7001C280.7 43.1001 268.7 29.3001 262.3 24.6001C248.7 29.2001 238.5 63.9001 243.2 86.1001C250.1 80.1001 256 72.3001 272 63.0001C276.6 60.3001 282.3 57.9001 288.7 55.7001H288.8Z" fill="#929497"/>
<path d="M438.7 24.6001C444.6 34.6001 446.6 60.1001 444.8 75.4001C449.1 78.7001 453.2 82.4001 457.2 86.4001C462 65.6001 459.5 18.2001 449.4 1.00005C448.9 0.100054 387.8 19.6001 387.5 54.0001C391.3 54.3001 395 54.7001 398.6 55.2001C403.3 35.2001 438.5 24.0001 438.8 24.6001H438.7ZM453.6 66.3001C453.3 66.3001 453 66.4001 452.7 66.5001C453 66.5001 453.3 66.4001 453.6 66.3001Z" fill="#A6A8AB"/>
<path d="M438.7 24.6C438.4 24.1 403.2 35.3 398.5 55.2C416.9 58.1 431.6 65 444.7 75.3C446.5 60.1 444.5 34.6 438.6 24.5L438.7 24.6Z" fill="#E6E7E8"/>
<path fill-rule="evenodd" clip-rule="evenodd" d="M377.4 87.1999C372.2 86.0999 358.5 78.8 341.6 78.6C320 78.3 295.7 86.3 306.7 99C311 104 361.3 89 373.4 88.3C374 88.3 378.6 87.3999 377.5 87.1999H377.4Z" fill="#58595B"/>
<path fill-rule="evenodd" clip-rule="evenodd" d="M218.2 92.4001C221.1 91.6001 229.2 85.9001 238.2 86.1001C249.7 86.4001 261.7 93.5001 254.4 103.8C251.5 107.9 226.5 94.3001 220.2 93.4001C219.9 93.4001 217.5 92.6001 218.1 92.4001H218.2Z" fill="#58595B"/>
<path d="M391.2 54.6001C371.9 37.9001 362 18.3001 353.7 19.8001C352.1 20.1001 355.1 23.7001 358.1 30.3001C362.3 39.4001 362.1 40.4001 361.8 40.2001C359.9 39.2001 362.1 32.7001 341.7 25.9001C321.3 19.1001 314 22.7001 313.8 24.5001C313.7 26.3001 323.3 27.0001 330.7 33.3001C338.1 39.6001 340.8 42.2001 341.1 43.0001C341.4 43.8001 325.9 34.3001 314.8 34.5001C303.7 34.6001 284.8 45.6001 284.6 48.1001C284.6 48.1001 281.9 49.6001 290.7 48.3001C297.5 47.3001 301.1 51.3001 302.6 53.0001L393.6 56.5001C392.8 55.9001 392 55.2001 391.2 54.5001V54.6001Z" fill="#A6A8AB"/>
<path fill-rule="evenodd" clip-rule="evenodd" d="M62.3001 156.5C60.7001 144.8 53.2001 141.7 31.4001 142.7C9.60012 143.7 -2.89988 145.7 2.00012 163.7C6.90012 181.7 18.1001 190 33.0001 187.3C47.9001 184.7 64.0001 168.7 62.3001 156.5V156.5Z" fill="#58595B"/>
</svg>
