<svg width="593" height="570" viewBox="0 0 593 570" fill="none" xmlns="http://www.w3.org/2000/svg">
<path d="M396.4 224.5C378.5 215.3 373.1 223.7 338.5 231.4C288 242.6 278.2 238.8 278.2 238.8C278.2 238.8 257.9 374.1 266.5 432.4C270 456.1 273.9 472.3 280.8 483.1C283.2 487 286 490.1 289.3 492.7C295.5 497.6 303.5 500.3 313.9 501.4C317.1 501.8 320.5 502 324.3 502C328.2 502 332.5 502 337 501.8C354.3 501 370.2 501 383.6 498.2C399.2 494.9 411.4 487.6 418.6 470.7C419.3 469 420 467.2 420.7 465.3C421.9 461.7 422.8 457.6 423.6 453.2C425 445.1 425.8 435.5 425.7 424.3C425.5 344.5 414.4 233.7 396.5 224.4L396.4 224.5Z" fill="#808184"/>
<path d="M280.8 483.1C277 498 272.4 515.1 268.9 525C262.3 543.8 243.1 526.5 228.2 533.6C226.9 534.2 225.7 535 224.5 535.9C223.8 536.5 223.2 537 222.7 537.6C222.2 538.1 221.7 538.7 221.3 539.3C220 541.1 219.1 543.1 218.7 545.1C218.5 546.2 218.5 547.2 218.5 548.3C218.7 550.2 219.2 552.2 220.3 554.1C225.2 563.1 240.1 570.5 264.5 569C305.6 566.4 302.2 565.5 305.6 542.2C307.1 532.1 310.4 516.2 313.7 501.3C303.3 500.2 295.3 497.5 289.1 492.6C285.8 490 283 486.9 280.6 483L280.8 483.1Z" fill="#929497"/>
<path fill-rule="evenodd" clip-rule="evenodd" d="M224.601 536C225.801 535 227.001 534.3 228.301 533.7C226.801 532.6 219.901 528.3 217.701 531.7C216.601 533.5 221.001 536.6 222.801 537.7C223.401 537.1 223.901 536.5 224.601 536Z" fill="#C3C3C3"/>
<path fill-rule="evenodd" clip-rule="evenodd" d="M212.301 539.8C211.401 541.9 217.401 544.6 218.801 545.2C219.201 543.2 220.001 541.2 221.401 539.4C218.601 538.3 213.601 536.8 212.401 539.8H212.301Z" fill="#C3C3C3"/>
<path fill-rule="evenodd" clip-rule="evenodd" d="M211.7 553.6C212.1 556.2 220.4 554.6 220.4 554.6V554.2C219.4 552.3 218.8 550.4 218.7 548.4C215.7 549 211.2 550.5 211.7 553.6V553.6Z" fill="#C3C3C3"/>
<path d="M420.601 465.3C413.901 486.2 400.701 494.5 383.601 498.2C382.401 502.2 381.401 506.4 380.501 510.7C375.901 534 374.001 525.9 366.501 529.8C365.801 530.2 364.901 530.7 364.001 531.2C362.401 532.2 360.501 533.4 358.701 534.8C358.101 535.2 357.601 535.7 357.001 536.2C355.401 537.6 353.801 539.1 352.601 540.8C351.801 541.9 351.101 543 350.601 544.1C349.701 546.1 349.501 548.2 350.101 550.3C350.901 553.1 353.301 555.9 358.001 558.6C377.701 569.9 402.001 565.8 410.201 553.3C418.401 540.8 407.101 537.1 411.501 510.9C415.101 489.7 421.501 472.3 420.601 465.3V465.3Z" fill="#929497"/>
<path fill-rule="evenodd" clip-rule="evenodd" d="M355.701 527.8C354.201 529.1 357.201 533 358.701 534.8C360.501 533.4 362.401 532.2 364.001 531.2C361.901 529 358.101 525.7 355.701 527.8Z" fill="#C3C3C3"/>
<path fill-rule="evenodd" clip-rule="evenodd" d="M357.001 536.2C354.601 534.3 350.401 531.7 348.301 534.1C347.001 535.7 350.901 539.4 352.501 540.8C353.701 539.2 355.301 537.6 356.901 536.2H357.001Z" fill="#C3C3C3"/>
<path fill-rule="evenodd" clip-rule="evenodd" d="M350.6 544.1C347.7 544.1 344.1 544.5 343.8 547.1C343.6 548.9 347.6 549.9 350.1 550.3C349.5 548.2 349.7 546.1 350.6 544.1Z" fill="#C3C3C3"/>
<path d="M522.8 323.1C500.3 300.6 451.6 302 469.1 314.4C486.5 326.7 492.3 375.8 482.9 405.5C482.6 406.4 482.3 407.3 482 408.1C493 402 503.9 392.8 505.8 379.7C509.8 351.7 510.3 372.8 510.8 381.4C511.3 390 510.8 399.7 510.8 399.7C510.8 399.7 522.7 396.6 521.7 381.7C520.8 366.8 523.1 361.3 526.2 374.4C529.3 387.4 533.3 397.6 527.9 414.7C522.4 431.8 541.2 396.7 541.6 387.9C542.1 379.1 547.8 394.6 546.3 413C545.8 419.1 545.2 425.7 544.7 431.8C559.2 397.4 542.2 342.6 522.8 323.2V323.1Z" fill="#D0D2D3"/>
<path d="M541.6 387.8C541.1 396.6 522.4 431.7 527.9 414.6C533.4 397.5 529.3 387.3 526.2 374.3C523.1 361.3 520.7 366.7 521.7 381.6C522.6 396.5 510.8 399.6 510.8 399.6C510.8 399.6 511.3 389.9 510.8 381.3C510.3 372.7 509.9 351.7 505.8 379.6C503.9 392.7 493 401.9 482 408C470.7 436.2 425.9 452.9 425.9 452.9C425.9 452.9 425 452.9 423.5 453C422.7 457.4 421.8 461.5 420.6 465.1C420 467 419.3 468.8 418.5 470.5C419.2 470.8 420 471.1 420.8 471.3C466.2 487.6 505.4 476.7 535 446.3C539.1 442.1 542.3 437 544.6 431.5C545.2 425.4 545.7 418.9 546.2 412.7C547.6 394.3 541.9 378.8 541.5 387.6L541.6 387.8Z" fill="#929497"/>
<path fill-rule="evenodd" clip-rule="evenodd" d="M577.3 403.2C579.9 400.7 571.5 392.3 571.5 392.3L563.2 396.5C563.2 396.5 572.7 407.7 577.3 403.2V403.2Z" fill="#C3C3C3"/>
<path fill-rule="evenodd" clip-rule="evenodd" d="M587.3 394C589.5 391.1 579.9 384.1 579.9 384.1L572.3 389.5C572.3 389.5 583.3 399.1 587.3 394Z" fill="#C3C3C3"/>
<path fill-rule="evenodd" clip-rule="evenodd" d="M592.9 375.3C593.2 371.7 581.3 371 581.3 371L577.9 379.7C577.9 379.7 592.4 381.8 592.9 375.3Z" fill="#C3C3C3"/>
<path d="M374.6 262.8C353.4 276.1 361.8 286.8 419.2 310.7C476.5 334.7 509.8 347.2 520.2 372.4C530.7 397.6 567.9 408 577 390.4C586.1 372.8 583.1 355 558.2 335.8C533.3 316.6 404.6 243.9 374.6 262.8V262.8Z" fill="#808184"/>
<path d="M224.2 218.1C269.2 206.6 361.1 175.4 390 167.2C407.9 162.1 427.3 151 440.2 148.5C426 112.2 375.1 111.7 346 120.6C314.9 130.1 243.5 133.6 184.5 136C125.5 138.4 83.7003 115.1 52.7003 133C21.6003 151 0.300329 176.2 29.0003 203.2C57.3003 229.8 97.8003 220 99.3003 223.9C139.8 225 196.8 225.1 224.2 218.1V218.1Z" fill="#D0D2D3"/>
<path d="M79.6999 244.8C81.4999 261.8 107.7 244.5 114.6 247.5C121.5 250.5 143.7 265.3 186.8 266.2C229.8 267.1 249.6 246.6 275.2 243.2C297 240.2 319.6 255.4 343.9 257.4C348 257.7 352.2 257.7 356.4 257.1C385.5 253.2 391.2 241.4 397.7 221C404.2 200.6 450.3 191.4 442.5 156.2C441.9 153.5 441.1 150.9 440.2 148.5C427.3 151.1 407.9 162.1 390 167.2C361.2 175.4 269.3 206.5 224.2 218.1C196.8 225.1 139.8 225 99.2999 223.9C99.2999 223.9 99.2999 223.9 99.2999 224.1C99.7999 228.4 77.8999 227.8 79.6999 244.9V244.8Z" fill="#EFEFEF"/>
<path d="M456 100.1C451.9 95.1999 447.7 90.5999 443.5 86.3999C439.5 82.3999 435.4 78.6999 431.1 75.3999C417.9 65.0999 403.3 58.1999 384.9 55.2999C381.3 54.6999 377.7 54.2999 373.8 54.0999C370.7 53.8999 367.5 53.7999 364.1 53.7999C340.3 46.2999 312.9 46.8999 290.4 51.6999C285 52.7999 279.9 54.1999 275.2 55.7999C268.8 57.8999 263.1 60.3999 258.5 63.0999C242.5 72.3999 236.6 80.1999 229.7 86.1999C227.9 87.7999 226.1 89.1999 224 90.4999C220.7 92.4999 216.9 94.1999 211.7 95.5999C190.3 101.3 193.4 101.6 197.7 103.9C200.5 105.4 206.9 105.6 208.8 107.6C208 109.3 207.4 111 207.1 112.7C202.4 117.6 190.6 128.6 184.5 136C243.5 133.6 314.9 130 346 120.6C377.1 111.1 433 112.3 442.6 156.2C450.3 191.4 404.3 200.5 397.8 221C391.3 241.4 385.6 253.2 356.5 257.1C352.3 257.7 348.1 257.7 344 257.4C348.6 261 352.7 266.7 352 275.4C350.6 294.7 352.3 295.2 358.9 283.5C365.5 271.8 366.3 261.8 366.3 261.8C366.3 261.8 382.3 276.9 370.6 292.9C358.9 308.9 387.5 294.4 390 275.3L392.6 256.3C392.6 256.3 400 259.5 403.5 275.3C406.9 291.1 402.6 301.7 409.2 299.7C415.8 297.7 423.8 276.9 424.1 263.7C424.4 250.6 421.2 243.4 421.2 243.4C421.2 243.4 444 252.8 443.2 272.8C442.3 292.8 448.3 284.1 453.8 276.3C459.2 268.5 471.2 224.8 467.2 210.8C463.2 196.8 473.5 220.2 474.6 225.1C475.7 230 479 245.1 480.5 244.5C482 243.9 488.6 213.9 485.2 197.4C482.5 184.2 477.2 171.2 475.2 166.4C476.2 166.2 477.4 166.7 478.8 167.6C479.4 168.1 480.1 168.6 480.8 169.1C485.3 173.1 490.3 180.7 490.9 186.5C491.5 192.2 493.4 196.3 495.4 189.5C496.8 186.5 498.9 177.3 498.2 171.4C498.2 170.9 498.2 170.4 498.3 169.9C500.9 139.7 456.3 99.9999 456.3 99.9999L456 100.1Z" fill="#A6A8AB"/>
<path d="M377.8 54.6001C358.5 37.9001 348.6 18.3001 340.3 19.8001C338.7 20.1001 341.7 23.7001 344.7 30.3001C348.9 39.4001 348.7 40.4001 348.4 40.2001C346.5 39.2001 348.7 32.7001 328.3 25.9001C307.9 19.1001 300.6 22.7001 300.4 24.5001C300.3 26.3001 309.9 27.0001 317.3 33.3001C324.7 39.6001 327.4 42.2001 327.7 43.0001C328 43.8001 312.5 34.3001 301.4 34.5001C290.3 34.6001 271.4 45.6001 271.2 48.1001C271.2 48.1001 268.5 49.6001 277.3 48.3001C284.1 47.3001 287.7 51.3001 289.2 53.0001L380.2 56.5001C379.4 55.9001 378.6 55.2001 377.8 54.5001V54.6001Z" fill="#A6A8AB"/>
<path d="M275.1 55.7001C267 43.1001 255 29.3001 248.6 24.6001C235 29.2001 224.8 63.9001 229.5 86.1001C236.4 80.1001 242.3 72.3001 258.3 63.0001C262.9 60.3001 268.6 57.9001 275 55.7001H275.1Z" fill="#929497"/>
<path d="M425 24.6001C430.9 34.6001 432.9 60.1001 431.1 75.4001C435.4 78.7001 439.5 82.4001 443.5 86.4001C448.3 65.6001 445.8 18.2001 435.7 1.00005C435.2 0.100054 374.1 19.6001 373.8 54.0001C377.6 54.3001 381.3 54.7001 384.9 55.2001C389.6 35.2001 424.8 24.0001 425.1 24.6001H425ZM439.9 66.3001C439.6 66.3001 439.3 66.4001 439 66.5001C439.3 66.5001 439.6 66.4001 439.9 66.3001Z" fill="#A6A8AB"/>
<path d="M425 24.6C424.7 24.1 389.5 35.3 384.8 55.2C403.2 58.1 417.9 65 431 75.3C432.8 60.1 430.8 34.6 424.9 24.5L425 24.6Z" fill="#E6E7E8"/>
<path fill-rule="evenodd" clip-rule="evenodd" d="M62.3001 145.6C60.7001 133.9 53.2001 130.8 31.4001 131.8C9.60012 132.8 -2.89988 134.8 2.00012 152.8C6.90012 170.8 18.1001 179.1 33.0001 176.4C47.9001 173.8 64.0001 157.8 62.3001 145.6V145.6Z" fill="#58595B"/>
<path d="M126.7 224.4C126.7 224.4 148 226.1 168.2 223.6C188.4 221 193.5 221.7 199.5 220.5C205.5 219.3 228.6 215.7 228.6 215.7C228.6 215.7 216.9 237.3 208.8 247.7C200.7 258.1 180.3 264.2 168.1 261.4C155.9 258.6 142.2 261.9 134.7 250.1C127.2 238.3 126.8 224.5 126.8 224.5L126.7 224.4Z" fill="#7C180B"/>
<path d="M206.4 219.4C200.5 220.6 193.8 221.8 187.3 222.7C178.8 223.9 163.9 224.7 150.8 225.3C146.9 231.6 141.9 244.1 137.8 254.3C136.9 256.6 136 258.8 135.2 260.8C130.1 273.6 126.7 288 128.6 299.9C133.1 327.3 140.8 327.3 163 324.7C185.3 322.1 189.2 318.8 188.5 289.8C188.2 277.5 187.5 268.4 187.7 260.9C187.7 257.6 188.1 254.6 188.6 251.8C189.7 245.9 192.1 240.6 196.6 234.7C203.7 225.5 205.7 220.5 206.2 219.4H206.4ZM153.6 300.5C153.8 305.5 154.9 310.4 157.8 314.5C158.5 315.5 158 317 157 317.6C155.9 318.3 154.6 317.8 153.9 316.8C150.3 311.8 149.2 305.5 149 299.4C148.8 293.5 149.3 287.6 149.7 281.7C150.1 275.3 150.8 268.8 152.3 262.6C152.8 260.3 153.4 258.1 154.2 255.9C157 247.7 161.4 239.9 167.9 234.1C170 232.2 173.2 235.3 171.1 237.3C166.8 241.1 163.5 245.9 161 251C160.2 252.6 159.5 254.3 158.9 256C155.7 265 154.6 274.6 154.1 284.1C153.8 289.6 153.4 295.1 153.6 300.6V300.5Z" fill="#AF300F"/>
<path d="M167.9 234C161.4 239.8 157 247.6 154.2 255.8C153.5 258 152.8 260.3 152.3 262.5C150.9 268.8 150.2 275.2 149.7 281.6C149.3 287.5 148.9 293.4 149 299.3C149.2 305.4 150.2 311.6 153.9 316.7C154.6 317.7 155.8 318.2 157 317.5C158 316.9 158.5 315.4 157.8 314.4C154.8 310.3 153.8 305.4 153.6 300.4C153.4 294.9 153.8 289.4 154.1 283.9C154.7 274.4 155.7 264.8 158.9 255.8C159.5 254.1 160.2 252.4 161 250.8C163.5 245.6 166.8 240.9 171.1 237.1C173.3 235.2 170.1 232 167.9 233.9V234Z" fill="#A0260E"/>
<path d="M179.8 221.8C128.1 225.6 127.3 223.8 113.7 223.5C100.1 223.2 99.5997 224.9 99.5997 224.9C99.5997 224.9 96.8997 225.8 104.5 226.1C112.1 226.4 161.3 227.1 183.2 224.1C205.1 221.1 248.6 214.2 263.7 208.5C278.8 202.8 323.9 189.1 333 185.7C342.2 182.3 349.8 179.9 360.1 176.6C370.4 173.3 374.5 174.1 374.5 174.1C374.5 174.1 373.4 170.7 372.9 170.6C372.4 170.5 364.9 169.8 351.3 175C337.7 180.2 295 194.5 278.4 200C261.9 205.4 215.5 219.1 179.8 221.7V221.8Z" fill="#58595B"/>
<path d="M378.3 149.8C375.8 149.7 370.8 157.7 369.7 164.4C368.6 171.1 371.6 175.5 378.6 180.3C385.6 185.1 392.3 184.8 392.5 184.3L392.7 183.8C392.7 183.8 380.1 180.4 377.3 169.7C374.5 159 377.8 153.4 378.9 152.3C380 151.2 379.9 149.7 378.4 149.7L378.3 149.8Z" fill="#58595B"/>
<path fill-rule="evenodd" clip-rule="evenodd" d="M157.9 264.7C154.4 265.7 157.9 277.1 157.9 277.1L167.2 277.3C167.2 277.3 164.1 263 157.9 264.8V264.7Z" fill="#C3C3C3"/>
<path fill-rule="evenodd" clip-rule="evenodd" d="M144.7 268.2C141.4 269.7 147 282 147 282L155.8 279.2C155.8 279.2 150.6 265.5 144.7 268.2V268.2Z" fill="#C3C3C3"/>
<path fill-rule="evenodd" clip-rule="evenodd" d="M131 282C129 285.1 141.5 293 141.5 293L146.3 285.2C146.3 285.2 134.5 276.6 131 282Z" fill="#C3C3C3"/>
<path d="M296.7 286.9C278.5 275.4 269.1 290.4 251.3 306.6C233.5 322.8 219.3 331.4 209.4 318C199.5 304.6 175.4 263.8 158.5 273.4C141.6 283.1 132 296 149.7 322.1C167.5 348.2 204.8 383.3 243.2 365.5C281.5 347.7 323.7 303.9 296.7 286.7V286.9Z" fill="#808184"/>
<path d="M305.1 73.5999C294.8 76.2999 301.3 88.9999 312.4 94.6999C323.5 100.4 342.3 103 346.1 99.5999C349.9 96.2999 355 95.4999 345.5 94.7999C336 94.0999 332 92.3999 322.9 85.5999C313.9 78.7999 313.9 71.2999 305 73.5999H305.1Z" fill="#58595B"/>
<path d="M246.2 78.9C253.9 80.9 249 90.3 240.8 94.5C232.5 98.7 218.6 100.6 215.8 98.1C213 95.6 209.2 95.1 216.2 94.5C223.2 93.9 226.2 92.7 232.9 87.7C239.6 82.7 239.6 77.1 246.2 78.8V78.9Z" fill="#58595B"/>
</svg>
