<svg width="223" height="108" viewBox="0 0 223 108" fill="none" xmlns="http://www.w3.org/2000/svg">
<path d="M208.6 0.600006C206.1 0.500006 201.1 8.5 200 15.2C198.9 21.9 201.9 26.3 208.9 31.1C215.9 35.9 222.6 35.6 222.8 35.1L223 34.6C223 34.6 210.4 31.2 207.6 20.5C204.8 9.8 208.1 4.20001 209.2 3.10001C210.4 1.90001 210.2 0.5 208.7 0.5L208.6 0.600006Z" fill="#58595B"/>
<path d="M15.9998 74C37.9998 70.9 78.8998 65 93.9998 59.4C109.1 53.7 154.2 40 163.3 36.6C172.5 33.2 180.1 30.8 190.4 27.5C200.7 24.2 204.8 25 204.8 25C204.8 25 203.7 21.6 203.2 21.5C202.7 21.4 195.2 20.7 181.6 25.9C168 31.1 125.3 45.4 108.7 50.9C92.1998 56.3 52.4998 64.3 17.4998 71.6C14.6998 72.2 13.8998 74.3 15.9998 74V74Z" fill="#58595B"/>
<path d="M24.0994 79C15.4994 83.1 7.89942 87.9 3.49942 93.1C-5.40058 103.7 3.69941 109 23.6994 106.7C5.79941 103.6 13.7994 90.1 24.1994 79H24.0994Z" fill="#8C1D0E"/>
<path d="M145.6 39.7C122 45.7 77.3002 61 65.1002 64.4C57.3002 66.5 39.3001 71.8 24.2001 79.1C13.8001 90.2 5.80015 103.6 23.7001 106.8C30.9001 106 39.5002 104.1 49.3002 101.1C50.8002 100.7 52.2001 100.2 53.7001 99.7C52.9001 96 51.3001 86.9 54.2001 84.1C54.5001 83.8 55.0001 83.5 55.4001 83.4C61.5001 81.8 67.4001 90.6 69.4001 94C100.7 81.9 133 64.7 148.8 55C168.1 43.2 204.8 26.1 204.8 26.1V21.6C204.8 21.6 164.8 34.9 145.6 39.8V39.7Z" fill="#A0260E"/>
<path d="M62.9999 90.1C60.4999 86.5 56.7999 84.8 54.0999 84.1C51.1999 86.9 52.7999 96 53.5999 99.7C57.6999 98.3 61.8999 96.9 66.0999 95.3C65.3999 94 64.3999 92.3 62.8999 90.2L62.9999 90.1Z" fill="white"/>
<path d="M55.2996 83.3C54.7996 83.4 54.3996 83.7 54.0996 84C56.7996 84.8 60.4996 86.4 62.9996 90C64.3996 92.1 65.4996 93.8 66.1996 95.1C67.2996 94.7 68.3996 94.3 69.3996 93.9C67.3996 90.5 61.3996 81.7 55.3996 83.3H55.2996Z" fill="#D0D2D3"/>
</svg>
