<svg width="564" height="570" viewBox="0 0 564 570" fill="none" xmlns="http://www.w3.org/2000/svg">
<path fill-rule="evenodd" clip-rule="evenodd" d="M205.1 319C203 322 212.9 328.6 212.9 328.6L220.2 322.8C220.2 322.8 208.7 313.7 205 319H205.1Z" fill="#C3C3C3"/>
<path fill-rule="evenodd" clip-rule="evenodd" d="M197.1 330C195.5 333.3 206.3 338.3 206.3 338.3L212.7 331.5C212.7 331.5 200 324.2 197.1 330Z" fill="#C3C3C3"/>
<path fill-rule="evenodd" clip-rule="evenodd" d="M195.3 349.4C195.7 353 207.5 351.4 207.5 351.4L209.2 342.2C209.2 342.2 194.6 343 195.3 349.4V349.4Z" fill="#C3C3C3"/>
<path fill-rule="evenodd" clip-rule="evenodd" d="M346.1 307.4C335.8 291.5 329.7 300.4 310.4 312C298.3 319.3 295.6 325.5 286 327.8C281 328.4 275.9 328.8 270.7 328.6C267.2 328.4 263.2 328 258.6 327.4C255.1 326.8 251.6 325.9 248.1 324.7C218.7 314.6 207.9 323.3 203.6 346.7C200.5 363.4 241.6 367.9 276.1 362.4C276.1 362.4 301.6 360.5 325.5 348.9C349.4 337.3 357 324.1 346.2 307.4H346.1Z" fill="#929497"/>
<path d="M409.7 224.4C391.8 215.2 386.4 223.6 351.8 231.3C301.3 242.5 291.5 238.7 291.5 238.7C291.5 238.7 271.2 374 279.8 432.3C283.3 456 287.2 472.2 294.1 483C296.5 486.9 299.3 490 302.6 492.6C308.8 497.5 316.8 500.2 327.2 501.3C330.4 501.7 333.8 501.9 337.6 501.9C341.5 501.9 345.8 501.9 350.3 501.7C367.6 500.9 383.5 500.9 396.9 498.1C412.5 494.8 424.7 487.5 431.9 470.6C432.6 468.9 433.3 467.1 434 465.2C435.2 461.6 436.1 457.5 436.9 453.1C438.3 445 439.1 435.4 439 424.2C438.8 344.4 427.7 233.6 409.8 224.3L409.7 224.4Z" fill="#808184"/>
<path d="M455.8 156.1C455.1 152.9 454.1 149.9 453 147.1C425.2 157.6 389.2 172.3 373.5 176.5C348.5 183.3 272.3 208.9 218.1 218.4C213.9 219.1 209.8 219.8 205.9 220.3L197.7 222C197.7 222 164 240.6 167.2 262.1C167.3 262.9 167.6 263.6 168 264.3C168.6 265.2 169.4 265.9 170.4 266.4C173.3 267.9 179.8 270.2 185.7 269.8C209 269.1 219.2 266.9 231.5 262.5C254.6 256.7 260.8 255.1 279.1 252.6C300.9 249.6 332.7 255.1 357 257.1C361.1 257.4 365.3 257.4 369.5 256.8C398.6 252.9 404.3 241.1 410.8 220.7C417.3 200.3 463.4 191.1 455.6 155.9L455.8 156.1Z" fill="#EFEFEF"/>
<path d="M536.1 323C513.6 300.5 464.9 301.9 482.4 314.3C499.8 326.6 505.6 375.7 496.2 405.4C495.9 406.3 495.6 407.2 495.3 408C506.3 401.9 517.2 392.7 519.1 379.6C523.1 351.6 523.6 372.7 524.1 381.3C524.6 389.8 524.1 399.6 524.1 399.6C524.1 399.6 536 396.5 535 381.6C534.1 366.7 536.4 361.2 539.5 374.3C542.6 387.3 546.6 397.5 541.2 414.6C535.7 431.7 554.5 396.6 554.9 387.8C555.4 379 561.1 394.5 559.6 412.9C559.1 419 558.5 425.6 558 431.7C572.5 397.3 555.5 342.5 536.1 323.1V323Z" fill="#D0D2D3"/>
<path d="M554.8 387.7C554.3 396.5 535.6 431.6 541.1 414.5C546.6 397.4 542.5 387.2 539.4 374.2C536.3 361.2 533.9 366.6 534.9 381.5C535.8 396.4 524 399.5 524 399.5C524 399.5 524.5 389.8 524 381.2C523.5 372.7 523.1 351.6 519 379.5C517.1 392.6 506.2 401.8 495.2 407.9C483.9 436.1 439.1 452.8 439.1 452.8C439.1 452.8 438.2 452.8 436.7 452.9C435.9 457.3 435 461.4 433.8 465C433.2 466.9 432.5 468.7 431.7 470.4C432.4 470.7 433.2 471 434 471.2C479.4 487.5 518.6 476.6 548.2 446.2C552.3 442 555.5 436.9 557.8 431.4C558.4 425.3 558.9 418.8 559.4 412.6C560.8 394.2 555.1 378.7 554.7 387.5L554.8 387.7Z" fill="#929497"/>
<path fill-rule="evenodd" clip-rule="evenodd" d="M362.5 433.4C364.4 435.8 372.2 429.3 372.2 429.3L369.3 421.9C369.3 421.9 359.1 429 362.6 433.3L362.5 433.4Z" fill="#C3C3C3"/>
<path fill-rule="evenodd" clip-rule="evenodd" d="M369.601 442.6C371.901 444.7 378.501 437.1 378.501 437.1L374.501 430.3C374.501 430.3 365.501 438.9 369.601 442.6Z" fill="#C3C3C3"/>
<path fill-rule="evenodd" clip-rule="evenodd" d="M384.9 448.7C388 449.2 389.4 439.3 389.4 439.3L382.3 435.7C382.3 435.7 379.4 447.8 384.8 448.7H384.9Z" fill="#C3C3C3"/>
<path d="M408.7 301.7C385.4 304.4 402.2 331.4 379.9 379.7C357.6 428 375.4 438.8 386.4 440.2C397.4 441.6 414.4 424.7 418.6 379.1C422.8 333.6 423.4 300 408.7 301.7V301.7Z" fill="#929497"/>
<path d="M469.2 100C465.1 95.1 460.9 90.5 456.7 86.3C452.7 82.3 448.6 78.6 444.3 75.3C431.1 65 416.5 58.1 398.1 55.2C394.5 54.6 390.9 54.2 387 54C383.9 53.8 380.7 53.7 377.3 53.7C353.5 46.2 326.1 46.8 303.6 51.6C298.2 52.7 293.1 54.1 288.4 55.7C282 57.8 276.3 60.3 271.7 63C255.7 72.3 249.8 80.1 242.9 86.1C241.1 87.7 239.3 89.1 237.2 90.4C233.9 92.4 230.1 94.1 224.9 95.5C203.5 101.2 206.6 101.5 210.9 103.8C213.7 105.3 220.1 105.5 222 107.5C221.2 109.2 220.6 110.9 220.3 112.6C215.6 117.5 203.8 128.5 197.7 135.9C256.7 133.5 328.1 129.9 359.2 120.5C390.3 111 446.2 112.2 455.8 156.1C463.5 191.3 417.5 200.4 411 220.9C404.5 241.3 398.8 253.1 369.7 257C365.5 257.6 361.3 257.6 357.2 257.3C361.8 260.9 365.9 266.6 365.2 275.3C363.8 294.6 365.5 295.1 372.1 283.4C378.7 271.7 379.5 261.7 379.5 261.7C379.5 261.7 395.5 276.8 383.8 292.8C372.1 308.8 400.7 294.3 403.2 275.2L405.8 256.2C405.8 256.2 413.2 259.4 416.7 275.2C420.1 291 415.8 301.6 422.4 299.6C429 297.6 437 276.8 437.3 263.6C437.6 250.5 434.4 243.3 434.4 243.3C434.4 243.3 457.2 252.7 456.4 272.7C455.5 292.7 461.5 284 467 276.2C472.4 268.4 484.4 224.7 480.4 210.7C476.4 196.7 486.7 220.1 487.8 225C488.9 229.9 492.2 245 493.7 244.4C495.2 243.8 501.8 213.8 498.4 197.3C495.7 184.1 490.4 171.1 488.4 166.3C489.4 166.1 490.6 166.6 492 167.5C492.6 168 493.3 168.5 494 169C498.5 173 503.5 180.6 504.1 186.4C504.7 192.1 506.6 196.2 508.6 189.4C510 186.4 512.1 177.2 511.4 171.3C511.4 170.8 511.4 170.3 511.5 169.8C514.1 139.6 469.5 99.9 469.5 99.9L469.2 100Z" fill="#A6A8AB"/>
<path fill-rule="evenodd" clip-rule="evenodd" d="M225 553.4C225.4 556 233.7 554.4 233.7 554.4V554C232.7 552.1 232.1 550.2 232 548.2C229 548.8 224.5 550.3 225 553.4V553.4Z" fill="#C3C3C3"/>
<path d="M294.1 483C290.3 497.9 285.7 515 282.2 524.9C275.6 543.7 256.4 526.4 241.5 533.5C240.2 534.1 239 534.9 237.8 535.8C237.1 536.4 236.5 536.9 236 537.5C235.5 538 235 538.6 234.6 539.2C233.3 541 232.4 543 232 545C231.8 546.1 231.8 547.1 231.8 548.2C232 550.1 232.5 552.1 233.6 554C238.5 563 253.4 570.4 277.8 568.9C318.9 566.3 315.5 565.4 318.9 542.1C320.4 532 323.7 516.1 327 501.2C316.6 500.1 308.6 497.4 302.4 492.5C299.1 489.9 296.3 486.8 293.9 482.9L294.1 483Z" fill="#929497"/>
<path fill-rule="evenodd" clip-rule="evenodd" d="M237.9 535.9C239.1 534.9 240.3 534.2 241.6 533.6C240.1 532.5 233.2 528.2 231 531.6C229.9 533.4 234.3 536.5 236.1 537.6C236.7 537 237.2 536.4 237.9 535.9V535.9Z" fill="#C3C3C3"/>
<path fill-rule="evenodd" clip-rule="evenodd" d="M225.6 539.6C224.7 541.7 230.7 544.4 232.1 545C232.5 543 233.3 541 234.7 539.2C231.9 538.1 226.9 536.6 225.7 539.6H225.6Z" fill="#C3C3C3"/>
<path d="M359.2 120.4C328.1 129.9 256.7 133.4 197.7 135.8C138.7 138.2 96.8999 114.9 65.8999 132.8C34.8999 150.7 13.5999 176 42.2999 202.9C67.1999 226.3 101.5 221.5 110.5 222.7C131.7 223.3 164 222.5 167.9 222.7C182.7 221.8 192 222.1 206 220.2C260.3 212.9 346.6 183.8 373.5 176.4C389.2 172.1 425.2 157.5 453 147C438.2 111.9 388.1 111.5 359.3 120.3L359.2 120.4Z" fill="#D0D2D3"/>
<path d="M433.9 465.2C427.2 486.1 414 494.4 396.9 498.1C395.7 502.1 394.7 506.3 393.8 510.6C389.2 533.9 387.3 525.8 379.8 529.7C379.1 530.1 378.2 530.6 377.3 531.1C375.7 532.1 373.8 533.3 372 534.7C371.4 535.1 370.9 535.6 370.3 536.1C368.7 537.5 367.1 539 365.9 540.7C365.1 541.8 364.4 542.9 363.9 544C363 546 362.8 548.1 363.4 550.2C364.2 553 366.6 555.8 371.3 558.5C391 569.8 415.3 565.7 423.5 553.2C431.7 540.7 420.4 537 424.8 510.8C428.4 489.6 434.8 472.2 433.9 465.2V465.2Z" fill="#929497"/>
<path fill-rule="evenodd" clip-rule="evenodd" d="M369 527.7C367.5 529 370.5 532.9 372 534.7C373.8 533.3 375.7 532.1 377.3 531.1C375.2 528.9 371.4 525.6 369 527.7Z" fill="#C3C3C3"/>
<path fill-rule="evenodd" clip-rule="evenodd" d="M370.3 536C367.9 534.1 363.7 531.5 361.6 533.9C360.3 535.5 364.2 539.2 365.8 540.6C367 539 368.6 537.4 370.2 536H370.3Z" fill="#C3C3C3"/>
<path fill-rule="evenodd" clip-rule="evenodd" d="M363.9 544C361 544 357.4 544.4 357.1 547C356.9 548.8 360.9 549.8 363.4 550.2C362.8 548.1 363 546 363.9 544Z" fill="#C3C3C3"/>
<path d="M390.7 54.3999C371.4 37.6999 361.5 18.0999 353.2 19.5999C351.6 19.8999 354.6 23.4999 357.6 30.0999C361.8 39.1999 361.6 40.1999 361.3 39.9999C359.4 38.9999 361.6 32.4999 341.2 25.6999C320.8 18.8999 313.5 22.4999 313.3 24.2999C313.2 26.0999 322.8 26.7999 330.2 33.0999C337.6 39.3999 340.3 41.9999 340.6 42.7999C340.9 43.5999 325.4 34.0999 314.3 34.2999C303.2 34.3999 284.3 45.3999 284.1 47.8999C284.1 47.8999 281.4 49.3999 290.2 48.0999C297 47.0999 300.6 51.0999 302.1 52.7999L393.1 56.2999C392.3 55.6999 391.5 54.9999 390.7 54.2999V54.3999Z" fill="#A6A8AB"/>
<path fill-rule="evenodd" clip-rule="evenodd" d="M61.8997 156.3C60.2997 144.6 52.7997 141.5 30.9997 142.5C9.19973 143.5 -3.30027 145.5 1.59973 163.5C6.49973 181.5 17.6997 189.8 32.5997 187.1C47.4997 184.5 63.5997 168.5 61.8997 156.3V156.3Z" fill="#58595B"/>
<path d="M288.4 55.6C280.3 43 268.3 29.2 261.9 24.5C248.3 29.1 238.1 63.8 242.8 86C249.7 80 255.6 72.2 271.6 62.9C276.2 60.2 281.9 57.8 288.3 55.6H288.4Z" fill="#929497"/>
<path d="M438.301 24.5C444.201 34.5 446.201 60 444.401 75.3C448.701 78.6 452.801 82.3 456.801 86.3C461.601 65.5 459.101 18.1 449.001 0.899956C448.501 -4.40795e-05 387.401 19.5 387.101 53.9C390.901 54.2 394.601 54.6 398.201 55.1C402.901 35.1 438.101 23.9 438.401 24.5H438.301ZM453.201 66.2C452.901 66.2 452.601 66.3 452.301 66.4C452.601 66.4 452.901 66.3 453.201 66.2Z" fill="#A6A8AB"/>
<path d="M438.301 24.4999C438.001 23.9999 402.801 35.1999 398.101 55.0999C416.501 57.9999 431.201 64.8999 444.301 75.1999C446.101 59.9999 444.101 34.4999 438.201 24.3999L438.301 24.4999Z" fill="#E6E7E8"/>
<path fill-rule="evenodd" clip-rule="evenodd" d="M370.9 87.1001C365.7 86.0001 352 78.7001 335.1 78.5001C313.5 78.2001 289.2 86.2001 300.2 98.9001C304.5 103.9 354.8 88.9001 366.9 88.2001C367.5 88.2001 372.1 87.3001 371 87.1001H370.9Z" fill="#58595B"/>
<path fill-rule="evenodd" clip-rule="evenodd" d="M228.4 102.2C231.3 101.4 239.4 95.6999 248.4 95.8999C259.9 96.1999 271.9 103.3 264.6 113.6C261.7 117.7 236.7 104.1 230.4 103.2C230.1 103.2 227.7 102.4 228.3 102.2H228.4Z" fill="#58595B"/>
</svg>
