<svg width="563" height="569" viewBox="0 0 563 569" fill="none" xmlns="http://www.w3.org/2000/svg">
<path fill-rule="evenodd" clip-rule="evenodd" d="M204.54 318.13C202.45 321.13 212.37 327.69 212.37 327.69L219.71 321.92C219.71 321.92 208.25 312.82 204.54 318.13V318.13Z" fill="#C3C3C3"/>
<path fill-rule="evenodd" clip-rule="evenodd" d="M196.54 329.15C194.92 332.43 205.72 337.42 205.72 337.42L212.11 330.61C212.11 330.61 199.41 323.34 196.54 329.16V329.15Z" fill="#C3C3C3"/>
<path fill-rule="evenodd" clip-rule="evenodd" d="M194.71 348.52C195.13 352.16 206.91 350.47 206.91 350.47L208.57 341.28C208.57 341.28 193.96 342.08 194.71 348.51V348.52Z" fill="#C3C3C3"/>
<path fill-rule="evenodd" clip-rule="evenodd" d="M345.55 306.49C335.22 290.59 329.1 299.45 309.84 311.08C297.72 318.4 295.06 324.57 285.45 326.91C280.49 327.55 275.35 327.88 270.14 327.73C266.67 327.52 262.68 327.12 258.03 326.5C254.5 325.87 250.99 324.99 247.54 323.8C218.1 313.65 207.39 322.38 203.03 345.82C199.92 362.55 241.05 367.03 275.51 361.49C275.51 361.49 301.01 359.63 324.88 347.99C348.75 336.35 356.37 323.16 345.54 306.49H345.55Z" fill="#929497"/>
<path d="M535.54 322.15C513.03 299.64 464.39 301.09 481.81 313.44C499.24 325.78 505.04 374.79 495.61 404.56C495.33 405.44 495.01 406.31 494.67 407.18C505.71 401.1 516.6 391.9 518.49 378.8C522.52 350.83 522.99 371.93 523.47 380.46C523.95 388.99 523.47 398.71 523.47 398.71C523.47 398.71 535.32 395.63 534.37 380.69C533.42 365.76 535.79 360.31 538.87 373.34C541.95 386.38 545.98 396.57 540.53 413.64C535.08 430.71 553.8 395.62 554.28 386.85C554.75 378.08 560.46 393.55 559.02 411.98C558.54 418.11 557.96 424.68 557.4 430.74C571.94 396.39 554.92 341.53 535.55 322.15H535.54Z" fill="#D0D2D3"/>
<path d="M554.28 386.85C553.81 395.62 535.08 430.7 540.53 413.64C545.98 396.57 541.95 386.38 538.87 373.34C535.79 360.3 533.42 365.75 534.37 380.69C535.32 395.62 523.47 398.71 523.47 398.71C523.47 398.71 523.94 388.99 523.47 380.46C523 371.93 522.52 350.83 518.49 378.8C516.6 391.9 505.71 401.1 494.67 407.18C483.39 435.37 438.62 452.12 438.62 452.12C438.62 452.12 437.7 452.16 436.24 452.27C435.46 456.69 434.49 460.72 433.32 464.35C432.7 466.28 432 468.07 431.27 469.79C432.02 470.07 432.73 470.35 433.53 470.64C478.91 486.98 518.11 476.09 547.77 445.59C551.9 441.34 555.04 436.31 557.4 430.75C557.96 424.69 558.54 418.11 559.02 411.99C560.46 393.57 554.75 378.09 554.28 386.86V386.85Z" fill="#929497"/>
<path d="M409.16 223.51C391.21 214.3 385.82 222.71 351.25 230.39C300.72 241.62 291 237.75 291 237.75C291 237.75 270.7 373.01 279.27 431.4C282.74 455.08 286.7 471.31 293.53 482.13C295.96 485.98 298.75 489.17 302.02 491.73C308.24 496.6 316.19 499.3 326.59 500.43C329.81 500.78 333.24 500.99 336.95 501.06C340.89 501.13 345.12 501.06 349.68 500.85C366.98 500.07 382.88 500.09 396.29 497.24C411.89 493.92 424.11 486.67 431.28 469.78C432.01 468.06 432.71 466.27 433.33 464.34C434.5 460.71 435.47 456.68 436.25 452.26C437.68 444.12 438.43 434.59 438.39 423.36C438.15 343.58 427.11 232.71 409.17 223.51H409.16Z" fill="#808184"/>
<path fill-rule="evenodd" clip-rule="evenodd" d="M361.96 432.58C363.89 435 371.61 428.52 371.61 428.52L368.69 421.17C368.69 421.17 358.54 428.29 361.96 432.58V432.58Z" fill="#C3C3C3"/>
<path fill-rule="evenodd" clip-rule="evenodd" d="M368.98 441.73C371.26 443.84 377.91 436.26 377.91 436.26L373.91 429.43C373.91 429.43 364.95 438 368.98 441.73Z" fill="#C3C3C3"/>
<path fill-rule="evenodd" clip-rule="evenodd" d="M384.28 447.89C387.34 448.42 388.81 438.45 388.81 438.45L381.74 434.89C381.74 434.89 378.87 446.95 384.28 447.89Z" fill="#C3C3C3"/>
<path d="M408.15 300.86C384.84 303.55 401.65 330.54 379.32 378.87C356.99 427.2 374.8 437.94 385.82 439.36C396.84 440.77 413.8 423.81 418.04 378.31C422.28 332.8 422.85 299.17 408.15 300.86Z" fill="#929497"/>
<path fill-rule="evenodd" clip-rule="evenodd" d="M224.38 552.57C224.8 555.14 233.1 553.57 233.1 553.57L233.15 553.18C232.12 551.3 231.53 549.36 231.38 547.42C228.37 548.06 223.88 549.52 224.37 552.57H224.38Z" fill="#C3C3C3"/>
<path d="M293.52 482.13C289.73 497.05 285.15 514.13 281.65 524.07C275.02 542.9 255.8 525.56 240.95 532.66C239.69 533.26 238.46 534.02 237.28 535C236.62 535.55 236.03 536.13 235.47 536.73C234.97 537.27 234.51 537.82 234.1 538.38C232.76 540.23 231.9 542.19 231.54 544.21C231.35 545.27 231.29 546.34 231.38 547.42C231.53 549.36 232.12 551.3 233.15 553.18C238.06 562.15 252.94 569.62 277.33 568.08C318.46 565.49 315.01 564.63 318.46 541.33C319.95 531.24 323.28 515.29 326.57 500.43C316.17 499.3 308.22 496.61 302 491.73C298.73 489.17 295.94 485.98 293.51 482.13H293.52Z" fill="#929497"/>
<path fill-rule="evenodd" clip-rule="evenodd" d="M237.28 535C238.46 534.01 239.69 533.26 240.95 532.66C239.41 531.61 232.56 527.24 230.38 530.68C229.27 532.43 233.65 535.54 235.47 536.73C236.02 536.14 236.61 535.56 237.28 535V535Z" fill="#C3C3C3"/>
<path fill-rule="evenodd" clip-rule="evenodd" d="M225.06 538.75C224.14 540.86 230.15 543.6 231.55 544.2C231.91 542.18 232.76 540.22 234.11 538.37C231.27 537.24 226.36 535.79 225.07 538.75H225.06Z" fill="#C3C3C3"/>
<path d="M433.321 464.34C426.581 485.2 413.471 493.59 396.281 497.24C395.111 501.22 394.05 505.41 393.21 509.69C388.66 532.98 386.711 524.85 379.221 528.81C378.491 529.19 377.631 529.67 376.701 530.23C375.071 531.2 373.22 532.42 371.4 533.82C370.83 534.26 370.271 534.71 369.721 535.18C368.071 536.58 366.531 538.12 365.291 539.76C364.471 540.84 363.8 541.96 363.3 543.1C362.44 545.1 362.17 547.19 362.8 549.31C363.62 552.1 366 554.92 370.68 557.61C390.34 568.91 414.691 564.86 422.921 552.34C431.141 539.83 419.841 536.11 424.251 509.92C427.811 488.77 434.291 471.29 433.321 464.34V464.34Z" fill="#929497"/>
<path fill-rule="evenodd" clip-rule="evenodd" d="M368.42 526.82C366.93 528.13 369.9 532.02 371.41 533.81C373.24 532.41 375.09 531.19 376.71 530.22C374.6 528 370.81 524.71 368.42 526.82Z" fill="#C3C3C3"/>
<path fill-rule="evenodd" clip-rule="evenodd" d="M369.721 535.18C367.301 533.3 363.081 530.65 361.041 533.09C359.711 534.68 363.641 538.34 365.291 539.76C366.531 538.12 368.081 536.58 369.721 535.18V535.18Z" fill="#C3C3C3"/>
<path fill-rule="evenodd" clip-rule="evenodd" d="M363.3 543.1C360.36 543.03 356.83 543.51 356.5 546.15C356.28 547.96 360.34 548.91 362.79 549.31C362.17 547.2 362.43 545.11 363.29 543.1H363.3Z" fill="#C3C3C3"/>
<path d="M468.67 99.1499C464.54 94.2399 460.41 89.6699 456.18 85.4499C452.15 81.4299 448.04 77.7399 443.76 74.3999C430.6 64.1199 415.91 57.1799 397.51 54.2899C393.96 53.7299 390.27 53.3199 386.43 53.0699C383.31 52.8699 380.1 52.7499 376.76 52.7599C352.97 45.2699 325.55 45.8499 303.04 50.6299C297.65 51.7799 292.56 53.1699 287.85 54.7399C281.46 56.8699 275.78 59.3299 271.16 62.0099C255.18 71.2899 249.22 79.1199 242.35 85.1299C240.56 86.6899 238.71 88.1399 236.6 89.4499C233.35 91.4699 229.5 93.1899 224.32 94.5699C202.9 100.28 206.04 100.57 210.33 102.85C213.18 104.37 219.54 104.5 221.41 106.6C220.58 108.26 220.04 109.99 219.72 111.74C214.99 116.65 203.23 127.61 197.16 135C256.12 132.62 327.53 129.04 358.63 119.57C389.72 110.1 445.58 111.3 455.2 155.21C462.93 190.43 416.89 199.56 410.37 219.99C403.85 240.42 398.2 252.16 369.07 256.08C364.85 256.65 360.68 256.67 356.56 256.33C361.17 259.96 365.22 265.65 364.57 274.38C363.14 293.65 364.86 294.22 371.42 282.51C377.99 270.8 378.85 260.8 378.85 260.8C378.85 260.8 394.84 275.94 383.13 291.93C371.42 307.92 399.98 293.38 402.55 274.38L405.12 255.37C405.12 255.37 412.55 258.54 415.97 274.38C419.4 290.22 415.11 300.79 421.68 298.79C428.25 296.79 436.25 275.94 436.53 262.8C436.82 249.66 433.67 242.52 433.67 242.52C433.67 242.52 456.52 251.94 455.66 271.94C454.8 291.93 460.8 283.21 466.23 275.43C471.66 267.65 483.65 223.95 479.65 209.96C475.65 195.97 485.93 219.39 487.08 224.24C488.22 229.1 491.44 244.23 492.97 243.66C494.5 243.09 501.07 213.1 497.65 196.53C494.92 183.32 489.64 170.29 487.62 165.56C488.59 165.39 489.84 165.86 491.19 166.75C491.82 167.22 492.49 167.73 493.19 168.29C497.71 172.3 502.65 179.9 503.25 185.69C503.83 191.35 505.75 195.44 507.74 188.68C509.16 185.68 511.2 176.44 510.51 170.54C510.56 170.03 510.6 169.54 510.65 169.01C513.29 138.81 468.68 99.1599 468.68 99.1599L468.67 99.1499Z" fill="#A6A8AB"/>
<path d="M372.84 175.7C388.55 171.41 424.51 156.8 452.36 146.26C437.53 111.19 387.44 110.8 358.62 119.57C327.53 129.04 256.12 132.62 197.16 135C138.2 137.38 96.3701 114.1 65.3301 132.04C34.2901 149.99 12.9901 175.2 41.6801 202.16C70.3701 229.12 111.55 218.68 112.05 223.03C112.16 223.99 111.18 224.7 109.61 225.42C135.5 225.07 173.44 223.77 205.32 219.48C259.59 212.17 345.89 183.06 372.86 175.7H372.84Z" fill="#D0D2D3"/>
<path d="M92.44 243.81C94.28 260.85 120.45 243.46 127.32 246.51C134.19 249.55 156.45 264.34 199.49 265.21C242.53 266.08 262.29 245.65 287.84 242.17C309.69 239.2 332.25 254.33 356.53 256.33C360.65 256.67 364.82 256.65 369.04 256.08C398.17 252.17 403.82 240.43 410.34 219.99C416.86 199.56 462.9 190.43 455.17 155.21C454.47 152 453.51 149.03 452.34 146.26C424.5 156.8 388.54 171.41 372.82 175.7C345.85 183.06 259.55 212.17 205.28 219.48C173.4 223.77 135.46 225.08 109.57 225.42C104 227.96 90.98 230.52 92.42 243.81H92.44Z" fill="#EFEFEF"/>
<path d="M390.16 53.5499C370.82 36.8899 361.01 17.2599 352.62 18.7599C351.05 19.0399 353.99 22.6799 357.05 29.2399C361.29 38.3399 361.03 39.3099 360.75 39.1599C358.88 38.1799 361.01 31.7099 340.6 24.8899C320.2 18.0699 312.86 21.6899 312.74 23.4899C312.62 25.2899 322.23 25.9499 329.66 32.2599C337.08 38.5699 339.72 41.1999 340.06 41.9899C340.4 42.7899 324.82 33.3399 313.73 33.4799C302.64 33.6199 283.72 44.5499 283.55 47.1199C283.55 47.1199 280.81 48.6099 289.69 47.2899C296.46 46.2799 300.12 50.3299 301.56 52.0299L392.54 55.5199C391.73 54.8799 390.94 54.2299 390.17 53.5699L390.16 53.5499Z" fill="#A6A8AB"/>
<path fill-rule="evenodd" clip-rule="evenodd" d="M61.3499 155.47C59.7699 143.79 52.2899 140.64 30.4599 141.63C8.62995 142.62 -3.81005 144.68 1.04995 162.64C5.90995 180.6 17.11 188.92 32.02 186.28C46.93 183.64 62.9899 167.66 61.3499 155.47V155.47Z" fill="#58595B"/>
<path d="M437.69 23.64C443.6 33.67 445.54 59.17 443.76 74.4C448.03 77.74 452.15 81.43 456.18 85.45C460.94 64.67 458.51 17.28 448.33 0.029995C447.82 -0.830005 386.72 18.66 386.43 53.07C390.27 53.32 393.96 53.73 397.51 54.29C402.19 34.3 437.38 23.12 437.69 23.64ZM452.58 65.32C452.27 65.4 451.98 65.47 451.69 65.53C451.98 65.47 452.27 65.4 452.58 65.32Z" fill="#A6A8AB"/>
<path d="M437.69 23.6401C437.38 23.1101 402.19 34.3001 397.51 54.2901C415.91 57.1801 430.6 64.1301 443.76 74.4001C445.55 59.1701 443.61 33.6701 437.69 23.6401V23.6401Z" fill="#E6E7E8"/>
<path fill-rule="evenodd" clip-rule="evenodd" d="M370.29 86.2C365.09 85.06 351.43 77.85 334.47 77.61C312.85 77.32 288.61 85.27 299.53 98.05C303.83 103.08 354.17 88.06 366.18 87.3C366.78 87.26 371.36 86.43 370.29 86.19V86.2Z" fill="#58595B"/>
<path fill-rule="evenodd" clip-rule="evenodd" d="M227.85 101.32C230.75 100.5 238.84 94.8401 247.88 95.0401C259.42 95.2901 271.4 102.44 264.13 112.76C261.27 116.82 236.21 103.23 229.91 102.33C229.6 102.29 227.26 101.49 227.85 101.32V101.32Z" fill="#58595B"/>
<path d="M391.06 148.79C388.59 148.67 383.55 156.68 382.47 163.42C381.39 170.15 384.33 174.56 391.37 179.36C398.41 184.16 405.07 183.85 405.22 183.38L405.37 182.92C405.37 182.92 392.75 179.51 389.97 168.83C387.18 158.15 390.43 152.58 391.6 151.42C392.76 150.26 392.61 148.87 391.06 148.79Z" fill="#58595B"/>
<path d="M192.56 220.8C140.82 224.58 140.07 222.78 126.47 222.48C112.87 222.18 112.36 223.88 112.36 223.88C112.36 223.88 109.63 224.79 117.21 225.13C124.79 225.47 173.97 226.17 195.95 223.15C217.93 220.13 261.33 213.22 276.4 207.55C291.47 201.88 336.57 188.17 345.75 184.77C354.93 181.37 362.52 178.99 372.83 175.71C383.14 172.42 387.22 173.22 387.22 173.22C387.22 173.22 386.09 169.82 385.63 169.71C385.17 169.6 377.58 168.92 363.99 174.13C350.39 179.34 307.65 193.67 291.13 199.12C274.61 204.56 228.24 218.21 192.55 220.82L192.56 220.8Z" fill="#58595B"/>
<path d="M262.07 41.2999C264.22 39.6299 270.65 54.7199 273.17 60.8899C277.39 58.6399 282.35 56.5699 287.85 54.7399C279.74 42.1399 267.73 28.2999 261.4 23.6299C247.75 28.2599 237.56 62.9799 242.35 85.1299C246.01 81.9299 249.41 78.2199 254.19 74.0499C252.47 62.5699 259.54 43.2799 262.08 41.2999H262.07Z" fill="#929497"/>
<path d="M273.16 60.89C270.65 54.72 264.21 39.62 262.06 41.3C259.52 43.28 252.45 62.56 254.17 74.05C258.38 70.38 263.66 66.36 271.14 62.01C271.79 61.63 272.46 61.26 273.15 60.89H273.16Z" fill="#E6E7E8"/>
</svg>
