<svg width="263" height="130" viewBox="0 0 263 130" fill="none" xmlns="http://www.w3.org/2000/svg">
<path d="M248.6 6.60001C246.1 6.50001 241.1 14.5 240 21.2C238.9 27.9 241.9 32.3 248.9 37.1C255.9 41.9 262.6 41.6 262.8 41.1L263 40.6C263 40.6 250.4 37.2 247.6 26.5C244.8 15.8 248.1 10.2 249.2 9.10001C250.4 7.90001 250.2 6.5 248.7 6.5L248.6 6.60001Z" fill="#58595B"/>
<path d="M56.0999 80.4C82.2999 79.5 119.7 70.4 134.8 64.7C149.9 59 194.2 46 203.4 42.6C212.6 39.2 220.2 36.8 230.5 33.5C240.8 30.2 244.9 31 244.9 31C244.9 31 243.8 27.6 243.3 27.5C242.8 27.4 235.3 26.7 221.7 31.9C208.1 37.1 165.4 51.4 148.8 56.9C132.3 62.3 85.9999 78.7 50.1999 78.6C43.4999 78.6 45.1999 80.7 56.0999 80.3V80.4Z" fill="#58595B"/>
<path d="M58.7 78.8C54.2 79.5 50.4 79.9 47.4 80C47.4 80 19.3 92.2001 23.3 105.2C25.3 111.5 36 114.8 53.1 114.3C31.5 108.8 49.1 88.3 58.7 78.8Z" fill="#8C1D0E"/>
<path d="M246.7 33L242.6 29.3C242.6 29.3 109 71.2 58.6999 78.8C48.9999 88.3 31.4999 108.8 53.0999 114.3C60.7999 114.1 69.8999 113.1 79.8999 111.3C77.4999 107.6 81.3999 97.3 84.2999 93.2C84.8999 92.3 85.5999 91.7001 86.1999 91.6001C91.0999 90.6001 93.5999 97.5 97.2999 103.3C98.2999 104.9 98.8999 106.2 99.1999 107.1C107.8 104.9 116.9 102.3 126.5 99C183.8 79.6 246.8 33 246.8 33H246.7Z" fill="#A0260E"/>
<path d="M177 58.4C177.7 49.8 180.3 55.1 157.2 48.4C134.1 41.7 112.8 20.3001 73.8 6.70005C34.8 -6.89995 14.4 6.50006 3.09999 43.6001C-8.30001 80.8001 67.7 88.5 99.6 86.4C131.5 84.3 175.4 78.6001 177 58.3001V58.4Z" fill="#AF300F" stroke="#A0260E" stroke-width="2" stroke-miterlimit="10"/>
<path d="M174.3 57.7001C160.5 61.2001 146.1 60.8001 132.1 59.8001C118.2 58.8001 104.3 57.6001 90.7999 54.1001C83.2999 52.1001 75.8999 49.6001 68.6999 46.5001C67.4999 46.0001 66.4999 47.7001 67.6999 48.2001C80.5999 53.8001 94.0999 57.6001 108 59.6001C115 60.6001 122.1 61.1001 129.2 61.7001C136.5 62.3001 143.8 62.7001 151.1 62.6001C159.1 62.5001 167.1 61.7001 174.8 59.7001C176 59.4001 175.5 57.5001 174.3 57.8001V57.7001Z" fill="#A0260E"/>
<path d="M94.2002 110.3C94.4002 110.1 94.5002 110 94.6002 109.8C94.5002 110 94.3002 110.1 94.2002 110.3Z" fill="white"/>
<path d="M95.1996 108.1C95.1996 108.8 94.9996 109.3 94.5996 109.8C94.9996 109.3 95.1996 108.7 95.1996 108.1Z" fill="white"/>
<path d="M94.7002 105.9C94.9002 106.5 95.1002 107 95.2002 107.5C95.2002 107 95.0002 106.5 94.7002 105.9Z" fill="#A0260E"/>
<path d="M86.1998 91.7C85.5998 91.8 84.9998 92.4 84.2998 93.3C88.4998 93.5 91.1998 99.5 94.1998 105C94.3998 105.3 94.4998 105.6 94.5998 105.9C94.7998 106.5 94.9998 107 95.0998 107.5C95.0998 107.7 95.0998 108 95.0998 108.2C96.3998 107.9 97.7998 107.6 99.0998 107.2C98.7998 106.2 98.1998 105 97.1998 103.4C93.4998 97.6 91.0998 90.8 86.0998 91.7H86.1998Z" fill="#D0D2D3"/>
<path d="M95.2 107.5C95.2 107 95 106.5 94.7 105.9C94.6 105.6 94.4 105.3 94.3 105C91.3 99.5 88.6 93.5 84.4 93.3C81.5 97.4 77.5 107.7 80 111.4C84.9 110.5 89.9 109.5 95.3 108.2C95.3 108 95.3 107.8 95.3 107.5H95.2Z" fill="white"/>
<path d="M161 105.8C158.6 97.2 163.4 80.8 165.4 74.7C164.6 74.7 163.9 75.6 163.3 77.7C163.3 77.7 155.2 100.4 158.1 111.1C160.8 121 170.3 122.5 172.8 112.5C168.9 116 163 113.3 161 105.8V105.8Z" fill="#92D8EA"/>
<path d="M161 105.8C163.1 113.3 169 115.9 172.8 112.5C173 111.7 173.2 110.7 173.3 109.7C174.4 98.8 169.3 74.8 165.4 74.7C163.4 80.8 158.6 97.2 161 105.8V105.8Z" fill="white"/>
<path d="M196.1 120.6C189.4 114.7 184.3 98.4 182.6 92.2C182 92.6 181.8 93.7 182.5 95.8C182.5 95.8 188.2 119.2 196.6 126.5C204.3 133.2 213.1 129.2 209.6 119.5C208.3 124.5 201.9 125.6 196 120.5L196.1 120.6Z" fill="#92D8EA"/>
<path d="M196.099 120.6C201.899 125.7 208.399 124.6 209.699 119.6C209.399 118.8 208.999 117.9 208.599 117C203.499 107.3 185.999 90.1 182.699 92.2C184.399 98.3 189.399 114.7 196.199 120.6H196.099Z" fill="white"/>
</svg>
