<svg width="19" height="45" viewBox="0 0 19 45" fill="none" xmlns="http://www.w3.org/2000/svg">
<path d="M4.99995 29.9999C4.49995 21.0999 12.6999 6.09994 15.8999 0.599943C15.1999 0.399943 14.2999 1.09994 13.1999 3.09994C13.1999 3.09994 0.399946 23.4999 0.999946 34.5999C1.49995 44.7999 10.4999 48.2999 15.0999 39.0999C10.5999 41.6999 5.39995 37.7999 4.89995 30.0999L4.99995 29.9999Z" fill="#92D8EA"/>
<path d="M5 29.9999C5.4 37.6999 10.6 41.5999 15.2 38.9999C15.6 38.1999 15.9 37.3999 16.3 36.3999C19.7 25.9999 19.8 1.49985 16 0.599854C12.8 6.09985 4.6 21.0999 5.1 29.9999H5Z" fill="white"/>
</svg>
