<svg width="165" height="26" viewBox="0 0 165 26" fill="none" xmlns="http://www.w3.org/2000/svg">
<path d="M1.00034 7.99998C1.60034 4.29998 0.800335 10.1 14.7003 10.5C28.6003 10.9 33.8003 7.09998 38.5003 3.69998C43.2003 0.299983 42.7003 -0.900017 44.7003 0.799983C46.7003 2.49998 37.4003 19.6 25.5003 18.6C13.5003 17.5 0.400335 11.7 1.00034 7.99998Z" fill="#1D1D1B"/>
<path d="M164.3 20.4999C165.9 16.4999 163.1 22.6999 142.3 19.4999C121.5 16.2999 116.2 10.9999 111.5 6.29994C106.8 1.59994 108.4 0.499937 104.3 1.69994C100.2 2.89994 102.5 22.9999 120.9 25.0999C139.3 27.1999 162.7 24.4999 164.2 20.5999L164.3 20.4999Z" fill="#1D1D1B"/>
</svg>
