<svg width="49" height="47" viewBox="0 0 49 47" fill="none" xmlns="http://www.w3.org/2000/svg">
<path d="M46.9168 29.2822C42.1393 12.0302 31.39 0.219134 17.9864 0.0864258C12.6781 6.32371 7.63521 15.8787 9.89124 28.486C13.7398 33.1308 18.2519 37.3774 22.2331 40.0316C34.4422 48.3922 53.1541 51.3118 46.9168 29.2822Z" fill="#BC2B20"/>
<path d="M17.9866 0.0864258C14.1381 0.0864258 10.0241 0.882674 5.91018 2.8733C1.79622 4.73121 0.60185 8.04891 0.999974 12.0302C1.53081 15.8787 3.78685 20.3908 6.83913 24.7701C7.76809 26.0972 8.69705 27.2916 9.75871 28.486C7.63538 15.8787 12.6783 6.32371 17.9866 0.0864258Z" fill="#7C180B"/>
</svg>
