<svg width="269" height="224" viewBox="0 0 269 224" fill="none" xmlns="http://www.w3.org/2000/svg">
<path d="M158.97 78.43C158.1 76.71 157.85 74.95 158.19 73.27C158.21 73.16 158.26 73.06 158.29 72.95C160.2 65.26 175.05 57.99 173.81 37.96C172.56 17.65 158.81 -0.470044 125.38 1.08996C91.9501 2.64996 81.3201 44.83 93.8201 70.14C106.15 95.1 138.57 116.74 171.16 111.26C179.46 105.92 183 96.72 184.49 89.17C169.64 88.22 161.55 83.52 158.96 78.43H158.97Z" fill="#C8EBF8"/>
<path d="M136.8 70.77C128.08 66.61 125.27 66.08 124.17 56.57C123.07 47.06 125.39 36.8 134.31 35.58C143.23 34.36 143.6 33.75 143.96 32.77C144.84 30.41 131.5 30.82 124.41 35.21C117.32 39.61 110.85 62.82 125.51 72.48C135.71 79.2 150.76 79.11 158.97 78.43C158.1 76.71 157.85 74.95 158.19 73.27C158.21 73.16 158.26 73.06 158.29 72.95C151.86 73.34 142.25 73.38 136.8 70.77V70.77Z" fill="#9FBECF"/>
<path d="M230.99 63.5801C234.74 51.2801 230.99 43.5801 230.99 43.5801C230.99 43.5801 224.43 87.6401 195.99 89.2001C191.76 89.4301 187.96 89.3901 184.49 89.1701C183 96.7201 179.46 105.92 171.16 111.26C171.61 111.18 172.06 111.12 172.52 111.04C205.56 104.71 227.24 75.8901 230.99 63.5801V63.5801Z" fill="#AFE2F9"/>
<path d="M142.16 125.37C119.2 126.14 92.8799 119.71 87.3699 116.46C84.9599 115.04 82.3299 113.34 80.4199 111.41C75.2999 114.63 66.1299 119.45 56.6099 119.86C42.2199 120.47 25.2299 114.35 22.9399 99.5001C20.6399 84.6501 34.4899 73.3201 40.3899 75.3201C41.4099 75.6601 38.2499 78.3801 33.0399 82.8201C27.8299 87.2601 26.7599 93.3801 32.7299 104.09C38.6999 114.8 55.9599 112.02 71.1099 108.23C73.7399 107.57 75.8999 106.99 77.6899 106.48C77.5599 105.33 77.7699 104.12 78.4899 102.87C85.8399 90.0101 88.7399 71.8001 76.8099 52.8201C64.8699 33.8401 39.1599 30.6301 22.0199 40.2701C4.86991 49.9201 -2.4801 66.9001 0.739904 87.1101C3.9499 107.31 16.3499 117.57 46.8099 138.69C77.2699 159.81 104.05 156.29 104.05 156.29C104.05 156.29 102.88 156.63 100.99 157.3C117.35 154.69 134.04 150.67 153.63 144.91C170.11 140.06 175.64 126.01 177.5 117.01C166.16 121.75 153.63 124.99 142.16 125.38V125.37Z" fill="#E0F3FF"/>
<path d="M32.72 104.1C26.75 93.39 27.82 87.26 33.03 82.83C38.24 78.4 41.4 75.67 40.38 75.33C34.48 73.34 20.64 84.67 22.93 99.51C25.23 114.36 42.21 120.48 56.6 119.87C66.12 119.46 75.29 114.64 80.41 111.42C78.92 109.92 77.88 108.27 77.68 106.49C75.89 107.01 73.72 107.59 71.1 108.24C55.95 112.03 38.69 114.81 32.72 104.1V104.1Z" fill="#CADDE9"/>
<path d="M74.1998 206.03C79.7098 214.45 90.4198 228.22 112.77 222.71C135.12 217.2 132.05 196.69 129.15 191.64C126.24 186.59 117.98 184.6 115.99 188.73C114 192.86 112.93 196.38 105.89 196.84C98.8498 197.3 88.1398 190.72 91.0398 183.52C93.9498 176.33 96.6998 167.91 112.77 166.99C128.84 166.07 141.85 169.59 158.17 165.61C174.49 161.63 185.47 148.31 197.11 134.69C208.74 121.07 234.61 104.69 249.45 100.87C264.3 97.0402 265.37 98.8802 267.97 97.6602C270.57 96.4402 263.99 93.5302 247.15 96.1302C230.31 98.7302 222.66 103.63 222.66 103.63C222.66 103.63 228.17 85.8802 232.76 77.4602C237.35 69.0402 234.29 60.6202 233.53 66.5902C232.76 72.5602 218.99 86.9502 205.67 99.6502C199.01 106.01 188.85 112.25 177.49 117C175.63 126 170.1 140.05 153.62 144.9C134.03 150.66 117.34 154.68 100.98 157.29C95.3798 159.26 83.3898 164.07 76.1798 171.28C66.5398 180.92 68.6798 197.61 74.1898 206.02L74.1998 206.03Z" fill="#A9E2FA"/>
</svg>
