<svg width="1920" height="1080" viewBox="0 0 1920 1080" fill="none" xmlns="http://www.w3.org/2000/svg">
<path d="M2106.65 -191H-843V1303.96H2106.65V-191Z" fill="url(#paint0_linear_3_1412)"/>
<path style="mix-blend-mode:multiply" d="M308.455 843.39C301.003 773.261 218.56 791.069 198.514 839.554C194.149 799.87 165.956 727.836 123.878 717.552C75.6667 705.77 37.4918 751.236 17.5 784.661C16.2761 735.645 -32.7514 720.762 -69.9878 743.889C-111.372 651.013 -156.252 514.904 -273.727 587.781C-274.965 543.663 -310.121 550.275 -333.607 574.885C-329.65 507.952 -385.804 363.176 -451.205 336.158C-511.344 311.304 -581.07 336.947 -615.492 390.004C-643.739 350.783 -657.978 349.232 -698.383 371.203C-700.219 314.256 -820.686 267.621 -842.745 322.745V328.445H-840.651C-841.399 329.411 -842.052 330.431 -842.745 331.411V1131.84C-822.495 1153.28 -796.642 1168.43 -770.489 1185.92C-703.918 1230.4 -624.345 1219.8 -549.668 1207C-410.909 1183.2 -274.598 1144.4 -136.151 1118.15C-1.73013 1092.67 379.433 1102.85 394.339 907.67C401.125 818.767 375.136 821.8 308.442 843.404L308.455 843.39Z" fill="url(#paint1_linear_3_1412)"/>
<path style="mix-blend-mode:multiply" d="M2106.9 182.513C2063.56 177.765 1999.39 213.694 1998.05 255.146C1957.64 233.161 1943.4 234.726 1915.16 273.947C1880.74 220.89 1811.01 195.246 1750.87 220.101C1685.47 247.133 1629.31 391.895 1633.27 458.827C1609.78 434.217 1574.63 427.592 1573.39 471.724C1455.92 398.847 1411.04 534.956 1369.65 627.832C1332.43 604.705 1283.4 619.588 1282.16 668.604C1262.17 635.192 1224 589.727 1175.8 601.494C1133.72 611.779 1105.54 683.8 1101.16 723.497C1081.12 675.011 998.675 657.204 991.223 727.333C924.529 705.716 898.526 702.696 905.326 791.599C920.231 986.778 1301.39 976.602 1435.82 1002.08C1574.26 1028.33 1710.57 1067.12 1849.33 1090.93C1924.02 1103.75 2003.6 1114.33 2070.15 1069.85C2082.67 1061.48 2095.1 1053.66 2106.89 1045.41V182.513H2106.9Z" fill="url(#paint2_linear_3_1412)"/>
<path d="M151.812 1177.18C161.985 1161.9 396.065 510.36 716.641 520.535C1037.22 530.711 1301.83 1187.36 1301.83 1187.36L151.812 1177.18Z" fill="#A5D636"/>
<g style="mix-blend-mode:multiply" opacity="0.3">
<path d="M373.109 755.493C407.639 819.419 532.39 819.963 584.219 756.867C604.116 790.85 626.665 843.322 667.818 857.946C715.744 874.992 773.598 836.125 766.594 782.702C793.317 809.57 861.548 803.094 858.474 756.323C891.168 838.737 1010.79 825.99 1072.5 774.838C973.556 640.756 849.947 524.766 716.655 520.536C584.111 516.332 466.363 625.22 373.109 755.507V755.493Z" fill="#6AAD00"/>
</g>
<path d="M397.466 722.734C414.507 798.877 547.255 805.189 599.601 741.454C618.042 772.934 638.918 821.528 677.038 835.091C721.442 850.872 775.025 814.875 768.538 765.383C793.29 790.279 856.502 784.28 853.646 740.95C884.804 819.501 1001.22 804.74 1056.72 753.915C960.555 628.906 842.943 524.549 716.628 520.536C595.385 516.686 486.518 607.493 397.453 722.734H397.466Z" fill="#FDFDFD"/>
<path opacity="0.3" d="M397.466 722.734C414.507 798.877 547.255 805.189 599.601 741.454C618.042 772.934 638.918 821.528 677.038 835.091C721.442 850.872 775.025 814.875 768.538 765.383C793.29 790.279 856.502 784.28 853.646 740.95C884.804 819.501 1001.22 804.74 1056.72 753.915C960.555 628.906 842.943 524.549 716.628 520.536C595.385 516.686 486.518 607.493 397.453 722.734H397.466Z" fill="#54C2F7"/>
<path d="M1036.55 728.421C944.317 615.017 834.253 524.263 716.655 520.536C596.146 516.713 487.878 606.405 399.112 720.653C439.272 767.71 541.965 764.227 586.504 709.987C604.946 741.467 625.821 790.062 663.942 803.625C708.345 819.406 761.929 783.409 755.442 733.917C780.193 758.813 843.406 752.813 840.55 709.484C870.442 784.851 978.792 774.294 1036.55 728.435V728.421Z" fill="#FDFDFD"/>
<g style="mix-blend-mode:multiply" opacity="0.3">
<path d="M889.223 585.523C957.495 659.883 1045.83 795.245 1015.66 907.683C972.4 1068.99 740.359 1084.71 461.127 1041.44C321.13 1019.74 300.758 928.824 315.241 843.553C216.915 1005.7 156.858 1169.59 151.812 1177.17L1301.83 1187.34C1301.83 1187.34 1126.91 753.29 889.21 585.509L889.223 585.523Z" fill="#6AAD00"/>
</g>
<path d="M989.754 1270.32C1000.44 1254.26 1246.41 569.606 1583.28 580.312C1920.15 591.005 2198.2 1281.02 2198.2 1281.02L989.74 1270.32H989.754Z" fill="#B2E838"/>
<g style="mix-blend-mode:multiply" opacity="0.3">
<path d="M1446.94 837.377C1467.49 872.462 1490.76 926.62 1533.24 941.721C1582.72 959.311 1642.44 919.193 1635.22 864.041C1662.81 891.78 1733.24 885.1 1730.06 836.806C1764.78 924.335 1894.53 907.901 1956.38 851.267C1849.2 711.946 1718.13 595.644 1577.38 591.169C1496.63 588.597 1420.81 623.737 1351.7 679.813C1305.57 720.612 1262.81 770.907 1224.04 824.793C1250.52 901.752 1390.57 906.024 1446.94 837.391V837.377Z" fill="#6AAD00"/>
</g>
<path d="M1247.88 792.782C1265.79 872.802 1405.28 879.441 1460.28 812.454C1479.66 845.539 1501.6 896.596 1541.66 910.84C1588.31 927.423 1644.63 889.603 1637.8 837.595C1663.82 863.755 1730.23 857.457 1727.23 811.924C1759.97 894.46 1882.31 878.951 1940.63 825.555C1839.57 694.193 1715.99 584.53 1583.27 580.312C1455.86 576.258 1341.46 671.692 1247.87 792.782H1247.88Z" fill="#FDFDFD"/>
<g opacity="0.3">
<path opacity="0.3" d="M1247.88 792.782C1265.79 872.802 1405.28 879.441 1460.28 812.454C1479.66 845.539 1501.6 896.596 1541.66 910.84C1588.31 927.423 1644.63 889.603 1637.8 837.595C1663.82 863.755 1730.23 857.457 1727.23 811.924C1759.97 894.46 1882.31 878.951 1940.63 825.555C1839.57 694.193 1715.99 584.53 1583.27 580.312C1455.86 576.258 1341.46 671.692 1247.87 792.782H1247.88Z" fill="#54C2F7"/>
</g>
<path d="M1921.51 801.299C1824.16 680.942 1707.74 584.258 1583.28 580.312C1457.09 576.299 1343.68 669.896 1250.59 789.341C1291 841.744 1402.12 839.05 1449.8 780.988C1469.18 814.073 1491.11 865.129 1531.18 879.373C1577.83 895.957 1634.14 858.137 1627.32 806.128C1653.33 832.289 1719.74 825.99 1716.75 780.457C1747.96 859.13 1860.53 848.696 1921.49 801.299H1921.51Z" fill="#FDFDFD"/>
<g style="mix-blend-mode:multiply" opacity="0.3">
<path d="M1894.23 768.785C1878.72 981.418 1455.64 1148.26 1287.03 1080.78C1178.04 1037.17 1175.38 942.809 1194.66 867.347C1090.38 1024.82 1019.74 1198.85 997.166 1253.32C996.948 1259.23 997.03 1264.92 997.424 1270.38L2198.2 1281.02C2198.2 1281.02 2075.43 976.371 1894.23 768.798V768.785Z" fill="#6AAD00"/>
</g>
<path d="M-919 1334.88C-907.195 1317.18 -635.851 561.865 -264.208 573.673C107.422 585.482 414.181 1346.69 414.181 1346.69L-919 1334.88Z" fill="#92CA29"/>
<g style="mix-blend-mode:multiply" opacity="0.3">
<path d="M-660.616 843.485C-621.313 918.852 -475.21 919.859 -414.677 846.165C-391.543 885.672 -365.336 946.646 -317.506 963.651C-261.801 983.458 -194.563 938.293 -202.709 876.19C-171.647 907.425 -92.3463 899.902 -95.9231 845.526C-58.5235 939.789 76.6863 926.92 149.31 869.836C34.4452 713.824 -109.237 578.585 -264.208 573.673C-416.989 568.817 -552.797 693.608 -660.616 843.499V843.485Z" fill="#6AAD00"/>
</g>
<path d="M-634.219 808.073C-614.458 896.351 -460.576 903.67 -399.893 829.772C-378.528 866.272 -354.307 922.607 -310.121 938.32C-258.645 956.617 -196.535 914.893 -204.056 857.511C-175.36 886.365 -102.084 879.414 -105.389 829.187C-69.2673 920.24 65.6976 903.139 130.025 844.22C18.5469 699.294 -117.805 578.312 -264.221 573.673C-404.776 569.211 -530.983 674.48 -634.233 808.073H-634.219Z" fill="#FDFDFD"/>
<g style="mix-blend-mode:multiply" opacity="0.3">
<g style="mix-blend-mode:multiply" opacity="0.3">
<path d="M-634.219 808.073C-614.458 896.351 -460.576 903.67 -399.893 829.772C-378.528 866.272 -354.307 922.607 -310.121 938.32C-258.645 956.617 -196.535 914.893 -204.056 857.511C-175.36 886.365 -102.084 879.414 -105.389 829.187C-69.2673 920.24 65.6976 903.139 130.025 844.22C18.5469 699.294 -117.805 578.312 -264.221 573.673C-404.776 569.211 -530.983 674.48 -634.233 808.073H-634.219Z" fill="#54C2F7"/>
</g>
</g>
<path d="M103.682 811.053C-2.64145 681.283 -129.134 577.945 -264.208 573.66C-402.994 569.252 -527.759 671.855 -630.275 803.04C-582.05 854.545 -466.329 849.553 -415.615 787.803C-394.249 824.303 -370.028 880.638 -325.842 896.351C-274.367 914.649 -212.256 872.925 -219.777 815.542C-191.081 844.397 -117.805 837.445 -121.11 787.218C-86.8653 873.537 36.1726 862.626 103.696 811.053H103.682Z" fill="#FDFDFD"/>
<g style="mix-blend-mode:multiply" opacity="0.3">
<path d="M-651.627 831.133C-811.303 1047.85 -911.914 1324.26 -919 1334.88L411.134 1346.66C412.032 1346.39 412.943 1346.12 413.827 1345.86C406.266 1327.32 267.343 990.247 66.3507 767.587C117.337 903.534 121.144 1106.82 -132.738 1147.69C-417.682 1193.56 -598.968 922.934 -651.64 831.146L-651.627 831.133Z" fill="#6AAD00"/>
</g>
<path d="M-134.411 1181.47C-134.411 1181.47 42.5506 1210.98 207.735 1169.66C372.905 1128.36 608.876 957.23 945.105 1028.04C1281.35 1098.85 1481.92 1210.96 1481.92 1210.96C1481.92 1210.96 1127.98 1594.52 868.429 1606.33C608.876 1618.13 -329.066 1458.8 -134.397 1181.47H-134.411Z" fill="#6AAD00"/>
<g style="mix-blend-mode:multiply" opacity="0.3">
<path d="M943.813 1027.78C1243.58 1095.48 1193.83 1187.81 926.528 1302.41C651.226 1420.44 244.835 1244.71 202.879 1221.11C182.643 1209.72 217.921 1180.64 259.876 1153.58C241.761 1160 224.381 1165.5 207.735 1169.66C83.8806 1200.64 -46.5964 1191.79 -104.137 1185.43C-112.42 1189.44 -118.621 1193.47 -122.225 1197.49C-144.556 1222.46 -147.806 1269.13 -142.516 1315.44C-22.647 1509.14 654.109 1616.07 868.429 1606.31C1127.98 1594.5 1481.92 1210.95 1481.92 1210.95C1481.92 1210.95 1281.35 1098.84 945.105 1028.03C944.67 1027.93 944.248 1027.86 943.813 1027.77V1027.78Z" fill="#6AAD00"/>
</g>
<path d="M502.661 1476.5C125.129 1411.6 -110.829 951.325 -629.949 880.516C-705.456 870.217 -776.46 875.917 -842.746 893.236V1525.9C-175.347 1526.09 750.056 1519.03 502.661 1476.49V1476.5Z" fill="#439700"/>
<g style="mix-blend-mode:multiply" opacity="0.2">
<path d="M502.661 1476.5C328.093 1446.49 183.799 1331.94 27.7812 1210.47C71.532 1264.13 102.594 1319.4 79.6375 1349.62C29.8212 1415.19 -591.57 1354.85 -743.644 1121.43C-867.81 930.838 -640.652 899.371 -553.109 894.229C-578.052 888.733 -603.619 884.094 -629.962 880.502C-705.469 870.204 -776.474 875.904 -842.759 893.222V1525.88C-175.36 1526.08 750.042 1519.01 502.647 1476.47L502.661 1476.5Z" fill="#439700"/>
</g>
<path d="M2106.9 843.947C2048.9 833.323 1987.66 831.704 1923.37 841.812C1405.81 923.192 1179.29 1388.18 803.15 1460.79C561.848 1507.36 1443.66 1497 2106.9 1483.6V843.947Z" fill="#439700"/>
<g style="mix-blend-mode:multiply" opacity="0.2">
<path d="M1923.37 841.812C1912.12 843.581 1901.07 845.594 1890.09 847.716C2019.6 830.521 2164.41 914.322 2030.35 1074.23C1894.01 1236.84 1353.89 1386.33 1225.43 1362.73C1134.25 1345.98 1198.89 1257.91 1244.11 1208.17C1101.31 1323.98 966.307 1429.3 803.163 1460.78C561.861 1507.34 1443.68 1496.99 2106.91 1483.59V843.934C2048.91 833.31 1987.67 831.691 1923.38 841.799L1923.37 841.812Z" fill="#439700"/>
</g>
<path d="M16.4798 -109.378C26.8429 -112.562 36.6756 -107.61 42.6188 -100.195C47.3923 -128.819 66.4865 -159.55 87.2535 -117.894C86.5055 -143.28 100.717 -154.408 120.995 -139.457C119.703 -171.277 139.504 -213.641 172.81 -217.599C221.702 -223.408 229.875 -169.4 228.964 -132.709C264.5 -160.462 292.693 -108.453 271.953 -87.0673H258.748L258.517 -87.7475C257.905 -87.5026 257.252 -87.2986 256.626 -87.0673H9.80232C10.6183 -94.5224 12.6038 -102.644 16.4662 -109.378H16.4798ZM-18.227 251.745C-19.1246 246.058 -20.7022 240.549 -22.7421 234.93C-31.5548 237.923 -33.1053 232.073 -39.9596 242.222C-43.7404 223.992 -41.1428 197.451 -57.8162 187.479C-72.6537 178.609 -92.2919 191.846 -97.9222 208.103C-113.589 182.935 -128.876 160.787 -158.877 182.132C-180.337 122.124 -199.704 66.8368 -268.22 58.443C-299.676 54.593 -330.929 56.8921 -352.988 84.1957C-373.483 109.554 -403.538 163.127 -384.947 196.648C-405.034 187.438 -431.391 172.677 -454.048 186.037C-476.597 199.328 -476.216 232.332 -462.249 251.758H-18.2134L-18.227 251.745ZM1745.17 167.195C1759.98 146.584 1760.39 111.567 1736.45 97.4734C1712.41 83.2978 1684.43 98.9563 1663.14 108.724C1682.86 73.1628 1650.97 16.3245 1629.22 -10.5846C1605.8 -39.5479 1572.66 -41.9967 1539.28 -37.9018C1466.58 -29.0047 1446.03 29.6702 1423.26 93.3378C1391.44 70.6868 1375.21 94.1948 1358.58 120.9C1352.61 103.65 1331.78 89.6102 1316.03 99.0107C1298.35 109.595 1301.11 137.755 1297.08 157.101C1289.82 146.326 1288.16 152.543 1278.82 149.373C1276.66 155.318 1274.98 161.168 1274.03 167.208H1745.16L1745.17 167.195ZM1172.06 -124.261C1181.8 -137.797 1182.06 -160.802 1166.33 -170.066C1150.53 -179.385 1132.16 -169.087 1118.16 -162.666C1131.11 -186.024 1110.17 -223.368 1095.87 -241.039C1080.49 -260.072 1058.72 -261.677 1036.78 -258.983C989.019 -253.134 975.515 -214.593 960.568 -172.774C939.665 -187.657 929.003 -172.202 918.083 -154.666C914.166 -165.999 900.471 -175.222 890.121 -169.046C878.507 -162.094 880.316 -143.593 877.677 -130.886C872.904 -137.961 871.816 -133.879 865.669 -135.961C864.241 -132.056 863.153 -128.206 862.527 -124.248H1172.03L1172.06 -124.261ZM-312.827 -40.2145C-302.029 -55.2471 -301.73 -80.7686 -319.178 -91.0533C-336.709 -101.392 -357.095 -89.965 -372.639 -82.85C-358.264 -108.78 -381.506 -150.232 -397.364 -169.849C-414.432 -190.976 -438.612 -192.758 -462.942 -189.765C-515.955 -183.276 -530.942 -140.505 -547.534 -94.0735C-570.735 -110.589 -582.567 -93.4477 -594.684 -73.9801C-599.036 -86.5503 -614.241 -96.7943 -625.719 -89.9378C-638.625 -82.2242 -636.599 -61.6819 -639.537 -47.588C-644.827 -55.4376 -646.037 -50.9074 -652.851 -53.2337C-654.428 -48.894 -655.639 -44.6359 -656.332 -40.2281H-312.8L-312.827 -40.2145ZM1847.1 -59.0971C1847.44 -59.1243 1847.78 -59.1651 1848.12 -59.1923C1895.8 -63.7905 1943.62 -61.4778 1991.42 -59.0971H2121C2116.5 -66.9195 2113.71 -82.3875 2106.82 -86.251C2094.25 -93.298 2071.92 -78.6327 2060.59 -76.7417C2061.07 -91.9512 2049.05 -90.8221 2036.74 -89.8562C2040.71 -102.44 2035.58 -119.881 2021.55 -128.261C2000.25 -140.981 1981.78 -130.614 1964.01 -117.255C1959.9 -132.941 1942.27 -152.313 1929.27 -131.213C1924.12 -186.868 1906.1 -242.74 1841.44 -248.644C1799.76 -252.453 1760.92 -233.788 1733.67 -202.676C1699.97 -164.203 1706.4 -122.901 1702.45 -77.0002C1696.05 -90.7812 1670.13 -93.1892 1658.25 -83.8567C1648.54 -76.2248 1650.19 -67.7766 1653.89 -59.1243H1847.09L1847.1 -59.0971ZM-651.001 409.064C-650.784 409.036 -650.552 409.023 -650.321 408.996C-618.43 405.921 -586.456 407.458 -554.483 409.064H-467.825C-470.83 403.826 -472.694 393.487 -477.304 390.902C-485.709 386.195 -500.641 396.004 -508.216 397.269C-507.89 387.093 -515.941 387.855 -524.169 388.494C-521.517 380.073 -524.944 368.414 -534.328 362.809C-548.567 354.307 -560.916 361.231 -572.802 370.169C-575.549 359.68 -587.34 346.729 -596.031 360.837C-599.471 323.616 -611.534 286.245 -654.768 282.3C-682.648 279.756 -708.624 292.231 -726.848 313.045C-749.383 338.771 -745.085 366.387 -747.723 397.092C-752.007 387.882 -769.347 386.263 -777.29 392.507C-783.79 397.609 -782.675 403.268 -780.214 409.05H-651.001V409.064ZM1886.8 362.238C1887.02 362.211 1887.25 362.197 1887.48 362.17C1919.37 359.095 1951.35 360.633 1983.32 362.238H2069.98C2066.97 357 2065.11 346.661 2060.5 344.076C2052.09 339.356 2037.16 349.178 2029.59 350.443C2029.91 340.267 2021.86 341.029 2013.63 341.668C2016.28 333.247 2012.86 321.589 2003.47 315.984C1989.23 307.481 1976.89 314.406 1965 323.344C1962.25 312.855 1950.46 299.904 1941.77 314.011C1938.33 276.79 1926.27 239.419 1883.03 235.474C1855.15 232.93 1829.18 245.405 1810.95 266.22C1788.42 291.945 1792.72 319.575 1790.08 350.266C1785.79 341.056 1768.45 339.437 1760.51 345.682C1754.01 350.783 1755.13 356.443 1757.59 362.224H1886.8V362.238Z" fill="#FDFDFD"/>
<g style="mix-blend-mode:multiply" opacity="0.4">
<path style="mix-blend-mode:multiply" opacity="0.4" d="M1887.47 362.17C1913.13 359.694 1938.85 360.225 1964.58 361.354C1961.23 351.151 1950.09 339.846 1941.77 353.354C1938.33 316.133 1926.27 278.763 1883.03 274.818C1855.15 272.274 1829.18 284.749 1810.95 305.563C1795.31 323.412 1792.61 342.172 1791.52 362.238H1886.8C1887.02 362.211 1887.25 362.197 1887.48 362.17H1887.47Z" fill="url(#paint3_linear_3_1412)"/>
<path style="mix-blend-mode:multiply" opacity="0.4" d="M1629.23 28.7724C1605.81 -0.190923 1572.67 -2.63968 1539.3 1.45518C1466.59 10.3523 1446.04 69.0271 1423.28 132.695C1391.45 110.044 1375.23 133.552 1358.6 160.257C1352.63 143.007 1331.79 128.967 1316.04 138.368C1306.36 144.163 1302.82 155.223 1300.93 167.208H1745.19C1747.9 163.413 1750.15 159.128 1751.84 154.57C1748.78 147.387 1743.77 141.116 1736.48 136.817C1712.44 122.641 1684.46 138.3 1663.16 148.067C1669.84 136.014 1670.59 121.512 1667.82 106.561C1666.24 107.309 1664.67 108.03 1663.16 108.724C1664.57 106.194 1665.68 103.541 1666.59 100.807C1659.97 73.4077 1642.68 45.3695 1629.25 28.7588L1629.23 28.7724Z" fill="url(#paint4_linear_3_1412)"/>
</g>
<g style="mix-blend-mode:screen">
<path d="M1483.13 1268.93C1484.56 1259.88 1487.05 1251.14 1490.28 1242.24C1504.28 1246.99 1506.75 1237.69 1517.63 1253.82C1523.64 1224.87 1519.51 1182.69 1546 1166.86C1569.57 1152.78 1600.77 1173.8 1609.7 1199.63C1634.58 1159.66 1658.88 1124.47 1706.52 1158.38C1740.6 1063.07 1771.35 975.256 1880.2 961.924C1930.17 955.802 1979.8 959.461 2014.83 1002.83C2047.39 1043.1 2095.11 1128.19 2065.61 1181.43C2097.52 1166.8 2139.36 1143.36 2175.38 1164.57C2211.18 1185.69 2210.6 1238.1 2188.42 1268.96H1483.14L1483.13 1268.93Z" fill="#6AAD00"/>
</g>
<path d="M2188.39 1268.93C2204.57 1246.41 2209.18 1212.46 2196.62 1187.52C2195.64 1186.86 2194.74 1186.13 2193.71 1185.52C2157.71 1164.31 2115.85 1187.75 2083.94 1202.38C2089.6 1192.17 2092.4 1180.8 2093.03 1168.79C2083.37 1172.94 2074.12 1177.48 2065.58 1181.39C2093.22 1131.51 2053.09 1053.7 2021.14 1010.95C1987.24 979.759 1943.02 977.419 1898.52 982.874C1789.68 996.206 1758.92 1084.02 1724.84 1179.33C1677.2 1145.42 1652.91 1180.61 1628.02 1220.58C1624.88 1211.51 1618.95 1203.06 1611.61 1196.49C1610.97 1197.52 1610.32 1198.55 1609.66 1199.6C1608.79 1197.1 1607.66 1194.68 1606.41 1192.3C1593.57 1183.17 1577.7 1179.81 1564.31 1187.82C1539.56 1202.62 1541.54 1240.4 1537 1268.92H2188.35L2188.39 1268.93Z" fill="#6AAD00"/>
<path d="M2124.05 1268.93C2133.24 1245.71 2129.78 1215.83 2107.06 1202.45C2079.61 1186.27 2047.69 1204.15 2023.36 1215.3C2045.86 1174.71 2009.47 1109.81 1984.64 1079.11C1957.91 1046.04 1920.07 1043.25 1881.96 1047.92C1798.96 1058.09 1775.5 1125.05 1749.51 1197.74C1713.17 1171.88 1694.65 1198.72 1675.68 1229.21C1668.86 1209.51 1645.06 1193.48 1627.1 1204.21C1607.38 1216.01 1609.89 1246.93 1605.76 1268.94H2124.05V1268.93Z" fill="#439700"/>
<defs>
<linearGradient id="paint0_linear_3_1412" x1="638.582" y1="-275.4" x2="632.581" y2="462.912" gradientUnits="userSpaceOnUse">
<stop offset="0.07" stop-color="#00CAFF"/>
<stop offset="0.22" stop-color="#26D1FE"/>
<stop offset="0.49" stop-color="#63DCFC"/>
<stop offset="0.72" stop-color="#8FE4FB"/>
<stop offset="0.9" stop-color="#AAE9FB"/>
<stop offset="1" stop-color="#B5EBFB"/>
</linearGradient>
<linearGradient id="paint1_linear_3_1412" x1="-842.745" y1="758.106" x2="395.399" y2="758.106" gradientUnits="userSpaceOnUse">
<stop offset="0.07" stop-color="#00CAFF"/>
<stop offset="0.22" stop-color="#26D1FE"/>
<stop offset="0.49" stop-color="#63DCFC"/>
<stop offset="0.72" stop-color="#8FE4FB"/>
<stop offset="0.9" stop-color="#AAE9FB"/>
<stop offset="1" stop-color="#B5EBFB"/>
</linearGradient>
<linearGradient id="paint2_linear_3_1412" x1="2350.32" y1="491.423" x2="1105.55" y2="933.731" gradientUnits="userSpaceOnUse">
<stop offset="0.07" stop-color="#00CAFF"/>
<stop offset="0.22" stop-color="#26D1FE"/>
<stop offset="0.49" stop-color="#63DCFC"/>
<stop offset="0.72" stop-color="#8FE4FB"/>
<stop offset="0.9" stop-color="#AAE9FB"/>
<stop offset="1" stop-color="#B5EBFB"/>
</linearGradient>
<linearGradient id="paint3_linear_3_1412" x1="1791.51" y1="318.365" x2="1964.58" y2="318.365" gradientUnits="userSpaceOnUse">
<stop offset="0.07" stop-color="#00CAFF"/>
<stop offset="0.22" stop-color="#26D1FE"/>
<stop offset="0.49" stop-color="#63DCFC"/>
<stop offset="0.72" stop-color="#8FE4FB"/>
<stop offset="0.9" stop-color="#AAE9FB"/>
<stop offset="1" stop-color="#B5EBFB"/>
</linearGradient>
<linearGradient id="paint4_linear_3_1412" x1="1300.93" y1="83.5564" x2="1751.84" y2="83.5564" gradientUnits="userSpaceOnUse">
<stop offset="0.07" stop-color="#00CAFF"/>
<stop offset="0.22" stop-color="#26D1FE"/>
<stop offset="0.49" stop-color="#63DCFC"/>
<stop offset="0.72" stop-color="#8FE4FB"/>
<stop offset="0.9" stop-color="#AAE9FB"/>
<stop offset="1" stop-color="#B5EBFB"/>
</linearGradient>
</defs>
</svg>
