<svg width="141" height="140" viewBox="0 0 141 140" fill="none" xmlns="http://www.w3.org/2000/svg">
<rect x="6" y="5" width="135" height="135" rx="50" fill="#CBAF07"/>
<rect width="135" height="135" rx="50" fill="#EFCD01"/>
<path d="M70.4288 70.1352L45.4909 60.3999L47.0286 96.2705H40.3429L41.9475 58.9951L37 57.0676L70.4288 44L103.858 57.0676L70.4288 70.1352ZM70.4288 53.8007C68.5902 53.8007 67.0859 54.5194 67.0859 55.4342C67.0859 56.3489 68.5902 57.0676 70.4288 57.0676C72.2674 57.0676 73.7717 56.3489 73.7717 55.4342C73.7717 54.5194 72.2674 53.8007 70.4288 53.8007ZM70.4288 73.4021L89.0486 66.117C91.4221 69.1878 93.0601 72.8794 93.595 76.8977C92.5921 76.7671 91.5558 76.6691 90.4861 76.6691C81.9617 76.6691 74.5071 81.1447 70.4288 87.8092C68.3587 84.4141 65.422 81.6025 61.906 79.6497C58.3901 77.6969 54.4156 76.6698 50.3715 76.6691C49.3018 76.6691 48.2655 76.7671 47.2626 76.8977C47.7975 72.8794 49.4355 69.1878 51.809 66.117L70.4288 73.4021Z" fill="white"/>
</svg>
