<svg width="141" height="140" viewBox="0 0 141 140" fill="none" xmlns="http://www.w3.org/2000/svg">
<rect x="6" y="5" width="135" height="135" rx="50" fill="#C1A600"/>
<rect width="135" height="135" rx="50" fill="#EFCD01"/>
<path fill-rule="evenodd" clip-rule="evenodd" d="M88.8212 91.8213C90.6328 90.0097 90.6328 87.0725 88.8212 85.2609L74.0604 70.5001L89.6413 54.9192C91.4529 53.1076 91.4529 50.1704 89.6413 48.3588C87.8297 46.5472 84.8925 46.5472 83.0809 48.3588L67.5001 63.9397L51.9191 48.3587C50.1075 46.5471 47.1703 46.5471 45.3587 48.3587C43.5471 50.1703 43.5471 53.1075 45.3587 54.9191L60.9397 70.5001L46.1788 85.261C44.3672 87.0726 44.3672 90.0098 46.1788 91.8214C47.9904 93.633 50.9275 93.633 52.7391 91.8214L67.5001 77.0604L82.2609 91.8213C84.0725 93.6329 87.0096 93.6329 88.8212 91.8213Z" fill="white"/>
</svg>
