<svg width="141" height="140" viewBox="0 0 141 140" fill="none" xmlns="http://www.w3.org/2000/svg">
<rect x="6" y="5" width="135" height="135" rx="50" fill="#E02C3B"/>
<rect width="135" height="135" rx="50" fill="#FF4D4C"/>
<path d="M90.902 73.0778C88.9977 73.0778 87.4539 74.6216 87.4539 76.526V88C87.4539 90.4853 85.4392 92.5 82.9539 92.5H79.2912C76.8059 92.5 74.7912 90.4853 74.7912 88V82.1091C74.7912 79.0716 72.3287 76.6091 69.2912 76.6091H65.7088C62.6713 76.6091 60.2088 79.0716 60.2088 82.1091V88C60.2088 90.4853 58.1941 92.5 55.7088 92.5H52.0461C49.5608 92.5 47.5461 90.4853 47.5461 88V76.5221C47.5461 74.6199 46.0041 73.0778 44.1019 73.0778C41.925 73.0778 40.8341 70.4465 42.3724 68.9063L64.3516 46.9001C66.111 45.1385 68.9665 45.1403 70.7236 46.9043L92.6364 68.902C94.1741 70.4456 93.0808 73.0778 90.902 73.0778Z" fill="white" stroke="#E02C3B"/>
</svg>
