<svg width="141" height="140" viewBox="0 0 141 140" fill="none" xmlns="http://www.w3.org/2000/svg">
<rect x="6" y="5" width="135" height="135" rx="50" fill="#008EC3"/>
<rect width="135" height="135" rx="50" fill="#2AC1F9"/>
<path fill-rule="evenodd" clip-rule="evenodd" d="M73.6806 46.0909C73.2108 45.0589 71.8708 44.7858 71.0346 45.5516L56.0265 59.2959C55.1046 60.1402 53.8998 60.6085 52.6497 60.6085H49.2392C46.5509 60.6085 44.3438 62.7342 44.2428 65.4206L44 71.8756L44.2314 77.4818C44.3397 80.1059 46.4598 82.199 49.0852 82.2735L53.2373 82.3915C54.1095 82.3915 54.95 82.7182 55.5932 83.3073L71.0774 97.4876C71.851 98.1961 73.0981 97.8685 73.4236 96.8712C73.4686 96.7333 73.4926 96.5893 73.4947 96.4442L73.6882 82.9734C73.7219 80.6332 75.5498 78.6591 77.0922 76.8988C78.2545 75.5723 79.0665 73.7429 79.2542 71.7086C79.4544 69.5405 78.6206 67.6925 77.2587 66.3877C75.5887 64.7877 73.8305 62.9001 73.8305 60.5874V46.7823C73.8305 46.5438 73.7794 46.308 73.6806 46.0909ZM85.7797 49.159C85.7797 49.1287 85.8124 49.1099 85.8386 49.125C89.8794 51.4594 93.1636 54.7018 95.4407 58.6055C97.7288 62.5281 99 66.9514 99 71.6252C99 76.2989 97.7288 80.7223 95.4407 84.6449C93.689 87.6121 91.3001 90.2939 88.4177 92.4076C87.3294 93.2056 85.8468 93.0789 84.81 92.215L84.5436 91.993C84.4084 91.8803 84.2962 91.7428 84.2129 91.5879C83.859 90.9297 84.0987 90.113 84.7256 89.7062C87.5991 87.8417 89.9779 85.3543 91.6271 82.475C93.4915 79.22 94.5932 75.4643 94.5932 71.6252C94.5932 67.786 93.5763 64.0303 91.6271 60.7754C90.1322 58.2994 88.2014 56.0917 85.8348 54.3243C84.7882 53.5428 84.2341 52.226 84.5732 50.9646L84.6131 50.8161C84.7113 50.4507 84.8981 50.115 85.1569 49.8389L85.769 49.1858C85.7759 49.1786 85.7797 49.169 85.7797 49.159ZM81.9661 56.8084C81.9661 56.836 81.9805 56.8616 82.004 56.876C84.4446 58.3766 86.465 60.454 87.8983 62.8619C89.4237 65.4492 90.2712 68.4537 90.2712 71.5417C90.2712 74.6297 89.4237 77.6343 87.8983 80.2215C86.8031 82.0791 85.3584 83.7646 83.627 85.1235C82.4509 86.0466 80.7886 85.6764 79.8889 84.4822L79.6565 84.1737C79.5589 84.0441 79.4894 83.8957 79.4524 83.7378C79.3348 83.2359 79.5633 82.7207 79.993 82.4361C81.6996 81.3058 83.1298 79.8069 84.1695 78.0516C85.3559 76.132 85.9492 73.7951 85.9492 71.4583C85.9492 69.1214 85.3559 66.868 84.1695 64.8649C83.186 63.2045 81.9113 61.7735 80.2972 60.667C79.7426 60.2868 79.5355 59.5396 79.8729 58.958C79.9121 58.8905 79.9586 58.8266 80.0109 58.7687L81.8281 56.7553C81.8767 56.7015 81.9661 56.7359 81.9661 56.8084Z" fill="white"/>
</svg>
