<svg width="141" height="140" viewBox="0 0 141 140" fill="none" xmlns="http://www.w3.org/2000/svg">
    <rect x="6" y="5" width="135" height="135" rx="50" fill="#C1A600" />
    <rect width="135" height="135" rx="50" fill="#EFCD01" />
    <path d="M91.4286 65.4286C93.401 65.4286 95 67.0276 95 69C95 70.9724 93.401 72.5714 91.4286 72.5714H64.9007C60.4705 72.5714 58.2288 77.907 61.3296 81.0711L65.1443 84.9636C66.2565 86.0984 66.5326 87.8111 65.8334 89.2379C64.6947 91.5619 61.5997 92.0609 59.7883 90.2125L42.4297 72.4996C40.5244 70.5555 40.5244 67.4445 42.4297 65.5004L59.7883 47.7875C61.5997 45.9391 64.6947 46.4381 65.8334 48.7621C66.5326 50.1889 66.2565 51.9016 65.1443 53.0364L61.3297 56.9289C58.2288 60.093 60.4705 65.4286 64.9007 65.4286H91.4286Z" fill="white" />
</svg>
    