<svg width="72" height="46" viewBox="0 0 72 46" fill="none" xmlns="http://www.w3.org/2000/svg">
<rect width="72" height="46" rx="5" fill="#F55D5E"/>
<path d="M22.3904 19.483C22.8551 19.483 23.3084 19.551 23.7504 19.687C24.2037 19.8117 24.5947 20.0043 24.9234 20.265C25.2634 20.0383 25.6431 19.8513 26.0624 19.704C26.4931 19.5567 27.0087 19.483 27.6094 19.483C28.0401 19.483 28.4594 19.5397 28.8674 19.653C29.2867 19.7663 29.6551 19.9477 29.9724 20.197C30.3011 20.435 30.5617 20.758 30.7544 21.166C30.9471 21.5627 31.0434 22.05 31.0434 22.628V27.983C30.9301 28.017 30.7487 28.051 30.4994 28.085C30.2614 28.119 30.0121 28.136 29.7514 28.136C29.5021 28.136 29.2754 28.119 29.0714 28.085C28.8787 28.051 28.7144 27.983 28.5784 27.881C28.4424 27.779 28.3347 27.643 28.2554 27.473C28.1874 27.2917 28.1534 27.0593 28.1534 26.776V22.713C28.1534 22.373 28.0571 22.1293 27.8644 21.982C27.6717 21.8233 27.4111 21.744 27.0824 21.744C26.9237 21.744 26.7537 21.7837 26.5724 21.863C26.3911 21.931 26.2551 22.0047 26.1644 22.084C26.1757 22.1293 26.1814 22.1747 26.1814 22.22C26.1814 22.254 26.1814 22.288 26.1814 22.322V27.983C26.0567 28.017 25.8697 28.051 25.6204 28.085C25.3824 28.119 25.1387 28.136 24.8894 28.136C24.6401 28.136 24.4134 28.119 24.2094 28.085C24.0167 28.051 23.8524 27.983 23.7164 27.881C23.5804 27.779 23.4727 27.643 23.3934 27.473C23.3254 27.2917 23.2914 27.0593 23.2914 26.776V22.713C23.2914 22.373 23.1837 22.1293 22.9684 21.982C22.7644 21.8233 22.5151 21.744 22.2204 21.744C22.0164 21.744 21.8407 21.778 21.6934 21.846C21.5461 21.9027 21.4214 21.9593 21.3194 22.016V27.983C21.2061 28.017 21.0247 28.051 20.7754 28.085C20.5374 28.119 20.2881 28.136 20.0274 28.136C19.7781 28.136 19.5514 28.119 19.3474 28.085C19.1547 28.051 18.9904 27.983 18.8544 27.881C18.7184 27.779 18.6107 27.643 18.5314 27.473C18.4634 27.2917 18.4294 27.0593 18.4294 26.776V21.642C18.4294 21.336 18.4917 21.0923 18.6164 20.911C18.7524 20.7297 18.9337 20.5597 19.1604 20.401C19.5457 20.129 20.0217 19.908 20.5884 19.738C21.1664 19.568 21.7671 19.483 22.3904 19.483ZM32.7384 17.443C32.7384 17.0123 32.88 16.6497 33.1634 16.355C33.458 16.0603 33.8434 15.913 34.3194 15.913C34.7954 15.913 35.175 16.0603 35.4584 16.355C35.753 16.6497 35.9004 17.0123 35.9004 17.443C35.9004 17.8737 35.753 18.2363 35.4584 18.531C35.175 18.8257 34.7954 18.973 34.3194 18.973C33.8434 18.973 33.458 18.8257 33.1634 18.531C32.88 18.2363 32.7384 17.8737 32.7384 17.443ZM35.7644 27.983C35.6397 28.0057 35.4527 28.034 35.2034 28.068C34.9654 28.1133 34.7217 28.136 34.4724 28.136C34.223 28.136 33.9964 28.119 33.7924 28.085C33.5997 28.051 33.4354 27.983 33.2994 27.881C33.1634 27.779 33.0557 27.643 32.9764 27.473C32.9084 27.2917 32.8744 27.0593 32.8744 26.776V19.857C32.999 19.8343 33.1804 19.806 33.4184 19.772C33.6677 19.7267 33.917 19.704 34.1664 19.704C34.4157 19.704 34.6367 19.721 34.8294 19.755C35.0334 19.789 35.2034 19.857 35.3394 19.959C35.4754 20.061 35.5774 20.2027 35.6454 20.384C35.7247 20.554 35.7644 20.7807 35.7644 21.064V27.983ZM44.5742 25.535C44.5742 26.3963 44.2512 27.0707 43.6052 27.558C42.9592 28.0453 42.0072 28.289 40.7492 28.289C40.2732 28.289 39.8312 28.255 39.4232 28.187C39.0152 28.119 38.6639 28.017 38.3692 27.881C38.0859 27.7337 37.8592 27.5523 37.6892 27.337C37.5305 27.1217 37.4512 26.8667 37.4512 26.572C37.4512 26.3 37.5079 26.0733 37.6212 25.892C37.7345 25.6993 37.8705 25.5407 38.0292 25.416C38.3579 25.5973 38.7319 25.7617 39.1512 25.909C39.5819 26.045 40.0749 26.113 40.6302 26.113C40.9815 26.113 41.2479 26.062 41.4292 25.96C41.6219 25.858 41.7182 25.722 41.7182 25.552C41.7182 25.3933 41.6502 25.2687 41.5142 25.178C41.3782 25.0873 41.1515 25.0137 40.8342 24.957L40.3242 24.855C39.3382 24.6623 38.6015 24.362 38.1142 23.954C37.6382 23.5347 37.4002 22.9397 37.4002 22.169C37.4002 21.7497 37.4909 21.37 37.6722 21.03C37.8535 20.69 38.1085 20.4067 38.4372 20.18C38.7659 19.9533 39.1569 19.7777 39.6102 19.653C40.0749 19.5283 40.5849 19.466 41.1402 19.466C41.5595 19.466 41.9505 19.5 42.3132 19.568C42.6872 19.6247 43.0102 19.7153 43.2822 19.84C43.5542 19.9647 43.7695 20.129 43.9282 20.333C44.0869 20.5257 44.1662 20.758 44.1662 21.03C44.1662 21.2907 44.1152 21.5173 44.0132 21.71C43.9225 21.8913 43.8035 22.0443 43.6562 22.169C43.5655 22.1123 43.4295 22.0557 43.2482 21.999C43.0669 21.931 42.8685 21.8743 42.6532 21.829C42.4379 21.7723 42.2169 21.727 41.9902 21.693C41.7749 21.659 41.5765 21.642 41.3952 21.642C41.0212 21.642 40.7322 21.6873 40.5282 21.778C40.3242 21.8573 40.2222 21.9877 40.2222 22.169C40.2222 22.2937 40.2789 22.3957 40.3922 22.475C40.5055 22.5543 40.7209 22.628 41.0382 22.696L41.5652 22.815C42.6532 23.0643 43.4239 23.41 43.8772 23.852C44.3419 24.2827 44.5742 24.8437 44.5742 25.535ZM52.9414 25.535C52.9414 26.3963 52.6184 27.0707 51.9724 27.558C51.3264 28.0453 50.3744 28.289 49.1164 28.289C48.6404 28.289 48.1984 28.255 47.7904 28.187C47.3824 28.119 47.0311 28.017 46.7364 27.881C46.4531 27.7337 46.2264 27.5523 46.0564 27.337C45.8977 27.1217 45.8184 26.8667 45.8184 26.572C45.8184 26.3 45.8751 26.0733 45.9884 25.892C46.1017 25.6993 46.2377 25.5407 46.3964 25.416C46.7251 25.5973 47.0991 25.7617 47.5184 25.909C47.9491 26.045 48.4421 26.113 48.9974 26.113C49.3487 26.113 49.6151 26.062 49.7964 25.96C49.9891 25.858 50.0854 25.722 50.0854 25.552C50.0854 25.3933 50.0174 25.2687 49.8814 25.178C49.7454 25.0873 49.5187 25.0137 49.2014 24.957L48.6914 24.855C47.7054 24.6623 46.9687 24.362 46.4814 23.954C46.0054 23.5347 45.7674 22.9397 45.7674 22.169C45.7674 21.7497 45.8581 21.37 46.0394 21.03C46.2207 20.69 46.4757 20.4067 46.8044 20.18C47.1331 19.9533 47.5241 19.7777 47.9774 19.653C48.4421 19.5283 48.9521 19.466 49.5074 19.466C49.9267 19.466 50.3177 19.5 50.6804 19.568C51.0544 19.6247 51.3774 19.7153 51.6494 19.84C51.9214 19.9647 52.1367 20.129 52.2954 20.333C52.4541 20.5257 52.5334 20.758 52.5334 21.03C52.5334 21.2907 52.4824 21.5173 52.3804 21.71C52.2897 21.8913 52.1707 22.0443 52.0234 22.169C51.9327 22.1123 51.7967 22.0557 51.6154 21.999C51.4341 21.931 51.2357 21.8743 51.0204 21.829C50.8051 21.7723 50.5841 21.727 50.3574 21.693C50.1421 21.659 49.9437 21.642 49.7624 21.642C49.3884 21.642 49.0994 21.6873 48.8954 21.778C48.6914 21.8573 48.5894 21.9877 48.5894 22.169C48.5894 22.2937 48.6461 22.3957 48.7594 22.475C48.8727 22.5543 49.0881 22.628 49.4054 22.696L49.9324 22.815C51.0204 23.0643 51.7911 23.41 52.2444 23.852C52.7091 24.2827 52.9414 24.8437 52.9414 25.535Z" fill="white"/>
</svg>
