<svg width="538" height="698" viewBox="0 0 538 698" fill="none" xmlns="http://www.w3.org/2000/svg">
<g clip-path="url(#clip0_50_501)">
<path fill-rule="evenodd" clip-rule="evenodd" d="M123.984 84.2363C118.415 -5.1549 19.9254 -2.49621 4.51976 1.52137C-9.95535 38.1966 7.65111 118.607 96.1118 123.659C98.1205 123.777 124.087 85.7724 123.984 84.2215V84.2363Z" fill="#E8B4B5"/>
<path fill-rule="evenodd" clip-rule="evenodd" d="M103.157 84.9157C81.2822 38.2557 31.9929 11.8312 15.2579 21.2548C9.89625 35.597 55.2417 108.312 90.8682 110.203C92.5225 110.306 103.704 86.0678 103.157 84.901V84.9157Z" fill="#D18C8C"/>
<path fill-rule="evenodd" clip-rule="evenodd" d="M413.205 87.1904C418.774 -2.2008 517.264 0.457893 532.669 4.47547C547.144 41.1507 529.538 121.561 441.077 126.613C439.068 126.731 413.102 88.7265 413.205 87.1756V87.1904Z" fill="#E8B4B5"/>
<path fill-rule="evenodd" clip-rule="evenodd" d="M434.032 87.8698C455.907 41.2245 505.211 14.7853 521.931 24.2236C527.293 38.5658 481.947 111.281 446.321 113.172C444.666 113.275 433.485 89.0367 434.032 87.8698Z" fill="#D18C8C"/>
<path fill-rule="evenodd" clip-rule="evenodd" d="M172.032 400.768C129.464 426.543 81.6071 571.87 110.07 631.794C165.858 749.294 346.295 746.103 418.715 693.594C528.785 613.774 454.637 499.893 392.866 422.452C350.534 369.396 359.662 355.438 276.15 365.024C149.581 379.558 223.67 369.484 172.032 400.768Z" fill="#DCABAD"/>
<path d="M212.297 41.9187C115.048 51.3571 31.3874 165.843 26.6017 251.291C21.8161 336.738 63.9268 401.832 218.042 415.229C372.158 428.626 488.934 377.904 503.291 301.319C517.648 224.748 478.402 16.0703 212.297 41.9187Z" fill="#E8B4B5"/>
<path fill-rule="evenodd" clip-rule="evenodd" d="M109.006 245.575C155.548 295.913 223.375 224.482 182.224 180.717C135.062 130.586 61.534 194.218 109.006 245.575Z" fill="white"/>
<path fill-rule="evenodd" clip-rule="evenodd" d="M129.183 225.221C162.358 261.098 210.701 210.199 181.352 178.989C147.749 143.259 95.3289 188.62 129.183 225.221Z" fill="#765858"/>
<path fill-rule="evenodd" clip-rule="evenodd" d="M154.426 200.569C165.873 212.961 182.578 195.384 172.446 184.602C160.836 172.269 142.742 187.94 154.426 200.569Z" fill="white"/>
<path fill-rule="evenodd" clip-rule="evenodd" d="M336.96 265.722C383.487 316.06 451.328 244.629 410.148 200.849C362.985 150.718 289.458 214.35 336.96 265.722Z" fill="white"/>
<path fill-rule="evenodd" clip-rule="evenodd" d="M357.136 245.353C390.311 281.245 438.655 230.331 409.306 199.121C375.688 163.391 323.282 208.752 357.136 245.353Z" fill="#765858"/>
<path fill-rule="evenodd" clip-rule="evenodd" d="M382.364 220.716C393.812 233.108 410.532 215.517 400.384 204.749C388.775 192.401 370.681 208.072 382.364 220.716Z" fill="white"/>
<path fill-rule="evenodd" clip-rule="evenodd" d="M429.246 145.726C416.278 113.26 369.957 123.555 381.685 138.976C401.832 165.43 432.732 154.47 429.246 145.726Z" fill="#694E4E"/>
<path fill-rule="evenodd" clip-rule="evenodd" d="M403.087 303.741C421.491 319.309 448.33 297.212 432.038 283.668C413.397 268.159 384.314 287.848 403.087 303.741Z" fill="#EF99B0"/>
<path fill-rule="evenodd" clip-rule="evenodd" d="M59.924 283.387C78.328 298.97 105.166 276.859 88.8742 263.314C70.219 247.805 41.1359 267.494 59.924 283.387Z" fill="#EF99B0"/>
<path fill-rule="evenodd" clip-rule="evenodd" d="M144.485 136.125C124.456 154.706 95.6391 134.958 113.364 118.77C133.673 100.218 164.928 117.175 144.485 136.125Z" fill="#765858"/>
<path d="M255.781 351.036C296.087 351.036 328.762 326.211 328.762 295.588C328.762 264.964 296.087 240.139 255.781 240.139C215.475 240.139 182.8 264.964 182.8 295.588C182.8 326.211 215.475 351.036 255.781 351.036Z" fill="#CC8787"/>
<path d="M224.571 322.485C233.667 322.485 241.04 311.064 241.04 296.976C241.04 282.888 233.667 271.467 224.571 271.467C215.475 271.467 208.102 282.888 208.102 296.976C208.102 311.064 215.475 322.485 224.571 322.485Z" fill="#694E4E"/>
<path d="M285.174 321.096C294.27 321.096 301.644 309.676 301.644 295.588C301.644 281.5 294.27 270.079 285.174 270.079C276.079 270.079 268.705 281.5 268.705 295.588C268.705 309.676 276.079 321.096 285.174 321.096Z" fill="#694E4E"/>
<path fill-rule="evenodd" clip-rule="evenodd" d="M378.022 389.499C384.816 377.697 413.663 373.93 420.945 387.593C450.767 443.529 400.99 487.486 360.046 498.564C319.102 509.642 288.572 499.391 282.855 483.705C279.695 475.005 277.213 463.115 301.378 455.877C317.95 450.929 338.895 453.086 348.702 446.631C358.141 440.398 359.736 421.27 378.022 389.499Z" fill="#E8B4B5"/>
<path fill-rule="evenodd" clip-rule="evenodd" d="M160.629 398.922C126.332 382.379 96.4219 471.445 154.101 496.821C211.735 522.182 245.205 464.37 195.237 455.656C171.678 451.535 164.972 417.858 160.629 398.922Z" fill="#E8B4B5"/>
<path fill-rule="evenodd" clip-rule="evenodd" d="M150.379 740.136C160.851 771.302 183.893 774.787 201.529 772.409C232.532 768.229 239.002 739.589 221.085 735.114C205.842 731.303 205.31 736.591 201.632 736.812C199.431 736.931 207.585 708.483 199.609 702.855C196.212 700.462 141.841 676.106 141.073 676.061C139.079 675.987 149.123 736.414 150.364 740.136H150.379Z" fill="#DCABAD"/>
<path fill-rule="evenodd" clip-rule="evenodd" d="M451.047 719.221C449.999 752.026 423.633 765.083 406.012 767.712C375.068 772.336 360.593 746.664 376.486 737.389C390.001 729.486 397.091 736.916 395.628 733.607C376.146 689.222 392.128 663.314 402.068 658.307C457.975 630.11 451.933 691.305 451.032 719.221H451.047Z" fill="#DCABAD"/>
<path fill-rule="evenodd" clip-rule="evenodd" d="M210.406 543.378C170.319 586.892 163.436 635.812 176.803 664.88C210.613 738.378 329.397 735.542 386.81 696.962C431.624 666.859 403.841 584.602 382.719 558.134C340.298 504.974 257.051 492.744 210.406 543.378Z" fill="#CC8787"/>
<path fill-rule="evenodd" clip-rule="evenodd" d="M289.532 686.991C288.321 688.291 288.114 689.754 288.527 690.64C289.532 692.841 293.121 692.767 294.834 691.6C296.178 690.699 295.351 688.217 294.716 687.435C293.446 685.839 290.935 685.47 289.532 686.991Z" fill="#DCABAD"/>
<path fill-rule="evenodd" clip-rule="evenodd" d="M500.336 607.024C498.83 604.602 496.954 602.726 494.842 601.352C494.133 600.481 493.247 599.668 492.139 598.974C485.212 594.602 476.763 592.165 468.58 593.479C460.559 594.764 455.286 600.156 451.431 607.024C446.897 615.089 446.631 623.774 452.982 630.923C458.196 636.787 466.689 640.967 474.473 641.676C484.104 642.547 489.598 636.048 494.96 629.017C499.805 622.651 505.329 615.074 500.351 607.054L500.336 607.024Z" fill="#DCABAD"/>
<path d="M196.341 39.2246C207.393 37.6243 226.385 35.6578 234.499 34.8747L318.022 62.2016C305.142 63.7953 273.47 66.4828 249.817 64.4828C220.251 61.9829 195.29 58.8162 185.991 53.2911C176.692 47.7661 182.526 41.2251 196.341 39.2246Z" fill="#F2645D" stroke="#F2645D"/>
<path fill-rule="evenodd" clip-rule="evenodd" d="M270.387 11.7073C270.415 11.696 270.442 11.6847 270.47 11.6733C276.56 9.77663 302.707 9.46172 321.204 16.6795C334.362 21.8138 341.234 26.836 343.192 30.8592C343.462 31.1085 343.692 31.3568 343.88 31.6039C351.137 41.1317 351.957 59.9097 340.876 62.0568C329.794 64.2039 296.03 63.3065 264.479 55.217C239.238 48.7453 231.098 38.6523 229.463 35.0614L270.015 11.6489C270.138 11.6682 270.262 11.6877 270.387 11.7073Z" fill="#F59288"/>
</g>
<defs>
<clipPath id="clip0_50_501">
<rect width="537.189" height="773" fill="white"/>
</clipPath>
</defs>
</svg>
