<svg width="360" height="518" viewBox="0 0 360 518" fill="none" xmlns="http://www.w3.org/2000/svg">
<g clip-path="url(#clip0_50_538)">
<path fill-rule="evenodd" clip-rule="evenodd" d="M83.0835 56.4481C79.352 -3.45439 13.3524 -1.67275 3.02878 1.01949C-6.67122 25.5961 5.12715 79.4806 64.406 82.8657C65.7522 82.9449 83.1528 57.4775 83.0835 56.4382V56.4481Z" fill="#E8B4B5"/>
<path fill-rule="evenodd" clip-rule="evenodd" d="M69.1274 56.9034C54.4685 25.6357 21.439 7.92826 10.2246 14.2432C6.63167 23.8541 37.0184 72.5818 60.8923 73.8487C62.0009 73.918 69.4936 57.6754 69.1274 56.8935V56.9034Z" fill="#D18C8C"/>
<path fill-rule="evenodd" clip-rule="evenodd" d="M276.896 58.4277C280.627 -1.47481 346.627 0.306829 356.95 2.99907C366.65 27.5757 354.852 81.4602 295.573 84.8453C294.227 84.9245 276.826 59.4571 276.896 58.4178V58.4277Z" fill="#E8B4B5"/>
<path fill-rule="evenodd" clip-rule="evenodd" d="M290.852 58.883C305.511 27.6252 338.55 9.90785 349.754 16.2326C353.347 25.8436 322.961 74.5712 299.087 75.8382C297.978 75.9075 290.485 59.6649 290.852 58.883Z" fill="#D18C8C"/>
<path fill-rule="evenodd" clip-rule="evenodd" d="M115.282 268.561C86.7556 285.833 54.6862 383.219 73.7596 423.375C111.144 502.114 232.058 499.976 280.587 464.789C354.347 411.3 304.659 334.987 263.266 283.092C234.898 247.538 241.015 238.185 185.052 244.608C100.237 254.348 149.885 247.598 115.282 268.561Z" fill="#DCABAD"/>
<path d="M142.263 28.0904C77.0952 34.4152 21.0332 111.134 17.8262 168.394C14.6193 225.654 42.8384 269.274 146.114 278.251C249.389 287.229 327.642 253.239 337.263 201.918C346.884 150.607 320.585 10.769 142.263 28.0904Z" fill="#E8B4B5"/>
<path fill-rule="evenodd" clip-rule="evenodd" d="M73.047 164.564C104.235 198.296 149.687 150.429 122.111 121.102C90.507 87.5079 41.2349 130.148 73.047 164.564Z" fill="white"/>
<path fill-rule="evenodd" clip-rule="evenodd" d="M86.5676 150.924C108.798 174.966 141.194 140.858 121.527 119.944C99.0093 96.0004 63.8814 126.397 86.5676 150.924Z" fill="#765858"/>
<path fill-rule="evenodd" clip-rule="evenodd" d="M103.483 134.404C111.154 142.709 122.349 130.93 115.559 123.705C107.779 115.44 95.6539 125.942 103.483 134.404Z" fill="white"/>
<path fill-rule="evenodd" clip-rule="evenodd" d="M225.802 178.064C256.981 211.797 302.442 163.93 274.847 134.592C243.242 100.999 193.97 143.639 225.802 178.064Z" fill="white"/>
<path fill-rule="evenodd" clip-rule="evenodd" d="M239.323 164.415C261.554 188.467 293.95 154.349 274.282 133.434C251.755 109.491 216.637 139.888 239.323 164.415Z" fill="#765858"/>
<path fill-rule="evenodd" clip-rule="evenodd" d="M256.229 147.905C263.899 156.21 275.104 144.421 268.304 137.206C260.524 128.931 248.399 139.433 256.229 147.905Z" fill="white"/>
<path fill-rule="evenodd" clip-rule="evenodd" d="M287.645 97.6533C278.954 75.8976 247.914 82.7965 255.773 93.1299C269.274 110.857 289.981 103.513 287.645 97.6533Z" fill="#694E4E"/>
<path fill-rule="evenodd" clip-rule="evenodd" d="M270.115 203.542C282.448 213.974 300.433 199.167 289.515 190.09C277.024 179.698 257.535 192.891 270.115 203.542Z" fill="#EF99B0"/>
<path fill-rule="evenodd" clip-rule="evenodd" d="M40.156 189.902C52.4889 200.345 70.4735 185.527 59.556 176.451C47.0549 166.058 27.5658 179.252 40.156 189.902Z" fill="#EF99B0"/>
<path fill-rule="evenodd" clip-rule="evenodd" d="M96.8219 91.2196C83.4002 103.671 64.0893 90.4377 75.9669 79.5895C89.5766 67.1577 110.521 78.5205 96.8219 91.2196Z" fill="#765858"/>
<path d="M171.403 235.235C198.413 235.235 220.309 218.599 220.309 198.078C220.309 177.557 198.413 160.921 171.403 160.921C144.393 160.921 122.497 177.557 122.497 198.078C122.497 218.599 144.393 235.235 171.403 235.235Z" fill="#CC8787"/>
<path d="M150.489 216.102C156.584 216.102 161.525 208.449 161.525 199.008C161.525 189.568 156.584 181.915 150.489 181.915C144.393 181.915 139.452 189.568 139.452 199.008C139.452 208.449 144.393 216.102 150.489 216.102Z" fill="#694E4E"/>
<path d="M191.1 215.172C197.195 215.172 202.136 207.519 202.136 198.078C202.136 188.637 197.195 180.984 191.1 180.984C185.005 180.984 180.064 188.637 180.064 198.078C180.064 207.519 185.005 215.172 191.1 215.172Z" fill="#694E4E"/>
<path fill-rule="evenodd" clip-rule="evenodd" d="M253.319 261.009C257.872 253.101 277.202 250.577 282.082 259.732C302.066 297.216 268.71 326.672 241.273 334.096C213.836 341.519 193.376 334.65 189.546 324.138C187.428 318.309 185.765 310.341 201.958 305.491C213.064 302.175 227.099 303.62 233.671 299.295C239.996 295.118 241.065 282.3 253.319 261.009Z" fill="#E8B4B5"/>
<path fill-rule="evenodd" clip-rule="evenodd" d="M107.64 267.324C84.6573 256.238 64.6139 315.923 103.265 332.928C141.887 349.923 164.316 311.182 130.831 305.342C115.044 302.581 110.55 280.013 107.64 267.324Z" fill="#E8B4B5"/>
<path fill-rule="evenodd" clip-rule="evenodd" d="M100.771 495.977C107.789 516.862 123.23 519.198 135.048 517.604C155.824 514.803 160.159 495.611 148.153 492.612C137.938 490.058 137.582 493.601 135.117 493.75C133.642 493.829 139.106 474.766 133.761 470.995C131.485 469.391 95.0501 453.069 94.5354 453.04C93.1992 452.99 99.9298 493.483 100.761 495.977H100.771Z" fill="#DCABAD"/>
<path fill-rule="evenodd" clip-rule="evenodd" d="M302.254 481.961C301.551 503.945 283.883 512.695 272.075 514.456C251.339 517.555 241.639 500.352 252.289 494.136C261.346 488.841 266.097 493.819 265.117 491.602C252.062 461.859 262.771 444.498 269.432 441.142C306.896 422.247 302.848 463.254 302.244 481.961H302.254Z" fill="#DCABAD"/>
<path fill-rule="evenodd" clip-rule="evenodd" d="M140.996 364.126C114.133 393.286 109.521 426.068 118.479 445.547C141.135 494.799 220.734 492.899 259.208 467.045C289.238 446.873 270.62 391.751 256.466 374.014C228.039 338.392 172.254 330.196 140.996 364.126Z" fill="#CC8787"/>
<path fill-rule="evenodd" clip-rule="evenodd" d="M194.02 460.364C193.208 461.235 193.07 462.215 193.347 462.809C194.02 464.284 196.425 464.234 197.573 463.452C198.474 462.848 197.92 461.186 197.494 460.661C196.643 459.592 194.96 459.345 194.02 460.364Z" fill="#DCABAD"/>
<path fill-rule="evenodd" clip-rule="evenodd" d="M335.284 406.777C334.274 405.153 333.017 403.896 331.602 402.976C331.126 402.392 330.533 401.847 329.79 401.382C325.148 398.452 319.486 396.819 314.003 397.7C308.628 398.561 305.095 402.174 302.511 406.777C299.473 412.181 299.295 418.001 303.551 422.792C307.045 426.721 312.736 429.522 317.952 429.997C324.406 430.581 328.088 426.226 331.681 421.515C334.927 417.249 338.629 412.171 335.294 406.796L335.284 406.777Z" fill="#DCABAD"/>
<path d="M125.327 28.6459C134.1 26.8914 149.209 24.5032 155.667 23.5285L223.656 41.8052C213.421 43.6328 188.199 47.142 169.191 46.5571C145.432 45.826 125.327 44.3639 117.651 40.343C109.975 36.3222 114.361 30.8392 125.327 28.6459Z" fill="#F5C86A"/>
<path fill-rule="evenodd" clip-rule="evenodd" d="M183.382 3.4549C183.404 3.44465 183.425 3.43439 183.447 3.42413C188.238 1.64546 209.141 0.271463 224.248 5.25172C234.995 8.79444 240.707 12.5172 242.447 15.6516C242.673 15.8395 242.868 16.0283 243.029 16.2178C249.243 23.5285 250.706 38.5154 241.933 40.7086C233.16 42.9018 206.11 43.6329 180.523 38.5154C160.053 34.4214 153.108 26.6965 151.646 23.894L183.082 3.42413C183.181 3.43428 183.281 3.44454 183.382 3.4549Z" fill="#FED592"/>
</g>
<defs>
<clipPath id="clip0_50_538">
<rect width="359.979" height="518" fill="white"/>
</clipPath>
</defs>
</svg>
