<svg width="308" height="452" viewBox="0 0 308 452" fill="none" xmlns="http://www.w3.org/2000/svg">
<g clip-path="url(#clip0_50_575)">
<path fill-rule="evenodd" clip-rule="evenodd" d="M71.0438 57.0191C67.853 5.79711 11.4174 7.32057 2.58985 9.62268C-5.70453 30.6379 4.38414 76.714 55.0729 79.6086C56.224 79.6763 71.1031 57.8993 71.0438 57.0106V57.0191Z" fill="#E8B4B5"/>
<path fill-rule="evenodd" clip-rule="evenodd" d="M59.1101 57.4084C46.5754 30.6718 18.3323 15.5303 8.74295 20.9301C5.67064 29.1483 31.654 70.8148 52.0683 71.8982C53.0163 71.9574 59.4233 58.0686 59.1101 57.4V57.4084Z" fill="#D18C8C"/>
<path fill-rule="evenodd" clip-rule="evenodd" d="M236.77 58.7118C239.961 7.48986 296.397 9.01332 305.224 11.3154C313.519 32.3307 303.43 78.4067 252.741 81.3013C251.59 81.369 236.711 59.5921 236.77 58.7034V58.7118Z" fill="#E8B4B5"/>
<path fill-rule="evenodd" clip-rule="evenodd" d="M248.704 59.1012C261.239 32.373 289.49 17.223 299.071 22.6313C302.144 30.8495 276.16 72.516 255.746 73.5994C254.798 73.6586 248.391 59.7698 248.704 59.1012Z" fill="#D18C8C"/>
<path fill-rule="evenodd" clip-rule="evenodd" d="M98.5761 238.395C74.1839 253.164 46.7616 336.438 63.0711 370.775C95.0383 438.103 198.43 436.275 239.927 406.187C302.999 360.449 260.511 295.195 225.116 250.82C200.859 220.418 206.09 212.42 158.236 217.913C85.7113 226.241 128.165 220.469 98.5761 238.395Z" fill="#DCABAD"/>
<path d="M121.648 32.7708C65.9233 38.179 17.9852 103.781 15.243 152.743C12.5008 201.705 36.6307 239.004 124.94 246.681C213.25 254.357 280.164 225.293 288.39 181.409C296.617 137.534 274.129 17.9594 121.648 32.7708Z" fill="#E8B4B5"/>
<path fill-rule="evenodd" clip-rule="evenodd" d="M62.4617 149.468C89.1306 178.312 127.996 137.381 104.416 112.304C77.3916 83.578 35.2595 120.039 62.4617 149.468Z" fill="white"/>
<path fill-rule="evenodd" clip-rule="evenodd" d="M74.023 137.805C93.0324 158.363 120.734 129.197 103.917 111.313C84.6618 90.8398 54.6244 116.832 74.023 137.805Z" fill="#765858"/>
<path fill-rule="evenodd" clip-rule="evenodd" d="M88.4874 123.679C95.0467 130.78 104.619 120.708 98.813 114.53C92.1606 107.462 81.7927 116.442 88.4874 123.679Z" fill="white"/>
<path fill-rule="evenodd" clip-rule="evenodd" d="M193.081 161.012C219.742 189.856 258.615 148.926 235.018 123.84C207.994 95.114 165.862 131.575 193.081 161.012Z" fill="white"/>
<path fill-rule="evenodd" clip-rule="evenodd" d="M204.642 149.341C223.652 169.907 251.353 140.733 234.536 122.849C215.273 102.376 185.244 128.368 204.642 149.341Z" fill="#765858"/>
<path fill-rule="evenodd" clip-rule="evenodd" d="M219.098 135.223C225.658 142.324 235.239 132.244 229.424 126.074C222.772 118.998 212.404 127.978 219.098 135.223Z" fill="white"/>
<path fill-rule="evenodd" clip-rule="evenodd" d="M245.962 92.2533C238.531 73.6502 211.989 79.5493 218.709 88.3854C230.253 103.544 247.959 97.2637 245.962 92.2533Z" fill="#694E4E"/>
<path fill-rule="evenodd" clip-rule="evenodd" d="M230.973 182.797C241.519 191.718 256.897 179.056 247.562 171.295C236.88 162.408 220.216 173.69 230.973 182.797Z" fill="#EF99B0"/>
<path fill-rule="evenodd" clip-rule="evenodd" d="M34.337 171.134C44.8827 180.064 60.2612 167.393 50.9258 159.632C40.2362 150.746 23.5712 162.028 34.337 171.134Z" fill="#EF99B0"/>
<path fill-rule="evenodd" clip-rule="evenodd" d="M82.7914 86.7519C71.3147 97.3992 54.8021 86.0833 64.9585 76.8071C76.596 66.1768 94.5051 75.893 82.7914 86.7519Z" fill="#765858"/>
<path d="M146.565 209.898C169.661 209.898 188.384 195.673 188.384 178.125C188.384 160.578 169.661 146.353 146.565 146.353C123.469 146.353 104.746 160.578 104.746 178.125C104.746 195.673 123.469 209.898 146.565 209.898Z" fill="#CC8787"/>
<path d="M128.681 193.538C133.893 193.538 138.118 186.994 138.118 178.921C138.118 170.848 133.893 164.304 128.681 164.304C123.469 164.304 119.244 170.848 119.244 178.921C119.244 186.994 123.469 193.538 128.681 193.538Z" fill="#694E4E"/>
<path d="M163.408 192.742C168.619 192.742 172.845 186.198 172.845 178.125C172.845 170.053 168.619 163.509 163.408 163.509C158.196 163.509 153.971 170.053 153.971 178.125C153.971 186.198 158.196 192.742 163.408 192.742Z" fill="#694E4E"/>
<path fill-rule="evenodd" clip-rule="evenodd" d="M216.61 231.937C220.503 225.175 237.033 223.017 241.205 230.845C258.293 262.897 229.771 288.085 206.31 294.433C182.849 300.781 165.354 294.907 162.079 285.918C160.268 280.933 158.846 274.12 172.692 269.973C182.188 267.138 194.19 268.373 199.81 264.675C205.218 261.103 206.132 250.143 216.61 231.937Z" fill="#E8B4B5"/>
<path fill-rule="evenodd" clip-rule="evenodd" d="M92.0421 237.337C72.3896 227.858 55.2507 278.894 88.3012 293.434C121.326 307.966 140.505 274.839 111.872 269.846C98.3729 267.485 94.5305 248.187 92.0421 237.337Z" fill="#E8B4B5"/>
<path fill-rule="evenodd" clip-rule="evenodd" d="M86.1684 432.856C92.1691 450.714 105.372 452.711 115.478 451.349C133.243 448.954 136.95 432.543 126.684 429.978C117.949 427.794 117.645 430.824 115.537 430.951C114.276 431.019 118.948 414.718 114.378 411.493C112.431 410.122 81.2764 396.166 80.8363 396.14C79.6937 396.098 85.449 430.723 86.1599 432.856H86.1684Z" fill="#DCABAD"/>
<path fill-rule="evenodd" clip-rule="evenodd" d="M258.454 420.871C257.853 439.669 242.746 447.151 232.649 448.657C214.917 451.306 206.623 436.597 215.73 431.282C223.474 426.753 227.537 431.011 226.699 429.115C215.535 403.682 224.693 388.836 230.389 385.967C262.424 369.81 258.962 404.875 258.446 420.871H258.454Z" fill="#DCABAD"/>
<path fill-rule="evenodd" clip-rule="evenodd" d="M120.565 320.112C97.5943 345.045 93.6502 373.077 101.31 389.733C120.683 431.849 188.748 430.224 221.646 408.117C247.325 390.868 231.405 343.734 219.301 328.567C194.994 298.106 147.293 291.098 120.565 320.112Z" fill="#CC8787"/>
<path fill-rule="evenodd" clip-rule="evenodd" d="M165.904 402.403C165.21 403.148 165.092 403.986 165.329 404.494C165.904 405.755 167.961 405.713 168.943 405.044C169.713 404.528 169.239 403.106 168.875 402.657C168.147 401.743 166.708 401.532 165.904 402.403Z" fill="#DCABAD"/>
<path fill-rule="evenodd" clip-rule="evenodd" d="M286.698 356.581C285.834 355.193 284.759 354.118 283.549 353.331C283.143 352.832 282.635 352.366 282 351.969C278.031 349.463 273.19 348.067 268.501 348.82C263.905 349.556 260.883 352.646 258.674 356.581C256.076 361.202 255.924 366.179 259.563 370.275C262.551 373.636 267.417 376.031 271.878 376.437C277.396 376.936 280.544 373.212 283.617 369.184C286.393 365.536 289.558 361.194 286.706 356.598L286.698 356.581Z" fill="#DCABAD"/>
</g>
<path d="M98.5454 29.3736C108.01 28.0906 124.267 26.556 131.212 25.949L202.429 49.966C191.403 51.2292 164.296 53.2822 144.083 51.3887C118.817 49.0218 97.4948 46.1202 89.585 41.3232C81.6752 36.5261 86.7151 30.9774 98.5454 29.3736Z" fill="#6C5731"/>
<path fill-rule="evenodd" clip-rule="evenodd" d="M162.082 6.41414C162.106 6.40464 162.13 6.39515 162.154 6.38566C167.377 4.81075 189.74 4.74393 205.503 11.0598C216.717 15.5528 222.554 19.9011 224.197 23.357C224.426 23.5723 224.621 23.7863 224.78 23.9989C230.912 32.2033 231.468 48.2688 221.975 50.0192C212.481 51.7695 183.613 50.7406 156.693 43.578C135.157 37.848 128.274 29.1533 126.903 26.0697L161.764 6.36127C161.87 6.37875 161.976 6.39637 162.082 6.41414Z" fill="#806842"/>
<defs>
<clipPath id="clip0_50_575">
<rect width="307.814" height="442.936" fill="white" transform="translate(0 8.75095)"/>
</clipPath>
</defs>
</svg>
