<svg width="228" height="144" viewBox="0 0 228 144" fill="none" xmlns="http://www.w3.org/2000/svg">
<path d="M0.283355 60.9812C3.27963 10.6363 28.2486 0 108.649 0C204.529 0 228 21.9816 228 70.9083C228 119.835 179.061 145.362 98.1616 143.944C17.2622 142.526 -2.71292 111.326 0.283355 60.9812Z" fill="#EFCD01"/>
<path d="M26.1943 43.79C26.451 43.7433 26.8593 43.685 27.4193 43.615C27.9793 43.5217 28.516 43.475 29.0293 43.475C29.566 43.475 30.0327 43.5217 30.4293 43.615C30.8493 43.685 31.1993 43.825 31.4793 44.035C31.7593 44.245 31.9693 44.5367 32.1093 44.91C32.2493 45.2833 32.3193 45.7733 32.3193 46.38V59.33C32.3193 61.4067 31.7243 62.97 30.5343 64.02C29.3443 65.0467 27.5943 65.56 25.2843 65.56C24.071 65.56 23.091 65.3733 22.3443 65C21.8077 64.7433 21.411 64.3933 21.1543 63.95C20.921 63.5067 20.8043 63.005 20.8043 62.445C20.8043 61.9783 20.8627 61.57 20.9793 61.22C21.1193 60.87 21.2827 60.59 21.4693 60.38C21.9127 60.4733 22.286 60.5433 22.5893 60.59C22.916 60.6133 23.266 60.625 23.6393 60.625C24.5493 60.625 25.2027 60.4033 25.5993 59.96C25.996 59.4933 26.1943 58.8167 26.1943 57.93V43.79ZM53.9182 56.495C53.9182 57.9417 53.6965 59.2367 53.2532 60.38C52.8098 61.5 52.1798 62.445 51.3632 63.215C50.5698 63.985 49.6132 64.5683 48.4932 64.965C47.3732 65.3617 46.1248 65.56 44.7482 65.56C43.3715 65.56 42.1232 65.35 41.0032 64.93C39.8832 64.51 38.9148 63.915 38.0982 63.145C37.3048 62.3517 36.6865 61.395 36.2432 60.275C35.7998 59.155 35.5782 57.895 35.5782 56.495C35.5782 55.1183 35.7998 53.87 36.2432 52.75C36.6865 51.63 37.3048 50.685 38.0982 49.915C38.9148 49.1217 39.8832 48.515 41.0032 48.095C42.1232 47.675 43.3715 47.465 44.7482 47.465C46.1248 47.465 47.3732 47.6867 48.4932 48.13C49.6132 48.55 50.5698 49.1567 51.3632 49.95C52.1798 50.72 52.8098 51.665 53.2532 52.785C53.6965 53.905 53.9182 55.1417 53.9182 56.495ZM41.6682 56.495C41.6682 57.9183 41.9365 59.015 42.4732 59.785C43.0332 60.5317 43.8032 60.905 44.7832 60.905C45.7632 60.905 46.5098 60.52 47.0232 59.75C47.5598 58.98 47.8282 57.895 47.8282 56.495C47.8282 55.095 47.5598 54.0217 47.0232 53.275C46.4865 52.505 45.7282 52.12 44.7482 52.12C43.7682 52.12 43.0098 52.505 42.4732 53.275C41.9365 54.0217 41.6682 55.095 41.6682 56.495ZM56.681 43.265C56.681 42.3783 56.9726 41.6317 57.556 41.025C58.1626 40.4183 58.956 40.115 59.936 40.115C60.916 40.115 61.6976 40.4183 62.281 41.025C62.8876 41.6317 63.191 42.3783 63.191 43.265C63.191 44.1517 62.8876 44.8983 62.281 45.505C61.6976 46.1117 60.916 46.415 59.936 46.415C58.956 46.415 58.1626 46.1117 57.556 45.505C56.9726 44.8983 56.681 44.1517 56.681 43.265ZM62.911 64.965C62.6543 65.0117 62.2693 65.07 61.756 65.14C61.266 65.2333 60.7643 65.28 60.251 65.28C59.7376 65.28 59.271 65.245 58.851 65.175C58.4543 65.105 58.116 64.965 57.836 64.755C57.556 64.545 57.3343 64.265 57.171 63.915C57.031 63.5417 56.961 63.0633 56.961 62.48V48.235C57.2176 48.1883 57.591 48.13 58.081 48.06C58.5943 47.9667 59.1076 47.92 59.621 47.92C60.1343 47.92 60.5893 47.955 60.986 48.025C61.406 48.095 61.756 48.235 62.036 48.445C62.316 48.655 62.526 48.9467 62.666 49.32C62.8293 49.67 62.911 50.1367 62.911 50.72V64.965ZM77.4789 54.22C77.4789 53.4967 77.2689 52.9717 76.8489 52.645C76.4522 52.295 75.9039 52.12 75.2039 52.12C74.7372 52.12 74.2706 52.1783 73.8039 52.295C73.3606 52.4117 72.9756 52.5867 72.6489 52.82V64.965C72.4156 65.035 72.0422 65.105 71.5289 65.175C71.0389 65.245 70.5256 65.28 69.9889 65.28C69.4756 65.28 69.0089 65.245 68.5889 65.175C68.1922 65.105 67.8539 64.965 67.5739 64.755C67.2939 64.545 67.0722 64.265 66.9089 63.915C66.7689 63.5417 66.6989 63.0633 66.6989 62.48V51.98C66.6989 51.35 66.8272 50.8367 67.0839 50.44C67.3639 50.0433 67.7372 49.6817 68.2039 49.355C68.9972 48.795 69.9889 48.34 71.1789 47.99C72.3922 47.64 73.7339 47.465 75.2039 47.465C77.8406 47.465 79.8706 48.0483 81.2939 49.215C82.7172 50.3583 83.4289 51.9567 83.4289 54.01V64.965C83.1956 65.035 82.8222 65.105 82.3089 65.175C81.8189 65.245 81.3056 65.28 80.7689 65.28C80.2556 65.28 79.7889 65.245 79.3689 65.175C78.9722 65.105 78.6339 64.965 78.3539 64.755C78.0739 64.545 77.8522 64.265 77.6889 63.915C77.5489 63.5417 77.4789 63.0633 77.4789 62.48V54.22ZM86.9992 58.49C86.8358 58.2333 86.6842 57.895 86.5442 57.475C86.4042 57.055 86.3342 56.6117 86.3342 56.145C86.3342 55.2817 86.5325 54.6633 86.9292 54.29C87.3258 53.8933 87.8392 53.695 88.4692 53.695H95.9592C96.0992 53.9517 96.2392 54.29 96.3792 54.71C96.5425 55.13 96.6242 55.5733 96.6242 56.04C96.6242 56.9033 96.4258 57.5333 96.0292 57.93C95.6325 58.3033 95.1192 58.49 94.4892 58.49H86.9992ZM97.8927 48.69C97.7293 48.4333 97.5777 48.0833 97.4377 47.64C97.2977 47.1967 97.2277 46.73 97.2277 46.24C97.2277 45.33 97.426 44.6767 97.8227 44.28C98.2427 43.8833 98.7793 43.685 99.4327 43.685H114.693C114.856 43.9417 115.008 44.2917 115.148 44.735C115.288 45.1783 115.358 45.645 115.358 46.135C115.358 47.045 115.148 47.6983 114.728 48.095C114.331 48.4917 113.806 48.69 113.153 48.69H109.268V64.86C109.011 64.93 108.603 65 108.043 65.07C107.506 65.14 106.969 65.175 106.433 65.175C105.896 65.175 105.418 65.1283 104.998 65.035C104.601 64.965 104.263 64.825 103.983 64.615C103.703 64.405 103.493 64.1133 103.353 63.74C103.213 63.3667 103.143 62.8767 103.143 62.27V48.69H97.8927ZM124.776 65.56C123.399 65.56 122.116 65.3733 120.926 65C119.759 64.6033 118.733 64.02 117.846 63.25C116.983 62.48 116.294 61.5117 115.781 60.345C115.291 59.1783 115.046 57.8133 115.046 56.25C115.046 54.71 115.291 53.3917 115.781 52.295C116.294 51.175 116.959 50.265 117.776 49.565C118.593 48.8417 119.526 48.3167 120.576 47.99C121.626 47.64 122.699 47.465 123.796 47.465C125.033 47.465 126.153 47.6517 127.156 48.025C128.183 48.3983 129.058 48.9117 129.781 49.565C130.528 50.2183 131.099 51 131.496 51.91C131.916 52.82 132.126 53.8117 132.126 54.885C132.126 55.6783 131.904 56.285 131.461 56.705C131.018 57.125 130.399 57.3933 129.606 57.51L120.961 58.805C121.218 59.575 121.743 60.1583 122.536 60.555C123.329 60.9283 124.239 61.115 125.266 61.115C126.223 61.115 127.121 60.9983 127.961 60.765C128.824 60.5083 129.524 60.2167 130.061 59.89C130.434 60.1233 130.749 60.45 131.006 60.87C131.263 61.29 131.391 61.7333 131.391 62.2C131.391 63.25 130.901 64.0317 129.921 64.545C129.174 64.9417 128.334 65.21 127.401 65.35C126.468 65.49 125.593 65.56 124.776 65.56ZM123.796 51.805C123.236 51.805 122.746 51.8983 122.326 52.085C121.929 52.2717 121.603 52.5167 121.346 52.82C121.089 53.1 120.891 53.4267 120.751 53.8C120.634 54.15 120.564 54.5117 120.541 54.885L126.526 53.905C126.456 53.4383 126.199 52.9717 125.756 52.505C125.313 52.0383 124.659 51.805 123.796 51.805ZM141.045 64.965C140.788 65.0117 140.403 65.07 139.89 65.14C139.4 65.2333 138.898 65.28 138.385 65.28C137.872 65.28 137.405 65.245 136.985 65.175C136.588 65.105 136.25 64.965 135.97 64.755C135.69 64.545 135.468 64.265 135.305 63.915C135.165 63.5417 135.095 63.0633 135.095 62.48V42.18C135.352 42.1333 135.725 42.075 136.215 42.005C136.728 41.9117 137.242 41.865 137.755 41.865C138.268 41.865 138.723 41.9 139.12 41.97C139.54 42.04 139.89 42.18 140.17 42.39C140.45 42.6 140.66 42.8917 140.8 43.265C140.963 43.615 141.045 44.0817 141.045 44.665V64.965ZM150.854 64.965C150.598 65.0117 150.213 65.07 149.699 65.14C149.209 65.2333 148.708 65.28 148.194 65.28C147.681 65.28 147.214 65.245 146.794 65.175C146.398 65.105 146.059 64.965 145.779 64.755C145.499 64.545 145.278 64.265 145.114 63.915C144.974 63.5417 144.904 63.0633 144.904 62.48V42.18C145.161 42.1333 145.534 42.075 146.024 42.005C146.538 41.9117 147.051 41.865 147.564 41.865C148.078 41.865 148.533 41.9 148.929 41.97C149.349 42.04 149.699 42.18 149.979 42.39C150.259 42.6 150.469 42.8917 150.609 43.265C150.773 43.615 150.854 44.0817 150.854 44.665V64.965ZM154.469 43.265C154.469 42.3783 154.761 41.6317 155.344 41.025C155.951 40.4183 156.744 40.115 157.724 40.115C158.704 40.115 159.486 40.4183 160.069 41.025C160.676 41.6317 160.979 42.3783 160.979 43.265C160.979 44.1517 160.676 44.8983 160.069 45.505C159.486 46.1117 158.704 46.415 157.724 46.415C156.744 46.415 155.951 46.1117 155.344 45.505C154.761 44.8983 154.469 44.1517 154.469 43.265ZM160.699 64.965C160.442 65.0117 160.057 65.07 159.544 65.14C159.054 65.2333 158.552 65.28 158.039 65.28C157.526 65.28 157.059 65.245 156.639 65.175C156.242 65.105 155.904 64.965 155.624 64.755C155.344 64.545 155.122 64.265 154.959 63.915C154.819 63.5417 154.749 63.0633 154.749 62.48V48.235C155.006 48.1883 155.379 48.13 155.869 48.06C156.382 47.9667 156.896 47.92 157.409 47.92C157.922 47.92 158.377 47.955 158.774 48.025C159.194 48.095 159.544 48.235 159.824 48.445C160.104 48.655 160.314 48.9467 160.454 49.32C160.617 49.67 160.699 50.1367 160.699 50.72V64.965ZM175.267 54.22C175.267 53.4967 175.057 52.9717 174.637 52.645C174.24 52.295 173.692 52.12 172.992 52.12C172.525 52.12 172.059 52.1783 171.592 52.295C171.149 52.4117 170.764 52.5867 170.437 52.82V64.965C170.204 65.035 169.83 65.105 169.317 65.175C168.827 65.245 168.314 65.28 167.777 65.28C167.264 65.28 166.797 65.245 166.377 65.175C165.98 65.105 165.642 64.965 165.362 64.755C165.082 64.545 164.86 64.265 164.697 63.915C164.557 63.5417 164.487 63.0633 164.487 62.48V51.98C164.487 51.35 164.615 50.8367 164.872 50.44C165.152 50.0433 165.525 49.6817 165.992 49.355C166.785 48.795 167.777 48.34 168.967 47.99C170.18 47.64 171.522 47.465 172.992 47.465C175.629 47.465 177.659 48.0483 179.082 49.215C180.505 50.3583 181.217 51.9567 181.217 54.01V64.965C180.984 65.035 180.61 65.105 180.097 65.175C179.607 65.245 179.094 65.28 178.557 65.28C178.044 65.28 177.577 65.245 177.157 65.175C176.76 65.105 176.422 64.965 176.142 64.755C175.862 64.545 175.64 64.265 175.477 63.915C175.337 63.5417 175.267 63.0633 175.267 62.48V54.22ZM193.187 47.465C194.517 47.465 195.719 47.64 196.792 47.99C197.889 48.3167 198.811 48.7483 199.557 49.285C200.024 49.6117 200.386 49.9733 200.642 50.37C200.922 50.7667 201.062 51.28 201.062 51.91V64.16C201.062 65.3967 200.829 66.4583 200.362 67.345C199.896 68.255 199.254 69.0017 198.437 69.585C197.644 70.1917 196.699 70.635 195.602 70.915C194.529 71.195 193.374 71.335 192.137 71.335C190.014 71.335 188.346 71.0433 187.132 70.46C185.919 69.9 185.312 68.9783 185.312 67.695C185.312 67.1583 185.417 66.68 185.627 66.26C185.861 65.8633 186.117 65.56 186.397 65.35C187.074 65.7233 187.832 66.0383 188.672 66.295C189.536 66.5517 190.422 66.68 191.332 66.68C192.592 66.68 193.596 66.47 194.342 66.05C195.089 65.63 195.462 64.9533 195.462 64.02V63.46C194.506 63.88 193.339 64.09 191.962 64.09C190.912 64.09 189.909 63.9383 188.952 63.635C188.019 63.3083 187.191 62.8183 186.467 62.165C185.767 61.4883 185.196 60.625 184.752 59.575C184.332 58.525 184.122 57.2767 184.122 55.83C184.122 54.4067 184.344 53.17 184.787 52.12C185.254 51.07 185.884 50.2067 186.677 49.53C187.494 48.83 188.451 48.3167 189.547 47.99C190.667 47.64 191.881 47.465 193.187 47.465ZM195.357 52.54C195.194 52.4467 194.949 52.3533 194.622 52.26C194.319 52.1667 193.934 52.12 193.467 52.12C192.324 52.12 191.461 52.4467 190.877 53.1C190.317 53.73 190.037 54.64 190.037 55.83C190.037 57.1833 190.317 58.1633 190.877 58.77C191.461 59.3533 192.196 59.645 193.082 59.645C194.039 59.645 194.797 59.4233 195.357 58.98V52.54ZM75.8912 96.565C74.8645 96.215 73.9312 95.865 73.0912 95.515C72.2512 95.1417 71.5279 94.6983 70.9212 94.185C70.3145 93.6717 69.8362 93.065 69.4862 92.365C69.1595 91.6417 68.9962 90.7667 68.9962 89.74C68.9962 87.7567 69.7545 86.17 71.2712 84.98C72.8112 83.79 74.9579 83.195 77.7112 83.195C78.7145 83.195 79.6479 83.265 80.5112 83.405C81.3745 83.545 82.1095 83.7667 82.7162 84.07C83.3462 84.35 83.8362 84.7233 84.1862 85.19C84.5362 85.6333 84.7112 86.1583 84.7112 86.765C84.7112 87.3717 84.5712 87.8967 84.2912 88.34C84.0112 88.76 83.6729 89.1217 83.2762 89.425C82.7629 89.0983 82.0745 88.8183 81.2112 88.585C80.3479 88.3283 79.4029 88.2 78.3762 88.2C77.3262 88.2 76.5562 88.3517 76.0662 88.655C75.5762 88.935 75.3312 89.2967 75.3312 89.74C75.3312 90.09 75.4829 90.3817 75.7862 90.615C76.0895 90.825 76.5445 91.0233 77.1512 91.21L79.0062 91.805C81.1995 92.505 82.8795 93.4033 84.0462 94.5C85.2362 95.5733 85.8312 97.0433 85.8312 98.91C85.8312 100.893 85.0495 102.503 83.4862 103.74C81.9229 104.953 79.6245 105.56 76.5912 105.56C75.5179 105.56 74.5145 105.467 73.5812 105.28C72.6712 105.117 71.8662 104.872 71.1662 104.545C70.4895 104.195 69.9529 103.775 69.5562 103.285C69.1829 102.772 68.9962 102.188 68.9962 101.535C68.9962 100.858 69.1945 100.287 69.5912 99.82C69.9879 99.33 70.4195 98.9567 70.8862 98.7C71.5395 99.2133 72.3329 99.6567 73.2662 100.03C74.2229 100.403 75.2612 100.59 76.3812 100.59C77.5245 100.59 78.3295 100.415 78.7962 100.065C79.2629 99.715 79.4962 99.3067 79.4962 98.84C79.4962 98.3733 79.3095 98.0233 78.9362 97.79C78.5629 97.5333 78.0379 97.2883 77.3612 97.055L75.8912 96.565ZM94.6435 99.155C94.6435 99.7617 94.8302 100.193 95.2035 100.45C95.6002 100.707 96.1485 100.835 96.8485 100.835C97.1985 100.835 97.5602 100.812 97.9335 100.765C98.3069 100.695 98.6335 100.613 98.9135 100.52C99.1235 100.777 99.2985 101.068 99.4385 101.395C99.6019 101.698 99.6835 102.072 99.6835 102.515C99.6835 103.402 99.3452 104.125 98.6685 104.685C98.0152 105.245 96.8485 105.525 95.1685 105.525C93.1152 105.525 91.5285 105.058 90.4085 104.125C89.3119 103.192 88.7635 101.675 88.7635 99.575V84.595C89.0202 84.525 89.3819 84.455 89.8485 84.385C90.3385 84.2917 90.8519 84.245 91.3885 84.245C92.4152 84.245 93.2085 84.4317 93.7685 84.805C94.3519 85.155 94.6435 85.9133 94.6435 87.08V89.32H99.2285C99.3685 89.5767 99.4969 89.9033 99.6135 90.3C99.7535 90.6733 99.8235 91.0933 99.8235 91.56C99.8235 92.3767 99.6369 92.9717 99.2635 93.345C98.9135 93.695 98.4352 93.87 97.8285 93.87H94.6435V99.155ZM120.107 96.495C120.107 97.9417 119.885 99.2367 119.442 100.38C118.999 101.5 118.369 102.445 117.552 103.215C116.759 103.985 115.802 104.568 114.682 104.965C113.562 105.362 112.314 105.56 110.937 105.56C109.56 105.56 108.312 105.35 107.192 104.93C106.072 104.51 105.104 103.915 104.287 103.145C103.494 102.352 102.875 101.395 102.432 100.275C101.989 99.155 101.767 97.895 101.767 96.495C101.767 95.1183 101.989 93.87 102.432 92.75C102.875 91.63 103.494 90.685 104.287 89.915C105.104 89.1217 106.072 88.515 107.192 88.095C108.312 87.675 109.56 87.465 110.937 87.465C112.314 87.465 113.562 87.6867 114.682 88.13C115.802 88.55 116.759 89.1567 117.552 89.95C118.369 90.72 118.999 91.665 119.442 92.785C119.885 93.905 120.107 95.1417 120.107 96.495ZM107.857 96.495C107.857 97.9183 108.125 99.015 108.662 99.785C109.222 100.532 109.992 100.905 110.972 100.905C111.952 100.905 112.699 100.52 113.212 99.75C113.749 98.98 114.017 97.895 114.017 96.495C114.017 95.095 113.749 94.0217 113.212 93.275C112.675 92.505 111.917 92.12 110.937 92.12C109.957 92.12 109.199 92.505 108.662 93.275C108.125 94.0217 107.857 95.095 107.857 96.495ZM128.96 104.965C128.727 105.035 128.353 105.105 127.84 105.175C127.35 105.245 126.837 105.28 126.3 105.28C125.787 105.28 125.32 105.245 124.9 105.175C124.503 105.105 124.165 104.965 123.885 104.755C123.605 104.545 123.383 104.265 123.22 103.915C123.08 103.542 123.01 103.063 123.01 102.48V91.98C123.01 91.4433 123.103 90.9883 123.29 90.615C123.5 90.2183 123.792 89.8683 124.165 89.565C124.538 89.2617 124.993 88.9933 125.53 88.76C126.09 88.5033 126.685 88.2817 127.315 88.095C127.945 87.9083 128.598 87.7683 129.275 87.675C129.952 87.5583 130.628 87.5 131.305 87.5C132.425 87.5 133.312 87.7217 133.965 88.165C134.618 88.585 134.945 89.285 134.945 90.265C134.945 90.5917 134.898 90.9183 134.805 91.245C134.712 91.5483 134.595 91.8283 134.455 92.085C133.965 92.085 133.463 92.1083 132.95 92.155C132.437 92.2017 131.935 92.2717 131.445 92.365C130.955 92.4583 130.488 92.5633 130.045 92.68C129.625 92.7733 129.263 92.89 128.96 93.03V104.965ZM140.606 100.66C140.35 100.077 140.07 99.4233 139.766 98.7C139.486 97.9767 139.183 97.1483 138.856 96.215C138.553 95.2817 138.226 94.22 137.876 93.03C137.55 91.8167 137.2 90.4283 136.826 88.865C137.153 88.5383 137.585 88.2583 138.121 88.025C138.681 87.7683 139.288 87.64 139.941 87.64C140.758 87.64 141.435 87.815 141.971 88.165C142.508 88.4917 142.905 89.1217 143.161 90.055L145.926 99.68H146.066C146.346 98.8867 146.615 98.0233 146.871 97.09C147.151 96.1567 147.42 95.2 147.676 94.22C147.933 93.2167 148.166 92.225 148.376 91.245C148.61 90.2417 148.808 89.2617 148.971 88.305C149.811 87.8617 150.733 87.64 151.736 87.64C152.553 87.64 153.23 87.815 153.766 88.165C154.303 88.515 154.571 89.1217 154.571 89.985C154.571 90.615 154.49 91.35 154.326 92.19C154.163 93.0067 153.941 93.8817 153.661 94.815C153.405 95.7483 153.09 96.7167 152.716 97.72C152.366 98.7 151.993 99.6683 151.596 100.625C151.2 101.582 150.791 102.492 150.371 103.355C149.951 104.195 149.543 104.953 149.146 105.63C148.493 106.773 147.886 107.707 147.326 108.43C146.766 109.153 146.23 109.713 145.716 110.11C145.203 110.53 144.69 110.81 144.176 110.95C143.663 111.113 143.126 111.195 142.566 111.195C141.586 111.195 140.793 110.903 140.186 110.32C139.58 109.737 139.218 108.978 139.101 108.045C139.848 107.462 140.595 106.808 141.341 106.085C142.088 105.385 142.765 104.662 143.371 103.915C142.975 103.798 142.543 103.53 142.076 103.11C141.633 102.667 141.143 101.85 140.606 100.66Z" fill="white"/>
</svg>
