<svg width="207" height="148" viewBox="0 0 207 148" fill="none" xmlns="http://www.w3.org/2000/svg">
<path d="M157.382 147.216C204.494 142.975 207 109.049 207 55.1319C201.988 18.7831 173.42 -7.26682 93.7301 1.82036C14.0402 10.9076 1.00912 41.1982 0.00671891 90.269C-0.995666 139.34 110.269 151.456 157.382 147.216Z" fill="#78CB26"/>
<path d="M41.7989 48.69C41.6356 48.4333 41.4839 48.0833 41.3439 47.64C41.2039 47.1967 41.1339 46.73 41.1339 46.24C41.1339 45.33 41.3323 44.6767 41.7289 44.28C42.1489 43.8833 42.6856 43.685 43.3389 43.685H58.5989C58.7623 43.9417 58.9139 44.2917 59.0539 44.735C59.1939 45.1783 59.2639 45.645 59.2639 46.135C59.2639 47.045 59.0539 47.6983 58.6339 48.095C58.2373 48.4917 57.7123 48.69 57.0589 48.69H53.1739V64.86C52.9173 64.93 52.5089 65 51.9489 65.07C51.4123 65.14 50.8756 65.175 50.3389 65.175C49.8023 65.175 49.3239 65.1283 48.9039 65.035C48.5073 64.965 48.1689 64.825 47.8889 64.615C47.6089 64.405 47.3989 64.1133 47.2589 63.74C47.1189 63.3667 47.0489 62.8767 47.0489 62.27V48.69H41.7989ZM68.6822 65.56C67.3055 65.56 66.0222 65.3733 64.8322 65C63.6655 64.6033 62.6389 64.02 61.7522 63.25C60.8889 62.48 60.2005 61.5117 59.6872 60.345C59.1972 59.1783 58.9522 57.8133 58.9522 56.25C58.9522 54.71 59.1972 53.3917 59.6872 52.295C60.2005 51.175 60.8655 50.265 61.6822 49.565C62.4989 48.8417 63.4322 48.3167 64.4822 47.99C65.5322 47.64 66.6055 47.465 67.7022 47.465C68.9389 47.465 70.0589 47.6517 71.0622 48.025C72.0889 48.3983 72.9639 48.9117 73.6872 49.565C74.4339 50.2183 75.0055 51 75.4022 51.91C75.8222 52.82 76.0322 53.8117 76.0322 54.885C76.0322 55.6783 75.8105 56.285 75.3672 56.705C74.9239 57.125 74.3055 57.3933 73.5122 57.51L64.8672 58.805C65.1239 59.575 65.6489 60.1583 66.4422 60.555C67.2355 60.9283 68.1455 61.115 69.1722 61.115C70.1289 61.115 71.0272 60.9983 71.8672 60.765C72.7305 60.5083 73.4305 60.2167 73.9672 59.89C74.3405 60.1233 74.6555 60.45 74.9122 60.87C75.1689 61.29 75.2972 61.7333 75.2972 62.2C75.2972 63.25 74.8072 64.0317 73.8272 64.545C73.0805 64.9417 72.2405 65.21 71.3072 65.35C70.3739 65.49 69.4989 65.56 68.6822 65.56ZM67.7022 51.805C67.1422 51.805 66.6522 51.8983 66.2322 52.085C65.8355 52.2717 65.5089 52.5167 65.2522 52.82C64.9955 53.1 64.7972 53.4267 64.6572 53.8C64.5405 54.15 64.4705 54.5117 64.4472 54.885L70.4322 53.905C70.3622 53.4383 70.1055 52.9717 69.6622 52.505C69.2189 52.0383 68.5655 51.805 67.7022 51.805ZM84.9512 64.965C84.6945 65.0117 84.3095 65.07 83.7962 65.14C83.3062 65.2333 82.8045 65.28 82.2912 65.28C81.7779 65.28 81.3112 65.245 80.8912 65.175C80.4945 65.105 80.1562 64.965 79.8762 64.755C79.5962 64.545 79.3745 64.265 79.2112 63.915C79.0712 63.5417 79.0012 63.0633 79.0012 62.48V42.18C79.2579 42.1333 79.6312 42.075 80.1212 42.005C80.6345 41.9117 81.1479 41.865 81.6612 41.865C82.1745 41.865 82.6295 41.9 83.0262 41.97C83.4462 42.04 83.7962 42.18 84.0762 42.39C84.3562 42.6 84.5662 42.8917 84.7062 43.265C84.8695 43.615 84.9512 44.0817 84.9512 44.665V64.965ZM94.7608 64.965C94.5041 65.0117 94.1191 65.07 93.6058 65.14C93.1158 65.2333 92.6141 65.28 92.1008 65.28C91.5874 65.28 91.1208 65.245 90.7008 65.175C90.3041 65.105 89.9658 64.965 89.6858 64.755C89.4058 64.545 89.1841 64.265 89.0208 63.915C88.8808 63.5417 88.8108 63.0633 88.8108 62.48V42.18C89.0674 42.1333 89.4408 42.075 89.9308 42.005C90.4441 41.9117 90.9574 41.865 91.4708 41.865C91.9841 41.865 92.4391 41.9 92.8358 41.97C93.2558 42.04 93.6058 42.18 93.8858 42.39C94.1658 42.6 94.3758 42.8917 94.5158 43.265C94.6791 43.615 94.7608 44.0817 94.7608 44.665V64.965ZM117.107 64.86C116.85 64.93 116.454 65 115.917 65.07C115.38 65.14 114.855 65.175 114.342 65.175C113.269 65.175 112.464 65 111.927 64.65C111.39 64.2767 111.122 63.5067 111.122 62.34V57.615C110.539 56.7517 109.909 55.795 109.232 54.745C108.555 53.695 107.89 52.6217 107.237 51.525C106.584 50.4283 105.977 49.355 105.417 48.305C104.857 47.2317 104.402 46.2517 104.052 45.365C104.355 44.945 104.764 44.56 105.277 44.21C105.814 43.86 106.467 43.685 107.237 43.685C108.147 43.685 108.882 43.8717 109.442 44.245C110.025 44.6183 110.574 45.3183 111.087 46.345L113.992 52.19H114.202C114.529 51.4667 114.809 50.8133 115.042 50.23C115.299 49.6233 115.544 49.0283 115.777 48.445C116.01 47.8383 116.255 47.22 116.512 46.59C116.769 45.9367 117.06 45.19 117.387 44.35C117.807 44.14 118.274 43.9767 118.787 43.86C119.3 43.7433 119.79 43.685 120.257 43.685C121.074 43.685 121.762 43.9067 122.322 44.35C122.905 44.77 123.197 45.4117 123.197 46.275C123.197 46.555 123.139 46.8933 123.022 47.29C122.905 47.6867 122.637 48.2933 122.217 49.11C121.797 49.9033 121.179 50.9883 120.362 52.365C119.569 53.7417 118.484 55.5383 117.107 57.755V64.86ZM141.653 56.495C141.653 57.9417 141.431 59.2367 140.988 60.38C140.544 61.5 139.914 62.445 139.098 63.215C138.304 63.985 137.348 64.5683 136.228 64.965C135.108 65.3617 133.859 65.56 132.483 65.56C131.106 65.56 129.858 65.35 128.738 64.93C127.618 64.51 126.649 63.915 125.833 63.145C125.039 62.3517 124.421 61.395 123.978 60.275C123.534 59.155 123.313 57.895 123.313 56.495C123.313 55.1183 123.534 53.87 123.978 52.75C124.421 51.63 125.039 50.685 125.833 49.915C126.649 49.1217 127.618 48.515 128.738 48.095C129.858 47.675 131.106 47.465 132.483 47.465C133.859 47.465 135.108 47.6867 136.228 48.13C137.348 48.55 138.304 49.1567 139.098 49.95C139.914 50.72 140.544 51.665 140.988 52.785C141.431 53.905 141.653 55.1417 141.653 56.495ZM129.403 56.495C129.403 57.9183 129.671 59.015 130.208 59.785C130.768 60.5317 131.538 60.905 132.518 60.905C133.498 60.905 134.244 60.52 134.758 59.75C135.294 58.98 135.563 57.895 135.563 56.495C135.563 55.095 135.294 54.0217 134.758 53.275C134.221 52.505 133.463 52.12 132.483 52.12C131.503 52.12 130.744 52.505 130.208 53.275C129.671 54.0217 129.403 55.095 129.403 56.495ZM144.555 48.235C144.789 48.165 145.15 48.095 145.64 48.025C146.154 47.955 146.679 47.92 147.215 47.92C147.729 47.92 148.184 47.955 148.58 48.025C149 48.095 149.35 48.235 149.63 48.445C149.91 48.655 150.12 48.9467 150.26 49.32C150.424 49.67 150.505 50.1367 150.505 50.72V58.245C150.505 59.2017 150.739 59.89 151.205 60.31C151.672 60.7067 152.349 60.905 153.235 60.905C153.772 60.905 154.204 60.8583 154.53 60.765C154.88 60.6717 155.149 60.5783 155.335 60.485V48.235C155.569 48.165 155.93 48.095 156.42 48.025C156.934 47.955 157.459 47.92 157.995 47.92C158.509 47.92 158.964 47.955 159.36 48.025C159.78 48.095 160.13 48.235 160.41 48.445C160.69 48.655 160.9 48.9467 161.04 49.32C161.204 49.67 161.285 50.1367 161.285 50.72V61.36C161.285 62.5267 160.795 63.4017 159.815 63.985C158.999 64.4983 158.019 64.8833 156.875 65.14C155.755 65.42 154.53 65.56 153.2 65.56C151.94 65.56 150.774 65.42 149.7 65.14C148.65 64.86 147.74 64.4283 146.97 63.845C146.2 63.2617 145.605 62.515 145.185 61.605C144.765 60.6717 144.555 59.5517 144.555 58.245V48.235ZM170.876 64.965C170.643 65.035 170.27 65.105 169.756 65.175C169.266 65.245 168.753 65.28 168.216 65.28C167.703 65.28 167.236 65.245 166.816 65.175C166.42 65.105 166.081 64.965 165.801 64.755C165.521 64.545 165.3 64.265 165.136 63.915C164.996 63.5417 164.926 63.0633 164.926 62.48V51.98C164.926 51.4433 165.02 50.9883 165.206 50.615C165.416 50.2183 165.708 49.8683 166.081 49.565C166.455 49.2617 166.91 48.9933 167.446 48.76C168.006 48.5033 168.601 48.2817 169.231 48.095C169.861 47.9083 170.515 47.7683 171.191 47.675C171.868 47.5583 172.545 47.5 173.221 47.5C174.341 47.5 175.228 47.7217 175.881 48.165C176.535 48.585 176.861 49.285 176.861 50.265C176.861 50.5917 176.815 50.9183 176.721 51.245C176.628 51.5483 176.511 51.8283 176.371 52.085C175.881 52.085 175.38 52.1083 174.866 52.155C174.353 52.2017 173.851 52.2717 173.361 52.365C172.871 52.4583 172.405 52.5633 171.961 52.68C171.541 52.7733 171.18 52.89 170.876 53.03V64.965ZM26.4677 94.36C26.4677 92.54 26.7477 90.93 27.3077 89.53C27.891 88.13 28.6727 86.9633 29.6527 86.03C30.656 85.0733 31.8227 84.35 33.1527 83.86C34.506 83.37 35.9644 83.125 37.5277 83.125C39.091 83.125 40.5377 83.37 41.8677 83.86C43.221 84.35 44.3994 85.0733 45.4027 86.03C46.406 86.9633 47.1877 88.13 47.7477 89.53C48.331 90.93 48.6227 92.54 48.6227 94.36C48.6227 96.18 48.3427 97.8017 47.7827 99.225C47.2227 100.625 46.441 101.803 45.4377 102.76C44.4577 103.693 43.291 104.405 41.9377 104.895C40.5844 105.385 39.1144 105.63 37.5277 105.63C35.941 105.63 34.471 105.385 33.1177 104.895C31.7644 104.382 30.5977 103.647 29.6177 102.69C28.6377 101.733 27.8677 100.555 27.3077 99.155C26.7477 97.755 26.4677 96.1567 26.4677 94.36ZM32.7677 94.36C32.7677 96.4833 33.1994 98.07 34.0627 99.12C34.926 100.17 36.081 100.695 37.5277 100.695C38.9977 100.695 40.1644 100.17 41.0277 99.12C41.891 98.07 42.3227 96.4833 42.3227 94.36C42.3227 92.26 41.891 90.685 41.0277 89.635C40.1877 88.585 39.0327 88.06 37.5627 88.06C36.116 88.06 34.9494 88.585 34.0627 89.635C33.1994 90.6617 32.7677 92.2367 32.7677 94.36ZM61.3671 104.475C61.0404 104.755 60.5971 104.977 60.0371 105.14C59.4771 105.327 58.8121 105.42 58.0421 105.42C57.0854 105.42 56.2571 105.28 55.5571 105C54.8571 104.743 54.3904 104.37 54.1571 103.88C53.9004 103.32 53.5971 102.433 53.2471 101.22C52.9204 100.007 52.5937 98.6767 52.2671 97.23C51.9404 95.7833 51.6254 94.3133 51.3221 92.82C51.0421 91.3267 50.8204 90.0083 50.6571 88.865C50.9837 88.5383 51.4154 88.2583 51.9521 88.025C52.5121 87.7683 53.1187 87.64 53.7721 87.64C54.5887 87.64 55.2537 87.8267 55.7671 88.2C56.3037 88.55 56.6304 89.1683 56.7471 90.055C56.9804 91.8283 57.1787 93.2983 57.3421 94.465C57.5054 95.6083 57.6337 96.5533 57.7271 97.3C57.8437 98.0233 57.9254 98.5833 57.9721 98.98C58.0421 99.3533 58.1004 99.6567 58.1471 99.89H58.2871C58.3571 99.5167 58.4737 98.98 58.6371 98.28C58.8237 97.5567 59.0337 96.74 59.2671 95.83C59.5004 94.92 59.7454 93.94 60.0021 92.89C60.2587 91.8167 60.5154 90.755 60.7721 89.705C61.2387 89.4483 61.6937 89.25 62.1371 89.11C62.6037 88.97 63.1754 88.9 63.8521 88.9C64.6687 88.9 65.3687 89.0283 65.9521 89.285C66.5354 89.5417 66.9087 89.9383 67.0721 90.475C67.3521 91.5017 67.6204 92.505 67.8771 93.485C68.1337 94.4417 68.3671 95.34 68.5771 96.18C68.7871 96.9967 68.9737 97.7317 69.1371 98.385C69.3004 99.015 69.4171 99.5167 69.4871 99.89H69.6621C69.9187 98.0933 70.1637 96.2267 70.3971 94.29C70.6537 92.3533 70.8871 90.3817 71.0971 88.375C71.5171 88.1183 71.9604 87.9317 72.4271 87.815C72.8937 87.6983 73.3604 87.64 73.8271 87.64C74.6437 87.64 75.3204 87.815 75.8571 88.165C76.3937 88.515 76.6621 89.1217 76.6621 89.985C76.6621 90.3583 76.6037 90.9183 76.4871 91.665C76.3704 92.4117 76.2187 93.2517 76.0321 94.185C75.8454 95.1183 75.6237 96.0983 75.3671 97.125C75.1337 98.1517 74.8887 99.1433 74.6321 100.1C74.3987 101.057 74.1654 101.92 73.9321 102.69C73.7221 103.46 73.5354 104.055 73.3721 104.475C73.0454 104.755 72.5437 104.977 71.8671 105.14C71.1904 105.327 70.4671 105.42 69.6971 105.42C67.7371 105.42 66.5821 104.93 66.2321 103.95C66.0921 103.53 65.9171 103.005 65.7071 102.375C65.4971 101.722 65.2754 101.01 65.0421 100.24C64.8087 99.47 64.5871 98.6767 64.3771 97.86C64.1671 97.02 63.9921 96.215 63.8521 95.445C63.6887 96.2617 63.4904 97.1133 63.2571 98C63.0237 98.8633 62.7787 99.715 62.5221 100.555C62.2887 101.372 62.0671 102.13 61.8571 102.83C61.6471 103.507 61.4837 104.055 61.3671 104.475ZM90.1376 94.22C90.1376 93.4967 89.9276 92.9717 89.5076 92.645C89.1109 92.295 88.5626 92.12 87.8626 92.12C87.3959 92.12 86.9293 92.1783 86.4626 92.295C86.0193 92.4117 85.6343 92.5867 85.3076 92.82V104.965C85.0743 105.035 84.7009 105.105 84.1876 105.175C83.6976 105.245 83.1843 105.28 82.6476 105.28C82.1343 105.28 81.6676 105.245 81.2476 105.175C80.8509 105.105 80.5126 104.965 80.2326 104.755C79.9526 104.545 79.7309 104.265 79.5676 103.915C79.4276 103.542 79.3576 103.063 79.3576 102.48V91.98C79.3576 91.35 79.4859 90.8367 79.7426 90.44C80.0226 90.0433 80.3959 89.6817 80.8626 89.355C81.6559 88.795 82.6476 88.34 83.8376 87.99C85.0509 87.64 86.3926 87.465 87.8626 87.465C90.4993 87.465 92.5293 88.0483 93.9526 89.215C95.3759 90.3583 96.0876 91.9567 96.0876 94.01V104.965C95.8543 105.035 95.4809 105.105 94.9676 105.175C94.4776 105.245 93.9643 105.28 93.4276 105.28C92.9143 105.28 92.4476 105.245 92.0276 105.175C91.6309 105.105 91.2926 104.965 91.0126 104.755C90.7326 104.545 90.5109 104.265 90.3476 103.915C90.2076 103.542 90.1376 103.063 90.1376 102.48V94.22ZM113.245 96.565C112.218 96.215 111.285 95.865 110.445 95.515C109.605 95.1417 108.881 94.6983 108.275 94.185C107.668 93.6717 107.19 93.065 106.84 92.365C106.513 91.6417 106.35 90.7667 106.35 89.74C106.35 87.7567 107.108 86.17 108.625 84.98C110.165 83.79 112.311 83.195 115.065 83.195C116.068 83.195 117.001 83.265 117.865 83.405C118.728 83.545 119.463 83.7667 120.07 84.07C120.7 84.35 121.19 84.7233 121.54 85.19C121.89 85.6333 122.065 86.1583 122.065 86.765C122.065 87.3717 121.925 87.8967 121.645 88.34C121.365 88.76 121.026 89.1217 120.63 89.425C120.116 89.0983 119.428 88.8183 118.565 88.585C117.701 88.3283 116.756 88.2 115.73 88.2C114.68 88.2 113.91 88.3517 113.42 88.655C112.93 88.935 112.685 89.2967 112.685 89.74C112.685 90.09 112.836 90.3817 113.14 90.615C113.443 90.825 113.898 91.0233 114.505 91.21L116.36 91.805C118.553 92.505 120.233 93.4033 121.4 94.5C122.59 95.5733 123.185 97.0433 123.185 98.91C123.185 100.893 122.403 102.503 120.84 103.74C119.276 104.953 116.978 105.56 113.945 105.56C112.871 105.56 111.868 105.467 110.935 105.28C110.025 105.117 109.22 104.872 108.52 104.545C107.843 104.195 107.306 103.775 106.91 103.285C106.536 102.772 106.35 102.188 106.35 101.535C106.35 100.858 106.548 100.287 106.945 99.82C107.341 99.33 107.773 98.9567 108.24 98.7C108.893 99.2133 109.686 99.6567 110.62 100.03C111.576 100.403 112.615 100.59 113.735 100.59C114.878 100.59 115.683 100.415 116.15 100.065C116.616 99.715 116.85 99.3067 116.85 98.84C116.85 98.3733 116.663 98.0233 116.29 97.79C115.916 97.5333 115.391 97.2883 114.715 97.055L113.245 96.565ZM131.997 99.155C131.997 99.7617 132.184 100.193 132.557 100.45C132.954 100.707 133.502 100.835 134.202 100.835C134.552 100.835 134.914 100.812 135.287 100.765C135.66 100.695 135.987 100.613 136.267 100.52C136.477 100.777 136.652 101.068 136.792 101.395C136.955 101.698 137.037 102.072 137.037 102.515C137.037 103.402 136.699 104.125 136.022 104.685C135.369 105.245 134.202 105.525 132.522 105.525C130.469 105.525 128.882 105.058 127.762 104.125C126.665 103.192 126.117 101.675 126.117 99.575V84.595C126.374 84.525 126.735 84.455 127.202 84.385C127.692 84.2917 128.205 84.245 128.742 84.245C129.769 84.245 130.562 84.4317 131.122 84.805C131.705 85.155 131.997 85.9133 131.997 87.08V89.32H136.582C136.722 89.5767 136.85 89.9033 136.967 90.3C137.107 90.6733 137.177 91.0933 137.177 91.56C137.177 92.3767 136.99 92.9717 136.617 93.345C136.267 93.695 135.789 93.87 135.182 93.87H131.997V99.155ZM157.461 96.495C157.461 97.9417 157.239 99.2367 156.796 100.38C156.352 101.5 155.722 102.445 154.906 103.215C154.112 103.985 153.156 104.568 152.036 104.965C150.916 105.362 149.667 105.56 148.291 105.56C146.914 105.56 145.666 105.35 144.546 104.93C143.426 104.51 142.457 103.915 141.641 103.145C140.847 102.352 140.229 101.395 139.786 100.275C139.342 99.155 139.121 97.895 139.121 96.495C139.121 95.1183 139.342 93.87 139.786 92.75C140.229 91.63 140.847 90.685 141.641 89.915C142.457 89.1217 143.426 88.515 144.546 88.095C145.666 87.675 146.914 87.465 148.291 87.465C149.667 87.465 150.916 87.6867 152.036 88.13C153.156 88.55 154.112 89.1567 154.906 89.95C155.722 90.72 156.352 91.665 156.796 92.785C157.239 93.905 157.461 95.1417 157.461 96.495ZM145.211 96.495C145.211 97.9183 145.479 99.015 146.016 99.785C146.576 100.532 147.346 100.905 148.326 100.905C149.306 100.905 150.052 100.52 150.566 99.75C151.102 98.98 151.371 97.895 151.371 96.495C151.371 95.095 151.102 94.0217 150.566 93.275C150.029 92.505 149.271 92.12 148.291 92.12C147.311 92.12 146.552 92.505 146.016 93.275C145.479 94.0217 145.211 95.095 145.211 96.495ZM166.313 104.965C166.08 105.035 165.707 105.105 165.193 105.175C164.703 105.245 164.19 105.28 163.653 105.28C163.14 105.28 162.673 105.245 162.253 105.175C161.857 105.105 161.518 104.965 161.238 104.755C160.958 104.545 160.737 104.265 160.573 103.915C160.433 103.542 160.363 103.063 160.363 102.48V91.98C160.363 91.4433 160.457 90.9883 160.643 90.615C160.853 90.2183 161.145 89.8683 161.518 89.565C161.892 89.2617 162.347 88.9933 162.883 88.76C163.443 88.5033 164.038 88.2817 164.668 88.095C165.298 87.9083 165.952 87.7683 166.628 87.675C167.305 87.5583 167.982 87.5 168.658 87.5C169.778 87.5 170.665 87.7217 171.318 88.165C171.972 88.585 172.298 89.285 172.298 90.265C172.298 90.5917 172.252 90.9183 172.158 91.245C172.065 91.5483 171.948 91.8283 171.808 92.085C171.318 92.085 170.817 92.1083 170.303 92.155C169.79 92.2017 169.288 92.2717 168.798 92.365C168.308 92.4583 167.842 92.5633 167.398 92.68C166.978 92.7733 166.617 92.89 166.313 93.03V104.965ZM177.96 100.66C177.703 100.077 177.423 99.4233 177.12 98.7C176.84 97.9767 176.537 97.1483 176.21 96.215C175.907 95.2817 175.58 94.22 175.23 93.03C174.903 91.8167 174.553 90.4283 174.18 88.865C174.507 88.5383 174.938 88.2583 175.475 88.025C176.035 87.7683 176.642 87.64 177.295 87.64C178.112 87.64 178.788 87.815 179.325 88.165C179.862 88.4917 180.258 89.1217 180.515 90.055L183.28 99.68H183.42C183.7 98.8867 183.968 98.0233 184.225 97.09C184.505 96.1567 184.773 95.2 185.03 94.22C185.287 93.2167 185.52 92.225 185.73 91.245C185.963 90.2417 186.162 89.2617 186.325 88.305C187.165 87.8617 188.087 87.64 189.09 87.64C189.907 87.64 190.583 87.815 191.12 88.165C191.657 88.515 191.925 89.1217 191.925 89.985C191.925 90.615 191.843 91.35 191.68 92.19C191.517 93.0067 191.295 93.8817 191.015 94.815C190.758 95.7483 190.443 96.7167 190.07 97.72C189.72 98.7 189.347 99.6683 188.95 100.625C188.553 101.582 188.145 102.492 187.725 103.355C187.305 104.195 186.897 104.953 186.5 105.63C185.847 106.773 185.24 107.707 184.68 108.43C184.12 109.153 183.583 109.713 183.07 110.11C182.557 110.53 182.043 110.81 181.53 110.95C181.017 111.113 180.48 111.195 179.92 111.195C178.94 111.195 178.147 110.903 177.54 110.32C176.933 109.737 176.572 108.978 176.455 108.045C177.202 107.462 177.948 106.808 178.695 106.085C179.442 105.385 180.118 104.662 180.725 103.915C180.328 103.798 179.897 103.53 179.43 103.11C178.987 102.667 178.497 101.85 177.96 100.66Z" fill="white"/>
</svg>
