<svg width="313" height="28" viewBox="0 0 313 28" fill="none" xmlns="http://www.w3.org/2000/svg">
<path d="M11.532 21.88C11.312 21.94 10.972 22 10.512 22.06C10.052 22.12 9.60199 22.15 9.16199 22.15C8.24199 22.15 7.55199 22 7.09199 21.7C6.63199 21.38 6.40199 20.72 6.40199 19.72V15.67C5.90199 14.93 5.36199 14.11 4.78199 13.21C4.20199 12.31 3.63199 11.39 3.07199 10.45C2.51199 9.51 1.99199 8.59 1.51199 7.69C1.03199 6.77 0.641992 5.93 0.341992 5.17C0.601992 4.81 0.951992 4.48 1.39199 4.18C1.85199 3.88 2.41199 3.73 3.07199 3.73C3.85199 3.73 4.48199 3.89 4.96199 4.21C5.46199 4.53 5.93199 5.13 6.37199 6.01L8.86199 11.02H9.04199C9.32199 10.4 9.56199 9.84 9.76199 9.34C9.98199 8.82 10.192 8.31 10.392 7.81C10.592 7.29 10.802 6.76 11.022 6.22C11.242 5.66 11.492 5.02 11.772 4.3C12.132 4.12 12.532 3.98 12.972 3.88C13.412 3.78 13.832 3.73 14.232 3.73C14.932 3.73 15.522 3.92 16.002 4.3C16.502 4.66 16.752 5.21 16.752 5.95C16.752 6.19 16.702 6.48 16.602 6.82C16.502 7.16 16.272 7.68 15.912 8.38C15.552 9.06 15.022 9.99 14.322 11.17C13.642 12.35 12.712 13.89 11.532 15.79V21.88ZM32.5709 14.71C32.5709 15.95 32.3809 17.06 32.0009 18.04C31.6209 19 31.0809 19.81 30.3809 20.47C29.7009 21.13 28.8809 21.63 27.9209 21.97C26.9609 22.31 25.8909 22.48 24.7109 22.48C23.5309 22.48 22.4609 22.3 21.5009 21.94C20.5409 21.58 19.7109 21.07 19.0109 20.41C18.3309 19.73 17.8009 18.91 17.4209 17.95C17.0409 16.99 16.8509 15.91 16.8509 14.71C16.8509 13.53 17.0409 12.46 17.4209 11.5C17.8009 10.54 18.3309 9.73 19.0109 9.07C19.7109 8.39 20.5409 7.87 21.5009 7.51C22.4609 7.15 23.5309 6.97 24.7109 6.97C25.8909 6.97 26.9609 7.16 27.9209 7.54C28.8809 7.9 29.7009 8.42 30.3809 9.1C31.0809 9.76 31.6209 10.57 32.0009 11.53C32.3809 12.49 32.5709 13.55 32.5709 14.71ZM22.0709 14.71C22.0709 15.93 22.3009 16.87 22.7609 17.53C23.2409 18.17 23.9009 18.49 24.7409 18.49C25.5809 18.49 26.2209 18.16 26.6609 17.5C27.1209 16.84 27.3509 15.91 27.3509 14.71C27.3509 13.51 27.1209 12.59 26.6609 11.95C26.2009 11.29 25.5509 10.96 24.7109 10.96C23.8709 10.96 23.2209 11.29 22.7609 11.95C22.3009 12.59 22.0709 13.51 22.0709 14.71ZM35.059 7.63C35.259 7.57 35.569 7.51 35.989 7.45C36.429 7.39 36.879 7.36 37.339 7.36C37.779 7.36 38.169 7.39 38.509 7.45C38.869 7.51 39.169 7.63 39.409 7.81C39.649 7.99 39.829 8.24 39.949 8.56C40.089 8.86 40.159 9.26 40.159 9.76V16.21C40.159 17.03 40.359 17.62 40.759 17.98C41.159 18.32 41.739 18.49 42.499 18.49C42.959 18.49 43.329 18.45 43.609 18.37C43.909 18.29 44.139 18.21 44.299 18.13V7.63C44.499 7.57 44.809 7.51 45.229 7.45C45.669 7.39 46.119 7.36 46.579 7.36C47.019 7.36 47.409 7.39 47.749 7.45C48.109 7.51 48.409 7.63 48.649 7.81C48.889 7.99 49.069 8.24 49.189 8.56C49.329 8.86 49.399 9.26 49.399 9.76V18.88C49.399 19.88 48.979 20.63 48.139 21.13C47.439 21.57 46.599 21.9 45.619 22.12C44.659 22.36 43.609 22.48 42.469 22.48C41.389 22.48 40.389 22.36 39.469 22.12C38.569 21.88 37.789 21.51 37.129 21.01C36.469 20.51 35.959 19.87 35.599 19.09C35.239 18.29 35.059 17.33 35.059 16.21V7.63ZM64.7658 18.76C65.1058 18.76 65.4758 18.73 65.8758 18.67C66.2958 18.59 66.6058 18.49 66.8058 18.37V15.97L64.6458 16.15C64.0858 16.19 63.6258 16.31 63.2658 16.51C62.9058 16.71 62.7258 17.01 62.7258 17.41C62.7258 17.81 62.8758 18.14 63.1758 18.4C63.4958 18.64 64.0258 18.76 64.7658 18.76ZM64.5258 6.97C65.6058 6.97 66.5858 7.08 67.4658 7.3C68.3658 7.52 69.1258 7.86 69.7458 8.32C70.3858 8.76 70.8758 9.33 71.2158 10.03C71.5558 10.71 71.7258 11.52 71.7258 12.46V19.18C71.7258 19.7 71.5758 20.13 71.2758 20.47C70.9958 20.79 70.6558 21.07 70.2558 21.31C68.9558 22.09 67.1258 22.48 64.7658 22.48C63.7058 22.48 62.7458 22.38 61.8858 22.18C61.0458 21.98 60.3158 21.68 59.6958 21.28C59.0958 20.88 58.6258 20.37 58.2858 19.75C57.9658 19.13 57.8058 18.41 57.8058 17.59C57.8058 16.21 58.2158 15.15 59.0358 14.41C59.8558 13.67 61.1258 13.21 62.8458 13.03L66.7758 12.61V12.4C66.7758 11.82 66.5158 11.41 65.9958 11.17C65.4958 10.91 64.7658 10.78 63.8058 10.78C63.0458 10.78 62.3058 10.86 61.5858 11.02C60.8658 11.18 60.2158 11.38 59.6358 11.62C59.3758 11.44 59.1558 11.17 58.9758 10.81C58.7958 10.43 58.7058 10.04 58.7058 9.64C58.7058 9.12 58.8258 8.71 59.0658 8.41C59.3258 8.09 59.7158 7.82 60.2358 7.6C60.8158 7.38 61.4958 7.22 62.2758 7.12C63.0758 7.02 63.8258 6.97 64.5258 6.97ZM80.0342 21.97C79.8142 22.01 79.4842 22.06 79.0442 22.12C78.6242 22.2 78.1942 22.24 77.7542 22.24C77.3142 22.24 76.9142 22.21 76.5542 22.15C76.2142 22.09 75.9242 21.97 75.6842 21.79C75.4442 21.61 75.2542 21.37 75.1142 21.07C74.9942 20.75 74.9342 20.34 74.9342 19.84V2.44C75.1542 2.4 75.4742 2.35 75.8942 2.29C76.3342 2.21 76.7742 2.17 77.2142 2.17C77.6542 2.17 78.0442 2.2 78.3842 2.26C78.7442 2.32 79.0442 2.44 79.2842 2.62C79.5242 2.8 79.7042 3.05 79.8242 3.37C79.9642 3.67 80.0342 4.07 80.0342 4.57V21.97ZM90.2424 6.97C91.0624 6.97 91.8624 7.09 92.6424 7.33C93.4424 7.55 94.1324 7.89 94.7124 8.35C95.3124 7.95 95.9824 7.62 96.7224 7.36C97.4824 7.1 98.3924 6.97 99.4524 6.97C100.212 6.97 100.952 7.07 101.672 7.27C102.412 7.47 103.062 7.79 103.622 8.23C104.202 8.65 104.662 9.22 105.002 9.94C105.342 10.64 105.512 11.5 105.512 12.52V21.97C105.312 22.03 104.992 22.09 104.552 22.15C104.132 22.21 103.692 22.24 103.232 22.24C102.792 22.24 102.392 22.21 102.032 22.15C101.692 22.09 101.402 21.97 101.162 21.79C100.922 21.61 100.732 21.37 100.592 21.07C100.472 20.75 100.412 20.34 100.412 19.84V12.67C100.412 12.07 100.242 11.64 99.9024 11.38C99.5624 11.1 99.1024 10.96 98.5224 10.96C98.2424 10.96 97.9424 11.03 97.6224 11.17C97.3024 11.29 97.0624 11.42 96.9024 11.56C96.9224 11.64 96.9324 11.72 96.9324 11.8C96.9324 11.86 96.9324 11.92 96.9324 11.98V21.97C96.7124 22.03 96.3824 22.09 95.9424 22.15C95.5224 22.21 95.0924 22.24 94.6524 22.24C94.2124 22.24 93.8124 22.21 93.4524 22.15C93.1124 22.09 92.8224 21.97 92.5824 21.79C92.3424 21.61 92.1524 21.37 92.0124 21.07C91.8924 20.75 91.8324 20.34 91.8324 19.84V12.67C91.8324 12.07 91.6424 11.64 91.2624 11.38C90.9024 11.1 90.4624 10.96 89.9424 10.96C89.5824 10.96 89.2724 11.02 89.0124 11.14C88.7524 11.24 88.5324 11.34 88.3524 11.44V21.97C88.1524 22.03 87.8324 22.09 87.3924 22.15C86.9724 22.21 86.5324 22.24 86.0724 22.24C85.6324 22.24 85.2324 22.21 84.8724 22.15C84.5324 22.09 84.2424 21.97 84.0024 21.79C83.7624 21.61 83.5724 21.37 83.4324 21.07C83.3124 20.75 83.2524 20.34 83.2524 19.84V10.78C83.2524 10.24 83.3624 9.81 83.5824 9.49C83.8224 9.17 84.1424 8.87 84.5424 8.59C85.2224 8.11 86.0624 7.72 87.0624 7.42C88.0824 7.12 89.1424 6.97 90.2424 6.97ZM123.713 14.71C123.713 15.95 123.523 17.06 123.143 18.04C122.763 19 122.223 19.81 121.523 20.47C120.843 21.13 120.023 21.63 119.063 21.97C118.103 22.31 117.033 22.48 115.853 22.48C114.673 22.48 113.603 22.3 112.643 21.94C111.683 21.58 110.853 21.07 110.153 20.41C109.473 19.73 108.943 18.91 108.563 17.95C108.183 16.99 107.993 15.91 107.993 14.71C107.993 13.53 108.183 12.46 108.563 11.5C108.943 10.54 109.473 9.73 110.153 9.07C110.853 8.39 111.683 7.87 112.643 7.51C113.603 7.15 114.673 6.97 115.853 6.97C117.033 6.97 118.103 7.16 119.063 7.54C120.023 7.9 120.843 8.42 121.523 9.1C122.223 9.76 122.763 10.57 123.143 11.53C123.523 12.49 123.713 13.55 123.713 14.71ZM113.213 14.71C113.213 15.93 113.443 16.87 113.903 17.53C114.383 18.17 115.043 18.49 115.883 18.49C116.723 18.49 117.363 18.16 117.803 17.5C118.263 16.84 118.493 15.91 118.493 14.71C118.493 13.51 118.263 12.59 117.803 11.95C117.343 11.29 116.693 10.96 115.853 10.96C115.013 10.96 114.363 11.29 113.903 11.95C113.443 12.59 113.213 13.51 113.213 14.71ZM138.502 17.65C138.502 19.17 137.932 20.36 136.792 21.22C135.652 22.08 133.972 22.51 131.752 22.51C130.912 22.51 130.132 22.45 129.412 22.33C128.692 22.21 128.072 22.03 127.552 21.79C127.052 21.53 126.652 21.21 126.352 20.83C126.072 20.45 125.932 20 125.932 19.48C125.932 19 126.032 18.6 126.232 18.28C126.432 17.94 126.672 17.66 126.952 17.44C127.532 17.76 128.192 18.05 128.932 18.31C129.692 18.55 130.562 18.67 131.542 18.67C132.162 18.67 132.632 18.58 132.952 18.4C133.292 18.22 133.462 17.98 133.462 17.68C133.462 17.4 133.342 17.18 133.102 17.02C132.862 16.86 132.462 16.73 131.902 16.63L131.002 16.45C129.262 16.11 127.962 15.58 127.102 14.86C126.262 14.12 125.842 13.07 125.842 11.71C125.842 10.97 126.002 10.3 126.322 9.7C126.642 9.1 127.092 8.6 127.672 8.2C128.252 7.8 128.942 7.49 129.742 7.27C130.562 7.05 131.462 6.94 132.442 6.94C133.182 6.94 133.872 7 134.512 7.12C135.172 7.22 135.742 7.38 136.222 7.6C136.702 7.82 137.082 8.11 137.362 8.47C137.642 8.81 137.782 9.22 137.782 9.7C137.782 10.16 137.692 10.56 137.512 10.9C137.352 11.22 137.142 11.49 136.882 11.71C136.722 11.61 136.482 11.51 136.162 11.41C135.842 11.29 135.492 11.19 135.112 11.11C134.732 11.01 134.342 10.93 133.942 10.87C133.562 10.81 133.212 10.78 132.892 10.78C132.232 10.78 131.722 10.86 131.362 11.02C131.002 11.16 130.822 11.39 130.822 11.71C130.822 11.93 130.922 12.11 131.122 12.25C131.322 12.39 131.702 12.52 132.262 12.64L133.192 12.85C135.112 13.29 136.472 13.9 137.272 14.68C138.092 15.44 138.502 16.43 138.502 17.65ZM146.067 16.99C146.067 17.51 146.227 17.88 146.547 18.1C146.887 18.32 147.357 18.43 147.957 18.43C148.257 18.43 148.567 18.41 148.887 18.37C149.207 18.31 149.487 18.24 149.727 18.16C149.907 18.38 150.057 18.63 150.177 18.91C150.317 19.17 150.387 19.49 150.387 19.87C150.387 20.63 150.097 21.25 149.517 21.73C148.957 22.21 147.957 22.45 146.517 22.45C144.757 22.45 143.397 22.05 142.437 21.25C141.497 20.45 141.027 19.15 141.027 17.35V4.51C141.247 4.45 141.557 4.39 141.957 4.33C142.377 4.25 142.817 4.21 143.277 4.21C144.157 4.21 144.837 4.37 145.317 4.69C145.817 4.99 146.067 5.64 146.067 6.64V8.56H149.997C150.117 8.78 150.227 9.06 150.327 9.4C150.447 9.72 150.507 10.08 150.507 10.48C150.507 11.18 150.347 11.69 150.027 12.01C149.727 12.31 149.317 12.46 148.797 12.46H146.067V16.99ZM166.095 6.97C167.235 6.97 168.265 7.12 169.185 7.42C170.125 7.7 170.915 8.07 171.555 8.53C171.955 8.81 172.265 9.12 172.485 9.46C172.725 9.8 172.845 10.24 172.845 10.78V21.28C172.845 22.34 172.645 23.25 172.245 24.01C171.845 24.79 171.295 25.43 170.595 25.93C169.915 26.45 169.105 26.83 168.165 27.07C167.245 27.31 166.255 27.43 165.195 27.43C163.375 27.43 161.945 27.18 160.905 26.68C159.865 26.2 159.345 25.41 159.345 24.31C159.345 23.85 159.435 23.44 159.615 23.08C159.815 22.74 160.035 22.48 160.275 22.3C160.855 22.62 161.505 22.89 162.225 23.11C162.965 23.33 163.725 23.44 164.505 23.44C165.585 23.44 166.445 23.26 167.085 22.9C167.725 22.54 168.045 21.96 168.045 21.16V20.68C167.225 21.04 166.225 21.22 165.045 21.22C164.145 21.22 163.285 21.09 162.465 20.83C161.665 20.55 160.955 20.13 160.335 19.57C159.735 18.99 159.245 18.25 158.865 17.35C158.505 16.45 158.325 15.38 158.325 14.14C158.325 12.92 158.515 11.86 158.895 10.96C159.295 10.06 159.835 9.32 160.515 8.74C161.215 8.14 162.035 7.7 162.975 7.42C163.935 7.12 164.975 6.97 166.095 6.97ZM167.955 11.32C167.815 11.24 167.605 11.16 167.325 11.08C167.065 11 166.735 10.96 166.335 10.96C165.355 10.96 164.615 11.24 164.115 11.8C163.635 12.34 163.395 13.12 163.395 14.14C163.395 15.3 163.635 16.14 164.115 16.66C164.615 17.16 165.245 17.41 166.005 17.41C166.825 17.41 167.475 17.22 167.955 16.84V11.32ZM183.716 22.48C182.536 22.48 181.436 22.32 180.416 22C179.416 21.66 178.536 21.16 177.776 20.5C177.036 19.84 176.446 19.01 176.006 18.01C175.586 17.01 175.376 15.84 175.376 14.5C175.376 13.18 175.586 12.05 176.006 11.11C176.446 10.15 177.016 9.37 177.716 8.77C178.416 8.15 179.216 7.7 180.116 7.42C181.016 7.12 181.936 6.97 182.876 6.97C183.936 6.97 184.896 7.13 185.756 7.45C186.636 7.77 187.386 8.21 188.006 8.77C188.646 9.33 189.136 10 189.476 10.78C189.836 11.56 190.016 12.41 190.016 13.33C190.016 14.01 189.826 14.53 189.446 14.89C189.066 15.25 188.536 15.48 187.856 15.58L180.446 16.69C180.666 17.35 181.116 17.85 181.796 18.19C182.476 18.51 183.256 18.67 184.136 18.67C184.956 18.67 185.726 18.57 186.446 18.37C187.186 18.15 187.786 17.9 188.246 17.62C188.566 17.82 188.836 18.1 189.056 18.46C189.276 18.82 189.386 19.2 189.386 19.6C189.386 20.5 188.966 21.17 188.126 21.61C187.486 21.95 186.766 22.18 185.966 22.3C185.166 22.42 184.416 22.48 183.716 22.48ZM182.876 10.69C182.396 10.69 181.976 10.77 181.616 10.93C181.276 11.09 180.996 11.3 180.776 11.56C180.556 11.8 180.386 12.08 180.266 12.4C180.166 12.7 180.106 13.01 180.086 13.33L185.216 12.49C185.156 12.09 184.936 11.69 184.556 11.29C184.176 10.89 183.616 10.69 182.876 10.69ZM197.571 16.99C197.571 17.51 197.731 17.88 198.051 18.1C198.391 18.32 198.861 18.43 199.461 18.43C199.761 18.43 200.071 18.41 200.391 18.37C200.711 18.31 200.991 18.24 201.231 18.16C201.411 18.38 201.561 18.63 201.681 18.91C201.821 19.17 201.891 19.49 201.891 19.87C201.891 20.63 201.601 21.25 201.021 21.73C200.461 22.21 199.461 22.45 198.021 22.45C196.261 22.45 194.901 22.05 193.941 21.25C193.001 20.45 192.531 19.15 192.531 17.35V4.51C192.751 4.45 193.061 4.39 193.461 4.33C193.881 4.25 194.321 4.21 194.781 4.21C195.661 4.21 196.341 4.37 196.821 4.69C197.321 4.99 197.571 5.64 197.571 6.64V8.56H201.501C201.621 8.78 201.731 9.06 201.831 9.4C201.951 9.72 202.011 10.08 202.011 10.48C202.011 11.18 201.851 11.69 201.531 12.01C201.231 12.31 200.821 12.46 200.301 12.46H197.571V16.99ZM216.729 18.76C217.069 18.76 217.439 18.73 217.839 18.67C218.259 18.59 218.569 18.49 218.769 18.37V15.97L216.609 16.15C216.049 16.19 215.589 16.31 215.229 16.51C214.869 16.71 214.689 17.01 214.689 17.41C214.689 17.81 214.839 18.14 215.139 18.4C215.459 18.64 215.989 18.76 216.729 18.76ZM216.489 6.97C217.569 6.97 218.549 7.08 219.429 7.3C220.329 7.52 221.089 7.86 221.709 8.32C222.349 8.76 222.839 9.33 223.179 10.03C223.519 10.71 223.689 11.52 223.689 12.46V19.18C223.689 19.7 223.539 20.13 223.239 20.47C222.959 20.79 222.619 21.07 222.219 21.31C220.919 22.09 219.089 22.48 216.729 22.48C215.669 22.48 214.709 22.38 213.849 22.18C213.009 21.98 212.279 21.68 211.659 21.28C211.059 20.88 210.589 20.37 210.249 19.75C209.929 19.13 209.769 18.41 209.769 17.59C209.769 16.21 210.179 15.15 210.999 14.41C211.819 13.67 213.089 13.21 214.809 13.03L218.739 12.61V12.4C218.739 11.82 218.479 11.41 217.959 11.17C217.459 10.91 216.729 10.78 215.769 10.78C215.009 10.78 214.269 10.86 213.549 11.02C212.829 11.18 212.179 11.38 211.599 11.62C211.339 11.44 211.119 11.17 210.939 10.81C210.759 10.43 210.669 10.04 210.669 9.64C210.669 9.12 210.789 8.71 211.029 8.41C211.289 8.09 211.679 7.82 212.199 7.6C212.779 7.38 213.459 7.22 214.239 7.12C215.039 7.02 215.789 6.97 216.489 6.97ZM231.997 21.97C231.777 22.01 231.447 22.06 231.007 22.12C230.587 22.2 230.157 22.24 229.717 22.24C229.277 22.24 228.877 22.21 228.517 22.15C228.177 22.09 227.887 21.97 227.647 21.79C227.407 21.61 227.217 21.37 227.077 21.07C226.957 20.75 226.897 20.34 226.897 19.84V2.44C227.117 2.4 227.437 2.35 227.857 2.29C228.297 2.21 228.737 2.17 229.177 2.17C229.617 2.17 230.007 2.2 230.347 2.26C230.707 2.32 231.007 2.44 231.247 2.62C231.487 2.8 231.667 3.05 231.787 3.37C231.927 3.67 231.997 4.07 231.997 4.57V21.97ZM240.405 21.97C240.185 22.01 239.855 22.06 239.415 22.12C238.995 22.2 238.565 22.24 238.125 22.24C237.685 22.24 237.285 22.21 236.925 22.15C236.585 22.09 236.295 21.97 236.055 21.79C235.815 21.61 235.625 21.37 235.485 21.07C235.365 20.75 235.305 20.34 235.305 19.84V2.44C235.525 2.4 235.845 2.35 236.265 2.29C236.705 2.21 237.145 2.17 237.585 2.17C238.025 2.17 238.415 2.2 238.755 2.26C239.115 2.32 239.415 2.44 239.655 2.62C239.895 2.8 240.075 3.05 240.195 3.37C240.335 3.67 240.405 4.07 240.405 4.57V21.97ZM264.719 14.71C264.719 15.95 264.529 17.06 264.149 18.04C263.769 19 263.229 19.81 262.529 20.47C261.849 21.13 261.029 21.63 260.069 21.97C259.109 22.31 258.039 22.48 256.859 22.48C255.679 22.48 254.609 22.3 253.649 21.94C252.689 21.58 251.859 21.07 251.159 20.41C250.479 19.73 249.949 18.91 249.569 17.95C249.189 16.99 248.999 15.91 248.999 14.71C248.999 13.53 249.189 12.46 249.569 11.5C249.949 10.54 250.479 9.73 251.159 9.07C251.859 8.39 252.689 7.87 253.649 7.51C254.609 7.15 255.679 6.97 256.859 6.97C258.039 6.97 259.109 7.16 260.069 7.54C261.029 7.9 261.849 8.42 262.529 9.1C263.229 9.76 263.769 10.57 264.149 11.53C264.529 12.49 264.719 13.55 264.719 14.71ZM254.219 14.71C254.219 15.93 254.449 16.87 254.909 17.53C255.389 18.17 256.049 18.49 256.889 18.49C257.729 18.49 258.369 18.16 258.809 17.5C259.269 16.84 259.499 15.91 259.499 14.71C259.499 13.51 259.269 12.59 258.809 11.95C258.349 11.29 257.699 10.96 256.859 10.96C256.019 10.96 255.369 11.29 254.909 11.95C254.449 12.59 254.219 13.51 254.219 14.71ZM267.267 7.42C267.267 6.4 267.437 5.53 267.777 4.81C268.137 4.07 268.617 3.47 269.217 3.01C269.817 2.53 270.517 2.18 271.317 1.96C272.137 1.74 273.007 1.63 273.927 1.63C275.407 1.63 276.497 1.83 277.197 2.23C277.897 2.61 278.247 3.27 278.247 4.21C278.247 4.61 278.157 4.97 277.977 5.29C277.817 5.61 277.637 5.85 277.437 6.01C277.057 5.91 276.657 5.83 276.237 5.77C275.837 5.69 275.367 5.65 274.827 5.65C273.967 5.65 273.297 5.8 272.817 6.1C272.337 6.38 272.097 6.88 272.097 7.6V8.56H277.017C277.137 8.78 277.247 9.06 277.347 9.4C277.467 9.72 277.527 10.08 277.527 10.48C277.527 11.18 277.367 11.69 277.047 12.01C276.747 12.31 276.337 12.46 275.817 12.46H272.367V21.97C272.167 22.03 271.847 22.09 271.407 22.15C270.987 22.21 270.547 22.24 270.087 22.24C269.647 22.24 269.247 22.21 268.887 22.15C268.547 22.09 268.257 21.97 268.017 21.79C267.777 21.61 267.587 21.37 267.447 21.07C267.327 20.75 267.267 20.34 267.267 19.84V7.42ZM285.984 3.37C285.984 2.61 286.234 1.97 286.734 1.45C287.254 0.929999 287.934 0.669999 288.774 0.669999C289.614 0.669999 290.284 0.929999 290.784 1.45C291.304 1.97 291.564 2.61 291.564 3.37C291.564 4.13 291.304 4.77 290.784 5.29C290.284 5.81 289.614 6.07 288.774 6.07C287.934 6.07 287.254 5.81 286.734 5.29C286.234 4.77 285.984 4.13 285.984 3.37ZM291.324 21.97C291.104 22.01 290.774 22.06 290.334 22.12C289.914 22.2 289.484 22.24 289.044 22.24C288.604 22.24 288.204 22.21 287.844 22.15C287.504 22.09 287.214 21.97 286.974 21.79C286.734 21.61 286.544 21.37 286.404 21.07C286.284 20.75 286.224 20.34 286.224 19.84V7.63C286.444 7.59 286.764 7.54 287.184 7.48C287.624 7.4 288.064 7.36 288.504 7.36C288.944 7.36 289.334 7.39 289.674 7.45C290.034 7.51 290.334 7.63 290.574 7.81C290.814 7.99 290.994 8.24 291.114 8.56C291.254 8.86 291.324 9.26 291.324 9.76V21.97ZM299.671 16.99C299.671 17.51 299.831 17.88 300.151 18.1C300.491 18.32 300.961 18.43 301.561 18.43C301.861 18.43 302.171 18.41 302.491 18.37C302.811 18.31 303.091 18.24 303.331 18.16C303.511 18.38 303.661 18.63 303.781 18.91C303.921 19.17 303.991 19.49 303.991 19.87C303.991 20.63 303.701 21.25 303.121 21.73C302.561 22.21 301.561 22.45 300.121 22.45C298.361 22.45 297.001 22.05 296.041 21.25C295.101 20.45 294.631 19.15 294.631 17.35V4.51C294.851 4.45 295.161 4.39 295.561 4.33C295.981 4.25 296.421 4.21 296.881 4.21C297.761 4.21 298.441 4.37 298.921 4.69C299.421 4.99 299.671 5.64 299.671 6.64V8.56H303.601C303.721 8.78 303.831 9.06 303.931 9.4C304.051 9.72 304.111 10.08 304.111 10.48C304.111 11.18 303.951 11.69 303.631 12.01C303.331 12.31 302.921 12.46 302.401 12.46H299.671V16.99ZM312.132 4.6C312.132 5.06 312.122 5.73 312.102 6.61C312.082 7.47 312.042 8.41 311.982 9.43C311.922 10.43 311.842 11.44 311.742 12.46C311.642 13.46 311.522 14.33 311.382 15.07C311.302 15.13 311.182 15.19 311.022 15.25C310.862 15.31 310.692 15.36 310.512 15.4C310.332 15.44 310.152 15.47 309.972 15.49C309.792 15.51 309.632 15.52 309.492 15.52C308.912 15.52 308.422 15.43 308.022 15.25C307.642 15.07 307.402 14.72 307.302 14.2C307.202 13.74 307.112 13.04 307.032 12.1C306.972 11.16 306.912 10.14 306.852 9.04C306.792 7.94 306.742 6.85 306.702 5.77C306.682 4.69 306.672 3.77 306.672 3.01C307.072 2.79 307.522 2.62 308.022 2.5C308.542 2.36 309.052 2.29 309.552 2.29C310.372 2.29 311.002 2.48 311.442 2.86C311.902 3.24 312.132 3.82 312.132 4.6ZM306.612 19.72C306.612 18.9 306.862 18.23 307.362 17.71C307.882 17.17 308.592 16.9 309.492 16.9C310.392 16.9 311.092 17.17 311.592 17.71C312.112 18.23 312.372 18.9 312.372 19.72C312.372 20.54 312.112 21.22 311.592 21.76C311.092 22.28 310.392 22.54 309.492 22.54C308.592 22.54 307.882 22.28 307.362 21.76C306.862 21.22 306.612 20.54 306.612 19.72Z" fill="#464646"/>
</svg>
