<svg width="346" height="23" viewBox="0 0 346 23" fill="none" xmlns="http://www.w3.org/2000/svg">
<path d="M6.17 16.12V21.88C5.95 21.94 5.6 22 5.12 22.06C4.66 22.12 4.2 22.15 3.74 22.15C3.28 22.15 2.87 22.11 2.51 22.03C2.17 21.97 1.88 21.85 1.64 21.67C1.42 21.49 1.25 21.24 1.13 20.92C1.01 20.6 0.95 20.18 0.95 19.66V5.53C0.95 5.11 1.06 4.79 1.28 4.57C1.52 4.33 1.84 4.14 2.24 4C2.92 3.76 3.71 3.59 4.61 3.49C5.51 3.37 6.47 3.31 7.49 3.31C10.25 3.31 12.33 3.89 13.73 5.05C15.13 6.21 15.83 7.78 15.83 9.76C15.83 11 15.51 12.06 14.87 12.94C14.23 13.82 13.47 14.5 12.59 14.98C13.31 15.96 14.02 16.88 14.72 17.74C15.42 18.6 15.97 19.38 16.37 20.08C16.17 20.78 15.8 21.32 15.26 21.7C14.74 22.06 14.15 22.24 13.49 22.24C13.05 22.24 12.67 22.19 12.35 22.09C12.03 21.99 11.75 21.85 11.51 21.67C11.27 21.49 11.05 21.27 10.85 21.01C10.65 20.75 10.46 20.47 10.28 20.17L7.76 16.12H6.17ZM8.06 12.13C8.82 12.13 9.42 11.94 9.86 11.56C10.3 11.16 10.52 10.58 10.52 9.82C10.52 9.06 10.27 8.49 9.77 8.11C9.29 7.71 8.52 7.51 7.46 7.51C7.16 7.51 6.92 7.52 6.74 7.54C6.56 7.56 6.36 7.59 6.14 7.63V12.13H8.06ZM26.1118 22.48C24.9318 22.48 23.8318 22.32 22.8118 22C21.8118 21.66 20.9318 21.16 20.1718 20.5C19.4318 19.84 18.8418 19.01 18.4018 18.01C17.9818 17.01 17.7718 15.84 17.7718 14.5C17.7718 13.18 17.9818 12.05 18.4018 11.11C18.8418 10.15 19.4118 9.37 20.1118 8.77C20.8118 8.15 21.6118 7.7 22.5118 7.42C23.4118 7.12 24.3318 6.97 25.2718 6.97C26.3318 6.97 27.2918 7.13 28.1518 7.45C29.0318 7.77 29.7818 8.21 30.4018 8.77C31.0418 9.33 31.5318 10 31.8718 10.78C32.2318 11.56 32.4118 12.41 32.4118 13.33C32.4118 14.01 32.2218 14.53 31.8418 14.89C31.4618 15.25 30.9318 15.48 30.2518 15.58L22.8418 16.69C23.0618 17.35 23.5118 17.85 24.1918 18.19C24.8718 18.51 25.6518 18.67 26.5318 18.67C27.3518 18.67 28.1218 18.57 28.8418 18.37C29.5818 18.15 30.1818 17.9 30.6418 17.62C30.9618 17.82 31.2318 18.1 31.4518 18.46C31.6718 18.82 31.7818 19.2 31.7818 19.6C31.7818 20.5 31.3618 21.17 30.5218 21.61C29.8818 21.95 29.1618 22.18 28.3618 22.3C27.5618 22.42 26.8118 22.48 26.1118 22.48ZM25.2718 10.69C24.7918 10.69 24.3718 10.77 24.0118 10.93C23.6718 11.09 23.3918 11.3 23.1718 11.56C22.9518 11.8 22.7818 12.08 22.6618 12.4C22.5618 12.7 22.5018 13.01 22.4818 13.33L27.6118 12.49C27.5518 12.09 27.3318 11.69 26.9518 11.29C26.5718 10.89 26.0118 10.69 25.2718 10.69ZM47.1666 17.65C47.1666 19.17 46.5966 20.36 45.4566 21.22C44.3166 22.08 42.6366 22.51 40.4166 22.51C39.5766 22.51 38.7966 22.45 38.0766 22.33C37.3566 22.21 36.7366 22.03 36.2166 21.79C35.7166 21.53 35.3166 21.21 35.0166 20.83C34.7366 20.45 34.5966 20 34.5966 19.48C34.5966 19 34.6966 18.6 34.8966 18.28C35.0966 17.94 35.3366 17.66 35.6166 17.44C36.1966 17.76 36.8566 18.05 37.5966 18.31C38.3566 18.55 39.2266 18.67 40.2066 18.67C40.8266 18.67 41.2966 18.58 41.6166 18.4C41.9566 18.22 42.1266 17.98 42.1266 17.68C42.1266 17.4 42.0066 17.18 41.7666 17.02C41.5266 16.86 41.1266 16.73 40.5666 16.63L39.6666 16.45C37.9266 16.11 36.6266 15.58 35.7666 14.86C34.9266 14.12 34.5066 13.07 34.5066 11.71C34.5066 10.97 34.6666 10.3 34.9866 9.7C35.3066 9.1 35.7566 8.6 36.3366 8.2C36.9166 7.8 37.6066 7.49 38.4066 7.27C39.2266 7.05 40.1266 6.94 41.1066 6.94C41.8466 6.94 42.5366 7 43.1766 7.12C43.8366 7.22 44.4066 7.38 44.8866 7.6C45.3666 7.82 45.7466 8.11 46.0266 8.47C46.3066 8.81 46.4466 9.22 46.4466 9.7C46.4466 10.16 46.3566 10.56 46.1766 10.9C46.0166 11.22 45.8066 11.49 45.5466 11.71C45.3866 11.61 45.1466 11.51 44.8266 11.41C44.5066 11.29 44.1566 11.19 43.7766 11.11C43.3966 11.01 43.0066 10.93 42.6066 10.87C42.2266 10.81 41.8766 10.78 41.5566 10.78C40.8966 10.78 40.3866 10.86 40.0266 11.02C39.6666 11.16 39.4866 11.39 39.4866 11.71C39.4866 11.93 39.5866 12.11 39.7866 12.25C39.9866 12.39 40.3666 12.52 40.9266 12.64L41.8566 12.85C43.7766 13.29 45.1366 13.9 45.9366 14.68C46.7566 15.44 47.1666 16.43 47.1666 17.65ZM64.8688 14.71C64.8688 15.95 64.6788 17.06 64.2988 18.04C63.9188 19 63.3788 19.81 62.6788 20.47C61.9988 21.13 61.1788 21.63 60.2188 21.97C59.2588 22.31 58.1888 22.48 57.0088 22.48C55.8288 22.48 54.7588 22.3 53.7988 21.94C52.8388 21.58 52.0088 21.07 51.3088 20.41C50.6288 19.73 50.0988 18.91 49.7188 17.95C49.3388 16.99 49.1488 15.91 49.1488 14.71C49.1488 13.53 49.3388 12.46 49.7188 11.5C50.0988 10.54 50.6288 9.73 51.3088 9.07C52.0088 8.39 52.8388 7.87 53.7988 7.51C54.7588 7.15 55.8288 6.97 57.0088 6.97C58.1888 6.97 59.2588 7.16 60.2188 7.54C61.1788 7.9 61.9988 8.42 62.6788 9.1C63.3788 9.76 63.9188 10.57 64.2988 11.53C64.6788 12.49 64.8688 13.55 64.8688 14.71ZM54.3688 14.71C54.3688 15.93 54.5988 16.87 55.0588 17.53C55.5388 18.17 56.1988 18.49 57.0387 18.49C57.8788 18.49 58.5188 18.16 58.9588 17.5C59.4188 16.84 59.6488 15.91 59.6488 14.71C59.6488 13.51 59.4188 12.59 58.9588 11.95C58.4988 11.29 57.8488 10.96 57.0088 10.96C56.1688 10.96 55.5188 11.29 55.0588 11.95C54.5988 12.59 54.3688 13.51 54.3688 14.71ZM67.3569 7.63C67.5569 7.57 67.8669 7.51 68.2869 7.45C68.7269 7.39 69.1769 7.36 69.6369 7.36C70.0769 7.36 70.4669 7.39 70.8069 7.45C71.1669 7.51 71.4669 7.63 71.7069 7.81C71.9469 7.99 72.1269 8.24 72.2469 8.56C72.3869 8.86 72.4569 9.26 72.4569 9.76V16.21C72.4569 17.03 72.6569 17.62 73.0569 17.98C73.4569 18.32 74.0369 18.49 74.7969 18.49C75.2569 18.49 75.6269 18.45 75.9069 18.37C76.2069 18.29 76.4369 18.21 76.5969 18.13V7.63C76.7969 7.57 77.1069 7.51 77.5269 7.45C77.9669 7.39 78.4169 7.36 78.8769 7.36C79.3169 7.36 79.7069 7.39 80.0469 7.45C80.4069 7.51 80.7069 7.63 80.9469 7.81C81.1869 7.99 81.3669 8.24 81.4869 8.56C81.6269 8.86 81.6969 9.26 81.6969 9.76V18.88C81.6969 19.88 81.2769 20.63 80.4369 21.13C79.7369 21.57 78.8969 21.9 77.9169 22.12C76.9569 22.36 75.9069 22.48 74.7669 22.48C73.6869 22.48 72.6869 22.36 71.7669 22.12C70.8669 21.88 70.0869 21.51 69.4269 21.01C68.7669 20.51 68.2569 19.87 67.8969 19.09C67.5369 18.29 67.3569 17.33 67.3569 16.21V7.63ZM89.9178 21.97C89.7178 22.03 89.3978 22.09 88.9578 22.15C88.5378 22.21 88.0978 22.24 87.6378 22.24C87.1978 22.24 86.7978 22.21 86.4378 22.15C86.0978 22.09 85.8078 21.97 85.5678 21.79C85.3278 21.61 85.1378 21.37 84.9978 21.07C84.8778 20.75 84.8178 20.34 84.8178 19.84V10.84C84.8178 10.38 84.8978 9.99 85.0578 9.67C85.2378 9.33 85.4878 9.03 85.8078 8.77C86.1278 8.51 86.5178 8.28 86.9778 8.08C87.4578 7.86 87.9678 7.67 88.5078 7.51C89.0478 7.35 89.6078 7.23 90.1878 7.15C90.7678 7.05 91.3478 7 91.9278 7C92.8878 7 93.6478 7.19 94.2078 7.57C94.7678 7.93 95.0478 8.53 95.0478 9.37C95.0478 9.65 95.0078 9.93 94.9278 10.21C94.8478 10.47 94.7478 10.71 94.6278 10.93C94.2078 10.93 93.7778 10.95 93.3378 10.99C92.8978 11.03 92.4678 11.09 92.0478 11.17C91.6278 11.25 91.2278 11.34 90.8478 11.44C90.4878 11.52 90.1778 11.62 89.9178 11.74V21.97ZM104.815 10.99C104.315 10.99 103.835 11.07 103.375 11.23C102.935 11.39 102.545 11.63 102.205 11.95C101.885 12.25 101.625 12.63 101.425 13.09C101.225 13.55 101.125 14.09 101.125 14.71C101.125 15.95 101.475 16.88 102.175 17.5C102.895 18.12 103.765 18.43 104.785 18.43C105.385 18.43 105.905 18.36 106.345 18.22C106.785 18.08 107.175 17.93 107.515 17.77C107.915 18.05 108.215 18.36 108.415 18.7C108.615 19.02 108.715 19.41 108.715 19.87C108.715 20.69 108.325 21.33 107.545 21.79C106.765 22.23 105.685 22.45 104.305 22.45C103.045 22.45 101.905 22.27 100.885 21.91C99.8652 21.53 98.9852 21.01 98.2452 20.35C97.5252 19.67 96.9652 18.86 96.5652 17.92C96.1652 16.98 95.9652 15.94 95.9652 14.8C95.9652 13.48 96.1752 12.33 96.5952 11.35C97.0352 10.35 97.6252 9.53 98.3652 8.89C99.1052 8.25 99.9552 7.77 100.915 7.45C101.895 7.13 102.925 6.97 104.005 6.97C105.445 6.97 106.555 7.23 107.335 7.75C108.115 8.27 108.505 8.94 108.505 9.76C108.505 10.14 108.415 10.5 108.235 10.84C108.055 11.16 107.845 11.44 107.605 11.68C107.265 11.52 106.855 11.37 106.375 11.23C105.895 11.07 105.375 10.99 104.815 10.99ZM118.543 22.48C117.363 22.48 116.263 22.32 115.243 22C114.243 21.66 113.363 21.16 112.603 20.5C111.863 19.84 111.273 19.01 110.833 18.01C110.413 17.01 110.203 15.84 110.203 14.5C110.203 13.18 110.413 12.05 110.833 11.11C111.273 10.15 111.843 9.37 112.543 8.77C113.243 8.15 114.043 7.7 114.943 7.42C115.843 7.12 116.763 6.97 117.703 6.97C118.763 6.97 119.723 7.13 120.583 7.45C121.463 7.77 122.213 8.21 122.833 8.77C123.473 9.33 123.963 10 124.303 10.78C124.663 11.56 124.843 12.41 124.843 13.33C124.843 14.01 124.653 14.53 124.273 14.89C123.893 15.25 123.363 15.48 122.683 15.58L115.273 16.69C115.493 17.35 115.943 17.85 116.623 18.19C117.303 18.51 118.083 18.67 118.963 18.67C119.783 18.67 120.553 18.57 121.273 18.37C122.013 18.15 122.613 17.9 123.073 17.62C123.393 17.82 123.663 18.1 123.883 18.46C124.103 18.82 124.213 19.2 124.213 19.6C124.213 20.5 123.793 21.17 122.953 21.61C122.313 21.95 121.593 22.18 120.793 22.3C119.993 22.42 119.243 22.48 118.543 22.48ZM117.703 10.69C117.223 10.69 116.803 10.77 116.443 10.93C116.103 11.09 115.823 11.3 115.603 11.56C115.383 11.8 115.213 12.08 115.093 12.4C114.993 12.7 114.933 13.01 114.913 13.33L120.043 12.49C119.983 12.09 119.763 11.69 119.383 11.29C119.003 10.89 118.443 10.69 117.703 10.69ZM126.698 10.15C126.698 9.31 126.958 8.61 127.478 8.05C127.998 7.49 128.708 7.21 129.608 7.21C130.508 7.21 131.218 7.49 131.738 8.05C132.258 8.61 132.518 9.31 132.518 10.15C132.518 10.99 132.258 11.69 131.738 12.25C131.218 12.81 130.508 13.09 129.608 13.09C128.708 13.09 127.998 12.81 127.478 12.25C126.958 11.69 126.698 10.99 126.698 10.15ZM126.698 19.57C126.698 18.73 126.958 18.03 127.478 17.47C127.998 16.91 128.708 16.63 129.608 16.63C130.508 16.63 131.218 16.91 131.738 17.47C132.258 18.03 132.518 18.73 132.518 19.57C132.518 20.41 132.258 21.11 131.738 21.67C131.218 22.23 130.508 22.51 129.608 22.51C128.708 22.51 127.998 22.23 127.478 21.67C126.958 21.11 126.698 20.41 126.698 19.57ZM141.099 7.42C141.099 6.4 141.269 5.53 141.609 4.81C141.969 4.07 142.449 3.47 143.049 3.01C143.649 2.53 144.349 2.18 145.149 1.96C145.969 1.74 146.839 1.63 147.759 1.63C149.239 1.63 150.329 1.83 151.029 2.23C151.729 2.61 152.079 3.27 152.079 4.21C152.079 4.61 151.989 4.97 151.809 5.29C151.649 5.61 151.469 5.85 151.269 6.01C150.889 5.91 150.489 5.83 150.069 5.77C149.669 5.69 149.199 5.65 148.659 5.65C147.799 5.65 147.129 5.8 146.649 6.1C146.169 6.38 145.929 6.88 145.929 7.6V8.56H150.849C150.969 8.78 151.079 9.06 151.179 9.4C151.299 9.72 151.359 10.08 151.359 10.48C151.359 11.18 151.199 11.69 150.879 12.01C150.579 12.31 150.169 12.46 149.649 12.46H146.199V21.97C145.999 22.03 145.679 22.09 145.239 22.15C144.819 22.21 144.379 22.24 143.919 22.24C143.479 22.24 143.079 22.21 142.719 22.15C142.379 22.09 142.089 21.97 141.849 21.79C141.609 21.61 141.419 21.37 141.279 21.07C141.159 20.75 141.099 20.34 141.099 19.84V7.42ZM158.443 21.97C158.243 22.03 157.923 22.09 157.483 22.15C157.063 22.21 156.623 22.24 156.163 22.24C155.723 22.24 155.323 22.21 154.963 22.15C154.623 22.09 154.333 21.97 154.093 21.79C153.853 21.61 153.663 21.37 153.523 21.07C153.403 20.75 153.343 20.34 153.343 19.84V10.84C153.343 10.38 153.423 9.99 153.583 9.67C153.763 9.33 154.013 9.03 154.333 8.77C154.653 8.51 155.043 8.28 155.503 8.08C155.983 7.86 156.493 7.67 157.033 7.51C157.573 7.35 158.133 7.23 158.713 7.15C159.293 7.05 159.873 7 160.453 7C161.413 7 162.173 7.19 162.733 7.57C163.293 7.93 163.573 8.53 163.573 9.37C163.573 9.65 163.533 9.93 163.453 10.21C163.373 10.47 163.273 10.71 163.153 10.93C162.733 10.93 162.303 10.95 161.863 10.99C161.423 11.03 160.993 11.09 160.573 11.17C160.153 11.25 159.753 11.34 159.373 11.44C159.013 11.52 158.703 11.62 158.443 11.74V21.97ZM180.211 14.71C180.211 15.95 180.021 17.06 179.641 18.04C179.261 19 178.721 19.81 178.021 20.47C177.341 21.13 176.521 21.63 175.561 21.97C174.601 22.31 173.531 22.48 172.351 22.48C171.171 22.48 170.101 22.3 169.141 21.94C168.181 21.58 167.351 21.07 166.651 20.41C165.971 19.73 165.441 18.91 165.061 17.95C164.681 16.99 164.491 15.91 164.491 14.71C164.491 13.53 164.681 12.46 165.061 11.5C165.441 10.54 165.971 9.73 166.651 9.07C167.351 8.39 168.181 7.87 169.141 7.51C170.101 7.15 171.171 6.97 172.351 6.97C173.531 6.97 174.601 7.16 175.561 7.54C176.521 7.9 177.341 8.42 178.021 9.1C178.721 9.76 179.261 10.57 179.641 11.53C180.021 12.49 180.211 13.55 180.211 14.71ZM169.711 14.71C169.711 15.93 169.941 16.87 170.401 17.53C170.881 18.17 171.541 18.49 172.381 18.49C173.221 18.49 173.861 18.16 174.301 17.5C174.761 16.84 174.991 15.91 174.991 14.71C174.991 13.51 174.761 12.59 174.301 11.95C173.841 11.29 173.191 10.96 172.351 10.96C171.511 10.96 170.861 11.29 170.401 11.95C169.941 12.59 169.711 13.51 169.711 14.71ZM189.689 6.97C190.509 6.97 191.309 7.09 192.089 7.33C192.889 7.55 193.579 7.89 194.159 8.35C194.759 7.95 195.429 7.62 196.169 7.36C196.929 7.1 197.839 6.97 198.899 6.97C199.659 6.97 200.399 7.07 201.119 7.27C201.859 7.47 202.509 7.79 203.069 8.23C203.649 8.65 204.109 9.22 204.449 9.94C204.789 10.64 204.959 11.5 204.959 12.52V21.97C204.759 22.03 204.439 22.09 203.999 22.15C203.579 22.21 203.139 22.24 202.679 22.24C202.239 22.24 201.839 22.21 201.479 22.15C201.139 22.09 200.849 21.97 200.609 21.79C200.369 21.61 200.179 21.37 200.039 21.07C199.919 20.75 199.859 20.34 199.859 19.84V12.67C199.859 12.07 199.689 11.64 199.349 11.38C199.009 11.1 198.549 10.96 197.969 10.96C197.689 10.96 197.389 11.03 197.069 11.17C196.749 11.29 196.509 11.42 196.349 11.56C196.369 11.64 196.379 11.72 196.379 11.8C196.379 11.86 196.379 11.92 196.379 11.98V21.97C196.159 22.03 195.829 22.09 195.389 22.15C194.969 22.21 194.539 22.24 194.099 22.24C193.659 22.24 193.259 22.21 192.899 22.15C192.559 22.09 192.269 21.97 192.029 21.79C191.789 21.61 191.599 21.37 191.459 21.07C191.339 20.75 191.279 20.34 191.279 19.84V12.67C191.279 12.07 191.089 11.64 190.709 11.38C190.349 11.1 189.909 10.96 189.389 10.96C189.029 10.96 188.719 11.02 188.459 11.14C188.199 11.24 187.979 11.34 187.799 11.44V21.97C187.599 22.03 187.279 22.09 186.839 22.15C186.419 22.21 185.979 22.24 185.519 22.24C185.079 22.24 184.679 22.21 184.319 22.15C183.979 22.09 183.689 21.97 183.449 21.79C183.209 21.61 183.019 21.37 182.879 21.07C182.759 20.75 182.699 20.34 182.699 19.84V10.78C182.699 10.24 182.809 9.81 183.029 9.49C183.269 9.17 183.589 8.87 183.989 8.59C184.669 8.11 185.509 7.72 186.509 7.42C187.529 7.12 188.589 6.97 189.689 6.97ZM217.256 22.09C216.396 22.09 215.716 21.84 215.216 21.34C214.716 20.84 214.466 20.16 214.466 19.3V3.79C214.686 3.75 215.036 3.7 215.516 3.64C215.996 3.56 216.456 3.52 216.896 3.52C217.356 3.52 217.756 3.56 218.096 3.64C218.456 3.7 218.756 3.82 218.996 4C219.236 4.18 219.416 4.43 219.536 4.75C219.656 5.07 219.716 5.49 219.716 6.01V17.86H226.586C226.726 18.08 226.856 18.38 226.976 18.76C227.096 19.12 227.156 19.5 227.156 19.9C227.156 20.7 226.986 21.27 226.646 21.61C226.306 21.93 225.856 22.09 225.296 22.09H217.256ZM229.336 3.37C229.336 2.61 229.586 1.97 230.086 1.45C230.606 0.929999 231.286 0.669999 232.126 0.669999C232.966 0.669999 233.636 0.929999 234.136 1.45C234.656 1.97 234.916 2.61 234.916 3.37C234.916 4.13 234.656 4.77 234.136 5.29C233.636 5.81 232.966 6.07 232.126 6.07C231.286 6.07 230.606 5.81 230.086 5.29C229.586 4.77 229.336 4.13 229.336 3.37ZM234.676 21.97C234.456 22.01 234.126 22.06 233.686 22.12C233.266 22.2 232.836 22.24 232.396 22.24C231.956 22.24 231.556 22.21 231.196 22.15C230.856 22.09 230.566 21.97 230.326 21.79C230.086 21.61 229.896 21.37 229.756 21.07C229.636 20.75 229.576 20.34 229.576 19.84V7.63C229.796 7.59 230.116 7.54 230.536 7.48C230.976 7.4 231.416 7.36 231.856 7.36C232.296 7.36 232.686 7.39 233.026 7.45C233.386 7.51 233.686 7.63 233.926 7.81C234.166 7.99 234.346 8.24 234.466 8.56C234.606 8.86 234.676 9.26 234.676 9.76V21.97ZM243.023 16.99C243.023 17.51 243.183 17.88 243.503 18.1C243.843 18.32 244.313 18.43 244.913 18.43C245.213 18.43 245.523 18.41 245.843 18.37C246.163 18.31 246.443 18.24 246.683 18.16C246.863 18.38 247.013 18.63 247.133 18.91C247.273 19.17 247.343 19.49 247.343 19.87C247.343 20.63 247.053 21.25 246.473 21.73C245.913 22.21 244.913 22.45 243.473 22.45C241.713 22.45 240.353 22.05 239.393 21.25C238.453 20.45 237.983 19.15 237.983 17.35V4.51C238.203 4.45 238.513 4.39 238.913 4.33C239.333 4.25 239.773 4.21 240.233 4.21C241.113 4.21 241.793 4.37 242.273 4.69C242.773 4.99 243.023 5.64 243.023 6.64V8.56H246.953C247.073 8.78 247.183 9.06 247.283 9.4C247.403 9.72 247.463 10.08 247.463 10.48C247.463 11.18 247.303 11.69 246.983 12.01C246.683 12.31 246.273 12.46 245.753 12.46H243.023V16.99ZM255.035 16.99C255.035 17.51 255.195 17.88 255.515 18.1C255.855 18.32 256.325 18.43 256.925 18.43C257.225 18.43 257.535 18.41 257.855 18.37C258.175 18.31 258.455 18.24 258.695 18.16C258.875 18.38 259.025 18.63 259.145 18.91C259.285 19.17 259.355 19.49 259.355 19.87C259.355 20.63 259.065 21.25 258.485 21.73C257.925 22.21 256.925 22.45 255.485 22.45C253.725 22.45 252.365 22.05 251.405 21.25C250.465 20.45 249.995 19.15 249.995 17.35V4.51C250.215 4.45 250.525 4.39 250.925 4.33C251.345 4.25 251.785 4.21 252.245 4.21C253.125 4.21 253.805 4.37 254.285 4.69C254.785 4.99 255.035 5.64 255.035 6.64V8.56H258.965C259.085 8.78 259.195 9.06 259.295 9.4C259.415 9.72 259.475 10.08 259.475 10.48C259.475 11.18 259.315 11.69 258.995 12.01C258.695 12.31 258.285 12.46 257.765 12.46H255.035V16.99ZM267.137 21.97C266.917 22.01 266.587 22.06 266.147 22.12C265.727 22.2 265.297 22.24 264.857 22.24C264.417 22.24 264.017 22.21 263.657 22.15C263.317 22.09 263.027 21.97 262.787 21.79C262.547 21.61 262.357 21.37 262.217 21.07C262.097 20.75 262.037 20.34 262.037 19.84V2.44C262.257 2.4 262.577 2.35 262.997 2.29C263.437 2.21 263.877 2.17 264.317 2.17C264.757 2.17 265.147 2.2 265.487 2.26C265.847 2.32 266.147 2.44 266.387 2.62C266.627 2.8 266.807 3.05 266.927 3.37C267.067 3.67 267.137 4.07 267.137 4.57V21.97ZM278.065 22.48C276.885 22.48 275.785 22.32 274.765 22C273.765 21.66 272.885 21.16 272.125 20.5C271.385 19.84 270.795 19.01 270.355 18.01C269.935 17.01 269.725 15.84 269.725 14.5C269.725 13.18 269.935 12.05 270.355 11.11C270.795 10.15 271.365 9.37 272.065 8.77C272.765 8.15 273.565 7.7 274.465 7.42C275.365 7.12 276.285 6.97 277.225 6.97C278.285 6.97 279.245 7.13 280.105 7.45C280.985 7.77 281.735 8.21 282.355 8.77C282.995 9.33 283.485 10 283.825 10.78C284.185 11.56 284.365 12.41 284.365 13.33C284.365 14.01 284.175 14.53 283.795 14.89C283.415 15.25 282.885 15.48 282.205 15.58L274.795 16.69C275.015 17.35 275.465 17.85 276.145 18.19C276.825 18.51 277.605 18.67 278.485 18.67C279.305 18.67 280.075 18.57 280.795 18.37C281.535 18.15 282.135 17.9 282.595 17.62C282.915 17.82 283.185 18.1 283.405 18.46C283.625 18.82 283.735 19.2 283.735 19.6C283.735 20.5 283.315 21.17 282.475 21.61C281.835 21.95 281.115 22.18 280.315 22.3C279.515 22.42 278.765 22.48 278.065 22.48ZM277.225 10.69C276.745 10.69 276.325 10.77 275.965 10.93C275.625 11.09 275.345 11.3 275.125 11.56C274.905 11.8 274.735 12.08 274.615 12.4C274.515 12.7 274.455 13.01 274.435 13.33L279.565 12.49C279.505 12.09 279.285 11.69 278.905 11.29C278.525 10.89 277.965 10.69 277.225 10.69ZM305.996 3.82C306.136 4.04 306.256 4.34 306.356 4.72C306.476 5.08 306.536 5.46 306.536 5.86C306.536 6.64 306.366 7.2 306.026 7.54C305.706 7.86 305.266 8.02 304.706 8.02H298.406V11.41H304.976C305.136 11.63 305.266 11.92 305.366 12.28C305.486 12.64 305.546 13.02 305.546 13.42C305.546 14.18 305.376 14.73 305.036 15.07C304.716 15.39 304.276 15.55 303.716 15.55H298.466V21.88C298.246 21.94 297.896 22 297.416 22.06C296.956 22.12 296.496 22.15 296.036 22.15C295.576 22.15 295.166 22.11 294.806 22.03C294.466 21.97 294.176 21.85 293.936 21.67C293.696 21.49 293.516 21.24 293.396 20.92C293.276 20.6 293.216 20.18 293.216 19.66V6.61C293.216 5.75 293.466 5.07 293.966 4.57C294.466 4.07 295.146 3.82 296.006 3.82H305.996ZM308.107 12.88C308.107 11.32 308.347 9.94 308.827 8.74C309.327 7.54 309.997 6.54 310.837 5.74C311.697 4.92 312.697 4.3 313.837 3.88C314.997 3.46 316.247 3.25 317.587 3.25C318.927 3.25 320.167 3.46 321.307 3.88C322.467 4.3 323.477 4.92 324.337 5.74C325.197 6.54 325.867 7.54 326.347 8.74C326.847 9.94 327.097 11.32 327.097 12.88C327.097 14.44 326.857 15.83 326.377 17.05C325.897 18.25 325.227 19.26 324.367 20.08C323.527 20.88 322.527 21.49 321.367 21.91C320.207 22.33 318.947 22.54 317.587 22.54C316.227 22.54 314.967 22.33 313.807 21.91C312.647 21.47 311.647 20.84 310.807 20.02C309.967 19.2 309.307 18.19 308.827 16.99C308.347 15.79 308.107 14.42 308.107 12.88ZM313.507 12.88C313.507 14.7 313.877 16.06 314.617 16.96C315.357 17.86 316.347 18.31 317.587 18.31C318.847 18.31 319.847 17.86 320.587 16.96C321.327 16.06 321.697 14.7 321.697 12.88C321.697 11.08 321.327 9.73 320.587 8.83C319.867 7.93 318.877 7.48 317.617 7.48C316.377 7.48 315.377 7.93 314.617 8.83C313.877 9.71 313.507 11.06 313.507 12.88ZM328.606 6.04C328.706 5.76 328.846 5.48 329.026 5.2C329.206 4.92 329.426 4.67 329.686 4.45C329.966 4.21 330.286 4.02 330.646 3.88C331.006 3.72 331.406 3.64 331.846 3.64C332.426 3.64 332.936 3.79 333.376 4.09C333.816 4.37 334.266 4.86 334.726 5.56L337.066 9.13L340.516 4.03C340.676 3.95 340.896 3.88 341.176 3.82C341.476 3.74 341.766 3.7 342.046 3.7C342.966 3.7 343.686 3.92 344.206 4.36C344.726 4.8 344.986 5.34 344.986 5.98C344.986 6.54 344.836 7.04 344.536 7.48C344.256 7.92 343.866 8.45 343.366 9.07L340.276 12.85L345.166 19.84C345.006 20.58 344.656 21.17 344.116 21.61C343.596 22.03 342.886 22.24 341.986 22.24C341.406 22.24 340.906 22.1 340.486 21.82C340.066 21.52 339.636 21.02 339.196 20.32L336.766 16.48L332.986 22.18C332.826 22.2 332.676 22.21 332.536 22.21C332.396 22.23 332.256 22.24 332.116 22.24C330.976 22.24 330.136 22.01 329.596 21.55C329.056 21.09 328.786 20.52 328.786 19.84C328.786 19.26 328.906 18.76 329.146 18.34C329.406 17.9 329.766 17.39 330.226 16.81L333.376 12.76L328.606 6.04Z" fill="#434343"/>
</svg>
