<svg width="454" height="115" viewBox="0 0 454 115" fill="none" xmlns="http://www.w3.org/2000/svg">
    <g filter="url(#filter0_d_91_2636)">
        <rect x="4" width="446" height="107" rx="53.5" fill="white" />
        <path d="M77.48 52.36C76.3067 51.96 75.24 51.56 74.28 51.16C73.32 50.7333 72.4933 50.2267 71.8 49.64C71.1067 49.0533 70.56 48.36 70.16 47.56C69.7867 46.7333 69.6 45.7333 69.6 44.56C69.6 42.2933 70.4667 40.48 72.2 39.12C73.96 37.76 76.4133 37.08 79.56 37.08C80.7067 37.08 81.7733 37.16 82.76 37.32C83.7467 37.48 84.5867 37.7333 85.28 38.08C86 38.4 86.56 38.8267 86.96 39.36C87.36 39.8667 87.56 40.4667 87.56 41.16C87.56 41.8533 87.4 42.4533 87.08 42.96C86.76 43.44 86.3733 43.8533 85.92 44.2C85.3333 43.8267 84.5467 43.5067 83.56 43.24C82.5733 42.9467 81.4933 42.8 80.32 42.8C79.12 42.8 78.24 42.9733 77.68 43.32C77.12 43.64 76.84 44.0533 76.84 44.56C76.84 44.96 77.0133 45.2933 77.36 45.56C77.7067 45.8 78.2267 46.0267 78.92 46.24L81.04 46.92C83.5467 47.72 85.4667 48.7467 86.8 50C88.16 51.2267 88.84 52.9067 88.84 55.04C88.84 57.3067 87.9467 59.1467 86.16 60.56C84.3733 61.9467 81.7467 62.64 78.28 62.64C77.0533 62.64 75.9067 62.5333 74.84 62.32C73.8 62.1333 72.88 61.8533 72.08 61.48C71.3067 61.08 70.6933 60.6 70.24 60.04C69.8133 59.4533 69.6 58.7867 69.6 58.04C69.6 57.2667 69.8267 56.6133 70.28 56.08C70.7333 55.52 71.2267 55.0933 71.76 54.8C72.5067 55.3867 73.4133 55.8933 74.48 56.32C75.5733 56.7467 76.76 56.96 78.04 56.96C79.3467 56.96 80.2667 56.76 80.8 56.36C81.3333 55.96 81.6 55.4933 81.6 54.96C81.6 54.4267 81.3867 54.0267 80.96 53.76C80.5333 53.4667 79.9333 53.1867 79.16 52.92L77.48 52.36ZM102.469 62.64C100.896 62.64 99.4294 62.4267 98.0694 62C96.736 61.5467 95.5627 60.88 94.5494 60C93.5627 59.12 92.776 58.0133 92.1894 56.68C91.6294 55.3467 91.3494 53.7867 91.3494 52C91.3494 50.24 91.6294 48.7333 92.1894 47.48C92.776 46.2 93.536 45.16 94.4694 44.36C95.4027 43.5333 96.4694 42.9333 97.6694 42.56C98.8694 42.16 100.096 41.96 101.349 41.96C102.763 41.96 104.043 42.1733 105.189 42.6C106.363 43.0267 107.363 43.6133 108.189 44.36C109.043 45.1067 109.696 46 110.149 47.04C110.629 48.08 110.869 49.2133 110.869 50.44C110.869 51.3467 110.616 52.04 110.109 52.52C109.603 53 108.896 53.3067 107.989 53.44L98.1094 54.92C98.4027 55.8 99.0027 56.4667 99.9094 56.92C100.816 57.3467 101.856 57.56 103.029 57.56C104.123 57.56 105.149 57.4267 106.109 57.16C107.096 56.8667 107.896 56.5333 108.509 56.16C108.936 56.4267 109.296 56.8 109.589 57.28C109.883 57.76 110.029 58.2667 110.029 58.8C110.029 60 109.469 60.8933 108.349 61.48C107.496 61.9333 106.536 62.24 105.469 62.4C104.403 62.56 103.403 62.64 102.469 62.64ZM101.349 46.92C100.709 46.92 100.149 47.0267 99.6694 47.24C99.216 47.4533 98.8427 47.7333 98.5494 48.08C98.256 48.4 98.0294 48.7733 97.8694 49.2C97.736 49.6 97.656 50.0133 97.6294 50.44L104.469 49.32C104.389 48.7867 104.096 48.2533 103.589 47.72C103.083 47.1867 102.336 46.92 101.349 46.92ZM121.063 61.96C120.769 62.0133 120.329 62.08 119.743 62.16C119.183 62.2667 118.609 62.32 118.023 62.32C117.436 62.32 116.903 62.28 116.423 62.2C115.969 62.12 115.583 61.96 115.263 61.72C114.943 61.48 114.689 61.16 114.503 60.76C114.343 60.3333 114.263 59.7867 114.263 59.12V35.92C114.556 35.8667 114.983 35.8 115.543 35.72C116.129 35.6133 116.716 35.56 117.303 35.56C117.889 35.56 118.409 35.6 118.863 35.68C119.343 35.76 119.743 35.92 120.063 36.16C120.383 36.4 120.623 36.7333 120.783 37.16C120.969 37.56 121.063 38.0933 121.063 38.76V61.96ZM135.633 62.64C134.06 62.64 132.593 62.4267 131.233 62C129.9 61.5467 128.727 60.88 127.713 60C126.727 59.12 125.94 58.0133 125.353 56.68C124.793 55.3467 124.513 53.7867 124.513 52C124.513 50.24 124.793 48.7333 125.353 47.48C125.94 46.2 126.7 45.16 127.633 44.36C128.567 43.5333 129.633 42.9333 130.833 42.56C132.033 42.16 133.26 41.96 134.513 41.96C135.927 41.96 137.207 42.1733 138.353 42.6C139.527 43.0267 140.527 43.6133 141.353 44.36C142.207 45.1067 142.86 46 143.313 47.04C143.793 48.08 144.033 49.2133 144.033 50.44C144.033 51.3467 143.78 52.04 143.273 52.52C142.767 53 142.06 53.3067 141.153 53.44L131.273 54.92C131.567 55.8 132.167 56.4667 133.073 56.92C133.98 57.3467 135.02 57.56 136.193 57.56C137.287 57.56 138.313 57.4267 139.273 57.16C140.26 56.8667 141.06 56.5333 141.673 56.16C142.1 56.4267 142.46 56.8 142.753 57.28C143.047 57.76 143.193 58.2667 143.193 58.8C143.193 60 142.633 60.8933 141.513 61.48C140.66 61.9333 139.7 62.24 138.633 62.4C137.567 62.56 136.567 62.64 135.633 62.64ZM134.513 46.92C133.873 46.92 133.313 47.0267 132.833 47.24C132.38 47.4533 132.007 47.7333 131.713 48.08C131.42 48.4 131.193 48.7733 131.033 49.2C130.9 49.6 130.82 50.0133 130.793 50.44L137.633 49.32C137.553 48.7867 137.26 48.2533 136.753 47.72C136.247 47.1867 135.5 46.92 134.513 46.92ZM158.267 47.32C157.6 47.32 156.96 47.4267 156.347 47.64C155.76 47.8533 155.24 48.1733 154.787 48.6C154.36 49 154.013 49.5067 153.747 50.12C153.48 50.7333 153.347 51.4533 153.347 52.28C153.347 53.9333 153.813 55.1733 154.747 56C155.707 56.8267 156.867 57.24 158.227 57.24C159.027 57.24 159.72 57.1467 160.307 56.96C160.893 56.7733 161.413 56.5733 161.867 56.36C162.4 56.7333 162.8 57.1467 163.067 57.6C163.333 58.0267 163.467 58.5467 163.467 59.16C163.467 60.2533 162.947 61.1067 161.907 61.72C160.867 62.3067 159.427 62.6 157.587 62.6C155.907 62.6 154.387 62.36 153.027 61.88C151.667 61.3733 150.493 60.68 149.507 59.8C148.547 58.8933 147.8 57.8133 147.267 56.56C146.733 55.3067 146.467 53.92 146.467 52.4C146.467 50.64 146.747 49.1067 147.307 47.8C147.893 46.4667 148.68 45.3733 149.667 44.52C150.653 43.6667 151.787 43.0267 153.067 42.6C154.373 42.1733 155.747 41.96 157.187 41.96C159.107 41.96 160.587 42.3067 161.627 43C162.667 43.6933 163.187 44.5867 163.187 45.68C163.187 46.1867 163.067 46.6667 162.827 47.12C162.587 47.5467 162.307 47.92 161.987 48.24C161.533 48.0267 160.987 47.8267 160.347 47.64C159.707 47.4267 159.013 47.32 158.267 47.32ZM173.677 55.32C173.677 56.0133 173.89 56.5067 174.317 56.8C174.77 57.0933 175.397 57.24 176.197 57.24C176.597 57.24 177.01 57.2133 177.437 57.16C177.864 57.08 178.237 56.9867 178.557 56.88C178.797 57.1733 178.997 57.5067 179.157 57.88C179.344 58.2267 179.437 58.6533 179.437 59.16C179.437 60.1733 179.05 61 178.277 61.64C177.53 62.28 176.197 62.6 174.277 62.6C171.93 62.6 170.117 62.0667 168.837 61C167.584 59.9333 166.957 58.2 166.957 55.8V38.68C167.25 38.6 167.664 38.52 168.197 38.44C168.757 38.3333 169.344 38.28 169.957 38.28C171.13 38.28 172.037 38.4933 172.677 38.92C173.344 39.32 173.677 40.1867 173.677 41.52V44.08H178.917C179.077 44.3733 179.224 44.7467 179.357 45.2C179.517 45.6267 179.597 46.1067 179.597 46.64C179.597 47.5733 179.384 48.2533 178.957 48.68C178.557 49.08 178.01 49.28 177.317 49.28H173.677V55.32ZM198.3 52.36C197.127 51.96 196.06 51.56 195.1 51.16C194.14 50.7333 193.314 50.2267 192.62 49.64C191.927 49.0533 191.38 48.36 190.98 47.56C190.607 46.7333 190.42 45.7333 190.42 44.56C190.42 42.2933 191.287 40.48 193.02 39.12C194.78 37.76 197.234 37.08 200.38 37.08C201.527 37.08 202.594 37.16 203.58 37.32C204.567 37.48 205.407 37.7333 206.1 38.08C206.82 38.4 207.38 38.8267 207.78 39.36C208.18 39.8667 208.38 40.4667 208.38 41.16C208.38 41.8533 208.22 42.4533 207.9 42.96C207.58 43.44 207.194 43.8533 206.74 44.2C206.154 43.8267 205.367 43.5067 204.38 43.24C203.394 42.9467 202.314 42.8 201.14 42.8C199.94 42.8 199.06 42.9733 198.5 43.32C197.94 43.64 197.66 44.0533 197.66 44.56C197.66 44.96 197.834 45.2933 198.18 45.56C198.527 45.8 199.047 46.0267 199.74 46.24L201.86 46.92C204.367 47.72 206.287 48.7467 207.62 50C208.98 51.2267 209.66 52.9067 209.66 55.04C209.66 57.3067 208.767 59.1467 206.98 60.56C205.194 61.9467 202.567 62.64 199.1 62.64C197.874 62.64 196.727 62.5333 195.66 62.32C194.62 62.1333 193.7 61.8533 192.9 61.48C192.127 61.08 191.514 60.6 191.06 60.04C190.634 59.4533 190.42 58.7867 190.42 58.04C190.42 57.2667 190.647 56.6133 191.1 56.08C191.554 55.52 192.047 55.0933 192.58 54.8C193.327 55.3867 194.234 55.8933 195.3 56.32C196.394 56.7467 197.58 56.96 198.86 56.96C200.167 56.96 201.087 56.76 201.62 56.36C202.154 55.96 202.42 55.4933 202.42 54.96C202.42 54.4267 202.207 54.0267 201.78 53.76C201.354 53.4667 200.754 53.1867 199.98 52.92L198.3 52.36ZM219.732 55.32C219.732 56.0133 219.945 56.5067 220.372 56.8C220.825 57.0933 221.452 57.24 222.252 57.24C222.652 57.24 223.065 57.2133 223.492 57.16C223.918 57.08 224.292 56.9867 224.612 56.88C224.852 57.1733 225.052 57.5067 225.212 57.88C225.398 58.2267 225.492 58.6533 225.492 59.16C225.492 60.1733 225.105 61 224.332 61.64C223.585 62.28 222.252 62.6 220.332 62.6C217.985 62.6 216.172 62.0667 214.892 61C213.638 59.9333 213.012 58.2 213.012 55.8V38.68C213.305 38.6 213.718 38.52 214.252 38.44C214.812 38.3333 215.398 38.28 216.012 38.28C217.185 38.28 218.092 38.4933 218.732 38.92C219.398 39.32 219.732 40.1867 219.732 41.52V44.08H224.972C225.132 44.3733 225.278 44.7467 225.412 45.2C225.572 45.6267 225.652 46.1067 225.652 46.64C225.652 47.5733 225.438 48.2533 225.012 48.68C224.612 49.08 224.065 49.28 223.372 49.28H219.732V55.32ZM248.833 52.28C248.833 53.9333 248.579 55.4133 248.073 56.72C247.566 58 246.846 59.08 245.913 59.96C245.006 60.84 243.913 61.5067 242.633 61.96C241.353 62.4133 239.926 62.64 238.353 62.64C236.779 62.64 235.353 62.4 234.073 61.92C232.793 61.44 231.686 60.76 230.753 59.88C229.846 58.9733 229.139 57.88 228.633 56.6C228.126 55.32 227.873 53.88 227.873 52.28C227.873 50.7067 228.126 49.28 228.633 48C229.139 46.72 229.846 45.64 230.753 44.76C231.686 43.8533 232.793 43.16 234.073 42.68C235.353 42.2 236.779 41.96 238.353 41.96C239.926 41.96 241.353 42.2133 242.633 42.72C243.913 43.2 245.006 43.8933 245.913 44.8C246.846 45.68 247.566 46.76 248.073 48.04C248.579 49.32 248.833 50.7333 248.833 52.28ZM234.833 52.28C234.833 53.9067 235.139 55.16 235.753 56.04C236.393 56.8933 237.273 57.32 238.393 57.32C239.513 57.32 240.366 56.88 240.953 56C241.566 55.12 241.873 53.88 241.873 52.28C241.873 50.68 241.566 49.4533 240.953 48.6C240.339 47.72 239.473 47.28 238.353 47.28C237.233 47.28 236.366 47.72 235.753 48.6C235.139 49.4533 234.833 50.68 234.833 52.28ZM258.95 61.96C258.684 62.04 258.257 62.12 257.67 62.2C257.11 62.28 256.524 62.32 255.91 62.32C255.324 62.32 254.79 62.28 254.31 62.2C253.857 62.12 253.47 61.96 253.15 61.72C252.83 61.48 252.577 61.16 252.39 60.76C252.23 60.3333 252.15 59.7867 252.15 59.12V47.12C252.15 46.5067 252.257 45.9867 252.47 45.56C252.71 45.1067 253.044 44.7067 253.47 44.36C253.897 44.0133 254.417 43.7067 255.03 43.44C255.67 43.1467 256.35 42.8933 257.07 42.68C257.79 42.4667 258.537 42.3067 259.31 42.2C260.084 42.0667 260.857 42 261.63 42C262.91 42 263.924 42.2533 264.67 42.76C265.417 43.24 265.79 44.04 265.79 45.16C265.79 45.5333 265.737 45.9067 265.63 46.28C265.524 46.6267 265.39 46.9467 265.23 47.24C264.67 47.24 264.097 47.2667 263.51 47.32C262.924 47.3733 262.35 47.4533 261.79 47.56C261.23 47.6667 260.697 47.7867 260.19 47.92C259.71 48.0267 259.297 48.16 258.95 48.32V61.96ZM272.261 57.04C271.967 56.3733 271.647 55.6267 271.301 54.8C270.981 53.9733 270.634 53.0267 270.261 51.96C269.914 50.8933 269.541 49.68 269.141 48.32C268.767 46.9333 268.367 45.3467 267.941 43.56C268.314 43.1867 268.807 42.8667 269.421 42.6C270.061 42.3067 270.754 42.16 271.501 42.16C272.434 42.16 273.207 42.36 273.821 42.76C274.434 43.1333 274.887 43.8533 275.181 44.92L278.341 55.92H278.501C278.821 55.0133 279.127 54.0267 279.421 52.96C279.741 51.8933 280.047 50.8 280.341 49.68C280.634 48.5333 280.901 47.4 281.141 46.28C281.407 45.1333 281.634 44.0133 281.821 42.92C282.781 42.4133 283.834 42.16 284.981 42.16C285.914 42.16 286.687 42.36 287.301 42.76C287.914 43.16 288.221 43.8533 288.221 44.84C288.221 45.56 288.127 46.4 287.941 47.36C287.754 48.2933 287.501 49.2933 287.181 50.36C286.887 51.4267 286.527 52.5333 286.101 53.68C285.701 54.8 285.274 55.9067 284.821 57C284.367 58.0933 283.901 59.1333 283.421 60.12C282.941 61.08 282.474 61.9467 282.021 62.72C281.274 64.0267 280.581 65.0933 279.941 65.92C279.301 66.7467 278.687 67.3867 278.101 67.84C277.514 68.32 276.927 68.64 276.341 68.8C275.754 68.9867 275.141 69.08 274.501 69.08C273.381 69.08 272.474 68.7467 271.781 68.08C271.087 67.4133 270.674 66.5467 270.541 65.48C271.394 64.8133 272.247 64.0667 273.101 63.24C273.954 62.44 274.727 61.6133 275.421 60.76C274.967 60.6267 274.474 60.32 273.941 59.84C273.434 59.3333 272.874 58.4 272.261 57.04ZM316.54 56.04C316.193 56.3333 315.74 56.5733 315.18 56.76C314.646 56.92 314.02 57 313.3 57C312.34 57 311.54 56.88 310.9 56.64C310.286 56.4 309.886 55.9867 309.7 55.4C308.953 53.0533 308.34 51.16 307.86 49.72C307.38 48.2533 307.006 46.9733 306.74 45.88H306.54C306.46 47.4533 306.393 48.8933 306.34 50.2C306.313 51.48 306.286 52.7333 306.26 53.96C306.26 55.1867 306.233 56.4267 306.18 57.68C306.153 58.9333 306.1 60.32 306.02 61.84C305.673 61.9733 305.22 62.08 304.66 62.16C304.1 62.2667 303.54 62.32 302.98 62.32C301.806 62.32 300.886 62.1333 300.22 61.76C299.58 61.3867 299.26 60.7067 299.26 59.72L300.42 39.32C300.633 38.9733 301.1 38.6 301.82 38.2C302.54 37.8 303.553 37.6 304.86 37.6C306.273 37.6 307.38 37.8267 308.18 38.28C308.98 38.7067 309.566 39.4133 309.94 40.4C310.18 41.04 310.433 41.7733 310.7 42.6C310.993 43.4267 311.273 44.28 311.54 45.16C311.833 46.04 312.113 46.92 312.38 47.8C312.646 48.6533 312.886 49.4267 313.1 50.12H313.3C313.94 47.88 314.58 45.72 315.22 43.64C315.86 41.5333 316.446 39.7733 316.98 38.36C317.38 38.1467 317.886 37.9733 318.5 37.84C319.14 37.68 319.846 37.6 320.62 37.6C321.926 37.6 322.993 37.8 323.82 38.2C324.646 38.5733 325.126 39.12 325.26 39.84C325.366 40.3733 325.473 41.2 325.58 42.32C325.713 43.4133 325.846 44.6533 325.98 46.04C326.113 47.4267 326.246 48.8933 326.38 50.44C326.513 51.9867 326.633 53.48 326.74 54.92C326.873 56.3333 326.98 57.64 327.06 58.84C327.14 60.0133 327.193 60.92 327.22 61.56C326.766 61.8267 326.286 62.0133 325.78 62.12C325.3 62.2533 324.673 62.32 323.9 62.32C322.886 62.32 322.033 62.1467 321.34 61.8C320.646 61.4533 320.273 60.7733 320.22 59.76C320.06 56.8533 319.953 54.24 319.9 51.92C319.873 49.6 319.82 47.6533 319.74 46.08H319.54C319.273 47.12 318.886 48.4267 318.38 50C317.873 51.5733 317.26 53.5867 316.54 56.04ZM351.098 52.28C351.098 53.9333 350.845 55.4133 350.338 56.72C349.832 58 349.112 59.08 348.178 59.96C347.272 60.84 346.178 61.5067 344.898 61.96C343.618 62.4133 342.192 62.64 340.618 62.64C339.045 62.64 337.618 62.4 336.338 61.92C335.058 61.44 333.952 60.76 333.018 59.88C332.112 58.9733 331.405 57.88 330.898 56.6C330.392 55.32 330.138 53.88 330.138 52.28C330.138 50.7067 330.392 49.28 330.898 48C331.405 46.72 332.112 45.64 333.018 44.76C333.952 43.8533 335.058 43.16 336.338 42.68C337.618 42.2 339.045 41.96 340.618 41.96C342.192 41.96 343.618 42.2133 344.898 42.72C346.178 43.2 347.272 43.8933 348.178 44.8C349.112 45.68 349.832 46.76 350.338 48.04C350.845 49.32 351.098 50.7333 351.098 52.28ZM337.098 52.28C337.098 53.9067 337.405 55.16 338.018 56.04C338.658 56.8933 339.538 57.32 340.658 57.32C341.778 57.32 342.632 56.88 343.218 56C343.832 55.12 344.138 53.88 344.138 52.28C344.138 50.68 343.832 49.4533 343.218 48.6C342.605 47.72 341.738 47.28 340.618 47.28C339.498 47.28 338.632 47.72 338.018 48.6C337.405 49.4533 337.098 50.68 337.098 52.28ZM353.576 52.28C353.576 50.52 353.843 49 354.376 47.72C354.909 46.4133 355.643 45.3333 356.576 44.48C357.536 43.6267 358.643 43 359.896 42.6C361.176 42.1733 362.549 41.96 364.016 41.96C364.549 41.96 365.069 42.0133 365.576 42.12C366.083 42.2 366.496 42.3067 366.816 42.44V35.96C367.083 35.88 367.509 35.8 368.096 35.72C368.683 35.6133 369.283 35.56 369.896 35.56C370.483 35.56 371.003 35.6 371.456 35.68C371.936 35.76 372.336 35.92 372.656 36.16C372.976 36.4 373.216 36.7333 373.376 37.16C373.536 37.56 373.616 38.0933 373.616 38.76V57.72C373.616 58.9733 373.029 59.9733 371.856 60.72C371.083 61.2267 370.083 61.6667 368.856 62.04C367.629 62.44 366.216 62.64 364.616 62.64C362.883 62.64 361.323 62.4 359.936 61.92C358.576 61.44 357.416 60.7467 356.456 59.84C355.523 58.9333 354.803 57.8533 354.296 56.6C353.816 55.32 353.576 53.88 353.576 52.28ZM364.936 47.28C363.496 47.28 362.389 47.6933 361.616 48.52C360.843 49.3467 360.456 50.6 360.456 52.28C360.456 53.9333 360.816 55.1867 361.536 56.04C362.256 56.8667 363.296 57.28 364.656 57.28C365.136 57.28 365.563 57.2133 365.936 57.08C366.336 56.92 366.643 56.7467 366.856 56.56V47.76C366.323 47.44 365.683 47.28 364.936 47.28ZM388.133 62.64C386.56 62.64 385.093 62.4267 383.733 62C382.4 61.5467 381.227 60.88 380.213 60C379.227 59.12 378.44 58.0133 377.853 56.68C377.293 55.3467 377.013 53.7867 377.013 52C377.013 50.24 377.293 48.7333 377.853 47.48C378.44 46.2 379.2 45.16 380.133 44.36C381.067 43.5333 382.133 42.9333 383.333 42.56C384.533 42.16 385.76 41.96 387.013 41.96C388.427 41.96 389.707 42.1733 390.853 42.6C392.027 43.0267 393.027 43.6133 393.853 44.36C394.707 45.1067 395.36 46 395.813 47.04C396.293 48.08 396.533 49.2133 396.533 50.44C396.533 51.3467 396.28 52.04 395.773 52.52C395.267 53 394.56 53.3067 393.653 53.44L383.773 54.92C384.067 55.8 384.667 56.4667 385.573 56.92C386.48 57.3467 387.52 57.56 388.693 57.56C389.787 57.56 390.813 57.4267 391.773 57.16C392.76 56.8667 393.56 56.5333 394.173 56.16C394.6 56.4267 394.96 56.8 395.253 57.28C395.547 57.76 395.693 58.2667 395.693 58.8C395.693 60 395.133 60.8933 394.013 61.48C393.16 61.9333 392.2 62.24 391.133 62.4C390.067 62.56 389.067 62.64 388.133 62.64ZM387.013 46.92C386.373 46.92 385.813 47.0267 385.333 47.24C384.88 47.4533 384.507 47.7333 384.213 48.08C383.92 48.4 383.693 48.7733 383.533 49.2C383.4 49.6 383.32 50.0133 383.293 50.44L390.133 49.32C390.053 48.7867 389.76 48.2533 389.253 47.72C388.747 47.1867 388 46.92 387.013 46.92Z" fill="#9C6969" />
    </g>
    <defs>
        <filter id="filter0_d_91_2636" x="0" y="0" width="454" height="115" filterUnits="userSpaceOnUse" color-interpolation-filters="sRGB">
            <feFlood flood-opacity="0" result="BackgroundImageFix" />
            <feColorMatrix in="SourceAlpha" type="matrix" values="0 0 0 0 0 0 0 0 0 0 0 0 0 0 0 0 0 0 127 0" result="hardAlpha" />
            <feOffset dy="4" />
            <feGaussianBlur stdDeviation="2" />
            <feComposite in2="hardAlpha" operator="out" />
            <feColorMatrix type="matrix" values="0 0 0 0 0 0 0 0 0 0 0 0 0 0 0 0 0 0 0.25 0" />
            <feBlend mode="normal" in2="BackgroundImageFix" result="effect1_dropShadow_91_2636" />
            <feBlend mode="normal" in="SourceGraphic" in2="effect1_dropShadow_91_2636" result="shape" />
        </filter>
    </defs>
</svg>
    