<svg width="218" height="249" viewBox="0 0 218 249" fill="none" xmlns="http://www.w3.org/2000/svg">
<path d="M80.6358 150.455L71.1043 143.659C70.8994 143.513 70.6148 143.561 70.4687 143.766L67.7587 147.566C67.6126 147.771 67.6603 148.056 67.8652 148.202L77.3966 154.998C77.6015 155.144 77.8861 155.097 78.0322 154.892L80.7422 151.091C80.8883 150.886 80.8406 150.602 80.6358 150.455Z" fill="#010101"/>
<path d="M141.194 155.969L150.725 149.173C150.93 149.027 150.978 148.743 150.832 148.538L148.122 144.737C147.976 144.532 147.691 144.484 147.486 144.63L137.955 151.427C137.75 151.573 137.702 151.857 137.848 152.062L140.558 155.863C140.704 156.068 140.989 156.116 141.194 155.969Z" fill="#010101"/>
<path d="M78.802 129.205C62.7089 131.212 60.2416 143.389 60.2416 143.389L73.3148 213.617H93.0968V162.948L78.802 129.205Z" fill="#FFFCFD"/>
<path d="M161.818 143.389C161.818 143.389 159.273 130.761 142.38 129.099C141.134 128.978 139.903 128.871 138.681 128.769L124.202 162.948V213.617H148.744L161.818 143.389Z" fill="#F4F2F4"/>
<path d="M120.232 135.58H112.239V140.519H106.951V135.58H98.9574V127.935C93.4702 128.081 86.7276 128.406 79.6844 129.099C79.3838 129.128 79.0978 129.167 78.807 129.205L93.1018 162.948V213.617H124.202V162.948L138.681 128.769C131.725 128.197 125.249 127.96 120.227 127.872V135.575L120.232 135.58Z" fill="#3C3C3C"/>
<path d="M108.85 167.291C114.871 167.291 119.752 162.41 119.752 156.389C119.752 150.368 114.871 145.488 108.85 145.488C102.829 145.488 97.9485 150.368 97.9485 156.389C97.9485 162.41 102.829 167.291 108.85 167.291Z" fill="#FFFDFE"/>
<path d="M120.538 172.264H97.5228C97.2444 172.264 97.0187 172.49 97.0187 172.768V182.051C97.0187 182.329 97.2444 182.555 97.5228 182.555H120.538C120.816 182.555 121.042 182.329 121.042 182.051V172.768C121.042 172.49 120.816 172.264 120.538 172.264Z" fill="#FFFDFE"/>
<path d="M106.829 135.58V140.519H112.118V135.58H120.111V127.877C115.661 127.8 112.35 127.838 110.911 127.868C109.175 127.834 104.73 127.785 98.8311 127.94V135.584H106.824L106.829 135.58Z" fill="#FCFBFD"/>
<path d="M127.086 116.137H94.9773C94.3616 116.137 93.8624 116.636 93.8624 117.252V131.968C93.8624 132.584 94.3616 133.083 94.9773 133.083H127.086C127.702 133.083 128.201 132.584 128.201 131.968V117.252C128.201 116.636 127.702 116.137 127.086 116.137Z" fill="#010101"/>
<path d="M89.4808 116.137H57.3721C56.7564 116.137 56.2572 116.636 56.2572 117.252V131.968C56.2572 132.584 56.7564 133.083 57.3721 133.083H89.4808C90.0966 133.083 90.5957 132.584 90.5957 131.968V117.252C90.5957 116.636 90.0966 116.137 89.4808 116.137Z" fill="#010101"/>
<path d="M164.692 116.137H132.584C131.968 116.137 131.469 116.636 131.469 117.252V131.968C131.469 132.584 131.968 133.083 132.584 133.083H164.692C165.308 133.083 165.807 132.584 165.807 131.968V117.252C165.807 116.636 165.308 116.137 164.692 116.137Z" fill="#010101"/>
<path d="M158.691 112.875C158.691 110.844 159.108 108.9 159.84 107.082C152.574 110.858 147.605 118.44 147.605 127.194C147.605 139.715 157.756 149.865 170.276 149.865C182.797 149.865 192.947 139.715 192.947 127.194C192.947 126.777 192.909 126.375 192.884 125.968C189.254 128.803 184.45 130.543 179.166 130.543C167.858 130.543 158.691 122.633 158.691 112.875Z" fill="#F4F2F4"/>
<path d="M170.277 104.523C166.511 104.523 162.967 105.454 159.841 107.082C159.109 108.9 158.692 110.844 158.692 112.875C158.692 122.633 167.858 130.544 179.167 130.544C184.451 130.544 189.249 128.803 192.885 125.968C192.245 114.024 182.381 104.528 170.277 104.528V104.523Z" fill="#020202"/>
<path d="M63.2054 144.714L40.7273 146.74L47.0565 216.964L69.5345 214.938L63.2054 144.714Z" fill="#020303"/>
<path d="M60.2561 113.316C60.2561 111.285 59.8392 109.341 59.1073 107.523C66.3735 111.299 71.342 118.881 71.342 127.635C71.342 140.156 61.1917 150.306 48.671 150.306C36.1503 150.306 26 140.156 26 127.635C26 127.218 26.0388 126.816 26.063 126.409C29.6937 129.244 34.4974 130.984 39.781 130.984C51.0898 130.984 60.2561 123.074 60.2561 113.316Z" fill="#F4F2F4"/>
<path d="M48.6712 104.964C52.4376 104.964 55.981 105.895 59.1075 107.523C59.8395 109.341 60.2563 111.285 60.2563 113.316C60.2563 123.074 51.09 130.984 39.7812 130.984C34.4976 130.984 29.6987 129.244 26.0632 126.409C26.7031 114.465 36.5674 104.969 48.6712 104.969V104.964Z" fill="#020202"/>
<path d="M56.8291 159.947C53.3099 160.451 49.7956 160.956 46.2764 161.46C45.7723 161.532 45.9613 162.725 46.4655 162.652C49.9846 162.148 53.5038 161.644 57.0181 161.14C57.5222 161.067 57.3332 159.875 56.8291 159.947Z" fill="#3C3C3C"/>
<path d="M58.7248 169.39C55.2057 169.894 51.6913 170.398 48.1722 170.902C47.6681 170.975 47.8571 172.167 48.3612 172.095C51.8804 171.59 55.3996 171.086 58.9139 170.582C59.418 170.51 59.2289 169.317 58.7248 169.39Z" fill="#3C3C3C"/>
<path d="M59.5194 179.385C56.0002 179.889 52.4859 180.393 48.9667 180.897C48.4626 180.97 48.6517 182.163 49.1558 182.09C52.6749 181.586 56.1941 181.082 59.7084 180.577C60.2125 180.505 60.0235 179.312 59.5194 179.385Z" fill="#3C3C3C"/>
<path d="M148.694 214.942L171.172 216.968L177.501 146.744L155.023 144.718L148.694 214.942Z" fill="#020303"/>
<path d="M157.979 113.316C157.979 111.285 158.395 109.341 159.127 107.523C151.861 111.299 146.893 118.881 146.893 127.635C146.893 140.156 157.043 150.306 169.564 150.306C182.084 150.306 192.235 140.156 192.235 127.635C192.235 127.218 192.196 126.816 192.172 126.409C188.541 129.244 183.737 130.984 178.454 130.984C167.145 130.984 157.979 123.074 157.979 113.316Z" fill="#F4F2F4"/>
<path d="M169.564 104.964C165.797 104.964 162.254 105.895 159.127 107.523C158.395 109.341 157.978 111.285 157.978 113.316C157.978 123.074 167.145 130.984 178.454 130.984C183.737 130.984 188.536 129.244 192.171 126.409C191.532 114.465 181.667 104.969 169.564 104.969V104.964Z" fill="#020202"/>
<path d="M161.4 159.947C164.92 160.451 168.434 160.956 171.953 161.46C172.457 161.532 172.268 162.725 171.764 162.652C168.245 162.148 164.726 161.644 161.211 161.14C160.707 161.067 160.896 159.875 161.4 159.947Z" fill="#3C3C3C"/>
<path d="M159.51 169.39C163.029 169.894 166.544 170.398 170.063 170.902C170.567 170.975 170.378 172.167 169.874 172.095C166.354 171.591 162.835 171.086 159.321 170.582C158.817 170.51 159.006 169.317 159.51 169.39Z" fill="#3C3C3C"/>
<path d="M158.715 179.385C162.234 179.889 165.748 180.393 169.268 180.898C169.772 180.97 169.583 182.163 169.079 182.09C165.559 181.586 162.04 181.082 158.526 180.578C158.022 180.505 158.211 179.312 158.715 179.385Z" fill="#3C3C3C"/>
<path d="M46.2326 48.5508C46.2326 48.5508 31.7148 45.7054 29.9843 61.0133C28.2538 76.3163 36.2083 86.6314 49.8633 83.5534L46.2326 48.5556V48.5508Z" fill="#F7F5F7"/>
<path d="M55.3847 49.7093C55.3847 49.7093 40.8669 47.2033 39.1364 60.7031C37.4059 74.2029 45.3604 83.3014 59.0154 80.5869L55.3847 49.7142V49.7093Z" fill="#030404"/>
<path d="M175.54 48.5508C175.54 48.5508 190.058 45.7054 191.788 61.0133C193.519 76.3163 185.564 86.6314 171.909 83.5534L175.54 48.5556V48.5508Z" fill="#F7F5F7"/>
<path d="M166.388 49.7093C166.388 49.7093 180.906 47.2033 182.637 60.7031C184.367 74.2029 176.413 83.3014 162.758 80.5869L166.388 49.7142V49.7093Z" fill="#030404"/>
<path d="M111.614 119.4C149.021 119.4 179.345 93.9276 179.345 62.5063C179.345 31.0851 149.021 5.61316 111.614 5.61316C74.2064 5.61316 43.8818 31.0851 43.8818 62.5063C43.8818 93.9276 74.2064 119.4 111.614 119.4Z" fill="#F7F5F7"/>
<path d="M127.028 0H96.1987C95.1466 0 94.2937 0.852899 94.2937 1.905V18.8028C94.2937 19.8549 95.1466 20.7078 96.1987 20.7078H127.028C128.08 20.7078 128.933 19.8549 128.933 18.8028V1.905C128.933 0.852899 128.08 0 127.028 0Z" fill="#F7F5F7"/>
<path d="M122.21 3.86316H101.022C100.208 3.86316 99.5485 4.52291 99.5485 5.33675V15.4047C99.5485 16.2185 100.208 16.8783 101.022 16.8783H122.21C123.024 16.8783 123.683 16.2185 123.683 15.4047V5.33675C123.683 4.52291 123.024 3.86316 122.21 3.86316Z" fill="#E0E0E0"/>
<path d="M160.698 52.5789H58.3948C55.0216 52.5789 52.2871 55.3133 52.2871 58.6865V81.8907C52.2871 85.2639 55.0216 87.9983 58.3948 87.9983H160.698C164.071 87.9983 166.805 85.2639 166.805 81.8907V58.6865C166.805 55.3133 164.071 52.5789 160.698 52.5789Z" fill="#010101"/>
<path d="M86.1891 79.7435C91.4095 79.7435 95.6414 75.5115 95.6414 70.2912C95.6414 65.0708 91.4095 60.8389 86.1891 60.8389C80.9688 60.8389 76.7368 65.0708 76.7368 70.2912C76.7368 75.5115 80.9688 79.7435 86.1891 79.7435Z" fill="#F4F2F4"/>
<path d="M136.592 79.7435C141.812 79.7435 146.044 75.5115 146.044 70.2912C146.044 65.0708 141.812 60.8389 136.592 60.8389C131.372 60.8389 127.14 65.0708 127.14 70.2912C127.14 75.5115 131.372 79.7435 136.592 79.7435Z" fill="#F4F2F4"/>
<g filter="url(#filter0_d_91_2578)">
<rect x="4.28381" y="134" width="208.956" height="107" rx="53.5" fill="#FE5453"/>
<path d="M70.7339 177.36C70.5472 177.067 70.3739 176.667 70.2139 176.16C70.0539 175.653 69.9739 175.12 69.9739 174.56C69.9739 173.52 70.2006 172.773 70.6539 172.32C71.1339 171.867 71.7472 171.64 72.4939 171.64H89.9339C90.1206 171.933 90.2939 172.333 90.4539 172.84C90.6139 173.347 90.6939 173.88 90.6939 174.44C90.6939 175.48 90.4539 176.227 89.9739 176.68C89.5206 177.133 88.9206 177.36 88.1739 177.36H83.7339V195.84C83.4406 195.92 82.9739 196 82.3339 196.08C81.7206 196.16 81.1072 196.2 80.4939 196.2C79.8806 196.2 79.3339 196.147 78.8539 196.04C78.4006 195.96 78.0139 195.8 77.6939 195.56C77.3739 195.32 77.1339 194.987 76.9739 194.56C76.8139 194.133 76.7339 193.573 76.7339 192.88V177.36H70.7339ZM101.08 195.84C100.787 195.92 100.32 196 99.6805 196.08C99.0671 196.16 98.4538 196.2 97.8405 196.2C97.2271 196.2 96.6805 196.147 96.2005 196.04C95.7471 195.96 95.3605 195.8 95.0405 195.56C94.7205 195.32 94.4805 194.987 94.3205 194.56C94.1605 194.133 94.0805 193.573 94.0805 192.88V171.76C94.3738 171.707 94.8405 171.64 95.4805 171.56C96.1205 171.453 96.7338 171.4 97.3205 171.4C97.9338 171.4 98.4671 171.453 98.9205 171.56C99.4005 171.64 99.8005 171.8 100.12 172.04C100.44 172.28 100.68 172.613 100.84 173.04C101 173.467 101.08 174.027 101.08 174.72V195.84ZM115.348 183C116.468 183 117.321 182.747 117.908 182.24C118.521 181.707 118.828 180.907 118.828 179.84C118.828 178.827 118.508 178.053 117.868 177.52C117.255 176.96 116.348 176.68 115.148 176.68C114.721 176.68 114.361 176.693 114.068 176.72C113.801 176.72 113.521 176.747 113.228 176.8V183H115.348ZM113.268 195.84C112.975 195.92 112.508 196 111.868 196.08C111.255 196.16 110.641 196.2 110.028 196.2C109.415 196.2 108.868 196.147 108.388 196.04C107.935 195.96 107.548 195.8 107.228 195.56C106.908 195.32 106.668 194.987 106.508 194.56C106.348 194.133 106.268 193.573 106.268 192.88V174.04C106.268 173.48 106.415 173.053 106.708 172.76C107.028 172.44 107.455 172.187 107.988 172C108.895 171.68 109.921 171.453 111.068 171.32C112.241 171.16 113.415 171.08 114.588 171.08C118.268 171.08 121.081 171.867 123.028 173.44C124.975 175.013 125.948 177.147 125.948 179.84C125.948 181.147 125.735 182.333 125.308 183.4C124.908 184.44 124.295 185.347 123.468 186.12C122.668 186.867 121.641 187.453 120.388 187.88C119.161 188.28 117.735 188.48 116.108 188.48H113.268V195.84ZM136.195 186.36C135.022 185.96 133.955 185.56 132.995 185.16C132.035 184.733 131.208 184.227 130.515 183.64C129.822 183.053 129.275 182.36 128.875 181.56C128.502 180.733 128.315 179.733 128.315 178.56C128.315 176.293 129.182 174.48 130.915 173.12C132.675 171.76 135.128 171.08 138.275 171.08C139.422 171.08 140.488 171.16 141.475 171.32C142.462 171.48 143.302 171.733 143.995 172.08C144.715 172.4 145.275 172.827 145.675 173.36C146.075 173.867 146.275 174.467 146.275 175.16C146.275 175.853 146.115 176.453 145.795 176.96C145.475 177.44 145.088 177.853 144.635 178.2C144.048 177.827 143.262 177.507 142.275 177.24C141.288 176.947 140.208 176.8 139.035 176.8C137.835 176.8 136.955 176.973 136.395 177.32C135.835 177.64 135.555 178.053 135.555 178.56C135.555 178.96 135.728 179.293 136.075 179.56C136.422 179.8 136.942 180.027 137.635 180.24L139.755 180.92C142.262 181.72 144.182 182.747 145.515 184C146.875 185.227 147.555 186.907 147.555 189.04C147.555 191.307 146.662 193.147 144.875 194.56C143.088 195.947 140.462 196.64 136.995 196.64C135.768 196.64 134.622 196.533 133.555 196.32C132.515 196.133 131.595 195.853 130.795 195.48C130.022 195.08 129.408 194.6 128.955 194.04C128.528 193.453 128.315 192.787 128.315 192.04C128.315 191.267 128.542 190.613 128.995 190.08C129.448 189.52 129.942 189.093 130.475 188.8C131.222 189.387 132.128 189.893 133.195 190.32C134.288 190.747 135.475 190.96 136.755 190.96C138.062 190.96 138.982 190.76 139.515 190.36C140.048 189.96 140.315 189.493 140.315 188.96C140.315 188.427 140.102 188.027 139.675 187.76C139.248 187.467 138.648 187.187 137.875 186.92L136.195 186.36Z" fill="white"/>
</g>
<defs>
<filter id="filter0_d_91_2578" x="0.283813" y="134" width="216.956" height="115" filterUnits="userSpaceOnUse" color-interpolation-filters="sRGB">
<feFlood flood-opacity="0" result="BackgroundImageFix"/>
<feColorMatrix in="SourceAlpha" type="matrix" values="0 0 0 0 0 0 0 0 0 0 0 0 0 0 0 0 0 0 127 0" result="hardAlpha"/>
<feOffset dy="4"/>
<feGaussianBlur stdDeviation="2"/>
<feComposite in2="hardAlpha" operator="out"/>
<feColorMatrix type="matrix" values="0 0 0 0 0 0 0 0 0 0 0 0 0 0 0 0 0 0 0.25 0"/>
<feBlend mode="normal" in2="BackgroundImageFix" result="effect1_dropShadow_91_2578"/>
<feBlend mode="normal" in="SourceGraphic" in2="effect1_dropShadow_91_2578" result="shape"/>
</filter>
</defs>
</svg>
