<svg width="196" height="188" viewBox="0 0 196 188" fill="none" xmlns="http://www.w3.org/2000/svg">
<path fill-rule="evenodd" clip-rule="evenodd" d="M85.0057 6.74063C90.9341 -2.24689 104.12 -2.24687 110.048 6.74064L133.909 42.9143C135.898 45.9287 138.907 48.1246 142.384 49.0988L184.091 60.7834C194.398 63.671 198.451 76.1151 191.821 84.5184L164.829 118.729C162.606 121.546 161.467 125.068 161.618 128.654L163.46 172.204C163.914 182.937 153.269 190.654 143.21 186.884L102.791 171.735C99.3971 170.463 95.6569 170.463 92.2626 171.735L51.8445 186.884C41.7851 190.654 31.1396 182.937 31.5935 172.204L33.4355 128.654C33.5872 125.068 32.4481 121.546 30.2249 118.729L3.23329 84.5184C-3.39688 76.1151 0.655596 63.671 10.9627 60.7834L52.6699 49.0988C56.1472 48.1246 59.1563 45.9287 61.1447 42.9143L85.0057 6.74063Z" fill="url(#paint0_linear_347_239)"/>
<path fill-rule="evenodd" clip-rule="evenodd" d="M85.0289 27.7406C90.9573 18.7531 104.143 18.7531 110.071 27.7406L125.919 51.7655C127.907 54.7799 130.916 56.9758 134.394 57.95L162.138 65.7227C172.445 68.6103 176.497 81.0544 169.867 89.4578L151.886 112.248C149.663 115.065 148.524 118.587 148.675 122.173L149.901 151.157C150.355 161.89 139.71 169.607 129.65 165.836L102.815 155.778C99.4202 154.506 95.6801 154.506 92.2858 155.778L65.4501 165.836C55.3907 169.607 44.7452 161.89 45.1991 151.157L46.425 122.173C46.5767 118.587 45.4376 115.065 43.2144 112.248L25.2333 89.4577C18.6031 81.0544 22.6556 68.6103 32.9627 65.7227L60.7067 57.95C64.184 56.9758 67.1931 54.7799 69.1815 51.7655L85.0289 27.7406Z" fill="url(#paint1_linear_347_239)"/>
<circle cx="67.7586" cy="92.8275" r="11.7586" fill="#374040"/>
<circle cx="128.449" cy="92.8275" r="11.7586" fill="#374040"/>
<path d="M98.6803 129.788C114.816 129.719 113.398 111.414 113.398 111.414L81.1334 112.081C81.1334 112.081 78.6375 129.879 98.6803 129.795V129.788Z" fill="#F6353A"/>
<circle cx="97.6773" cy="33.659" r="6.67727" fill="white" fill-opacity="0.5"/>
<path d="M107.95 58.8271C102.814 52.1498 101.273 47.5271 108.977 39.8225C117.709 34.6862 118.223 48.0407 122.846 55.2316C127.468 62.4225 132.091 62.4225 143.391 63.9634C154.691 65.5044 154.691 73.2089 141.85 75.7771C129.009 78.3453 113.086 65.5044 107.95 58.8271Z" fill="white" fill-opacity="0.5"/>
<defs>
<linearGradient id="paint0_linear_347_239" x1="97.527" y1="0" x2="97.527" y2="187.853" gradientUnits="userSpaceOnUse">
<stop stop-color="#FDE200"/>
<stop offset="1" stop-color="#FEB609"/>
</linearGradient>
<linearGradient id="paint1_linear_347_239" x1="97.5502" y1="21" x2="97.5502" y2="166.806" gradientUnits="userSpaceOnUse">
<stop offset="0.349057" stop-color="#FDEA00"/>
<stop offset="0.849057" stop-color="#FEB305"/>
</linearGradient>
</defs>
</svg>
