<svg width="1920" height="1080" viewBox="0 0 1920 1080" fill="none" xmlns="http://www.w3.org/2000/svg">
<g clip-path="url(#clip0_1106_848)">
<rect width="1920" height="1080" fill="white"/>
<path d="M2208.64 -109H-262V1143.19H2208.64V-109Z" fill="url(#paint0_linear_1106_848)"/>
<path d="M406.934 189.162C415.614 186.495 423.85 190.643 428.828 196.853C432.826 172.878 448.82 147.137 466.214 182.028C465.588 160.765 477.492 151.444 494.476 163.967C493.394 137.315 509.98 101.831 537.877 98.5149C578.829 93.6493 585.675 138.887 584.911 169.619C614.677 146.374 638.291 189.936 620.919 207.849H609.858L609.665 207.279C609.152 207.485 608.605 207.655 608.081 207.849H401.341C402.024 201.605 403.687 194.802 406.922 189.162H406.934ZM377.863 491.64C377.111 486.877 375.79 482.262 374.081 477.556C366.7 480.062 365.401 475.163 359.66 483.663C356.493 468.394 358.669 446.163 344.703 437.81C332.275 430.381 315.826 441.468 311.11 455.085C297.987 434.004 285.184 415.453 260.054 433.332C242.079 383.069 225.858 336.76 168.468 329.729C142.12 326.505 115.943 328.43 97.4663 351.3C80.2996 372.54 55.1248 417.413 70.6967 445.49C53.8717 437.776 31.7954 425.412 12.8175 436.602C-6.06927 447.735 -5.75034 475.379 5.94855 491.651H377.875L377.863 491.64ZM1854.89 420.82C1867.3 403.557 1867.64 374.226 1847.59 362.421C1827.45 350.548 1804.02 363.663 1786.18 371.845C1802.7 342.059 1775.99 294.451 1757.77 271.911C1738.16 247.652 1710.39 245.601 1682.44 249.03C1621.54 256.483 1604.33 305.629 1585.26 358.957C1558.61 339.985 1545.02 359.675 1531.08 382.043C1526.08 367.595 1508.63 355.835 1495.44 363.709C1480.63 372.574 1482.94 396.162 1479.57 412.365C1473.49 403.34 1472.1 408.548 1464.27 405.893C1462.46 410.873 1461.06 415.772 1460.26 420.832H1854.88L1854.89 420.82ZM1374.85 176.695C1383.01 165.358 1383.23 146.089 1370.06 138.329C1356.82 130.523 1341.43 139.149 1329.71 144.528C1340.55 124.963 1323.01 93.6835 1311.04 78.8815C1298.16 62.94 1279.92 61.5954 1261.54 63.8516C1221.54 68.7514 1210.23 101.033 1197.71 136.061C1180.2 123.595 1171.27 136.54 1162.12 151.228C1158.84 141.736 1147.37 134.01 1138.7 139.183C1128.97 145.006 1130.49 160.503 1128.28 171.146C1124.28 165.221 1123.37 168.639 1118.22 166.896C1117.02 170.166 1116.11 173.391 1115.59 176.707H1374.83L1374.85 176.695ZM131.105 247.093C140.149 234.502 140.4 213.125 125.785 204.51C111.102 195.85 94.0261 205.422 81.0058 211.382C93.0464 189.663 73.5787 154.943 60.2964 138.511C46.0004 120.815 25.7466 119.322 5.36758 121.829C-39.0357 127.264 -51.5889 163.09 -65.4863 201.981C-84.9199 188.147 -94.8303 202.505 -104.98 218.811C-108.625 208.282 -121.361 199.702 -130.975 205.445C-141.785 211.906 -140.088 229.112 -142.548 240.917C-146.98 234.342 -147.994 238.137 -153.701 236.188C-155.022 239.823 -156.036 243.39 -156.617 247.082H131.128L131.105 247.093ZM1940.27 231.277C1940.56 231.254 1940.84 231.22 1941.13 231.197C1981.06 227.346 2021.12 229.283 2061.16 231.277H2169.69C2165.92 224.725 2163.59 211.769 2157.81 208.533C2147.29 202.63 2128.58 214.914 2119.09 216.498C2119.49 203.758 2109.42 204.704 2099.11 205.513C2102.44 194.973 2098.14 180.365 2086.39 173.345C2068.55 162.691 2053.08 171.374 2038.19 182.564C2034.75 169.426 2019.99 153.199 2009.1 170.873C2004.78 124.256 1989.69 77.4571 1935.53 72.5117C1900.62 69.3211 1868.08 84.955 1845.26 111.015C1817.03 143.24 1822.42 177.835 1819.11 216.281C1813.75 204.738 1792.04 202.721 1782.09 210.538C1773.96 216.931 1775.34 224.007 1778.44 231.254H1940.26L1940.27 231.277ZM-152.151 623.411C-151.969 623.388 -151.775 623.376 -151.582 623.354C-124.869 620.778 -98.0882 622.066 -71.3073 623.411H1.27811C-1.23938 619.024 -2.79999 610.363 -6.66164 608.198C-13.7015 604.256 -26.2091 612.471 -32.5541 613.531C-32.2807 605.008 -39.0243 605.646 -45.9161 606.182C-43.6947 599.128 -46.5654 589.363 -54.4254 584.668C-66.3521 577.546 -76.6954 583.346 -86.6514 590.833C-88.9524 582.047 -98.8287 571.199 -106.108 583.016C-108.99 551.839 -119.094 520.537 -155.307 517.233C-178.659 515.102 -200.416 525.551 -215.681 542.985C-234.556 564.533 -230.956 587.665 -233.166 613.383C-236.755 605.669 -251.278 604.313 -257.931 609.543C-263.376 613.816 -262.442 618.556 -260.38 623.399H-152.151V623.411ZM1973.52 584.189C1973.71 584.167 1973.9 584.155 1974.09 584.132C2000.8 581.557 2027.59 582.845 2054.37 584.189H2126.95C2124.43 579.802 2122.87 571.142 2119.01 568.977C2111.97 565.023 2099.47 573.25 2093.12 574.31C2093.39 565.786 2086.65 566.425 2079.76 566.96C2081.98 559.907 2079.11 550.141 2071.25 545.447C2059.32 538.325 2048.98 544.125 2039.02 551.611C2036.72 542.826 2026.85 531.978 2019.57 543.794C2016.68 512.618 2006.58 481.316 1970.37 478.011C1947.02 475.881 1925.26 486.33 1909.99 503.764C1891.12 525.312 1894.72 548.455 1892.51 574.162C1888.92 566.447 1874.4 565.091 1867.74 570.322C1862.3 574.595 1863.23 579.335 1865.29 584.178H1973.52V584.189Z" fill="#FDFDFD"/>
<g style="mix-blend-mode:multiply" opacity="0.4">
<path style="mix-blend-mode:multiply" opacity="0.4" d="M1261.58 96.7944C1221.57 101.694 1210.26 133.976 1197.74 169.004C1183.32 158.737 1174.72 165.711 1167.03 176.696H1330.08C1340.08 157.085 1322.89 126.444 1311.07 111.824C1298.19 95.8828 1279.95 94.5382 1261.58 96.7944Z" fill="url(#paint1_linear_1106_848)"/>
<path style="mix-blend-mode:multiply" opacity="0.4" d="M1375.39 175.887C1373.94 174.109 1372.2 172.536 1370.07 171.283C1357.46 163.842 1342.89 171.329 1331.41 176.696H1374.86C1375.05 176.433 1375.22 176.149 1375.39 175.887Z" fill="url(#paint2_linear_1106_848)"/>
<path style="mix-blend-mode:multiply" opacity="0.4" d="M2086.4 206.311C2068.56 195.657 2053.09 204.34 2038.2 215.529C2034.76 202.391 2020 186.165 2009.11 203.838C2004.79 157.222 1989.7 110.423 1935.54 105.477C1900.63 102.287 1868.1 117.921 1845.27 143.981C1821.51 171.101 1821.56 199.907 1820.21 231.289H1940.27C1940.56 231.266 1940.84 231.232 1941.13 231.209C1981.06 227.357 2021.12 229.295 2061.16 231.289H2100.14C2100.21 222.047 2095.65 211.837 2086.4 206.322V206.311Z" fill="url(#paint3_linear_1106_848)"/>
<path style="mix-blend-mode:multiply" opacity="0.4" d="M1138.73 172.138C1136.79 173.311 1135.29 174.872 1134.13 176.707H1157.53C1152.48 171.328 1144.91 168.457 1138.73 172.138Z" fill="url(#paint4_linear_1106_848)"/>
<path style="mix-blend-mode:multiply" opacity="0.4" d="M1974.08 584.132C1995.58 582.059 2017.12 582.503 2038.67 583.449C2035.87 574.902 2026.54 565.433 2019.57 576.748C2016.68 545.572 2006.58 514.27 1970.37 510.966C1947.02 508.835 1925.26 519.284 1909.99 536.718C1896.89 551.668 1894.63 567.382 1893.72 584.189H1973.52C1973.7 584.167 1973.9 584.155 1974.09 584.132H1974.08Z" fill="url(#paint5_linear_1106_848)"/>
<path style="mix-blend-mode:multiply" opacity="0.4" d="M1757.78 304.877C1738.17 280.617 1710.41 278.566 1682.45 281.996C1621.55 289.448 1604.34 338.595 1585.27 391.923C1558.62 372.95 1545.03 392.641 1531.1 415.009C1526.1 400.56 1508.64 388.801 1495.45 396.674C1487.34 401.529 1484.38 410.793 1482.8 420.832H1854.91C1857.18 417.653 1859.06 414.063 1860.48 410.246C1857.91 404.229 1853.72 398.976 1847.61 395.375C1827.47 383.502 1804.04 396.618 1786.2 404.799C1791.8 394.703 1792.42 382.556 1790.1 370.033C1788.78 370.66 1787.47 371.264 1786.2 371.845C1787.38 369.726 1788.31 367.503 1789.07 365.213C1783.53 342.264 1769.05 318.779 1757.79 304.866L1757.78 304.877Z" fill="url(#paint6_linear_1106_848)"/>
<path style="mix-blend-mode:multiply" opacity="0.4" d="M436.289 207.849H462.136C451.998 192.626 442.645 196.933 436.289 207.849Z" fill="url(#paint7_linear_1106_848)"/>
<path style="mix-blend-mode:multiply" opacity="0.4" d="M60.2964 171.477C46.0003 153.78 25.7466 152.288 5.36756 154.795C-39.0357 160.23 -51.5889 196.056 -65.4863 234.946C-83.0289 222.458 -92.8141 232.952 -102.007 247.105H131.116C131.777 246.193 132.369 245.213 132.927 244.222C131.128 241.567 128.792 239.242 125.796 237.476C111.113 228.816 94.0375 238.388 81.0172 244.347C86.2914 234.844 85.5168 222.856 81.8829 210.994C81.5982 211.131 81.302 211.268 81.0172 211.393C81.245 210.983 81.3817 210.539 81.5868 210.128C76.8252 195.19 67.6324 180.547 60.3078 171.477H60.2964Z" fill="url(#paint8_linear_1106_848)"/>
<path style="mix-blend-mode:multiply" opacity="0.4" d="M344.714 470.776C332.286 463.346 315.837 474.433 311.121 488.05C297.999 466.97 285.195 448.419 260.066 466.297C242.09 416.034 225.869 369.726 168.479 362.695C142.131 359.47 115.954 361.396 97.4775 384.265C87.0431 397.176 73.6697 418.803 68.2702 440.089C68.9309 441.947 69.7397 443.758 70.708 445.502C69.6258 445 68.5094 444.488 67.3817 443.952C64.8073 456.361 65.1832 468.474 70.708 478.456C53.883 470.742 31.8067 458.378 12.8288 469.568C7.37234 472.781 3.56762 477.396 1.12988 482.695C2.40571 485.908 4.01187 488.951 5.95978 491.651H356.356C354.784 482.923 351.868 475.037 344.737 470.776H344.714Z" fill="url(#paint9_linear_1106_848)"/>
<path style="mix-blend-mode:multiply" opacity="0.4" d="M466.544 207.849H608.093C608.617 207.656 609.164 207.485 609.676 207.28L609.87 207.849H620.931C621.079 207.69 621.204 207.519 621.352 207.359C614.073 196.42 600.324 190.54 584.923 202.573C585.686 171.841 578.84 126.615 537.888 131.469C509.991 134.785 493.405 170.269 494.487 196.922C479.553 185.903 468.561 191.805 466.544 207.849Z" fill="url(#paint10_linear_1106_848)"/>
</g>
</g>
<defs>
<linearGradient id="paint0_linear_1106_848" x1="978.98" y1="-179.694" x2="973.953" y2="438.72" gradientUnits="userSpaceOnUse">
<stop offset="0.07" stop-color="#00CAFF"/>
<stop offset="0.22" stop-color="#26D1FE"/>
<stop offset="0.49" stop-color="#63DCFC"/>
<stop offset="0.72" stop-color="#8FE4FB"/>
<stop offset="0.9" stop-color="#AAE9FB"/>
<stop offset="1" stop-color="#B5EBFB"/>
</linearGradient>
<linearGradient id="paint1_linear_1106_848" x1="1167.02" y1="136.323" x2="1333.08" y2="136.323" gradientUnits="userSpaceOnUse">
<stop offset="0.07" stop-color="#00CAFF"/>
<stop offset="0.22" stop-color="#26D1FE"/>
<stop offset="0.49" stop-color="#63DCFC"/>
<stop offset="0.72" stop-color="#8FE4FB"/>
<stop offset="0.9" stop-color="#AAE9FB"/>
<stop offset="1" stop-color="#B5EBFB"/>
</linearGradient>
<linearGradient id="paint2_linear_1106_848" x1="1331.41" y1="172.434" x2="1375.39" y2="172.434" gradientUnits="userSpaceOnUse">
<stop offset="0.07" stop-color="#00CAFF"/>
<stop offset="0.22" stop-color="#26D1FE"/>
<stop offset="0.49" stop-color="#63DCFC"/>
<stop offset="0.72" stop-color="#8FE4FB"/>
<stop offset="0.9" stop-color="#AAE9FB"/>
<stop offset="1" stop-color="#B5EBFB"/>
</linearGradient>
<linearGradient id="paint3_linear_1106_848" x1="1820.21" y1="168.172" x2="2100.14" y2="168.172" gradientUnits="userSpaceOnUse">
<stop offset="0.07" stop-color="#00CAFF"/>
<stop offset="0.22" stop-color="#26D1FE"/>
<stop offset="0.49" stop-color="#63DCFC"/>
<stop offset="0.72" stop-color="#8FE4FB"/>
<stop offset="0.9" stop-color="#AAE9FB"/>
<stop offset="1" stop-color="#B5EBFB"/>
</linearGradient>
<linearGradient id="paint4_linear_1106_848" x1="1134.13" y1="173.585" x2="1157.53" y2="173.585" gradientUnits="userSpaceOnUse">
<stop offset="0.07" stop-color="#00CAFF"/>
<stop offset="0.22" stop-color="#26D1FE"/>
<stop offset="0.49" stop-color="#63DCFC"/>
<stop offset="0.72" stop-color="#8FE4FB"/>
<stop offset="0.9" stop-color="#AAE9FB"/>
<stop offset="1" stop-color="#B5EBFB"/>
</linearGradient>
<linearGradient id="paint5_linear_1106_848" x1="1893.7" y1="547.441" x2="2038.67" y2="547.441" gradientUnits="userSpaceOnUse">
<stop offset="0.07" stop-color="#00CAFF"/>
<stop offset="0.22" stop-color="#26D1FE"/>
<stop offset="0.49" stop-color="#63DCFC"/>
<stop offset="0.72" stop-color="#8FE4FB"/>
<stop offset="0.9" stop-color="#AAE9FB"/>
<stop offset="1" stop-color="#B5EBFB"/>
</linearGradient>
<linearGradient id="paint6_linear_1106_848" x1="1482.8" y1="350.764" x2="1860.48" y2="350.764" gradientUnits="userSpaceOnUse">
<stop offset="0.07" stop-color="#00CAFF"/>
<stop offset="0.22" stop-color="#26D1FE"/>
<stop offset="0.49" stop-color="#63DCFC"/>
<stop offset="0.72" stop-color="#8FE4FB"/>
<stop offset="0.9" stop-color="#AAE9FB"/>
<stop offset="1" stop-color="#B5EBFB"/>
</linearGradient>
<linearGradient id="paint7_linear_1106_848" x1="436.289" y1="202.915" x2="462.125" y2="202.915" gradientUnits="userSpaceOnUse">
<stop offset="0.07" stop-color="#00CAFF"/>
<stop offset="0.22" stop-color="#26D1FE"/>
<stop offset="0.49" stop-color="#63DCFC"/>
<stop offset="0.72" stop-color="#8FE4FB"/>
<stop offset="0.9" stop-color="#AAE9FB"/>
<stop offset="1" stop-color="#B5EBFB"/>
</linearGradient>
<linearGradient id="paint8_linear_1106_848" x1="-102.018" y1="200.465" x2="132.916" y2="200.465" gradientUnits="userSpaceOnUse">
<stop offset="0.07" stop-color="#00CAFF"/>
<stop offset="0.22" stop-color="#26D1FE"/>
<stop offset="0.49" stop-color="#63DCFC"/>
<stop offset="0.72" stop-color="#8FE4FB"/>
<stop offset="0.9" stop-color="#AAE9FB"/>
<stop offset="1" stop-color="#B5EBFB"/>
</linearGradient>
<linearGradient id="paint9_linear_1106_848" x1="1.11849" y1="426.563" x2="356.333" y2="426.563" gradientUnits="userSpaceOnUse">
<stop offset="0.07" stop-color="#00CAFF"/>
<stop offset="0.22" stop-color="#26D1FE"/>
<stop offset="0.49" stop-color="#63DCFC"/>
<stop offset="0.72" stop-color="#8FE4FB"/>
<stop offset="0.9" stop-color="#AAE9FB"/>
<stop offset="1" stop-color="#B5EBFB"/>
</linearGradient>
<linearGradient id="paint10_linear_1106_848" x1="466.544" y1="169.483" x2="621.341" y2="169.483" gradientUnits="userSpaceOnUse">
<stop offset="0.07" stop-color="#00CAFF"/>
<stop offset="0.22" stop-color="#26D1FE"/>
<stop offset="0.49" stop-color="#63DCFC"/>
<stop offset="0.72" stop-color="#8FE4FB"/>
<stop offset="0.9" stop-color="#AAE9FB"/>
<stop offset="1" stop-color="#B5EBFB"/>
</linearGradient>
<clipPath id="clip0_1106_848">
<rect width="1920" height="1080" fill="white"/>
</clipPath>
</defs>
</svg>
