<svg width="252" height="125" viewBox="0 0 252 125" fill="none" xmlns="http://www.w3.org/2000/svg">
<rect x="1.5" y="1.5" width="249" height="122" rx="48.5" fill="white" stroke="#E3E3E3" stroke-width="3"/>
<rect x="7.5" y="8.5" width="237" height="109" rx="48.5" fill="url(#paint0_linear_1541_10)" stroke="#C56DAE" stroke-width="3"/>
<g filter="url(#filter0_d_1541_10)">
<path d="M74.8233 63.637C73.562 63.207 72.4153 62.777 71.3833 62.347C70.3513 61.8883 69.4627 61.3437 68.7173 60.713C67.972 60.0823 67.3843 59.337 66.9543 58.477C66.553 57.5883 66.3523 56.5133 66.3523 55.252C66.3523 52.8153 67.284 50.866 69.1473 49.404C71.0393 47.942 73.6767 47.211 77.0593 47.211C78.292 47.211 79.4387 47.297 80.4993 47.469C81.56 47.641 82.463 47.9133 83.2083 48.286C83.9823 48.63 84.5843 49.0887 85.0143 49.662C85.4443 50.2067 85.6593 50.8517 85.6593 51.597C85.6593 52.3423 85.4873 52.9873 85.1433 53.532C84.7993 54.048 84.3837 54.4923 83.8963 54.865C83.2657 54.4637 82.42 54.1197 81.3593 53.833C80.2987 53.5177 79.1377 53.36 77.8763 53.36C76.5863 53.36 75.6403 53.5463 75.0383 53.919C74.4363 54.263 74.1353 54.7073 74.1353 55.252C74.1353 55.682 74.3217 56.0403 74.6943 56.327C75.067 56.585 75.626 56.8287 76.3713 57.058L78.6503 57.789C81.345 58.649 83.409 59.7527 84.8423 61.1C86.3043 62.4187 87.0353 64.2247 87.0353 66.518C87.0353 68.9547 86.075 70.9327 84.1543 72.452C82.2337 73.9427 79.41 74.688 75.6833 74.688C74.3647 74.688 73.132 74.5733 71.9853 74.344C70.8673 74.1433 69.8783 73.8423 69.0183 73.441C68.187 73.011 67.5277 72.495 67.0403 71.893C66.5817 71.2623 66.3523 70.5457 66.3523 69.743C66.3523 68.9117 66.596 68.2093 67.0833 67.636C67.5707 67.034 68.101 66.5753 68.6743 66.26C69.477 66.8907 70.4517 67.4353 71.5983 67.894C72.7737 68.3527 74.0493 68.582 75.4253 68.582C76.83 68.582 77.819 68.367 78.3923 67.937C78.9657 67.507 79.2523 67.0053 79.2523 66.432C79.2523 65.8587 79.023 65.4287 78.5643 65.142C78.1057 64.8267 77.4607 64.5257 76.6293 64.239L74.8233 63.637ZM89.361 53.962C89.1604 53.6467 88.974 53.2167 88.802 52.672C88.63 52.1273 88.544 51.554 88.544 50.952C88.544 49.834 88.7877 49.0313 89.275 48.544C89.791 48.0567 90.4504 47.813 91.253 47.813H110.001C110.202 48.1283 110.388 48.5583 110.56 49.103C110.732 49.6477 110.818 50.221 110.818 50.823C110.818 51.941 110.56 52.7437 110.044 53.231C109.557 53.7183 108.912 53.962 108.109 53.962H103.336V73.828C103.021 73.914 102.519 74 101.831 74.086C101.172 74.172 100.512 74.215 99.853 74.215C99.1937 74.215 98.606 74.1577 98.09 74.043C97.6027 73.957 97.187 73.785 96.843 73.527C96.499 73.269 96.241 72.9107 96.069 72.452C95.897 71.9933 95.811 71.3913 95.811 70.646V53.962H89.361ZM118.284 48.716C118.771 48.4293 119.502 48.157 120.477 47.899C121.48 47.641 122.484 47.512 123.487 47.512C124.92 47.512 126.182 47.727 127.271 48.157C128.389 48.5583 129.106 49.2033 129.421 50.092C129.937 51.5827 130.496 53.317 131.098 55.295C131.7 57.273 132.302 59.3227 132.904 61.444C133.506 63.5367 134.094 65.615 134.667 67.679C135.24 69.7143 135.742 71.5203 136.172 73.097C135.828 73.4983 135.312 73.8137 134.624 74.043C133.936 74.301 133.119 74.43 132.173 74.43C131.485 74.43 130.897 74.3727 130.41 74.258C129.951 74.1433 129.564 73.9713 129.249 73.742C128.962 73.5127 128.719 73.2117 128.518 72.839C128.346 72.4663 128.188 72.0363 128.045 71.549L127.271 68.582H119.488C119.259 69.442 119.029 70.3307 118.8 71.248C118.571 72.1653 118.341 73.054 118.112 73.914C117.711 74.0573 117.281 74.172 116.822 74.258C116.392 74.3727 115.862 74.43 115.231 74.43C113.769 74.43 112.68 74.1863 111.963 73.699C111.275 73.183 110.931 72.4807 110.931 71.592C110.931 71.1907 110.988 70.7893 111.103 70.388C111.218 69.9867 111.347 69.5137 111.49 68.969C111.691 68.195 111.963 67.2347 112.307 66.088C112.68 64.9413 113.081 63.7087 113.511 62.39C113.941 61.0427 114.4 59.6667 114.887 58.262C115.374 56.8573 115.833 55.5387 116.263 54.306C116.693 53.0447 117.08 51.9267 117.424 50.952C117.797 49.9773 118.083 49.232 118.284 48.716ZM123.444 54.263C123.043 55.467 122.584 56.8143 122.068 58.305C121.581 59.767 121.136 61.2577 120.735 62.777H126.067C125.666 61.229 125.25 59.724 124.82 58.262C124.419 56.7713 124.046 55.4383 123.702 54.263H123.444ZM147.178 65.572V73.828C146.863 73.914 146.361 74 145.673 74.086C145.014 74.172 144.354 74.215 143.695 74.215C143.036 74.215 142.448 74.1577 141.932 74.043C141.445 73.957 141.029 73.785 140.685 73.527C140.37 73.269 140.126 72.9107 139.954 72.452C139.782 71.9933 139.696 71.3913 139.696 70.646V50.393C139.696 49.791 139.854 49.3323 140.169 49.017C140.513 48.673 140.972 48.4007 141.545 48.2C142.52 47.856 143.652 47.6123 144.942 47.469C146.232 47.297 147.608 47.211 149.07 47.211C153.026 47.211 156.007 48.0423 158.014 49.705C160.021 51.3677 161.024 53.618 161.024 56.456C161.024 58.2333 160.565 59.7527 159.648 61.014C158.731 62.2753 157.641 63.25 156.38 63.938C157.412 65.3427 158.43 66.6613 159.433 67.894C160.436 69.1267 161.225 70.2447 161.798 71.248C161.511 72.2513 160.981 73.0253 160.207 73.57C159.462 74.086 158.616 74.344 157.67 74.344C157.039 74.344 156.495 74.2723 156.036 74.129C155.577 73.9857 155.176 73.785 154.832 73.527C154.488 73.269 154.173 72.9537 153.886 72.581C153.599 72.2083 153.327 71.807 153.069 71.377L149.457 65.572H147.178ZM149.887 59.853C150.976 59.853 151.836 59.5807 152.467 59.036C153.098 58.4627 153.413 57.6313 153.413 56.542C153.413 55.4527 153.055 54.6357 152.338 54.091C151.65 53.5177 150.546 53.231 149.027 53.231C148.597 53.231 148.253 53.2453 147.995 53.274C147.737 53.3027 147.45 53.3457 147.135 53.403V59.853H149.887ZM164.065 53.962C163.864 53.6467 163.678 53.2167 163.506 52.672C163.334 52.1273 163.248 51.554 163.248 50.952C163.248 49.834 163.492 49.0313 163.979 48.544C164.495 48.0567 165.154 47.813 165.957 47.813H184.705C184.906 48.1283 185.092 48.5583 185.264 49.103C185.436 49.6477 185.522 50.221 185.522 50.823C185.522 51.941 185.264 52.7437 184.748 53.231C184.261 53.7183 183.616 53.962 182.813 53.962H178.04V73.828C177.725 73.914 177.223 74 176.535 74.086C175.876 74.172 175.216 74.215 174.557 74.215C173.898 74.215 173.31 74.1577 172.794 74.043C172.307 73.957 171.891 73.785 171.547 73.527C171.203 73.269 170.945 72.9107 170.773 72.452C170.601 71.9933 170.515 71.3913 170.515 70.646V53.962H164.065Z" fill="white"/>
</g>
<g filter="url(#filter1_d_1541_10)">
<path d="M225.715 34.8253C222.631 36.3025 223.19 39.9755 225.506 43.6885C227.821 47.4014 232.602 46.613 233.511 44.5369C234.419 42.4608 233.91 39.6961 232.562 37.6899C231.215 35.6837 228.7 33.398 225.715 34.8253Z" fill="white"/>
</g>
<g filter="url(#filter2_d_1541_10)">
<path d="M218.559 21.5108C214.227 17.3387 209.726 14.055 205.643 17.3387C202.07 20.2233 204.825 27.1701 209.117 31.5617C213.409 35.9534 218.798 36.0033 221.783 33.7875C224.767 31.5717 224.158 26.9006 218.559 21.5108Z" fill="white"/>
</g>
<defs>
<filter id="filter0_d_1541_10" x="62.3523" y="47.211" width="127.17" height="35.477" filterUnits="userSpaceOnUse" color-interpolation-filters="sRGB">
<feFlood flood-opacity="0" result="BackgroundImageFix"/>
<feColorMatrix in="SourceAlpha" type="matrix" values="0 0 0 0 0 0 0 0 0 0 0 0 0 0 0 0 0 0 127 0" result="hardAlpha"/>
<feOffset dy="4"/>
<feGaussianBlur stdDeviation="2"/>
<feComposite in2="hardAlpha" operator="out"/>
<feColorMatrix type="matrix" values="0 0 0 0 0 0 0 0 0 0 0 0 0 0 0 0 0 0 0.25 0"/>
<feBlend mode="normal" in2="BackgroundImageFix" result="effect1_dropShadow_1541_10"/>
<feBlend mode="normal" in="SourceGraphic" in2="effect1_dropShadow_1541_10" result="shape"/>
</filter>
<filter id="filter1_d_1541_10" x="219.583" y="34.3799" width="18.3848" height="19.9037" filterUnits="userSpaceOnUse" color-interpolation-filters="sRGB">
<feFlood flood-opacity="0" result="BackgroundImageFix"/>
<feColorMatrix in="SourceAlpha" type="matrix" values="0 0 0 0 0 0 0 0 0 0 0 0 0 0 0 0 0 0 127 0" result="hardAlpha"/>
<feOffset dy="4"/>
<feGaussianBlur stdDeviation="2"/>
<feComposite in2="hardAlpha" operator="out"/>
<feColorMatrix type="matrix" values="0 0 0 0 0 0 0 0 0 0 0 0 0 0 0 0 0 0 0.25 0"/>
<feBlend mode="normal" in2="BackgroundImageFix" result="effect1_dropShadow_1541_10"/>
<feBlend mode="normal" in="SourceGraphic" in2="effect1_dropShadow_1541_10" result="shape"/>
</filter>
<filter id="filter2_d_1541_10" x="200" y="16" width="27.5521" height="27.2273" filterUnits="userSpaceOnUse" color-interpolation-filters="sRGB">
<feFlood flood-opacity="0" result="BackgroundImageFix"/>
<feColorMatrix in="SourceAlpha" type="matrix" values="0 0 0 0 0 0 0 0 0 0 0 0 0 0 0 0 0 0 127 0" result="hardAlpha"/>
<feOffset dy="4"/>
<feGaussianBlur stdDeviation="2"/>
<feComposite in2="hardAlpha" operator="out"/>
<feColorMatrix type="matrix" values="0 0 0 0 0 0 0 0 0 0 0 0 0 0 0 0 0 0 0.25 0"/>
<feBlend mode="normal" in2="BackgroundImageFix" result="effect1_dropShadow_1541_10"/>
<feBlend mode="normal" in="SourceGraphic" in2="effect1_dropShadow_1541_10" result="shape"/>
</filter>
<linearGradient id="paint0_linear_1541_10" x1="126" y1="7" x2="126" y2="119" gradientUnits="userSpaceOnUse">
<stop stop-color="#D880B0"/>
<stop offset="1" stop-color="#9C3991"/>
</linearGradient>
</defs>
</svg>
