<svg width="74" height="72" viewBox="0 0 74 72" fill="none" xmlns="http://www.w3.org/2000/svg">
<path d="M34.7611 1.05407C14.1698 2.31727 -0.245245 15.0611 1.08503 38.8104C2.4153 62.5597 20.9162 71.6313 34.096 70.9661C47.2757 70.301 71.1927 63.6272 72.8751 39.2128C74.5575 14.7984 52.2 -0.0135024 34.7611 1.05407V1.05407Z" fill="white" stroke="#E3E3E3" stroke-width="2" stroke-miterlimit="10"/>
<path d="M35.3744 7.75875C18.5563 8.78457 6.78303 19.1742 7.86671 38.5227C8.95039 57.8712 24.0641 65.2676 34.8273 64.7258C45.5905 64.1839 65.1283 58.7445 66.5013 38.8489C67.8743 18.9533 49.6148 6.88549 35.3691 7.75875H35.3744Z" fill="url(#paint0_linear_1318_182)" stroke="#3D9FD5" stroke-width="5" stroke-miterlimit="10"/>
<g filter="url(#filter0_d_1318_182)">
<path d="M56.9795 22.4198C55.354 23.1984 55.6486 25.1343 56.8691 27.0912C58.0895 29.0482 60.6094 28.6326 61.0881 27.5384C61.5668 26.4442 61.2985 24.987 60.5883 23.9296C59.8781 22.8722 58.5525 21.6676 56.9795 22.4198V22.4198Z" fill="white"/>
</g>
<g filter="url(#filter1_d_1318_182)">
<path d="M53.2078 15.4026C50.9247 13.2036 48.5522 11.4729 46.4006 13.2036C44.5173 14.724 45.9692 18.3853 48.2312 20.7C50.4933 23.0147 53.334 23.041 54.9069 21.8731C56.4799 20.7053 56.159 18.2433 53.2078 15.4026V15.4026Z" fill="white"/>
</g>
<g filter="url(#filter2_d_1318_182)">
<path fill-rule="evenodd" clip-rule="evenodd" d="M34.9751 20.7944C34.6888 20.163 33.869 19.9961 33.3587 20.4653L24.6517 28.4708C23.806 29.2484 22.699 29.6799 21.5501 29.6799V29.6799C19.086 29.6799 17.063 31.6286 16.9708 34.0909L16.8777 36.577L16.9445 38.2014C17.0524 40.8256 19.1723 42.9191 21.7977 42.9939L22.5099 43.0143V43.0143C23.0415 43.0143 23.5538 43.214 23.9452 43.5738L33.3849 52.253C33.857 52.687 34.6199 52.4869 34.8181 51.8771V51.8771C34.8454 51.7932 34.8599 51.7057 34.8612 51.6175L34.957 44.9203C34.9905 42.5815 36.9286 40.4763 37.886 38.3422C38.1406 37.7746 38.3115 37.1427 38.3729 36.4748C38.4411 35.7337 38.3126 35.0536 38.0413 34.4584C37.0826 32.3556 35.066 30.4521 35.066 28.1411V21.2148C35.066 21.0698 35.035 20.9265 34.9751 20.7944V20.7944ZM42.3516 22.6712C42.3516 22.6527 42.3717 22.6412 42.3877 22.6505C44.8514 24.0795 46.8538 26.0643 48.2421 28.4538C49.6373 30.855 50.4123 33.5627 50.4123 36.4237C50.4123 39.2847 49.6373 41.9925 48.2421 44.3937C47.1744 46.2094 45.7184 47.8507 43.9616 49.1443C43.2978 49.6332 42.3916 49.5557 41.7594 49.0267L41.5984 48.8921C41.5157 48.8229 41.447 48.7385 41.3961 48.6434V48.6434C41.1803 48.2403 41.3269 47.7408 41.71 47.4912C43.4616 46.3499 44.9116 44.8275 45.9169 43.0653C47.0537 41.0729 47.7254 38.7738 47.7254 36.4237C47.7254 34.0736 47.1054 31.7746 45.9169 29.7821C45.006 28.2673 43.8295 26.9165 42.3877 25.835C41.748 25.3551 41.4091 24.5492 41.6159 23.7767L41.6404 23.6853C41.7003 23.4618 41.8141 23.2564 41.972 23.0873L42.3451 22.6876C42.3493 22.6832 42.3516 22.6773 42.3516 22.6712V22.6712ZM40.0264 27.3539C40.0264 27.3707 40.0352 27.3863 40.0495 27.3951C41.5376 28.3137 42.7695 29.5854 43.6434 31.0594C44.5735 32.6431 45.0902 34.4823 45.0902 36.3726C45.0902 38.2629 44.5735 40.1022 43.6434 41.6859C42.9763 42.8219 42.0965 43.8527 41.0422 44.6842C40.3244 45.2503 39.3075 45.0238 38.7587 44.2925L38.6183 44.1054C38.5587 44.026 38.5163 43.935 38.4937 43.8383V43.8383C38.422 43.531 38.5618 43.2155 38.8245 43.0408C39.8646 42.349 40.7362 41.4317 41.3699 40.3576C42.0933 39.1826 42.455 37.7521 42.455 36.3216C42.455 34.8911 42.0933 33.5116 41.3699 32.2855C40.7704 31.2694 39.9935 30.3937 39.0099 29.7165C38.6709 29.4831 38.5444 29.0257 38.7503 28.6693V28.6693C38.7741 28.6282 38.8023 28.5893 38.8341 28.5539L39.942 27.3215C39.9717 27.2885 40.0264 27.3095 40.0264 27.3539V27.3539Z" fill="white"/>
</g>
<defs>
<filter id="filter0_d_1318_182" x="51.856" y="22.1851" width="13.4734" height="14.2739" filterUnits="userSpaceOnUse" color-interpolation-filters="sRGB">
<feFlood flood-opacity="0" result="BackgroundImageFix"/>
<feColorMatrix in="SourceAlpha" type="matrix" values="0 0 0 0 0 0 0 0 0 0 0 0 0 0 0 0 0 0 127 0" result="hardAlpha"/>
<feOffset dy="4"/>
<feGaussianBlur stdDeviation="2"/>
<feComposite in2="hardAlpha" operator="out"/>
<feColorMatrix type="matrix" values="0 0 0 0 0 0 0 0 0 0 0 0 0 0 0 0 0 0 0.25 0"/>
<feBlend mode="normal" in2="BackgroundImageFix" result="effect1_dropShadow_1318_182"/>
<feBlend mode="normal" in="SourceGraphic" in2="effect1_dropShadow_1318_182" result="shape"/>
</filter>
<filter id="filter1_d_1318_182" x="41.5344" y="12.498" width="18.3052" height="18.1338" filterUnits="userSpaceOnUse" color-interpolation-filters="sRGB">
<feFlood flood-opacity="0" result="BackgroundImageFix"/>
<feColorMatrix in="SourceAlpha" type="matrix" values="0 0 0 0 0 0 0 0 0 0 0 0 0 0 0 0 0 0 127 0" result="hardAlpha"/>
<feOffset dy="4"/>
<feGaussianBlur stdDeviation="2"/>
<feComposite in2="hardAlpha" operator="out"/>
<feColorMatrix type="matrix" values="0 0 0 0 0 0 0 0 0 0 0 0 0 0 0 0 0 0 0.25 0"/>
<feBlend mode="normal" in2="BackgroundImageFix" result="effect1_dropShadow_1318_182"/>
<feBlend mode="normal" in="SourceGraphic" in2="effect1_dropShadow_1318_182" result="shape"/>
</filter>
<filter id="filter2_d_1318_182" x="12.8777" y="20.1963" width="41.5347" height="40.2896" filterUnits="userSpaceOnUse" color-interpolation-filters="sRGB">
<feFlood flood-opacity="0" result="BackgroundImageFix"/>
<feColorMatrix in="SourceAlpha" type="matrix" values="0 0 0 0 0 0 0 0 0 0 0 0 0 0 0 0 0 0 127 0" result="hardAlpha"/>
<feOffset dy="4"/>
<feGaussianBlur stdDeviation="2"/>
<feComposite in2="hardAlpha" operator="out"/>
<feColorMatrix type="matrix" values="0 0 0 0 0 0 0 0 0 0 0 0 0 0 0 0 0 0 0.25 0"/>
<feBlend mode="normal" in2="BackgroundImageFix" result="effect1_dropShadow_1318_182"/>
<feBlend mode="normal" in="SourceGraphic" in2="effect1_dropShadow_1318_182" result="shape"/>
</filter>
<linearGradient id="paint0_linear_1318_182" x1="37.186" y1="7.71436" x2="37.186" y2="64.7534" gradientUnits="userSpaceOnUse">
<stop stop-color="#4FC0D2"/>
<stop offset="0.5625" stop-color="#3396CE"/>
<stop offset="1" stop-color="#3061A7"/>
</linearGradient>
</defs>
</svg>
