<svg width="252" height="125" viewBox="0 0 252 125" fill="none" xmlns="http://www.w3.org/2000/svg">
<rect x="1.5" y="1.5" width="249" height="122" rx="48.5" fill="white" stroke="#E3E3E3" stroke-width="3"/>
<rect x="7.5" y="8.5" width="237" height="109" rx="48.5" fill="url(#paint0_linear_1345_205)" stroke="#C56DAE" stroke-width="3"/>
<g filter="url(#filter0_d_1345_205)">
<path d="M46.1881 40.045C46.1881 39.0417 46.4798 38.2483 47.0631 37.665C47.6464 37.0817 48.4398 36.79 49.4431 36.79H60.9931C61.1564 37.0467 61.2964 37.385 61.4131 37.805C61.5531 38.225 61.6231 38.6683 61.6231 39.135C61.6231 40.0217 61.4248 40.6517 61.0281 41.025C60.6548 41.3983 60.1531 41.585 59.5231 41.585H52.1381V44.84H60.0131C60.1764 45.0967 60.3164 45.435 60.4331 45.855C60.5731 46.2517 60.6431 46.6833 60.6431 47.15C60.6431 48.0367 60.4564 48.6667 60.0831 49.04C59.7098 49.4133 59.2081 49.6 58.5781 49.6H52.1381V53.275H61.1331C61.2964 53.5317 61.4364 53.87 61.5531 54.29C61.6931 54.71 61.7631 55.1533 61.7631 55.62C61.7631 56.5067 61.5648 57.1483 61.1681 57.545C60.7948 57.9183 60.2931 58.105 59.6631 58.105H49.4431C48.4398 58.105 47.6464 57.8133 47.0631 57.23C46.4798 56.6467 46.1881 55.8533 46.1881 54.85V40.045ZM75.517 47.22C75.517 46.4967 75.307 45.9717 74.887 45.645C74.4903 45.295 73.942 45.12 73.242 45.12C72.7753 45.12 72.3087 45.1783 71.842 45.295C71.3987 45.4117 71.0137 45.5867 70.687 45.82V57.965C70.4537 58.035 70.0803 58.105 69.567 58.175C69.077 58.245 68.5637 58.28 68.027 58.28C67.5137 58.28 67.047 58.245 66.627 58.175C66.2303 58.105 65.892 57.965 65.612 57.755C65.332 57.545 65.1103 57.265 64.947 56.915C64.807 56.5417 64.737 56.0633 64.737 55.48V44.98C64.737 44.35 64.8653 43.8367 65.122 43.44C65.402 43.0433 65.7753 42.6817 66.242 42.355C67.0353 41.795 68.027 41.34 69.217 40.99C70.4303 40.64 71.772 40.465 73.242 40.465C75.8787 40.465 77.9087 41.0483 79.332 42.215C80.7553 43.3583 81.467 44.9567 81.467 47.01V57.965C81.2337 58.035 80.8603 58.105 80.347 58.175C79.857 58.245 79.3437 58.28 78.807 58.28C78.2937 58.28 77.827 58.245 77.407 58.175C77.0103 58.105 76.672 57.965 76.392 57.755C76.112 57.545 75.8903 57.265 75.727 56.915C75.587 56.5417 75.517 56.0633 75.517 55.48V47.22ZM84.4073 49.495C84.4073 47.955 84.6406 46.625 85.1073 45.505C85.5739 44.3617 86.2156 43.4167 87.0323 42.67C87.8723 41.9233 88.8406 41.375 89.9373 41.025C91.0573 40.6517 92.2589 40.465 93.5423 40.465C94.0089 40.465 94.4639 40.5117 94.9073 40.605C95.3506 40.675 95.7123 40.7683 95.9923 40.885V35.215C96.2256 35.145 96.5989 35.075 97.1123 35.005C97.6256 34.9117 98.1506 34.865 98.6873 34.865C99.2006 34.865 99.6556 34.9 100.052 34.97C100.472 35.04 100.822 35.18 101.102 35.39C101.382 35.6 101.592 35.8917 101.732 36.265C101.872 36.615 101.942 37.0817 101.942 37.665V54.255C101.942 55.3517 101.429 56.2267 100.402 56.88C99.7256 57.3233 98.8506 57.7083 97.7773 58.035C96.7039 58.385 95.4673 58.56 94.0673 58.56C92.5506 58.56 91.1856 58.35 89.9723 57.93C88.7823 57.51 87.7673 56.9033 86.9273 56.11C86.1106 55.3167 85.4806 54.3717 85.0373 53.275C84.6173 52.155 84.4073 50.895 84.4073 49.495ZM94.3473 45.12C93.0873 45.12 92.1189 45.4817 91.4423 46.205C90.7656 46.9283 90.4273 48.025 90.4273 49.495C90.4273 50.9417 90.7423 52.0383 91.3723 52.785C92.0023 53.5083 92.9123 53.87 94.1023 53.87C94.5223 53.87 94.8956 53.8117 95.2223 53.695C95.5723 53.555 95.8406 53.4033 96.0273 53.24V45.54C95.5606 45.26 95.0006 45.12 94.3473 45.12ZM130.262 49.495C130.262 50.9417 130.04 52.2367 129.597 53.38C129.154 54.5 128.524 55.445 127.707 56.215C126.914 56.985 125.957 57.5683 124.837 57.965C123.717 58.3617 122.469 58.56 121.092 58.56C119.715 58.56 118.467 58.35 117.347 57.93C116.227 57.51 115.259 56.915 114.442 56.145C113.649 55.3517 113.03 54.395 112.587 53.275C112.144 52.155 111.922 50.895 111.922 49.495C111.922 48.1183 112.144 46.87 112.587 45.75C113.03 44.63 113.649 43.685 114.442 42.915C115.259 42.1217 116.227 41.515 117.347 41.095C118.467 40.675 119.715 40.465 121.092 40.465C122.469 40.465 123.717 40.6867 124.837 41.13C125.957 41.55 126.914 42.1567 127.707 42.95C128.524 43.72 129.154 44.665 129.597 45.785C130.04 46.905 130.262 48.1417 130.262 49.495ZM118.012 49.495C118.012 50.9183 118.28 52.015 118.817 52.785C119.377 53.5317 120.147 53.905 121.127 53.905C122.107 53.905 122.854 53.52 123.367 52.75C123.904 51.98 124.172 50.895 124.172 49.495C124.172 48.095 123.904 47.0217 123.367 46.275C122.83 45.505 122.072 45.12 121.092 45.12C120.112 45.12 119.354 45.505 118.817 46.275C118.28 47.0217 118.012 48.095 118.012 49.495ZM133.235 40.99C133.235 39.8 133.433 38.785 133.83 37.945C134.25 37.0817 134.81 36.3817 135.51 35.845C136.21 35.285 137.026 34.8767 137.96 34.62C138.916 34.3633 139.931 34.235 141.005 34.235C142.731 34.235 144.003 34.4683 144.82 34.935C145.636 35.3783 146.045 36.1483 146.045 37.245C146.045 37.7117 145.94 38.1317 145.73 38.505C145.543 38.8783 145.333 39.1583 145.1 39.345C144.656 39.2283 144.19 39.135 143.7 39.065C143.233 38.9717 142.685 38.925 142.055 38.925C141.051 38.925 140.27 39.1 139.71 39.45C139.15 39.7767 138.87 40.36 138.87 41.2V42.32H144.61C144.75 42.5767 144.878 42.9033 144.995 43.3C145.135 43.6733 145.205 44.0933 145.205 44.56C145.205 45.3767 145.018 45.9717 144.645 46.345C144.295 46.695 143.816 46.87 143.21 46.87H139.185V57.965C138.951 58.035 138.578 58.105 138.065 58.175C137.575 58.245 137.061 58.28 136.525 58.28C136.011 58.28 135.545 58.245 135.125 58.175C134.728 58.105 134.39 57.965 134.11 57.755C133.83 57.545 133.608 57.265 133.445 56.915C133.305 56.5417 133.235 56.0633 133.235 55.48V40.99ZM161.161 52.155C161.161 52.7617 161.347 53.1933 161.721 53.45C162.117 53.7067 162.666 53.835 163.366 53.835C163.716 53.835 164.077 53.8117 164.451 53.765C164.824 53.695 165.151 53.6133 165.431 53.52C165.641 53.7767 165.816 54.0683 165.956 54.395C166.119 54.6983 166.201 55.0717 166.201 55.515C166.201 56.4017 165.862 57.125 165.186 57.685C164.532 58.245 163.366 58.525 161.686 58.525C159.632 58.525 158.046 58.0583 156.926 57.125C155.829 56.1917 155.281 54.675 155.281 52.575V37.595C155.537 37.525 155.899 37.455 156.366 37.385C156.856 37.2917 157.369 37.245 157.906 37.245C158.932 37.245 159.726 37.4317 160.286 37.805C160.869 38.155 161.161 38.9133 161.161 40.08V42.32H165.746C165.886 42.5767 166.014 42.9033 166.131 43.3C166.271 43.6733 166.341 44.0933 166.341 44.56C166.341 45.3767 166.154 45.9717 165.781 46.345C165.431 46.695 164.952 46.87 164.346 46.87H161.161V52.155ZM186.024 57.965C185.791 58.035 185.418 58.105 184.904 58.175C184.414 58.245 183.901 58.28 183.364 58.28C182.851 58.28 182.384 58.245 181.964 58.175C181.568 58.105 181.229 57.965 180.949 57.755C180.669 57.545 180.448 57.265 180.284 56.915C180.144 56.5417 180.074 56.0633 180.074 55.48V47.71C180.074 46.7533 179.829 46.0883 179.339 45.715C178.873 45.3183 178.289 45.12 177.589 45.12C177.123 45.12 176.679 45.1783 176.259 45.295C175.839 45.4117 175.501 45.5517 175.244 45.715V57.965C175.011 58.035 174.638 58.105 174.124 58.175C173.634 58.245 173.121 58.28 172.584 58.28C172.071 58.28 171.604 58.245 171.184 58.175C170.788 58.105 170.449 57.965 170.169 57.755C169.889 57.545 169.668 57.265 169.504 56.915C169.364 56.5417 169.294 56.0633 169.294 55.48V35.18C169.551 35.1333 169.924 35.075 170.414 35.005C170.928 34.9117 171.441 34.865 171.954 34.865C172.468 34.865 172.923 34.9 173.319 34.97C173.739 35.04 174.089 35.18 174.369 35.39C174.649 35.6 174.859 35.8917 174.999 36.265C175.163 36.615 175.244 37.0817 175.244 37.665V41.095C175.548 40.9783 176.003 40.85 176.609 40.71C177.239 40.5467 177.928 40.465 178.674 40.465C180.984 40.465 182.781 41.0483 184.064 42.215C185.371 43.3583 186.024 45.0733 186.024 47.36V57.965ZM198.693 58.56C197.316 58.56 196.033 58.3733 194.843 58C193.676 57.6033 192.65 57.02 191.763 56.25C190.9 55.48 190.211 54.5117 189.698 53.345C189.208 52.1783 188.963 50.8133 188.963 49.25C188.963 47.71 189.208 46.3917 189.698 45.295C190.211 44.175 190.876 43.265 191.693 42.565C192.51 41.8417 193.443 41.3167 194.493 40.99C195.543 40.64 196.616 40.465 197.713 40.465C198.95 40.465 200.07 40.6517 201.073 41.025C202.1 41.3983 202.975 41.9117 203.698 42.565C204.445 43.2183 205.016 44 205.413 44.91C205.833 45.82 206.043 46.8117 206.043 47.885C206.043 48.6783 205.821 49.285 205.378 49.705C204.935 50.125 204.316 50.3933 203.523 50.51L194.878 51.805C195.135 52.575 195.66 53.1583 196.453 53.555C197.246 53.9283 198.156 54.115 199.183 54.115C200.14 54.115 201.038 53.9983 201.878 53.765C202.741 53.5083 203.441 53.2167 203.978 52.89C204.351 53.1233 204.666 53.45 204.923 53.87C205.18 54.29 205.308 54.7333 205.308 55.2C205.308 56.25 204.818 57.0317 203.838 57.545C203.091 57.9417 202.251 58.21 201.318 58.35C200.385 58.49 199.51 58.56 198.693 58.56ZM197.713 44.805C197.153 44.805 196.663 44.8983 196.243 45.085C195.846 45.2717 195.52 45.5167 195.263 45.82C195.006 46.1 194.808 46.4267 194.668 46.8C194.551 47.15 194.481 47.5117 194.458 47.885L200.443 46.905C200.373 46.4383 200.116 45.9717 199.673 45.505C199.23 45.0383 198.576 44.805 197.713 44.805ZM74.8962 75.06C73.0995 75.06 71.7228 75.6083 70.7662 76.705C69.8095 77.8017 69.3312 79.3533 69.3312 81.36C69.3312 83.39 69.8562 84.9533 70.9062 86.05C71.9795 87.1467 73.4145 87.695 75.2112 87.695C76.1678 87.695 76.9728 87.5667 77.6262 87.31C78.3028 87.0533 78.9445 86.7617 79.5512 86.435C79.9478 86.7617 80.2512 87.1583 80.4612 87.625C80.6945 88.0683 80.8112 88.5933 80.8112 89.2C80.8112 90.1567 80.2745 90.9733 79.2012 91.65C78.1512 92.3033 76.5412 92.63 74.3712 92.63C72.8078 92.63 71.3378 92.4083 69.9612 91.965C68.5845 91.5217 67.3828 90.845 66.3562 89.935C65.3295 89.0017 64.5128 87.835 63.9062 86.435C63.3228 85.0117 63.0312 83.32 63.0312 81.36C63.0312 79.54 63.3112 77.9417 63.8712 76.565C64.4545 75.165 65.2362 73.9867 66.2162 73.03C67.2195 72.0733 68.3862 71.35 69.7162 70.86C71.0462 70.37 72.4695 70.125 73.9862 70.125C76.1328 70.125 77.7895 70.475 78.9562 71.175C80.1462 71.875 80.7412 72.7733 80.7412 73.87C80.7412 74.4767 80.5895 75.0017 80.2862 75.445C79.9828 75.8883 79.6328 76.2383 79.2362 76.495C78.6295 76.0983 77.9762 75.76 77.2762 75.48C76.5995 75.2 75.8062 75.06 74.8962 75.06ZM100.421 91.965C100.188 92.035 99.8146 92.105 99.3013 92.175C98.8113 92.245 98.2979 92.28 97.7613 92.28C97.2479 92.28 96.7813 92.245 96.3613 92.175C95.9646 92.105 95.6263 91.965 95.3463 91.755C95.0663 91.545 94.8446 91.265 94.6813 90.915C94.5413 90.5417 94.4713 90.0633 94.4713 89.48V81.71C94.4713 80.7533 94.2263 80.0883 93.7363 79.715C93.2696 79.3183 92.6863 79.12 91.9863 79.12C91.5196 79.12 91.0763 79.1783 90.6563 79.295C90.2363 79.4117 89.8979 79.5517 89.6413 79.715V91.965C89.4079 92.035 89.0346 92.105 88.5213 92.175C88.0313 92.245 87.5179 92.28 86.9813 92.28C86.4679 92.28 86.0013 92.245 85.5813 92.175C85.1846 92.105 84.8463 91.965 84.5663 91.755C84.2863 91.545 84.0646 91.265 83.9013 90.915C83.7613 90.5417 83.6913 90.0633 83.6913 89.48V69.18C83.9479 69.1333 84.3213 69.075 84.8113 69.005C85.3246 68.9117 85.8379 68.865 86.3513 68.865C86.8646 68.865 87.3196 68.9 87.7163 68.97C88.1363 69.04 88.4863 69.18 88.7663 69.39C89.0463 69.6 89.2563 69.8917 89.3963 70.265C89.5596 70.615 89.6413 71.0817 89.6413 71.665V75.095C89.9446 74.9783 90.3996 74.85 91.0063 74.71C91.6363 74.5467 92.3246 74.465 93.0713 74.465C95.3813 74.465 97.1779 75.0483 98.4613 76.215C99.7679 77.3583 100.421 79.0733 100.421 81.36V91.965ZM111.375 88.22C111.772 88.22 112.203 88.185 112.67 88.115C113.16 88.0217 113.522 87.905 113.755 87.765V84.965L111.235 85.175C110.582 85.2217 110.045 85.3617 109.625 85.595C109.205 85.8283 108.995 86.1783 108.995 86.645C108.995 87.1117 109.17 87.4967 109.52 87.8C109.893 88.08 110.512 88.22 111.375 88.22ZM111.095 74.465C112.355 74.465 113.498 74.5933 114.525 74.85C115.575 75.1067 116.462 75.5033 117.185 76.04C117.932 76.5533 118.503 77.2183 118.9 78.035C119.297 78.8283 119.495 79.7733 119.495 80.87V88.71C119.495 89.3167 119.32 89.8183 118.97 90.215C118.643 90.5883 118.247 90.915 117.78 91.195C116.263 92.105 114.128 92.56 111.375 92.56C110.138 92.56 109.018 92.4433 108.015 92.21C107.035 91.9767 106.183 91.6267 105.46 91.16C104.76 90.6933 104.212 90.0983 103.815 89.375C103.442 88.6517 103.255 87.8117 103.255 86.855C103.255 85.245 103.733 84.0083 104.69 83.145C105.647 82.2817 107.128 81.745 109.135 81.535L113.72 81.045V80.8C113.72 80.1233 113.417 79.645 112.81 79.365C112.227 79.0617 111.375 78.91 110.255 78.91C109.368 78.91 108.505 79.0033 107.665 79.19C106.825 79.3767 106.067 79.61 105.39 79.89C105.087 79.68 104.83 79.365 104.62 78.945C104.41 78.5017 104.305 78.0467 104.305 77.58C104.305 76.9733 104.445 76.495 104.725 76.145C105.028 75.7717 105.483 75.4567 106.09 75.2C106.767 74.9433 107.56 74.7567 108.47 74.64C109.403 74.5233 110.278 74.465 111.095 74.465ZM130.938 74.465C132.338 74.465 133.633 74.6517 134.823 75.025C136.036 75.375 137.075 75.9233 137.938 76.67C138.801 77.4167 139.478 78.3617 139.968 79.505C140.458 80.625 140.703 81.9667 140.703 83.53C140.703 85.0233 140.493 86.33 140.073 87.45C139.653 88.57 139.058 89.515 138.288 90.285C137.518 91.0317 136.585 91.5917 135.488 91.965C134.415 92.3383 133.213 92.525 131.883 92.525C130.88 92.525 129.946 92.3733 129.083 92.07V97.88C128.85 97.95 128.476 98.02 127.963 98.09C127.45 98.1833 126.925 98.23 126.388 98.23C125.875 98.23 125.408 98.195 124.988 98.125C124.591 98.055 124.253 97.915 123.973 97.705C123.693 97.495 123.483 97.2033 123.343 96.83C123.203 96.48 123.133 96.0133 123.133 95.43V78.63C123.133 78 123.261 77.4867 123.518 77.09C123.798 76.6933 124.171 76.3317 124.638 76.005C125.361 75.5383 126.26 75.165 127.333 74.885C128.406 74.605 129.608 74.465 130.938 74.465ZM131.008 87.835C133.411 87.835 134.613 86.4 134.613 83.53C134.613 82.0367 134.31 80.9283 133.703 80.205C133.12 79.4817 132.268 79.12 131.148 79.12C130.705 79.12 130.308 79.1783 129.958 79.295C129.608 79.3883 129.305 79.505 129.048 79.645V87.345C129.328 87.485 129.631 87.6017 129.958 87.695C130.285 87.7883 130.635 87.835 131.008 87.835ZM149.557 86.155C149.557 86.7617 149.743 87.1933 150.117 87.45C150.513 87.7067 151.062 87.835 151.762 87.835C152.112 87.835 152.473 87.8117 152.847 87.765C153.22 87.695 153.547 87.6133 153.827 87.52C154.037 87.7767 154.212 88.0683 154.352 88.395C154.515 88.6983 154.597 89.0717 154.597 89.515C154.597 90.4017 154.258 91.125 153.582 91.685C152.928 92.245 151.762 92.525 150.082 92.525C148.028 92.525 146.442 92.0583 145.322 91.125C144.225 90.1917 143.677 88.675 143.677 86.575V71.595C143.933 71.525 144.295 71.455 144.762 71.385C145.252 71.2917 145.765 71.245 146.302 71.245C147.328 71.245 148.122 71.4317 148.682 71.805C149.265 72.155 149.557 72.9133 149.557 74.08V76.32H154.142C154.282 76.5767 154.41 76.9033 154.527 77.3C154.667 77.6733 154.737 78.0933 154.737 78.56C154.737 79.3767 154.55 79.9717 154.177 80.345C153.827 80.695 153.348 80.87 152.742 80.87H149.557V86.155ZM166.41 92.56C165.034 92.56 163.75 92.3733 162.56 92C161.394 91.6033 160.367 91.02 159.48 90.25C158.617 89.48 157.929 88.5117 157.415 87.345C156.925 86.1783 156.68 84.8133 156.68 83.25C156.68 81.71 156.925 80.3917 157.415 79.295C157.929 78.175 158.594 77.265 159.41 76.565C160.227 75.8417 161.16 75.3167 162.21 74.99C163.26 74.64 164.334 74.465 165.43 74.465C166.667 74.465 167.787 74.6517 168.79 75.025C169.817 75.3983 170.692 75.9117 171.415 76.565C172.162 77.2183 172.734 78 173.13 78.91C173.55 79.82 173.76 80.8117 173.76 81.885C173.76 82.6783 173.539 83.285 173.095 83.705C172.652 84.125 172.034 84.3933 171.24 84.51L162.595 85.805C162.852 86.575 163.377 87.1583 164.17 87.555C164.964 87.9283 165.874 88.115 166.9 88.115C167.857 88.115 168.755 87.9983 169.595 87.765C170.459 87.5083 171.159 87.2167 171.695 86.89C172.069 87.1233 172.384 87.45 172.64 87.87C172.897 88.29 173.025 88.7333 173.025 89.2C173.025 90.25 172.535 91.0317 171.555 91.545C170.809 91.9417 169.969 92.21 169.035 92.35C168.102 92.49 167.227 92.56 166.41 92.56ZM165.43 78.805C164.87 78.805 164.38 78.8983 163.96 79.085C163.564 79.2717 163.237 79.5167 162.98 79.82C162.724 80.1 162.525 80.4267 162.385 80.8C162.269 81.15 162.199 81.5117 162.175 81.885L168.16 80.905C168.09 80.4383 167.834 79.9717 167.39 79.505C166.947 79.0383 166.294 78.805 165.43 78.805ZM182.574 91.965C182.341 92.035 181.968 92.105 181.454 92.175C180.964 92.245 180.451 92.28 179.914 92.28C179.401 92.28 178.934 92.245 178.514 92.175C178.118 92.105 177.779 91.965 177.499 91.755C177.219 91.545 176.998 91.265 176.834 90.915C176.694 90.5417 176.624 90.0633 176.624 89.48V78.98C176.624 78.4433 176.718 77.9883 176.904 77.615C177.114 77.2183 177.406 76.8683 177.779 76.565C178.153 76.2617 178.608 75.9933 179.144 75.76C179.704 75.5033 180.299 75.2817 180.929 75.095C181.559 74.9083 182.213 74.7683 182.889 74.675C183.566 74.5583 184.243 74.5 184.919 74.5C186.039 74.5 186.926 74.7217 187.579 75.165C188.233 75.585 188.559 76.285 188.559 77.265C188.559 77.5917 188.513 77.9183 188.419 78.245C188.326 78.5483 188.209 78.8283 188.069 79.085C187.579 79.085 187.078 79.1083 186.564 79.155C186.051 79.2017 185.549 79.2717 185.059 79.365C184.569 79.4583 184.103 79.5633 183.659 79.68C183.239 79.7733 182.878 79.89 182.574 80.03V91.965Z" fill="white"/>
</g>
<g filter="url(#filter1_d_1345_205)">
<path d="M225.715 34.8253C222.631 36.3025 223.19 39.9755 225.506 43.6885C227.821 47.4014 232.602 46.613 233.511 44.5369C234.419 42.4608 233.91 39.6961 232.562 37.6899C231.215 35.6837 228.7 33.398 225.715 34.8253Z" fill="white"/>
</g>
<g filter="url(#filter2_d_1345_205)">
<path d="M218.559 21.5108C214.227 17.3387 209.726 14.055 205.643 17.3387C202.07 20.2233 204.825 27.1701 209.117 31.5617C213.409 35.9534 218.798 36.0033 221.783 33.7875C224.767 31.5717 224.158 26.9006 218.559 21.5108Z" fill="white"/>
</g>
<defs>
<filter id="filter0_d_1345_205" x="42.188" y="34.2354" width="167.855" height="71.9951" filterUnits="userSpaceOnUse" color-interpolation-filters="sRGB">
<feFlood flood-opacity="0" result="BackgroundImageFix"/>
<feColorMatrix in="SourceAlpha" type="matrix" values="0 0 0 0 0 0 0 0 0 0 0 0 0 0 0 0 0 0 127 0" result="hardAlpha"/>
<feOffset dy="4"/>
<feGaussianBlur stdDeviation="2"/>
<feComposite in2="hardAlpha" operator="out"/>
<feColorMatrix type="matrix" values="0 0 0 0 0 0 0 0 0 0 0 0 0 0 0 0 0 0 0.25 0"/>
<feBlend mode="normal" in2="BackgroundImageFix" result="effect1_dropShadow_1345_205"/>
<feBlend mode="normal" in="SourceGraphic" in2="effect1_dropShadow_1345_205" result="shape"/>
</filter>
<filter id="filter1_d_1345_205" x="219.583" y="34.3799" width="18.3848" height="19.9033" filterUnits="userSpaceOnUse" color-interpolation-filters="sRGB">
<feFlood flood-opacity="0" result="BackgroundImageFix"/>
<feColorMatrix in="SourceAlpha" type="matrix" values="0 0 0 0 0 0 0 0 0 0 0 0 0 0 0 0 0 0 127 0" result="hardAlpha"/>
<feOffset dy="4"/>
<feGaussianBlur stdDeviation="2"/>
<feComposite in2="hardAlpha" operator="out"/>
<feColorMatrix type="matrix" values="0 0 0 0 0 0 0 0 0 0 0 0 0 0 0 0 0 0 0.25 0"/>
<feBlend mode="normal" in2="BackgroundImageFix" result="effect1_dropShadow_1345_205"/>
<feBlend mode="normal" in="SourceGraphic" in2="effect1_dropShadow_1345_205" result="shape"/>
</filter>
<filter id="filter2_d_1345_205" x="200" y="16" width="27.5522" height="27.2275" filterUnits="userSpaceOnUse" color-interpolation-filters="sRGB">
<feFlood flood-opacity="0" result="BackgroundImageFix"/>
<feColorMatrix in="SourceAlpha" type="matrix" values="0 0 0 0 0 0 0 0 0 0 0 0 0 0 0 0 0 0 127 0" result="hardAlpha"/>
<feOffset dy="4"/>
<feGaussianBlur stdDeviation="2"/>
<feComposite in2="hardAlpha" operator="out"/>
<feColorMatrix type="matrix" values="0 0 0 0 0 0 0 0 0 0 0 0 0 0 0 0 0 0 0.25 0"/>
<feBlend mode="normal" in2="BackgroundImageFix" result="effect1_dropShadow_1345_205"/>
<feBlend mode="normal" in="SourceGraphic" in2="effect1_dropShadow_1345_205" result="shape"/>
</filter>
<linearGradient id="paint0_linear_1345_205" x1="126" y1="7" x2="126" y2="119" gradientUnits="userSpaceOnUse">
<stop stop-color="#D880B0"/>
<stop offset="1" stop-color="#9C3991"/>
</linearGradient>
</defs>
</svg>
