<svg width="1920" height="1080" viewBox="0 0 1920 1080" fill="none" xmlns="http://www.w3.org/2000/svg">
<g clip-path="url(#clip0_1106_848)">
<rect width="1920" height="1080" fill="white"/>
<path d="M2208.64 -109H-262V1143.19H2208.64V-109Z" fill="url(#paint0_linear_1106_848)"/>
<path d="M406.934 189.162C415.614 186.495 423.85 190.643 428.828 196.853C432.826 172.878 448.82 147.137 466.214 182.028C465.588 160.765 477.492 151.444 494.476 163.967C493.394 137.315 509.98 101.831 537.877 98.5149C578.829 93.6493 585.675 138.887 584.911 169.619C614.677 146.374 638.291 189.936 620.919 207.849H609.858L609.665 207.279C609.152 207.485 608.605 207.655 608.081 207.849H401.341C402.024 201.605 403.687 194.802 406.922 189.162H406.934ZM377.863 491.64C377.111 486.877 375.79 482.262 374.081 477.556C366.7 480.062 365.401 475.163 359.66 483.663C356.493 468.394 358.669 446.163 344.703 437.81C332.275 430.381 315.826 441.468 311.11 455.085C297.987 434.004 285.184 415.453 260.054 433.332C242.079 383.069 225.858 336.76 168.468 329.729C142.12 326.505 115.943 328.43 97.4663 351.3C80.2996 372.54 55.1248 417.413 70.6967 445.49C53.8717 437.776 31.7954 425.412 12.8175 436.602C-6.06927 447.735 -5.75034 475.379 5.94855 491.651H377.875L377.863 491.64ZM1854.89 420.82C1867.3 403.557 1867.64 374.226 1847.59 362.421C1827.45 350.548 1804.02 363.663 1786.18 371.845C1802.7 342.059 1775.99 294.451 1757.77 271.911C1738.16 247.652 1710.39 245.601 1682.44 249.03C1621.54 256.483 1604.33 305.629 1585.26 358.957C1558.61 339.985 1545.02 359.675 1531.08 382.043C1526.08 367.595 1508.63 355.835 1495.44 363.709C1480.63 372.574 1482.94 396.162 1479.57 412.365C1473.49 403.34 1472.1 408.548 1464.27 405.893C1462.46 410.873 1461.06 415.772 1460.26 420.832H1854.88L1854.89 420.82ZM1374.85 176.695C1383.01 165.358 1383.23 146.089 1370.06 138.329C1356.82 130.523 1341.43 139.149 1329.71 144.528C1340.55 124.963 1323.01 93.6835 1311.04 78.8815C1298.16 62.94 1279.92 61.5954 1261.54 63.8516C1221.54 68.7514 1210.23 101.033 1197.71 136.061C1180.2 123.595 1171.27 136.54 1162.12 151.228C1158.84 141.736 1147.37 134.01 1138.7 139.183C1128.97 145.006 1130.49 160.503 1128.28 171.146C1124.28 165.221 1123.37 168.639 1118.22 166.896C1117.02 170.166 1116.11 173.391 1115.59 176.707H1374.83L1374.85 176.695ZM131.105 247.093C140.149 234.502 140.4 213.125 125.785 204.51C111.102 195.85 94.0261 205.422 81.0058 211.382C93.0464 189.663 73.5787 154.943 60.2964 138.511C46.0004 120.815 25.7466 119.322 5.36758 121.829C-39.0357 127.264 -51.5889 163.09 -65.4863 201.981C-84.9199 188.147 -94.8303 202.505 -104.98 218.811C-108.625 208.282 -121.361 199.702 -130.975 205.445C-141.785 211.906 -140.088 229.112 -142.548 240.917C-146.98 234.342 -147.994 238.137 -153.701 236.188C-155.022 239.823 -156.036 243.39 -156.617 247.082H131.128L131.105 247.093ZM1940.27 231.277C1940.56 231.254 1940.84 231.22 1941.13 231.197C1981.06 227.346 2021.12 229.283 2061.16 231.277H2169.69C2165.92 224.725 2163.59 211.769 2157.81 208.533C2147.29 202.63 2128.58 214.914 2119.09 216.498C2119.49 203.758 2109.42 204.704 2099.11 205.513C2102.44 194.973 2098.14 180.365 2086.39 173.345C2068.55 162.691 2053.08 171.374 2038.19 182.564C2034.75 169.426 2019.99 153.199 2009.1 170.873C2004.78 124.256 1989.69 77.4571 1935.53 72.5117C1900.62 69.3211 1868.08 84.955 1845.26 111.015C1817.03 143.24 1822.42 177.835 1819.11 216.281C1813.75 204.738 1792.04 202.721 1782.09 210.538C1773.96 216.931 1775.34 224.007 1778.44 231.254H1940.26L1940.27 231.277ZM-152.151 623.411C-151.969 623.388 -151.775 623.376 -151.582 623.354C-124.869 620.778 -98.0882 622.066 -71.3073 623.411H1.27811C-1.23938 619.024 -2.79999 610.363 -6.66164 608.198C-13.7015 604.256 -26.2091 612.471 -32.5541 613.531C-32.2807 605.008 -39.0243 605.646 -45.9161 606.182C-43.6947 599.128 -46.5654 589.363 -54.4254 584.668C-66.3521 577.546 -76.6954 583.346 -86.6514 590.833C-88.9524 582.047 -98.8287 571.199 -106.108 583.016C-108.99 551.839 -119.094 520.537 -155.307 517.233C-178.659 515.102 -200.416 525.551 -215.681 542.985C-234.556 564.533 -230.956 587.665 -233.166 613.383C-236.755 605.669 -251.278 604.313 -257.931 609.543C-263.376 613.816 -262.442 618.556 -260.38 623.399H-152.151V623.411ZM1973.52 584.189C1973.71 584.167 1973.9 584.155 1974.09 584.132C2000.8 581.557 2027.59 582.845 2054.37 584.189H2126.95C2124.43 579.802 2122.87 571.142 2119.01 568.977C2111.97 565.023 2099.47 573.25 2093.12 574.31C2093.39 565.786 2086.65 566.425 2079.76 566.96C2081.98 559.907 2079.11 550.141 2071.25 545.447C2059.32 538.325 2048.98 544.125 2039.02 551.611C2036.72 542.826 2026.85 531.978 2019.57 543.794C2016.68 512.618 2006.58 481.316 1970.37 478.011C1947.02 475.881 1925.26 486.33 1909.99 503.764C1891.12 525.312 1894.72 548.455 1892.51 574.162C1888.92 566.447 1874.4 565.091 1867.74 570.322C1862.3 574.595 1863.23 579.335 1865.29 584.178H1973.52V584.189Z" fill="#FDFDFD"/>
<g style="mix-blend-mode:multiply" opacity="0.4">
<path style="mix-blend-mode:multiply" opacity="0.4" d="M1261.58 96.7944C1221.57 101.694 1210.26 133.976 1197.74 169.004C1183.32 158.737 1174.72 165.711 1167.03 176.696H1330.08C1340.08 157.085 1322.89 126.444 1311.07 111.824C1298.19 95.8828 1279.95 94.5382 1261.58 96.7944Z" fill="url(#paint1_linear_1106_848)"/>
<path style="mix-blend-mode:multiply" opacity="0.4" d="M1375.39 175.887C1373.94 174.109 1372.2 172.536 1370.07 171.283C1357.46 163.842 1342.89 171.329 1331.41 176.696H1374.86C1375.05 176.433 1375.22 176.149 1375.39 175.887Z" fill="url(#paint2_linear_1106_848)"/>
<path style="mix-blend-mode:multiply" opacity="0.4" d="M2086.4 206.311C2068.56 195.657 2053.09 204.34 2038.2 215.529C2034.76 202.391 2020 186.165 2009.11 203.838C2004.79 157.222 1989.7 110.423 1935.54 105.477C1900.63 102.287 1868.1 117.921 1845.27 143.981C1821.51 171.101 1821.56 199.907 1820.21 231.289H1940.27C1940.56 231.266 1940.84 231.232 1941.13 231.209C1981.06 227.357 2021.12 229.295 2061.16 231.289H2100.14C2100.21 222.047 2095.65 211.837 2086.4 206.322V206.311Z" fill="url(#paint3_linear_1106_848)"/>
<path style="mix-blend-mode:multiply" opacity="0.4" d="M1138.73 172.138C1136.79 173.311 1135.29 174.872 1134.13 176.707H1157.53C1152.48 171.328 1144.91 168.457 1138.73 172.138Z" fill="url(#paint4_linear_1106_848)"/>
<path style="mix-blend-mode:multiply" opacity="0.4" d="M1974.08 584.132C1995.58 582.059 2017.12 582.503 2038.67 583.449C2035.87 574.902 2026.54 565.433 2019.57 576.748C2016.68 545.572 2006.58 514.27 1970.37 510.966C1947.02 508.835 1925.26 519.284 1909.99 536.718C1896.89 551.668 1894.63 567.382 1893.72 584.189H1973.52C1973.7 584.167 1973.9 584.155 1974.09 584.132H1974.08Z" fill="url(#paint5_linear_1106_848)"/>
<path style="mix-blend-mode:multiply" opacity="0.4" d="M1757.78 304.877C1738.17 280.617 1710.41 278.566 1682.45 281.996C1621.55 289.448 1604.34 338.595 1585.27 391.923C1558.62 372.95 1545.03 392.641 1531.1 415.009C1526.1 400.56 1508.64 388.801 1495.45 396.674C1487.34 401.529 1484.38 410.793 1482.8 420.832H1854.91C1857.18 417.653 1859.06 414.063 1860.48 410.246C1857.91 404.229 1853.72 398.976 1847.61 395.375C1827.47 383.502 1804.04 396.618 1786.2 404.799C1791.8 394.703 1792.42 382.556 1790.1 370.033C1788.78 370.66 1787.47 371.264 1786.2 371.845C1787.38 369.726 1788.31 367.503 1789.07 365.213C1783.53 342.264 1769.05 318.779 1757.79 304.866L1757.78 304.877Z" fill="url(#paint6_linear_1106_848)"/>
<path style="mix-blend-mode:multiply" opacity="0.4" d="M436.289 207.849H462.136C451.998 192.626 442.645 196.933 436.289 207.849Z" fill="url(#paint7_linear_1106_848)"/>
<path style="mix-blend-mode:multiply" opacity="0.4" d="M60.2964 171.477C46.0003 153.78 25.7466 152.288 5.36756 154.795C-39.0357 160.23 -51.5889 196.056 -65.4863 234.946C-83.0289 222.458 -92.8141 232.952 -102.007 247.105H131.116C131.777 246.193 132.369 245.213 132.927 244.222C131.128 241.567 128.792 239.242 125.796 237.476C111.113 228.816 94.0375 238.388 81.0172 244.347C86.2914 234.844 85.5168 222.856 81.8829 210.994C81.5982 211.131 81.302 211.268 81.0172 211.393C81.245 210.983 81.3817 210.539 81.5868 210.128C76.8252 195.19 67.6324 180.547 60.3078 171.477H60.2964Z" fill="url(#paint8_linear_1106_848)"/>
<path style="mix-blend-mode:multiply" opacity="0.4" d="M344.714 470.776C332.286 463.346 315.837 474.433 311.121 488.05C297.999 466.97 285.195 448.419 260.066 466.297C242.09 416.034 225.869 369.726 168.479 362.695C142.131 359.47 115.954 361.396 97.4775 384.265C87.0431 397.176 73.6697 418.803 68.2702 440.089C68.9309 441.947 69.7397 443.758 70.708 445.502C69.6258 445 68.5094 444.488 67.3817 443.952C64.8073 456.361 65.1832 468.474 70.708 478.456C53.883 470.742 31.8067 458.378 12.8288 469.568C7.37234 472.781 3.56762 477.396 1.12988 482.695C2.40571 485.908 4.01187 488.951 5.95978 491.651H356.356C354.784 482.923 351.868 475.037 344.737 470.776H344.714Z" fill="url(#paint9_linear_1106_848)"/>
<path style="mix-blend-mode:multiply" opacity="0.4" d="M466.544 207.849H608.093C608.617 207.656 609.164 207.485 609.676 207.28L609.87 207.849H620.931C621.079 207.69 621.204 207.519 621.352 207.359C614.073 196.42 600.324 190.54 584.923 202.573C585.686 171.841 578.84 126.615 537.888 131.469C509.991 134.785 493.405 170.269 494.487 196.922C479.553 185.903 468.561 191.805 466.544 207.849Z" fill="url(#paint10_linear_1106_848)"/>
</g>
<path d="M1049.15 471.286C1053.45 483.526 1053.98 504.093 1053.29 514.707C1052.19 518.842 1049.48 531.414 1039.23 542C1026.41 555.233 998.288 573.842 931.296 563.09C864.303 552.339 857.687 518.429 862.649 491.136C866.619 469.301 875.607 456.261 878.363 453.504C875.055 453.504 869.431 452.925 860.168 439.03C850.905 425.136 851.543 408.429 856.86 400.158C860.581 394.369 870.01 394.865 887.875 400.158C910.206 406.775 910.206 422.075 916.822 417.94C922.115 414.632 926.471 412.978 927.987 412.564C929.917 408.98 935.183 401.812 940.807 401.812H949.491C950.18 400.572 953.213 397.925 959.83 397.263C966.446 396.602 969.754 400.02 970.581 401.812C972.511 401.261 978.025 400.489 984.642 401.812C992.912 403.466 985.055 410.496 991.672 412.564C996.965 414.218 1004.08 416.837 1006.97 417.94C1007.94 415.183 1013.18 409.421 1024.75 401.812C1036.33 394.203 1052.05 396.298 1060.32 397.263C1068.59 398.228 1069 413.06 1062.39 429.932C1054.12 451.023 1043.78 455.985 1049.15 471.286Z" fill="white"/>
<path d="M1171.31 517.697C1255.76 519.363 1276.19 519.766 1287 581.28C1287 609.271 1287 663.557 1249.11 673.735C1211.22 683.914 1129.39 687.307 1013.3 682.217C897.214 677.128 737.366 682.217 674.457 682.217C620.09 682.217 626.349 551.197 646.906 534.233C676.085 510.154 730.772 517.664 913.046 517.664C1076.54 517.664 1083.78 515.967 1169.63 517.664L1171.31 517.697Z" fill="white"/>
<path d="M1166.04 526.572C1248.26 528.057 1268.14 528.416 1278.67 583.229C1278.67 608.171 1278.67 656.543 1241.78 665.613C1204.89 674.683 1125.23 677.706 1012.21 673.171C899.197 668.636 743.578 673.171 682.334 673.171C629.405 673.171 635.498 556.423 655.512 541.307C683.919 519.851 737.158 526.543 914.609 526.543C1073.78 526.543 1080.82 525.031 1164.41 526.543L1166.04 526.572Z" fill="#CD609E"/>
<mask id="mask0_1106_848" style="mask-type:alpha" maskUnits="userSpaceOnUse" x="641" y="525" width="638" height="151">
<path d="M1166.04 526.572C1248.26 528.057 1268.14 528.416 1278.67 583.229C1278.67 608.171 1278.67 656.543 1241.78 665.613C1204.89 674.683 1125.23 677.706 1012.21 673.171C899.197 668.636 743.578 673.171 682.334 673.171C629.405 673.171 635.498 556.423 655.512 541.307C683.919 519.851 737.158 526.543 914.609 526.543C1073.78 526.543 1080.82 525.031 1164.41 526.543L1166.04 526.572Z" fill="#CD609E"/>
</mask>
<g mask="url(#mask0_1106_848)">
<rect x="811.818" y="439.54" width="92.1255" height="364.576" transform="rotate(41.2313 811.818 439.54)" fill="#B54D88"/>
<rect x="1013.62" y="433.751" width="92.1255" height="364.576" transform="rotate(41.2313 1013.62 433.751)" fill="#B54D88"/>
<rect x="1209.64" y="455.255" width="92.1255" height="364.576" transform="rotate(41.2313 1209.64 455.255)" fill="#B54D88"/>
</g>
<path d="M811.77 620.4C811.257 620.914 810.505 621.299 809.515 621.555C808.562 621.849 807.407 621.995 806.05 621.995C804.694 621.995 803.41 621.794 802.2 621.39C800.99 620.987 800 620.015 799.23 618.475L793.785 607.365C793.235 606.229 792.74 605.165 792.3 604.175C791.86 603.149 791.384 601.975 790.87 600.655L790.54 600.71C790.687 602.69 790.76 604.707 790.76 606.76C790.797 608.814 790.815 610.83 790.815 612.81V621.335C790.412 621.445 789.789 621.555 788.945 621.665C788.139 621.775 787.332 621.83 786.525 621.83C785.719 621.83 785.004 621.775 784.38 621.665C783.757 621.555 783.244 621.335 782.84 621.005C782.437 620.675 782.125 620.235 781.905 619.685C781.685 619.099 781.575 618.347 781.575 617.43V589.93C782.089 589.197 782.877 588.647 783.94 588.28C785.004 587.914 786.14 587.73 787.35 587.73C788.707 587.73 789.99 587.95 791.2 588.39C792.447 588.794 793.437 589.747 794.17 591.25L799.67 602.36C800.22 603.497 800.715 604.579 801.155 605.605C801.595 606.595 802.072 607.75 802.585 609.07L802.86 609.015C802.714 607.035 802.622 605.055 802.585 603.075C802.549 601.095 802.53 599.115 802.53 597.135V588.225C802.934 588.115 803.539 588.005 804.345 587.895C805.189 587.785 806.014 587.73 806.82 587.73C808.434 587.73 809.662 588.024 810.505 588.61C811.349 589.16 811.77 590.334 811.77 592.13V620.4ZM845.855 608.19C845.855 610.464 845.506 612.499 844.81 614.295C844.113 616.055 843.123 617.54 841.84 618.75C840.593 619.96 839.09 620.877 837.33 621.5C835.57 622.124 833.608 622.435 831.445 622.435C829.281 622.435 827.32 622.105 825.56 621.445C823.8 620.785 822.278 619.85 820.995 618.64C819.748 617.394 818.776 615.89 818.08 614.13C817.383 612.37 817.035 610.39 817.035 608.19C817.035 606.027 817.383 604.065 818.08 602.305C818.776 600.545 819.748 599.06 820.995 597.85C822.278 596.604 823.8 595.65 825.56 594.99C827.32 594.33 829.281 594 831.445 594C833.608 594 835.57 594.349 837.33 595.045C839.09 595.705 840.593 596.659 841.84 597.905C843.123 599.115 844.113 600.6 844.81 602.36C845.506 604.12 845.855 606.064 845.855 608.19ZM826.605 608.19C826.605 610.427 827.026 612.15 827.87 613.36C828.75 614.534 829.96 615.12 831.5 615.12C833.04 615.12 834.213 614.515 835.02 613.305C835.863 612.095 836.285 610.39 836.285 608.19C836.285 605.99 835.863 604.304 835.02 603.13C834.176 601.92 832.985 601.315 831.445 601.315C829.905 601.315 828.713 601.92 827.87 603.13C827.026 604.304 826.605 605.99 826.605 608.19ZM865.329 620.73C864.816 621.17 864.119 621.519 863.239 621.775C862.359 622.069 861.314 622.215 860.104 622.215C858.601 622.215 857.299 621.995 856.199 621.555C855.099 621.152 854.366 620.565 853.999 619.795C853.596 618.915 853.119 617.522 852.569 615.615C852.056 613.709 851.542 611.619 851.029 609.345C850.516 607.072 850.021 604.762 849.544 602.415C849.104 600.069 848.756 597.997 848.499 596.2C849.012 595.687 849.691 595.247 850.534 594.88C851.414 594.477 852.367 594.275 853.394 594.275C854.677 594.275 855.722 594.569 856.529 595.155C857.372 595.705 857.886 596.677 858.069 598.07C858.436 600.857 858.747 603.167 859.004 605C859.261 606.797 859.462 608.282 859.609 609.455C859.792 610.592 859.921 611.472 859.994 612.095C860.104 612.682 860.196 613.159 860.269 613.525H860.489C860.599 612.939 860.782 612.095 861.039 610.995C861.332 609.859 861.662 608.575 862.029 607.145C862.396 605.715 862.781 604.175 863.184 602.525C863.587 600.839 863.991 599.17 864.394 597.52C865.127 597.117 865.842 596.805 866.539 596.585C867.272 596.365 868.171 596.255 869.234 596.255C870.517 596.255 871.617 596.457 872.534 596.86C873.451 597.264 874.037 597.887 874.294 598.73C874.734 600.344 875.156 601.92 875.559 603.46C875.962 604.964 876.329 606.375 876.659 607.695C876.989 608.979 877.282 610.134 877.539 611.16C877.796 612.15 877.979 612.939 878.089 613.525H878.364C878.767 610.702 879.152 607.769 879.519 604.725C879.922 601.682 880.289 598.584 880.619 595.43C881.279 595.027 881.976 594.734 882.709 594.55C883.442 594.367 884.176 594.275 884.909 594.275C886.192 594.275 887.256 594.55 888.099 595.1C888.942 595.65 889.364 596.604 889.364 597.96C889.364 598.547 889.272 599.427 889.089 600.6C888.906 601.774 888.667 603.094 888.374 604.56C888.081 606.027 887.732 607.567 887.329 609.18C886.962 610.794 886.577 612.352 886.174 613.855C885.807 615.359 885.441 616.715 885.074 617.925C884.744 619.135 884.451 620.07 884.194 620.73C883.681 621.17 882.892 621.519 881.829 621.775C880.766 622.069 879.629 622.215 878.419 622.215C875.339 622.215 873.524 621.445 872.974 619.905C872.754 619.245 872.479 618.42 872.149 617.43C871.819 616.404 871.471 615.285 871.104 614.075C870.737 612.865 870.389 611.619 870.059 610.335C869.729 609.015 869.454 607.75 869.234 606.54C868.977 607.824 868.666 609.162 868.299 610.555C867.932 611.912 867.547 613.25 867.144 614.57C866.777 615.854 866.429 617.045 866.099 618.145C865.769 619.209 865.512 620.07 865.329 620.73ZM910.44 621.72C908.864 621.72 907.617 621.262 906.7 620.345C905.784 619.429 905.325 618.182 905.325 616.605V588.17C905.729 588.097 906.37 588.005 907.25 587.895C908.13 587.749 908.974 587.675 909.78 587.675C910.624 587.675 911.357 587.749 911.98 587.895C912.64 588.005 913.19 588.225 913.63 588.555C914.07 588.885 914.4 589.344 914.62 589.93C914.84 590.517 914.95 591.287 914.95 592.24V613.965H927.545C927.802 614.369 928.04 614.919 928.26 615.615C928.48 616.275 928.59 616.972 928.59 617.705C928.59 619.172 928.279 620.217 927.655 620.84C927.032 621.427 926.207 621.72 925.18 621.72H910.44ZM959.937 608.19C959.937 610.464 959.588 612.499 958.892 614.295C958.195 616.055 957.205 617.54 955.922 618.75C954.675 619.96 953.172 620.877 951.412 621.5C949.652 622.124 947.69 622.435 945.527 622.435C943.363 622.435 941.402 622.105 939.642 621.445C937.882 620.785 936.36 619.85 935.077 618.64C933.83 617.394 932.858 615.89 932.162 614.13C931.465 612.37 931.117 610.39 931.117 608.19C931.117 606.027 931.465 604.065 932.162 602.305C932.858 600.545 933.83 599.06 935.077 597.85C936.36 596.604 937.882 595.65 939.642 594.99C941.402 594.33 943.363 594 945.527 594C947.69 594 949.652 594.349 951.412 595.045C953.172 595.705 954.675 596.659 955.922 597.905C957.205 599.115 958.195 600.6 958.892 602.36C959.588 604.12 959.937 606.064 959.937 608.19ZM940.687 608.19C940.687 610.427 941.108 612.15 941.952 613.36C942.832 614.534 944.042 615.12 945.582 615.12C947.122 615.12 948.295 614.515 949.102 613.305C949.945 612.095 950.367 610.39 950.367 608.19C950.367 605.99 949.945 604.304 949.102 603.13C948.258 601.92 947.067 601.315 945.527 601.315C943.987 601.315 942.795 601.92 941.952 603.13C941.108 604.304 940.687 605.99 940.687 608.19ZM976.046 615.615C976.669 615.615 977.347 615.56 978.081 615.45C978.851 615.304 979.419 615.12 979.786 614.9V610.5L975.826 610.83C974.799 610.904 973.956 611.124 973.296 611.49C972.636 611.857 972.306 612.407 972.306 613.14C972.306 613.874 972.581 614.479 973.131 614.955C973.717 615.395 974.689 615.615 976.046 615.615ZM975.606 594C977.586 594 979.382 594.202 980.996 594.605C982.646 595.009 984.039 595.632 985.176 596.475C986.349 597.282 987.247 598.327 987.871 599.61C988.494 600.857 988.806 602.342 988.806 604.065V616.385C988.806 617.339 988.531 618.127 987.981 618.75C987.467 619.337 986.844 619.85 986.111 620.29C983.727 621.72 980.372 622.435 976.046 622.435C974.102 622.435 972.342 622.252 970.766 621.885C969.226 621.519 967.887 620.969 966.751 620.235C965.651 619.502 964.789 618.567 964.166 617.43C963.579 616.294 963.286 614.974 963.286 613.47C963.286 610.94 964.037 608.997 965.541 607.64C967.044 606.284 969.372 605.44 972.526 605.11L979.731 604.34V603.955C979.731 602.892 979.254 602.14 978.301 601.7C977.384 601.224 976.046 600.985 974.286 600.985C972.892 600.985 971.536 601.132 970.216 601.425C968.896 601.719 967.704 602.085 966.641 602.525C966.164 602.195 965.761 601.7 965.431 601.04C965.101 600.344 964.936 599.629 964.936 598.895C964.936 597.942 965.156 597.19 965.596 596.64C966.072 596.054 966.787 595.559 967.741 595.155C968.804 594.752 970.051 594.459 971.481 594.275C972.947 594.092 974.322 594 975.606 594ZM993.368 608.19C993.368 605.77 993.734 603.68 994.468 601.92C995.201 600.124 996.209 598.639 997.493 597.465C998.813 596.292 1000.33 595.43 1002.06 594.88C1003.82 594.294 1005.71 594 1007.72 594C1008.46 594 1009.17 594.074 1009.87 594.22C1010.56 594.33 1011.13 594.477 1011.57 594.66V585.75C1011.94 585.64 1012.53 585.53 1013.33 585.42C1014.14 585.274 1014.96 585.2 1015.81 585.2C1016.61 585.2 1017.33 585.255 1017.95 585.365C1018.61 585.475 1019.16 585.695 1019.6 586.025C1020.04 586.355 1020.37 586.814 1020.59 587.4C1020.81 587.95 1020.92 588.684 1020.92 589.6V615.67C1020.92 617.394 1020.12 618.769 1018.5 619.795C1017.44 620.492 1016.06 621.097 1014.38 621.61C1012.69 622.16 1010.75 622.435 1008.55 622.435C1006.16 622.435 1004.02 622.105 1002.11 621.445C1000.24 620.785 998.648 619.832 997.328 618.585C996.044 617.339 995.054 615.854 994.358 614.13C993.698 612.37 993.368 610.39 993.368 608.19ZM1008.99 601.315C1007.01 601.315 1005.49 601.884 1004.42 603.02C1003.36 604.157 1002.83 605.88 1002.83 608.19C1002.83 610.464 1003.32 612.187 1004.31 613.36C1005.3 614.497 1006.73 615.065 1008.6 615.065C1009.26 615.065 1009.85 614.974 1010.36 614.79C1010.91 614.57 1011.33 614.332 1011.63 614.075V601.975C1010.89 601.535 1010.01 601.315 1008.99 601.315ZM1026.53 587.4C1026.53 586.007 1026.99 584.834 1027.9 583.88C1028.86 582.927 1030.1 582.45 1031.64 582.45C1033.18 582.45 1034.41 582.927 1035.33 583.88C1036.28 584.834 1036.76 586.007 1036.76 587.4C1036.76 588.794 1036.28 589.967 1035.33 590.92C1034.41 591.874 1033.18 592.35 1031.64 592.35C1030.1 592.35 1028.86 591.874 1027.9 590.92C1026.99 589.967 1026.53 588.794 1026.53 587.4ZM1036.32 621.5C1035.92 621.574 1035.31 621.665 1034.5 621.775C1033.73 621.922 1032.95 621.995 1032.14 621.995C1031.33 621.995 1030.6 621.94 1029.94 621.83C1029.32 621.72 1028.78 621.5 1028.34 621.17C1027.9 620.84 1027.56 620.4 1027.3 619.85C1027.08 619.264 1026.97 618.512 1026.97 617.595V595.21C1027.37 595.137 1027.96 595.045 1028.73 594.935C1029.54 594.789 1030.34 594.715 1031.15 594.715C1031.96 594.715 1032.67 594.77 1033.29 594.88C1033.95 594.99 1034.5 595.21 1034.94 595.54C1035.38 595.87 1035.71 596.329 1035.93 596.915C1036.19 597.465 1036.32 598.199 1036.32 599.115V621.5ZM1059.21 604.615C1059.21 603.479 1058.88 602.654 1058.22 602.14C1057.6 601.59 1056.74 601.315 1055.64 601.315C1054.9 601.315 1054.17 601.407 1053.44 601.59C1052.74 601.774 1052.13 602.049 1051.62 602.415V621.5C1051.25 621.61 1050.67 621.72 1049.86 621.83C1049.09 621.94 1048.28 621.995 1047.44 621.995C1046.63 621.995 1045.9 621.94 1045.24 621.83C1044.62 621.72 1044.09 621.5 1043.65 621.17C1043.21 620.84 1042.86 620.4 1042.6 619.85C1042.38 619.264 1042.27 618.512 1042.27 617.595V601.095C1042.27 600.105 1042.47 599.299 1042.88 598.675C1043.32 598.052 1043.9 597.484 1044.64 596.97C1045.88 596.09 1047.44 595.375 1049.31 594.825C1051.22 594.275 1053.33 594 1055.64 594C1059.78 594 1062.97 594.917 1065.21 596.75C1067.44 598.547 1068.56 601.059 1068.56 604.285V621.5C1068.19 621.61 1067.61 621.72 1066.8 621.83C1066.03 621.94 1065.22 621.995 1064.38 621.995C1063.57 621.995 1062.84 621.94 1062.18 621.83C1061.56 621.72 1061.03 621.5 1060.59 621.17C1060.15 620.84 1059.8 620.4 1059.54 619.85C1059.32 619.264 1059.21 618.512 1059.21 617.595V604.615ZM1087.37 594C1089.46 594 1091.35 594.275 1093.04 594.825C1094.76 595.339 1096.21 596.017 1097.38 596.86C1098.12 597.374 1098.68 597.942 1099.09 598.565C1099.53 599.189 1099.75 599.995 1099.75 600.985V620.235C1099.75 622.179 1099.38 623.847 1098.65 625.24C1097.91 626.67 1096.91 627.844 1095.62 628.76C1094.38 629.714 1092.89 630.41 1091.17 630.85C1089.48 631.29 1087.67 631.51 1085.72 631.51C1082.39 631.51 1079.76 631.052 1077.86 630.135C1075.95 629.255 1075 627.807 1075 625.79C1075 624.947 1075.16 624.195 1075.49 623.535C1075.86 622.912 1076.26 622.435 1076.7 622.105C1077.77 622.692 1078.96 623.187 1080.28 623.59C1081.63 623.994 1083.03 624.195 1084.46 624.195C1086.44 624.195 1088.01 623.865 1089.19 623.205C1090.36 622.545 1090.95 621.482 1090.95 620.015V619.135C1089.44 619.795 1087.61 620.125 1085.45 620.125C1083.8 620.125 1082.22 619.887 1080.72 619.41C1079.25 618.897 1077.95 618.127 1076.81 617.1C1075.71 616.037 1074.81 614.68 1074.12 613.03C1073.46 611.38 1073.13 609.419 1073.13 607.145C1073.13 604.909 1073.48 602.965 1074.17 601.315C1074.91 599.665 1075.9 598.309 1077.14 597.245C1078.43 596.145 1079.93 595.339 1081.65 594.825C1083.41 594.275 1085.32 594 1087.37 594ZM1090.78 601.975C1090.53 601.829 1090.14 601.682 1089.63 601.535C1089.15 601.389 1088.55 601.315 1087.81 601.315C1086.02 601.315 1084.66 601.829 1083.74 602.855C1082.86 603.845 1082.42 605.275 1082.42 607.145C1082.42 609.272 1082.86 610.812 1083.74 611.765C1084.66 612.682 1085.81 613.14 1087.21 613.14C1088.71 613.14 1089.9 612.792 1090.78 612.095V601.975ZM1103.89 617.1C1103.89 615.56 1104.37 614.277 1105.32 613.25C1106.28 612.224 1107.58 611.71 1109.23 611.71C1110.88 611.71 1112.18 612.224 1113.13 613.25C1114.09 614.277 1114.56 615.56 1114.56 617.1C1114.56 618.64 1114.09 619.924 1113.13 620.95C1112.18 621.977 1110.88 622.49 1109.23 622.49C1107.58 622.49 1106.28 621.977 1105.32 620.95C1104.37 619.924 1103.89 618.64 1103.89 617.1ZM1117 617.1C1117 615.56 1117.48 614.277 1118.43 613.25C1119.38 612.224 1120.68 611.71 1122.33 611.71C1123.98 611.71 1125.29 612.224 1126.24 613.25C1127.19 614.277 1127.67 615.56 1127.67 617.1C1127.67 618.64 1127.19 619.924 1126.24 620.95C1125.29 621.977 1123.98 622.49 1122.33 622.49C1120.68 622.49 1119.38 621.977 1118.43 620.95C1117.48 619.924 1117 618.64 1117 617.1ZM1130.1 617.1C1130.1 615.56 1130.58 614.277 1131.53 613.25C1132.49 612.224 1133.79 611.71 1135.44 611.71C1137.09 611.71 1138.39 612.224 1139.34 613.25C1140.3 614.277 1140.77 615.56 1140.77 617.1C1140.77 618.64 1140.3 619.924 1139.34 620.95C1138.39 621.977 1137.09 622.49 1135.44 622.49C1133.79 622.49 1132.49 621.977 1131.53 620.95C1130.58 619.924 1130.1 618.64 1130.1 617.1Z" fill="white"/>
<path fill-rule="evenodd" clip-rule="evenodd" d="M1013.09 435.356C1015.15 402.238 1051.64 403.223 1057.35 404.711C1062.71 418.299 1056.19 448.089 1023.41 449.961C1022.67 450.005 1013.05 435.925 1013.09 435.35V435.356Z" fill="#E8B4B5"/>
<path fill-rule="evenodd" clip-rule="evenodd" d="M1020.8 435.607C1028.91 418.326 1047.17 408.531 1053.37 412.028C1055.35 417.341 1038.55 444.281 1025.36 444.981C1024.74 445.02 1020.6 436.04 1020.8 435.607Z" fill="#D18C8C"/>
<path fill-rule="evenodd" clip-rule="evenodd" d="M905.936 434.261C903.873 401.143 867.384 402.128 861.677 403.617C856.314 417.204 862.837 446.995 895.61 448.867C896.354 448.91 905.974 434.83 905.936 434.256V434.261Z" fill="#E8B4B5"/>
<path fill-rule="evenodd" clip-rule="evenodd" d="M898.22 434.513C890.116 417.226 871.855 407.437 865.655 410.928C863.669 416.241 880.468 443.181 893.667 443.881C894.28 443.92 898.423 434.94 898.22 434.508V434.513Z" fill="#D18C8C"/>
<path d="M938.654 418.583C902.625 422.08 871.631 464.495 869.858 496.152C868.085 527.809 883.686 551.925 940.783 556.888C997.88 561.851 1041.14 543.06 1046.46 514.686C1051.78 486.318 1037.24 409.007 938.654 418.583Z" fill="#E8B4B5"/>
<path fill-rule="evenodd" clip-rule="evenodd" d="M984.84 501.498C1002.08 520.148 1027.21 493.684 1011.95 477.464C994.482 458.892 967.241 482.466 984.84 501.498Z" fill="white"/>
<path fill-rule="evenodd" clip-rule="evenodd" d="M990.941 493.295C1003.23 506.593 1021.14 487.73 1010.27 476.167C997.814 462.93 978.399 479.735 990.941 493.295Z" fill="#765858"/>
<path fill-rule="evenodd" clip-rule="evenodd" d="M999.314 483.024C1003.55 487.615 1009.75 481.098 1005.99 477.109C1001.69 472.534 994.985 478.34 999.314 483.024Z" fill="white"/>
<path fill-rule="evenodd" clip-rule="evenodd" d="M900.387 494.034C917.63 512.683 942.758 486.22 927.513 470.006C910.04 451.433 882.8 475.007 900.387 494.034Z" fill="white"/>
<path fill-rule="evenodd" clip-rule="evenodd" d="M906.806 487.462C919.097 500.754 937.007 481.897 926.134 470.334C913.685 457.097 894.264 473.902 906.806 487.462Z" fill="#765858"/>
<path fill-rule="evenodd" clip-rule="evenodd" d="M915.584 476.107C919.825 480.698 926.014 474.187 922.26 470.192C917.958 465.623 911.255 471.429 915.584 476.107Z" fill="white"/>
<path fill-rule="evenodd" clip-rule="evenodd" d="M1021.83 455.958C1017.02 443.931 999.861 447.745 1004.21 453.458C1011.67 463.258 1023.12 459.198 1021.83 455.958Z" fill="#694E4E"/>
<path fill-rule="evenodd" clip-rule="evenodd" d="M916.333 452.402C908.913 459.286 898.236 451.969 904.803 445.972C912.327 439.099 923.906 445.381 916.333 452.402Z" fill="#765858"/>
<path fill-rule="evenodd" clip-rule="evenodd" d="M882.203 508.043C889.021 513.816 898.964 505.624 892.928 500.606C886.017 494.86 875.242 502.155 882.203 508.043Z" fill="#EF99B0"/>
<path fill-rule="evenodd" clip-rule="evenodd" d="M1009.34 515.584C1016.16 521.351 1026.1 513.165 1020.06 508.147C1013.16 502.401 1002.38 509.696 1009.34 515.584Z" fill="#EF99B0"/>
<path d="M954.764 533.106C969.697 533.106 981.802 523.908 981.802 512.563C981.802 501.218 969.697 492.02 954.764 492.02C939.831 492.02 927.726 501.218 927.726 512.563C927.726 523.908 939.831 533.106 954.764 533.106Z" fill="#CC8787"/>
<path d="M943.202 522.528C946.571 522.528 949.303 518.297 949.303 513.077C949.303 507.858 946.571 503.627 943.202 503.627C939.832 503.627 937.1 507.858 937.1 513.077C937.1 518.297 939.832 522.528 943.202 522.528Z" fill="#694E4E"/>
<path d="M965.654 522.013C969.024 522.013 971.756 517.782 971.756 512.563C971.756 507.344 969.024 503.112 965.654 503.112C962.284 503.112 959.553 507.344 959.553 512.563C959.553 517.782 962.284 522.013 965.654 522.013Z" fill="#694E4E"/>
<path d="M995.061 443.953C995.061 443.953 967.815 439.252 969.692 425.943C971.569 412.635 986.136 411.694 981.124 408.564C976.111 405.434 964.838 409.346 960.296 415.3C960.296 415.3 966.874 405.746 961.079 404.181C955.284 402.615 946.517 410.599 944.635 414.671C942.758 418.742 942.129 419.371 942.129 419.371C942.129 419.371 946.2 410.446 942.129 409.352C938.057 408.257 934.61 417.653 933.827 422.348C933.045 427.049 929.285 447.405 956.378 447.876C983.471 448.347 998.191 446.782 995.056 443.963L995.061 443.953Z" fill="#E8B4B5"/>
<path d="M965.145 539.782C968.784 538.578 971.142 538.304 972.642 538.375C973.824 535.19 973.025 534.49 971.739 534.775C970.283 535.097 961.67 537.073 954.436 536.87C947.201 536.668 943.962 534.928 942.884 535.935C940.739 537.938 945.062 545.61 949.883 549.019C952.778 544.854 958.956 541.834 965.145 539.782Z" fill="#AF300F"/>
<path d="M964.619 550.923C967.793 549.385 970.152 544.077 972.089 539.727C972.308 539.229 972.488 538.786 972.642 538.375C971.142 538.304 968.784 538.578 965.145 539.782C958.956 541.834 952.778 544.854 949.883 549.019C950.561 549.5 951.251 549.894 951.929 550.179C957.451 552.466 961.446 552.461 964.619 550.923Z" fill="#E38072"/>
</g>
<defs>
<linearGradient id="paint0_linear_1106_848" x1="978.98" y1="-179.694" x2="973.953" y2="438.72" gradientUnits="userSpaceOnUse">
<stop offset="0.07" stop-color="#00CAFF"/>
<stop offset="0.22" stop-color="#26D1FE"/>
<stop offset="0.49" stop-color="#63DCFC"/>
<stop offset="0.72" stop-color="#8FE4FB"/>
<stop offset="0.9" stop-color="#AAE9FB"/>
<stop offset="1" stop-color="#B5EBFB"/>
</linearGradient>
<linearGradient id="paint1_linear_1106_848" x1="1167.02" y1="136.323" x2="1333.08" y2="136.323" gradientUnits="userSpaceOnUse">
<stop offset="0.07" stop-color="#00CAFF"/>
<stop offset="0.22" stop-color="#26D1FE"/>
<stop offset="0.49" stop-color="#63DCFC"/>
<stop offset="0.72" stop-color="#8FE4FB"/>
<stop offset="0.9" stop-color="#AAE9FB"/>
<stop offset="1" stop-color="#B5EBFB"/>
</linearGradient>
<linearGradient id="paint2_linear_1106_848" x1="1331.41" y1="172.434" x2="1375.39" y2="172.434" gradientUnits="userSpaceOnUse">
<stop offset="0.07" stop-color="#00CAFF"/>
<stop offset="0.22" stop-color="#26D1FE"/>
<stop offset="0.49" stop-color="#63DCFC"/>
<stop offset="0.72" stop-color="#8FE4FB"/>
<stop offset="0.9" stop-color="#AAE9FB"/>
<stop offset="1" stop-color="#B5EBFB"/>
</linearGradient>
<linearGradient id="paint3_linear_1106_848" x1="1820.21" y1="168.172" x2="2100.14" y2="168.172" gradientUnits="userSpaceOnUse">
<stop offset="0.07" stop-color="#00CAFF"/>
<stop offset="0.22" stop-color="#26D1FE"/>
<stop offset="0.49" stop-color="#63DCFC"/>
<stop offset="0.72" stop-color="#8FE4FB"/>
<stop offset="0.9" stop-color="#AAE9FB"/>
<stop offset="1" stop-color="#B5EBFB"/>
</linearGradient>
<linearGradient id="paint4_linear_1106_848" x1="1134.13" y1="173.585" x2="1157.53" y2="173.585" gradientUnits="userSpaceOnUse">
<stop offset="0.07" stop-color="#00CAFF"/>
<stop offset="0.22" stop-color="#26D1FE"/>
<stop offset="0.49" stop-color="#63DCFC"/>
<stop offset="0.72" stop-color="#8FE4FB"/>
<stop offset="0.9" stop-color="#AAE9FB"/>
<stop offset="1" stop-color="#B5EBFB"/>
</linearGradient>
<linearGradient id="paint5_linear_1106_848" x1="1893.7" y1="547.441" x2="2038.67" y2="547.441" gradientUnits="userSpaceOnUse">
<stop offset="0.07" stop-color="#00CAFF"/>
<stop offset="0.22" stop-color="#26D1FE"/>
<stop offset="0.49" stop-color="#63DCFC"/>
<stop offset="0.72" stop-color="#8FE4FB"/>
<stop offset="0.9" stop-color="#AAE9FB"/>
<stop offset="1" stop-color="#B5EBFB"/>
</linearGradient>
<linearGradient id="paint6_linear_1106_848" x1="1482.8" y1="350.764" x2="1860.48" y2="350.764" gradientUnits="userSpaceOnUse">
<stop offset="0.07" stop-color="#00CAFF"/>
<stop offset="0.22" stop-color="#26D1FE"/>
<stop offset="0.49" stop-color="#63DCFC"/>
<stop offset="0.72" stop-color="#8FE4FB"/>
<stop offset="0.9" stop-color="#AAE9FB"/>
<stop offset="1" stop-color="#B5EBFB"/>
</linearGradient>
<linearGradient id="paint7_linear_1106_848" x1="436.289" y1="202.915" x2="462.125" y2="202.915" gradientUnits="userSpaceOnUse">
<stop offset="0.07" stop-color="#00CAFF"/>
<stop offset="0.22" stop-color="#26D1FE"/>
<stop offset="0.49" stop-color="#63DCFC"/>
<stop offset="0.72" stop-color="#8FE4FB"/>
<stop offset="0.9" stop-color="#AAE9FB"/>
<stop offset="1" stop-color="#B5EBFB"/>
</linearGradient>
<linearGradient id="paint8_linear_1106_848" x1="-102.018" y1="200.465" x2="132.916" y2="200.465" gradientUnits="userSpaceOnUse">
<stop offset="0.07" stop-color="#00CAFF"/>
<stop offset="0.22" stop-color="#26D1FE"/>
<stop offset="0.49" stop-color="#63DCFC"/>
<stop offset="0.72" stop-color="#8FE4FB"/>
<stop offset="0.9" stop-color="#AAE9FB"/>
<stop offset="1" stop-color="#B5EBFB"/>
</linearGradient>
<linearGradient id="paint9_linear_1106_848" x1="1.11849" y1="426.563" x2="356.333" y2="426.563" gradientUnits="userSpaceOnUse">
<stop offset="0.07" stop-color="#00CAFF"/>
<stop offset="0.22" stop-color="#26D1FE"/>
<stop offset="0.49" stop-color="#63DCFC"/>
<stop offset="0.72" stop-color="#8FE4FB"/>
<stop offset="0.9" stop-color="#AAE9FB"/>
<stop offset="1" stop-color="#B5EBFB"/>
</linearGradient>
<linearGradient id="paint10_linear_1106_848" x1="466.544" y1="169.483" x2="621.341" y2="169.483" gradientUnits="userSpaceOnUse">
<stop offset="0.07" stop-color="#00CAFF"/>
<stop offset="0.22" stop-color="#26D1FE"/>
<stop offset="0.49" stop-color="#63DCFC"/>
<stop offset="0.72" stop-color="#8FE4FB"/>
<stop offset="0.9" stop-color="#AAE9FB"/>
<stop offset="1" stop-color="#B5EBFB"/>
</linearGradient>
<clipPath id="clip0_1106_848">
<rect width="1920" height="1080" fill="white"/>
</clipPath>
</defs>
</svg>
