<svg width="250" height="357" viewBox="0 0 250 357" fill="none" xmlns="http://www.w3.org/2000/svg">
<path d="M246.397 281.143C245.232 287.879 235.328 288.534 235.328 288.534C235.328 288.534 235.983 287.192 237.703 282.413C239.423 277.635 236.737 266.598 222.545 270.375C208.353 274.152 221.572 289.686 221.572 289.686C221.572 289.686 221.334 290.105 216.729 290.072C212.124 290.039 204.231 284.423 204.231 284.423L203.801 293.004C203.801 293.004 206.705 295.341 214.632 297.174C222.558 299.007 230.776 292.998 230.776 292.998C230.776 292.998 240.297 293.508 245.411 288.534C250.532 283.559 250.327 280.194 249.646 276.888C248.964 273.583 247.555 274.401 246.39 281.137L246.397 281.143ZM228.758 286.904C225.476 287.637 219.382 278.728 223.021 276.888C226.667 275.049 230.266 274.473 231.239 279.559C232.211 284.645 231.311 286.334 228.758 286.904Z" fill="#DCABAD"/>
<path fill-rule="evenodd" clip-rule="evenodd" d="M76.1771 180.813C57.1086 192.236 35.6715 256.642 48.4213 283.199C73.4114 335.272 154.237 333.858 186.677 310.587C235.983 275.213 202.769 224.743 175.099 190.423C156.136 166.91 160.225 160.724 122.816 164.972C66.1201 171.413 99.308 166.949 76.1771 180.813Z" fill="#DCABAD"/>
<path fill-rule="evenodd" clip-rule="evenodd" d="M93.3731 228.991C75.4162 248.276 72.333 269.956 78.3208 282.839C93.4658 315.411 146.675 314.154 172.393 297.056C192.467 283.716 180.021 247.261 170.56 235.531C151.558 211.972 114.268 206.552 93.3731 228.991Z" fill="#CC8787"/>
<path d="M170.944 182.253C170.944 182.253 212.058 201.852 224.272 208.385C236.479 214.918 240.846 225.764 239.35 233.037C237.855 240.31 212.435 238.955 191.759 229.829C171.076 220.704 152.014 218.223 152.51 209.976C153.007 201.728 162.819 178.359 170.95 182.253H170.944Z" fill="#DCABAD"/>
<path d="M69.6928 183.883C69.6928 183.883 28.5786 203.482 16.3647 210.015C4.15746 216.548 -0.202739 227.394 1.29257 234.667C2.78787 241.939 28.2081 240.584 48.8843 231.459C69.5671 222.334 88.629 219.853 88.1327 211.605C87.6365 203.358 77.8244 179.988 69.6928 183.883Z" fill="#DCABAD"/>
<path d="M79.6241 310.528C79.6241 310.528 80.1534 333.819 68.4755 337.491C56.7976 341.17 60.688 353.601 77.8575 352.547C95.0271 351.499 95.1991 351.323 106.526 337.838C117.854 324.353 122.452 318.75 122.452 318.75L79.6241 310.522V310.528Z" fill="#DCABAD"/>
<path d="M151.458 319.647C151.458 319.647 169.687 334.388 164.909 345.562C160.139 356.73 172.214 361.888 182.569 348.305C192.923 334.722 192.903 334.473 189.919 317.192C186.935 299.911 185.625 292.808 185.625 292.808L151.452 319.647H151.458Z" fill="#DCABAD"/>
<path d="M46.5885 260.798C44.4381 261.466 43.181 262.952 45.9136 275.723C48.6462 288.494 67 325.355 129.346 326.775C191.693 328.202 205.071 292.363 211.039 281.569C217.007 270.775 215.981 260.596 211.039 260.798C206.096 261.001 53.7937 258.56 46.5885 260.798Z" fill="#D37B72"/>
<path d="M75.5352 304.584C75.5352 304.584 68.7931 322.363 68.8989 326.814C69.0048 331.266 103.8 340.607 110 340.607C116.2 340.607 123.755 324.327 124.834 316.858C125.912 309.389 75.5352 304.584 75.5352 304.584Z" fill="#D37B72"/>
<path d="M164.221 308.892C151.068 313.251 147.7 315.313 149.149 319.751C150.591 324.196 156.043 335.933 158.452 335.776C160.86 335.619 173.643 330.375 181.603 326.808C189.562 323.24 194.438 324.032 193.28 318.481C192.129 312.93 190.038 301.03 183.144 303.249C176.25 305.468 164.221 308.885 164.221 308.885V308.892Z" fill="#D37B72"/>
<path d="M76.4614 184.119C70.07 183.661 71.6381 181.874 70.0104 190.023C68.3828 198.173 57.6709 259.555 57.6709 259.555C57.6709 259.555 54.0186 270.342 56.9166 274.303C59.8146 278.263 72.571 281.457 75.8792 271.894C79.1874 262.33 81.3708 231.885 81.7612 227.525C82.0721 224.062 84.2688 193.755 84.6261 187.038C84.6658 186.338 84.5864 185.494 83.8784 185.435L76.4614 184.132V184.119Z" fill="#C9736F"/>
<path d="M62.2427 253.238C61.7597 253.297 61.2965 253.402 60.8466 253.539C64.5584 253.762 67.6946 256.57 68.1577 260.353C68.6209 264.137 66.2522 267.606 62.7058 268.699C63.1756 268.726 63.652 268.719 64.135 268.66C68.4422 268.143 71.5056 264.274 70.9829 260.013C70.4602 255.752 66.55 252.721 62.2427 253.238Z" fill="#CBA270"/>
<path d="M68.1577 260.353C67.6946 256.57 64.5584 253.762 60.8466 253.539C57.3002 254.632 54.9316 258.102 55.3947 261.885C55.8579 265.669 58.994 268.477 62.7058 268.699C66.2522 267.606 68.6209 264.137 68.1577 260.353Z" fill="#E2DF90"/>
<path d="M170.255 182.044C169.971 181.926 169.66 181.887 169.356 181.926C163.52 182.711 164.466 182.495 164.579 190.586C164.684 198.677 167.08 255.941 167.205 258.913C167.205 258.992 167.205 259.064 167.199 259.149C167.073 260.34 166.114 270.526 169.554 273.615C173.213 276.895 186.366 277.405 187.604 267.37C188.841 257.335 183.468 227.715 182.688 222.498C182.191 219.212 178.215 193.99 177.07 186.718C176.878 185.5 176.065 184.472 174.92 183.988L170.262 182.037L170.255 182.044Z" fill="#C9736F"/>
<path d="M170.361 251.929C169.898 252.086 169.468 252.282 169.058 252.511C172.737 251.968 176.396 254.076 177.64 257.676C178.883 261.283 177.295 265.158 174.053 266.958C174.517 266.893 174.98 266.788 175.443 266.631C179.545 265.243 181.735 260.825 180.332 256.766C178.93 252.708 174.464 250.541 170.361 251.929Z" fill="#CBA270"/>
<path d="M177.639 257.676C176.396 254.069 172.737 251.968 169.058 252.511C165.816 254.311 164.221 258.186 165.472 261.793C166.716 265.4 170.375 267.501 174.053 266.958C177.295 265.158 178.89 261.283 177.639 257.676Z" fill="#E2DF90"/>
<path fill-rule="evenodd" clip-rule="evenodd" d="M185.096 41.8423C187.59 2.22609 231.709 3.40436 238.609 5.19141C245.094 21.4451 237.207 57.0813 197.581 59.32C196.681 59.3724 185.05 42.5296 185.096 41.8423Z" fill="#E8B4B5"/>
<path fill-rule="evenodd" clip-rule="evenodd" d="M194.425 42.1433C204.224 21.4711 226.31 9.75386 233.799 13.9367C236.201 20.2929 215.889 52.5187 199.93 53.3566C199.189 53.4024 194.18 42.6604 194.425 42.1433Z" fill="#D18C8C"/>
<path fill-rule="evenodd" clip-rule="evenodd" d="M55.5405 40.5331C53.0461 0.916867 8.92797 2.09514 2.02707 3.87565C-4.457 20.1293 3.42974 55.7655 43.0553 58.0043C43.9552 58.0566 55.5868 41.2139 55.5405 40.5265V40.5331Z" fill="#E8B4B5"/>
<path fill-rule="evenodd" clip-rule="evenodd" d="M46.2114 40.8341C36.4125 20.1554 14.3336 8.44466 6.83725 12.6275C4.4355 18.9837 24.7478 51.2095 40.7066 52.0474C41.4476 52.0932 46.4562 41.3512 46.2114 40.8341Z" fill="#D18C8C"/>
<path d="M95.0997 21.7788C51.5374 25.9617 14.0622 76.6995 11.9184 114.568C9.77473 152.436 28.6381 181.284 97.6735 187.222C166.709 193.159 219.018 170.68 225.449 136.739C231.88 102.805 214.301 10.3234 95.0997 21.7788Z" fill="#E8B4B5"/>
<path fill-rule="evenodd" clip-rule="evenodd" d="M26.8451 128.792C35.0891 135.698 47.1111 125.899 39.8132 119.896C31.4567 113.023 18.429 121.749 26.8451 128.792Z" fill="#EF99B0"/>
<path fill-rule="evenodd" clip-rule="evenodd" d="M180.564 137.813C188.808 144.712 200.83 134.919 193.532 128.917C185.182 122.043 172.154 130.769 180.564 137.813Z" fill="#EF99B0"/>
<path d="M114.579 158.773C132.634 158.773 147.27 147.771 147.27 134.199C147.27 120.628 132.634 109.626 114.579 109.626C96.5234 109.626 81.8869 120.628 81.8869 134.199C81.8869 147.771 96.5234 158.773 114.579 158.773Z" fill="#CC8787"/>
<path d="M100.598 146.126C104.672 146.126 107.975 141.065 107.975 134.821C107.975 128.578 104.672 123.516 100.598 123.516C96.5237 123.516 93.2208 128.578 93.2208 134.821C93.2208 141.065 96.5237 146.126 100.598 146.126Z" fill="#694E4E"/>
<path d="M127.745 145.504C131.82 145.504 135.122 140.443 135.122 134.199C135.122 127.956 131.82 122.894 127.745 122.894C123.671 122.894 120.368 127.956 120.368 134.199C120.368 140.443 123.671 145.504 127.745 145.504Z" fill="#694E4E"/>
<path d="M91.9768 17.2818C93.0421 17.1901 94.1603 16.7843 95.3446 16.1559C98.6131 17.8055 105.375 19.9787 115.558 23.8867C124.278 27.2317 133.151 29.3918 140.012 30.7338C136.525 30.8581 130.994 30.9105 120.89 30.989C91.5269 31.2247 75.4425 32.1019 74.6816 25.9421C73.9273 19.7824 85.817 17.8055 91.9768 17.2818Z" fill="#F5C86A"/>
<path d="M120.103 0.537218C120.288 0.465212 120.494 0.406299 120.705 0.347385C128.678 -1.74733 154.972 6.03583 162.342 12.8371C163.262 13.6881 163.89 14.526 164.149 15.318C166.511 22.6691 169.323 26.2105 155.157 28.4951C145.867 29.9875 146.648 30.4981 140.005 30.7338C133.144 29.3918 124.272 27.2382 115.551 23.8867C105.362 19.9787 98.6065 17.8055 95.338 16.1559C100.995 13.1578 108.286 4.99502 120.103 0.537218Z" fill="#FED592"/>
<path d="M127.13 166.759C131.53 165.319 134.381 164.992 136.194 165.077C137.623 161.267 136.657 160.429 135.102 160.769C133.343 161.156 122.928 163.519 114.181 163.277C105.435 163.034 101.518 160.953 100.214 162.157C97.6206 164.553 102.848 173.73 108.677 177.809C112.177 172.827 119.647 169.214 127.13 166.759Z" fill="#AF300F"/>
<path d="M126.495 180.086C130.332 178.247 133.184 171.897 135.526 166.693C135.791 166.098 136.009 165.568 136.194 165.077C134.381 164.991 131.53 165.319 127.13 166.759C119.647 169.214 112.177 172.827 108.677 177.808C109.497 178.385 110.331 178.856 111.151 179.196C117.827 181.932 122.657 181.926 126.495 180.086Z" fill="#E38072"/>
<path fill-rule="evenodd" clip-rule="evenodd" d="M195.663 66.4879C189.853 52.0998 169.104 56.6624 174.358 63.4964C183.383 75.2202 197.224 70.3631 195.663 66.4879Z" fill="#694E4E"/>
<path fill-rule="evenodd" clip-rule="evenodd" d="M68.1116 62.2329C59.1398 70.4678 46.2312 61.7158 54.1709 54.5414C63.2684 46.3197 77.2687 53.8344 68.1116 62.2329Z" fill="#765858"/>
<path fill-rule="evenodd" clip-rule="evenodd" d="M150.942 120.963C171.784 143.272 202.173 111.616 183.726 92.2135C162.6 69.9965 129.664 98.1965 150.942 120.963Z" fill="white"/>
<path fill-rule="evenodd" clip-rule="evenodd" d="M158.32 111.151C173.18 127.058 194.836 104.494 181.689 90.6621C166.63 74.8274 143.155 94.9301 158.32 111.151Z" fill="#765858"/>
<path fill-rule="evenodd" clip-rule="evenodd" d="M168.443 98.8707C173.571 104.363 181.06 96.5665 176.515 91.7945C171.314 86.3221 163.209 93.2674 168.443 98.8707Z" fill="white"/>
<path fill-rule="evenodd" clip-rule="evenodd" d="M48.8316 112.035C69.6798 134.343 100.062 102.687 81.629 83.2913C60.5029 61.0743 27.5665 89.2744 48.8316 112.035Z" fill="white"/>
<path fill-rule="evenodd" clip-rule="evenodd" d="M56.5925 104.173C71.4529 120.073 93.1083 97.5156 79.9616 83.684C64.9093 67.8493 41.4277 87.952 56.5925 104.173Z" fill="#765858"/>
<path fill-rule="evenodd" clip-rule="evenodd" d="M67.2053 90.5901C72.333 96.0822 79.8161 88.2925 75.2773 83.5139C70.0768 78.048 61.9717 84.9933 67.2053 90.5901Z" fill="white"/>
</svg>
