<svg width="250" height="358" viewBox="0 0 250 358" fill="none" xmlns="http://www.w3.org/2000/svg">
<path d="M246.397 280.933C245.232 287.741 235.328 288.403 235.328 288.403C235.328 288.403 235.983 287.046 237.703 282.216C239.423 277.386 236.737 266.231 222.545 270.049C208.353 273.866 221.572 289.567 221.572 289.567C221.572 289.567 221.334 289.991 216.729 289.958C212.124 289.924 204.231 284.248 204.231 284.248L203.801 292.922C203.801 292.922 206.705 295.284 214.632 297.136C222.558 298.989 230.776 292.915 230.776 292.915C230.776 292.915 240.297 293.431 245.411 288.403C250.532 283.374 250.327 279.973 249.646 276.632C248.964 273.291 247.555 274.118 246.39 280.926L246.397 280.933ZM228.758 286.755C225.476 287.496 219.382 278.491 223.021 276.632C226.667 274.773 230.266 274.191 231.239 279.332C232.211 284.473 231.312 286.18 228.758 286.755Z" fill="#DCABAD"/>
<path fill-rule="evenodd" clip-rule="evenodd" d="M76.1771 179.523C57.1086 191.069 35.6715 256.168 48.4213 283.01C73.4114 335.644 154.237 334.215 186.677 310.693C235.983 274.938 202.769 223.926 175.099 189.236C156.136 165.47 160.225 159.218 122.816 163.512C66.1201 170.022 99.308 165.51 76.1771 179.523Z" fill="#DCABAD"/>
<path fill-rule="evenodd" clip-rule="evenodd" d="M93.3731 228.22C75.4162 247.712 72.333 269.625 78.3208 282.646C93.4658 315.57 146.675 314.299 172.393 297.017C192.467 283.533 180.021 246.686 170.56 234.83C151.558 211.017 114.268 205.539 93.3731 228.22Z" fill="#CC8787"/>
<path d="M170.944 180.979C170.944 180.979 212.058 200.788 224.272 207.392C236.479 213.995 240.846 224.958 239.35 232.309C237.855 239.66 212.435 238.29 191.759 229.067C171.076 219.844 152.014 217.336 152.51 208.999C153.007 200.663 162.819 177.042 170.95 180.979H170.944Z" fill="#DCABAD"/>
<path d="M69.6928 182.626C69.6928 182.626 28.5786 202.436 16.3647 209.039C4.15746 215.642 -0.202739 226.605 1.29257 233.956C2.78787 241.307 28.2081 239.938 48.8843 230.714C69.5671 221.491 88.629 218.983 88.1327 210.647C87.6365 202.31 77.8244 178.69 69.6928 182.626Z" fill="#DCABAD"/>
<path d="M79.6241 310.634C79.6241 310.634 80.1534 334.175 68.4755 337.887C56.7976 341.605 60.688 354.17 77.8575 353.104C95.0271 352.046 95.1991 351.867 106.526 338.237C117.854 324.608 122.452 318.944 122.452 318.944L79.6241 310.627V310.634Z" fill="#DCABAD"/>
<path d="M151.458 319.85C151.458 319.85 169.686 334.75 164.909 346.045C160.139 357.332 172.214 362.546 182.568 348.817C192.923 335.088 192.903 334.836 189.919 317.369C186.935 299.902 185.625 292.723 185.625 292.723L151.452 319.85H151.458Z" fill="#DCABAD"/>
<path fill-rule="evenodd" clip-rule="evenodd" d="M185.096 39.0573C187.59 -0.985145 231.709 0.205807 238.609 2.00547C245.093 18.434 237.207 54.4536 197.581 56.7164C196.681 56.7694 185.05 39.7454 185.096 39.0507V39.0573Z" fill="#E8B4B5"/>
<path fill-rule="evenodd" clip-rule="evenodd" d="M194.425 39.3616C204.224 18.467 226.31 6.62368 233.799 10.8516C236.201 17.2761 215.889 49.8486 199.93 50.6955C199.189 50.7418 194.18 39.8843 194.425 39.3616Z" fill="#D18C8C"/>
<path fill-rule="evenodd" clip-rule="evenodd" d="M55.5405 37.734C53.0461 -2.30845 8.92797 -1.1175 2.02707 0.682162C-4.457 17.1107 3.42974 53.1303 43.0553 55.3931C43.9552 55.4461 55.5868 38.4221 55.5405 37.7273V37.734Z" fill="#E8B4B5"/>
<path fill-rule="evenodd" clip-rule="evenodd" d="M46.2114 38.0383C36.4125 17.1371 14.3336 5.30039 6.83725 9.52165C4.4355 15.9462 24.7478 48.5187 40.7066 49.3656C41.4476 49.4119 46.4562 38.5544 46.2114 38.0317V38.0383Z" fill="#D18C8C"/>
<path d="M95.0999 18.7779C51.5376 23.0058 14.0623 74.2895 11.9186 112.565C9.77492 150.841 28.6383 180 97.6737 186.001C166.709 192.002 219.018 169.281 225.449 134.975C231.881 100.676 214.301 7.19924 95.0999 18.7779Z" fill="#E8B4B5"/>
<path fill-rule="evenodd" clip-rule="evenodd" d="M150.942 119.03C171.784 141.578 202.173 109.581 183.726 89.9704C162.6 67.5144 129.664 96.0178 150.942 119.03Z" fill="white"/>
<path fill-rule="evenodd" clip-rule="evenodd" d="M158.32 109.112C173.18 125.189 194.835 102.383 181.689 88.4023C166.63 72.3973 143.155 92.7162 158.32 109.112Z" fill="#765858"/>
<path fill-rule="evenodd" clip-rule="evenodd" d="M168.443 96.6928C173.57 102.244 181.06 94.3638 176.515 89.5404C171.314 84.0091 163.209 91.0291 168.443 96.6928Z" fill="white"/>
<path fill-rule="evenodd" clip-rule="evenodd" d="M48.8315 110.005C69.6797 132.554 100.062 100.557 81.629 80.9523C60.5028 58.4962 27.5664 86.9996 48.8315 110.005Z" fill="white"/>
<path fill-rule="evenodd" clip-rule="evenodd" d="M56.5925 102.059C71.4529 118.13 93.1083 95.3297 79.9616 81.3493C64.9093 65.3442 41.4277 85.6632 56.5925 102.059Z" fill="#765858"/>
<path fill-rule="evenodd" clip-rule="evenodd" d="M67.2053 88.3296C72.333 93.8808 79.8161 86.0072 75.2773 81.1773C70.0768 75.6526 61.9717 82.6726 67.2053 88.3296Z" fill="white"/>
<path fill-rule="evenodd" clip-rule="evenodd" d="M195.662 63.9679C189.853 49.4251 169.104 54.0367 174.358 60.9443C183.382 72.7942 197.224 67.8849 195.662 63.9679Z" fill="#694E4E"/>
<path fill-rule="evenodd" clip-rule="evenodd" d="M68.1115 59.6672C59.1397 67.9907 46.2311 59.1445 54.1708 51.893C63.2683 43.5828 77.2686 51.1784 68.1115 59.6672Z" fill="#765858"/>
<path fill-rule="evenodd" clip-rule="evenodd" d="M26.8451 126.943C35.0891 133.923 47.1111 124.018 39.8132 117.951C31.4567 111.004 18.429 119.824 26.8451 126.943Z" fill="#EF99B0"/>
<path fill-rule="evenodd" clip-rule="evenodd" d="M180.564 136.06C188.808 143.034 200.83 133.136 193.532 127.069C185.182 120.121 172.154 128.941 180.564 136.06Z" fill="#EF99B0"/>
<path d="M114.579 157.246C132.634 157.246 147.27 146.125 147.27 132.408C147.27 118.69 132.634 107.57 114.579 107.57C96.5234 107.57 81.8869 118.69 81.8869 132.408C81.8869 146.125 96.5234 157.246 114.579 157.246Z" fill="#CC8787"/>
<path d="M100.598 144.456C104.672 144.456 107.975 139.34 107.975 133.03C107.975 126.719 104.672 121.603 100.598 121.603C96.5236 121.603 93.2207 126.719 93.2207 133.03C93.2207 139.34 96.5236 144.456 100.598 144.456Z" fill="#694E4E"/>
<path d="M127.745 143.834C131.82 143.834 135.122 138.719 135.122 132.408C135.122 126.097 131.82 120.981 127.745 120.981C123.671 120.981 120.368 126.097 120.368 132.408C120.368 138.719 123.671 143.834 127.745 143.834Z" fill="#694E4E"/>
<path d="M163.302 49.4516C163.302 49.4516 130.359 43.7681 132.628 27.6771C134.897 11.586 152.51 10.448 146.45 6.66339C140.389 2.87881 126.759 7.60953 121.268 14.8082C121.268 14.8082 129.221 3.25595 122.214 1.36366C115.207 -0.52863 104.608 9.12469 102.332 14.0473C100.062 18.9699 99.3013 19.7308 99.3013 19.7308C99.3013 19.7308 104.224 8.93943 99.3013 7.61615C94.3787 6.29287 90.2104 17.6532 89.2642 23.3301C88.3181 29.0136 83.7726 53.6266 116.53 54.1956C149.288 54.7646 167.086 52.8723 163.295 49.4648L163.302 49.4516Z" fill="#E8B4B5"/>
<path d="M127.13 165.318C131.53 163.862 134.381 163.531 136.194 163.617C137.623 159.767 136.657 158.92 135.103 159.264C133.343 159.654 122.928 162.043 114.182 161.798C105.435 161.553 101.518 159.449 100.214 160.666C97.6207 163.088 102.848 172.364 108.677 176.486C112.177 171.451 119.647 167.799 127.13 165.318Z" fill="#AF300F"/>
<path d="M126.495 178.789C130.332 176.93 133.184 170.512 135.526 165.252C135.791 164.65 136.009 164.114 136.194 163.617C134.381 163.531 131.53 163.862 127.13 165.318C119.647 167.799 112.177 171.451 108.677 176.486C109.497 177.069 110.331 177.545 111.151 177.889C117.827 180.655 122.657 180.648 126.495 178.789Z" fill="#E38072"/>
</svg>
