<svg width="600" height="879" viewBox="0 0 600 879" fill="none" xmlns="http://www.w3.org/2000/svg">
<path d="M352.344 94.5234C352.344 94.5234 405.161 47.7861 464.27 45.4454C523.395 43.1199 597.704 103.871 596.534 130.743C595.364 157.615 523.411 75.3573 474.439 91.4836C425.482 107.61 395.327 136.184 395.327 136.184L352.328 94.5234H352.344Z" fill="#564F50"/>
<path d="M308.241 63.2132C308.241 63.2132 328.274 25.2914 363.475 7.97961C398.677 -9.3322 461.48 4.28622 460.887 22.5708C460.309 40.8553 427.631 15.9592 407.021 26.8417C386.411 37.7395 360.739 98.0192 360.739 98.0192L308.226 63.2132H308.241Z" fill="#564F50"/>
<path d="M371.863 252.336C368.412 224.446 365.92 210.037 432.34 201.115C498.761 192.193 499.095 213.335 548.994 221.603C598.893 229.872 608.484 232.516 593.604 250.026C578.739 267.535 529.159 297.28 461.416 291.337C393.673 285.394 375.161 279.117 371.863 252.336Z" fill="#F1DFCB"/>
<path d="M395.951 244.402C395.951 244.402 413.065 228.884 477.51 233.185C541.955 237.487 548.034 241.104 560.254 245.405C572.459 249.707 527.85 269.861 496.129 270.514C464.408 271.168 394.401 268.234 395.966 244.402H395.951Z" fill="#EE8F97"/>
<path d="M146.015 360.569C146.015 360.569 150.62 382.182 163.007 415.438C175.395 448.694 173.449 459.865 165.926 470.064C158.402 480.262 145.042 488.272 166.655 482.451C188.268 476.63 205.018 464.486 206.705 435.106C208.392 405.726 196.02 390.679 215.445 376.118C234.869 361.557 146.015 360.584 146.015 360.584V360.569Z" fill="#FFEEE1"/>
<path d="M409.421 173.893C407.202 136.868 362.076 80.6771 327.999 73.0167C308.179 68.5634 271.792 75.3118 244.814 81.7258C240.406 94.2651 231.94 114.176 216.908 136.199C191.662 173.164 171.508 195.506 164.227 230.951C156.947 266.395 149.423 269.07 173.21 283.874C194.459 297.097 200.371 336.083 160.048 367.606C181.934 374.415 218.595 399.008 262.779 393.84C304.288 388.991 395.818 359.125 402.612 329.259C409.406 299.393 411.108 202.301 409.406 173.893H409.421Z" fill="#F1DFCB"/>
<path d="M269.511 81.3458C269.511 81.3458 255.269 59.6718 235.267 54.7777C215.28 49.8684 209.535 48.6676 211.085 45.2022C212.636 41.7368 235.86 36.8275 260.407 43.4087C284.954 49.99 294.529 59.687 294.529 59.687C294.529 59.687 298.146 30.8695 314.759 33.1189C319.182 33.7117 311.172 34.9124 312.13 48.0901C313.087 61.2525 327.694 67.4842 330.08 77.8956C332.481 88.307 272.019 104.464 269.511 81.361V81.3458Z" fill="#F1DFCB"/>
<path d="M92.3643 207.635C108.171 201.875 123.887 180.398 140.303 157.372C143.008 153.572 145.729 149.742 148.48 145.927C155.304 136.458 162.265 127.141 169.424 118.918C176.765 110.467 184.319 103.217 192.147 98.1407C198.212 94.2041 204.428 91.5595 210.842 90.7843C210.842 90.7843 225.403 86.331 244.797 81.7104C240.389 94.2497 231.923 114.161 216.891 136.184C191.646 173.148 171.491 195.491 164.211 230.936C156.931 266.38 149.407 269.055 173.194 283.859C194.442 297.082 200.355 336.068 160.031 367.591C157.614 366.846 155.335 366.223 153.283 365.904C132.642 362.742 96.468 389.447 79.7185 371.968C62.969 354.489 69.611 330.87 81.4664 322.784C93.3218 314.683 27.0381 320.747 24.6214 287.005C22.1895 253.263 55.6886 220.965 92.3491 207.62L92.3643 207.635Z" fill="#FFECDC"/>
<path d="M169.436 118.918C160.62 114.206 152.154 109.084 147.519 104.676C135.071 92.8211 129.796 83.1241 128.003 84.6896C126.209 86.2399 127.41 117.854 138.293 133.053C141.241 137.172 144.768 141.61 148.476 145.927C145.725 149.742 143.005 153.572 140.299 157.372C138.278 155.046 136.211 152.539 134.113 149.575C122.501 133.175 107.302 74.7494 110.053 63.0612C112.804 51.3579 135.907 58.4863 150.163 75.0077C158.553 84.7504 177.765 93.0035 192.159 98.156C184.346 103.217 176.792 110.483 169.436 118.933V118.918Z" fill="#FFECDC"/>
<path d="M138.312 133.053C127.414 117.854 126.213 86.2399 128.022 84.6896C129.815 83.1393 135.089 92.8364 147.538 104.676C152.158 109.084 160.639 114.206 169.455 118.918C162.296 127.141 155.335 136.458 148.51 145.927C144.802 141.61 141.276 137.172 138.327 133.053H138.312Z" fill="#EE8F97"/>
<path d="M81.4818 322.799C84.2176 318.103 94.3251 322.389 104.053 318.741C113.78 315.093 145.957 295.365 150.273 290.501C154.605 285.637 152.705 298.481 138.114 315.367C123.523 332.268 102.73 347.634 91.7564 347.938C76.2076 348.364 72.5598 338.074 81.4818 322.799Z" fill="#E63336"/>
<path d="M64.6851 225.844C99.9625 226.725 107.41 242.35 89.6879 261.653C71.9656 280.956 57.2375 282.689 43.8014 271.001C30.3653 259.312 15.8805 224.628 64.6851 225.844Z" fill="#F6A5A6"/>
<path fill-rule="evenodd" clip-rule="evenodd" d="M299.729 154.195C298.634 157.737 307.055 166.127 316.584 170.2C327.726 174.972 340.052 174.517 335.827 163.436C332.209 153.891 303.832 140.881 299.729 154.195Z" fill="#564F50"/>
<path fill-rule="evenodd" clip-rule="evenodd" d="M186.36 238.596C187.759 258.537 215.497 279.558 241.078 276.928C270.959 273.873 297.923 242.411 276.598 198.121C258.268 160.047 181.117 163.558 186.36 238.581V238.596Z" fill="white"/>
<path fill-rule="evenodd" clip-rule="evenodd" d="M193.932 230.738C194.996 245.876 216.062 261.836 235.487 259.844C258.164 257.534 278.637 233.656 262.45 200.036C248.528 171.142 189.965 173.787 193.947 230.738H193.932Z" fill="#221F1F"/>
<path fill-rule="evenodd" clip-rule="evenodd" d="M205.965 208.076C206.284 212.499 212.44 217.165 218.109 216.588C224.766 215.904 230.755 208.927 225.997 199.094C221.924 190.628 204.795 191.403 205.965 208.076Z" fill="white"/>
<path d="M427.305 150.091C427.411 150.076 427.533 150.046 427.305 150.091V150.091Z" fill="#BB9053"/>
<path fill-rule="evenodd" clip-rule="evenodd" d="M307.009 640.218C322.528 658.715 349.02 680.359 368.703 696.272C369.235 711.882 369.098 729.847 370.724 754.546C370.831 756.172 372.153 757.464 373.779 757.479C382.564 757.631 404.831 763.817 405.804 745.457C407.294 715.697 410.197 693.08 404.482 678.763C400.758 671.224 364.842 602.387 354.993 609.303C337.833 621.356 322.132 629.578 307.009 640.203V640.218Z" fill="#F1DFCB"/>
<path fill-rule="evenodd" clip-rule="evenodd" d="M370.053 741.794C380.89 741.11 393.004 741.87 406.03 741.262C406.151 741.262 406.699 757.236 399.54 758.528C389.508 759.592 384.827 759.121 375.434 758.619C368.381 758.239 370.829 748.709 370.053 741.794Z" fill="#5F514E"/>
<path fill-rule="evenodd" clip-rule="evenodd" d="M290.549 854.647C290.701 855.347 291.233 855.879 291.917 856C299.061 857.307 322.103 859.526 323.319 854.024C329.338 827.137 326.602 739.97 331.541 707.93C333.973 692.184 324.003 646.921 303.043 645.659C262.187 643.197 284.515 826.651 290.534 854.632L290.549 854.647Z" fill="#F1DFCB"/>
<path fill-rule="evenodd" clip-rule="evenodd" d="M125.103 721.776C128.097 756.522 133.994 822.258 141.244 854.45C141.518 855.635 142.475 856.501 143.676 856.684C151.017 857.793 168.451 858.523 169.621 853.264C175.625 826.377 173.543 790.4 178.482 758.361C179.577 751.247 183.924 720.515 173.619 720.515C156.9 720.515 142.719 718.812 128.082 718.569C126.349 718.539 124.966 720.044 125.118 721.761L125.103 721.776Z" fill="#F1DFCB"/>
<path d="M24.4098 612.175C16.1566 610.671 -0.0001297 598.663 -0.0001297 588.328C-0.0001297 577.993 0.182259 574.436 4.13406 582.689C8.07065 590.942 9.1954 590.198 11.6425 589.255C14.0895 588.313 10.7001 586.443 9.5754 572.171C8.45066 557.899 9.57537 540.253 19.7132 528.246C29.8511 516.239 33.4229 517.166 31.9182 520.92C30.4135 524.674 19.7132 554.145 35.8548 569.162C45.3239 577.977 57.0273 582.568 65.1133 584.878C58.456 600.183 53.8507 616.796 50.9932 634.381C43.5912 635.141 36.1436 631.509 27.6016 629.062C13.892 625.125 10.8977 618.924 17.6462 618.924C24.3946 618.924 32.663 613.665 24.4098 612.16V612.175Z" fill="#F1DFCB"/>
<path d="M330.06 369.81C332.492 346.008 326.655 329 362.13 325.596C395.341 322.419 405.266 299.985 403.867 322.754C403.107 335.035 401.937 368.108 400.432 398.309C378.546 405.361 349.773 413.021 323.418 414.967C326.336 397.67 329.027 379.994 330.075 369.81H330.06Z" fill="#F1DFCB"/>
<path d="M50.9939 634.396C53.8666 616.811 58.4567 600.214 65.114 584.893C85.2377 538.657 124.178 504.246 191.161 490.369C242.884 479.654 296.947 499.033 314.107 463.3C315.004 460.762 317.238 449.697 319.777 435.713C338.274 435.409 371.18 433.449 398.965 424.238C398.037 438.738 397.019 450.244 395.925 454.743C389.389 547.533 366.621 644.838 328.607 694.266C313.439 713.994 298.817 728.236 282.903 738.252C258.737 753.482 231.606 758.908 195.052 758.908C152.92 758.908 101.273 735.547 101.303 735.668C103.826 746.277 109.845 851.045 109.465 871.989C109.42 874.193 107.459 874.771 105.316 875.257C99.0234 876.686 90.4055 876.655 83.733 875.546C80.2068 874.953 78.5805 873.266 77.6229 869.816C55.4169 789.048 39.6249 704.024 50.9787 634.381L50.9939 634.396Z" fill="#F1DFCB"/>
<path d="M400.422 398.309C399.966 407.428 399.48 416.274 398.978 424.223C371.179 433.419 338.288 435.394 319.791 435.698C320.961 429.224 322.207 422.126 323.408 414.967C349.763 413.021 378.536 405.361 400.422 398.309Z" fill="#BF804C"/>
<path fill-rule="evenodd" clip-rule="evenodd" d="M289.939 850.68C300.898 850.528 313.164 851.896 324.153 849.708C324.274 849.708 323.697 867.035 316.857 868.402C306.78 869.603 306.902 869.299 297.934 868.767C291.201 868.372 290.684 857.991 289.924 850.68H289.939Z" fill="#5F514E"/>
<path fill-rule="evenodd" clip-rule="evenodd" d="M138.719 841.439C148.735 840.557 161.654 841.363 171.807 840.801C171.914 840.801 171.61 856.744 165.211 858.036C155.651 858.994 153.158 858.812 144.768 858.31C138.46 857.93 139.433 848.354 138.719 841.424V841.439Z" fill="#5F514E"/>
<path fill-rule="evenodd" clip-rule="evenodd" d="M75.3872 861.533C85.5403 859.313 97.8517 860.301 109.281 858.553C109.388 858.538 112.868 874.68 106.242 876.443C97.8365 878.708 91.5288 877.978 82.698 878.115C76.056 878.206 76.6183 868.372 75.3872 861.533Z" fill="#5F514E"/>
</svg>
