<svg width="400" height="567" viewBox="0 0 400 567" fill="none" xmlns="http://www.w3.org/2000/svg">
<path fill-rule="evenodd" clip-rule="evenodd" d="M101.532 264.329C66.9959 285.243 28.1706 403.142 51.2636 451.762C96.5271 547.088 242.917 544.507 301.675 501.893C390.975 437.139 330.823 344.737 280.702 281.916C246.362 238.871 253.762 227.545 186.004 235.328C83.317 247.115 143.43 238.939 101.532 264.329Z" fill="#DCABAD"/>
<path d="M394.655 437.472C392.928 447.571 378.236 448.553 378.236 448.553C378.236 448.553 379.208 446.541 381.759 439.376C384.311 432.212 380.327 415.665 359.275 421.328C338.223 426.991 357.832 450.28 357.832 450.28C357.832 450.28 357.479 450.908 350.648 450.859C343.817 450.81 332.109 442.389 332.109 442.389L331.471 455.256C331.471 455.256 335.78 458.76 347.537 461.508C359.295 464.256 371.484 455.246 371.484 455.246C371.484 455.246 385.607 456.012 393.193 448.553C400.789 441.094 400.485 436.049 399.474 431.093C398.463 426.137 396.373 427.364 394.646 437.463L394.655 437.472ZM368.491 446.109C363.623 447.208 354.584 433.851 359.982 431.093C365.389 428.335 370.728 427.472 372.171 435.097C373.614 442.723 372.279 445.255 368.491 446.109Z" fill="#DCABAD"/>
<path fill-rule="evenodd" clip-rule="evenodd" d="M83.955 539.669C92.4542 564.95 111.141 567.777 125.46 565.853C150.614 562.457 155.864 539.227 141.329 535.596C128.963 532.494 128.531 536.803 125.548 536.97C123.762 537.068 130.377 513.985 123.909 509.421C121.151 507.478 77.0458 487.712 76.4177 487.692C74.7983 487.623 82.9441 536.665 83.955 539.669Z" fill="#DCABAD"/>
<path fill-rule="evenodd" clip-rule="evenodd" d="M327.899 522.7C327.045 549.316 305.65 559.906 291.36 562.035C266.255 565.784 254.517 544.958 267.404 537.431C278.376 531.022 284.117 537.048 282.94 534.359C267.129 498.341 280.093 477.338 288.161 473.265C333.522 450.388 328.615 500.038 327.889 522.69L327.899 522.7Z" fill="#DCABAD"/>
<path fill-rule="evenodd" clip-rule="evenodd" d="M132.673 380.029C100.149 415.331 94.5642 455.02 105.419 478.604C132.85 538.226 229.226 535.929 275.795 504.631C312.147 480.204 289.613 413.467 272.477 391.993C238.069 348.859 170.527 338.947 132.683 380.029H132.673Z" fill="#CC8787"/>
<path fill-rule="evenodd" clip-rule="evenodd" d="M196.858 496.554C195.877 497.614 195.71 498.802 196.044 499.518C196.858 501.305 199.763 501.246 201.157 500.303C202.247 499.567 201.569 497.565 201.059 496.918C200.028 495.622 197.987 495.318 196.858 496.564V496.554Z" fill="#DCABAD"/>
<path d="M133.605 296.608C133.605 296.608 114.585 317.365 104.918 325.001C95.2512 332.636 91.9438 333.883 91.031 336.69C90.1183 339.496 93.7005 345.572 108.51 345.11C123.32 344.639 139.425 344.639 148.729 330.772C158.033 316.894 159.329 313.312 159.329 313.312L147.012 291.485L133.605 296.608Z" fill="#A7C6C1"/>
<path d="M171.017 307.531C171.017 307.531 166.807 322.498 200.637 335.433C234.467 348.369 239.452 344.315 239.452 344.315C239.452 344.315 229.167 302.997 211.55 293.026C193.934 283.045 172.735 290.219 171.017 307.522V307.531Z" fill="#A7C6C1"/>
<path d="M124.988 269.825L95.7517 267.538C93.6514 267.371 92.0419 269.334 92.5817 271.366C94.0146 276.793 98.0384 286.421 109.148 293.134C125.41 302.968 143.066 300.279 148.278 298.482C153.499 296.686 154.902 289.463 158.72 288.452C162.538 287.451 150.221 274.879 149.819 274.28C149.416 273.682 126.971 270.129 125.214 269.854C125.136 269.844 125.067 269.835 124.988 269.825Z" fill="#B6D7D3"/>
<path d="M198.556 276.597L176.219 297.01C176.219 297.01 190.724 299.572 205.073 300.956C219.421 302.349 227.96 296.137 252.662 289.512C277.355 282.888 268.768 285.008 290.428 277.892C309.026 271.778 304.835 259.795 304.835 259.795C304.835 259.795 302.254 240.971 281.889 245.299C264.126 249.077 268.807 245.613 243.3 257.459C218.695 268.892 214.681 269.56 201.167 274.948C200.205 275.331 199.332 275.9 198.566 276.597H198.556Z" fill="#B6D7D3"/>
<path d="M166.65 285.233C153.999 284.929 149.966 285.547 148.101 291.936C146.227 298.326 145.922 311.114 155.58 315.481C165.247 319.848 176.621 314.235 176.621 314.235C176.621 314.235 175.532 296.932 180.204 294.743C184.885 292.555 185.484 288.394 185.484 288.394C185.484 288.394 174.433 285.42 166.64 285.233H166.65Z" fill="#EFFDFF"/>
<path fill-rule="evenodd" clip-rule="evenodd" d="M268.65 255.192C274.165 245.613 297.563 242.561 303.471 253.651C327.673 299.032 287.277 334.697 254.066 343.677C220.854 352.657 196.073 344.345 191.441 331.625C188.879 324.569 186.858 314.921 206.476 309.052C219.922 305.029 236.92 306.795 244.87 301.545C252.535 296.49 253.82 280.974 268.65 255.192Z" fill="#E8B4B5"/>
<path fill-rule="evenodd" clip-rule="evenodd" d="M92.2872 262.837C64.4637 249.411 40.193 321.674 86.9875 342.264C133.743 362.835 160.909 315.942 120.366 308.866C101.248 305.529 95.8106 278.206 92.2872 262.837Z" fill="#E8B4B5"/>
<path fill-rule="evenodd" clip-rule="evenodd" d="M82.3847 61.5659C78.6847 2.16984 13.2431 3.93641 3.00681 6.61571C-6.61119 30.9846 5.08744 84.4135 63.8652 87.77C65.1999 87.8485 82.4534 62.5964 82.3847 61.5659Z" fill="#E8B4B5"/>
<path fill-rule="evenodd" clip-rule="evenodd" d="M68.5466 62.0173C54.0116 31.0238 21.2614 13.4563 10.1418 19.7276C6.57922 29.2573 36.7091 77.573 60.3811 78.8292C61.4803 78.8979 68.9097 62.7927 68.5466 62.0173Z" fill="#D18C8C"/>
<path fill-rule="evenodd" clip-rule="evenodd" d="M274.558 63.5287C278.258 4.1327 343.7 5.89927 353.936 8.57857C363.554 32.9474 351.855 86.3764 293.078 89.7329C291.743 89.8114 274.489 64.5592 274.558 63.5287Z" fill="#E8B4B5"/>
<path fill-rule="evenodd" clip-rule="evenodd" d="M288.396 63.9802C302.931 32.9867 335.691 15.4191 346.801 21.6904C350.364 31.2201 320.234 79.5358 296.562 80.792C295.462 80.8607 288.033 64.7555 288.396 63.9802Z" fill="#D18C8C"/>
<path d="M141.064 33.448C76.447 39.7193 20.8589 115.79 17.6791 172.565C14.4993 229.341 42.4798 272.593 144.882 281.494C247.284 290.396 324.876 256.693 334.415 205.806C343.955 154.929 317.878 16.273 141.064 33.448Z" fill="#E8B4B5"/>
<path fill-rule="evenodd" clip-rule="evenodd" d="M271.525 209.124C292.243 220.96 322.471 204.158 304.119 193.862C283.126 182.066 250.385 197.042 271.525 209.124Z" fill="#EF99B0"/>
<path fill-rule="evenodd" clip-rule="evenodd" d="M33.5882 194.697C56.6027 205.532 90.1479 190.153 69.793 180.731C46.4743 169.945 10.1124 183.646 33.5882 194.697Z" fill="#EF99B0"/>
<path d="M169.958 238.851C196.739 238.851 218.45 222.356 218.45 202.008C218.45 181.661 196.739 165.165 169.958 165.165C143.176 165.165 121.465 181.661 121.465 202.008C121.465 222.356 143.176 238.851 169.958 238.851Z" fill="#CC8787"/>
<path d="M149.22 219.88C155.264 219.88 160.163 212.292 160.163 202.931C160.163 193.57 155.264 185.982 149.22 185.982C143.176 185.982 138.277 193.57 138.277 202.931C138.277 212.292 143.176 219.88 149.22 219.88Z" fill="#694E4E"/>
<path d="M189.488 218.957C195.532 218.957 200.431 211.369 200.431 202.008C200.431 192.647 195.532 185.059 189.488 185.059C183.444 185.059 178.545 192.647 178.545 202.008C178.545 211.369 183.444 218.957 189.488 218.957Z" fill="#694E4E"/>
<path d="M279.946 41.2405C275.677 39.9253 247.147 49.5139 246.146 43.1641C230.306 44.8619 161.537 38.7869 151.566 36.667C146.197 35.5187 138.787 32.7904 132.742 30.3466C133.066 30.6607 133.282 30.8668 133.282 30.8668C133.282 30.8668 113.408 27.1766 99.3438 26.6466C85.2799 26.1167 88.6168 33.3302 96.7037 44.4105C104.791 55.4908 112.004 51.2707 115.871 45.2938C119.738 39.3169 129.061 41.9569 129.591 45.2938C130.121 48.6306 127.658 53.3807 138.562 53.2041C149.465 53.0274 155.442 48.454 158.789 48.2773C162.126 48.1006 166.179 65.1579 178.133 63.7544C190.087 62.351 189.566 54.6075 198.88 52.3208C208.204 50.0341 203.984 63.2244 222.444 62.8711C240.905 62.5178 234.928 54.7842 241.435 53.3709C247.942 51.9675 250.052 63.2146 261.662 57.9444C273.272 52.6643 284.52 42.6439 279.956 41.2405H279.946Z" fill="#EEFEFF"/>
<path d="M246.156 43.1641C246.087 42.7224 246.146 42.2023 246.362 41.5938C249.699 32.2702 263.419 22.0732 254.449 15.3897C245.478 8.70613 188.026 6.24275 183.756 5.54593C152.429 0.38362 112.181 -3.78745 114.291 5.53612C116.185 13.8979 129.935 27.6084 132.752 30.3368C138.807 32.7806 146.207 35.5089 151.575 36.6572C161.547 38.7869 230.315 44.8521 246.156 43.1543V43.1641Z" fill="#B3DBDD"/>
<path d="M194.837 251.001C201.363 248.842 205.593 248.351 208.282 248.479C210.402 242.767 208.969 241.511 206.663 242.021C204.052 242.6 188.605 246.143 175.63 245.78C162.656 245.417 156.846 242.296 154.912 244.102C151.065 247.694 158.818 261.453 167.465 267.568C172.656 260.099 183.737 254.681 194.837 251.001Z" fill="#AF300F"/>
<path d="M193.894 270.973C199.587 268.215 203.817 258.695 207.291 250.893C207.683 250 208.007 249.205 208.282 248.469C205.593 248.341 201.363 248.832 194.837 250.991C183.737 254.672 172.656 260.089 167.465 267.558C168.682 268.421 169.918 269.128 171.135 269.638C181.038 273.741 188.202 273.731 193.894 270.973Z" fill="#E38072"/>
<path fill-rule="evenodd" clip-rule="evenodd" d="M288.681 101.952C280.064 80.3798 249.286 87.2203 257.079 97.4664C270.466 115.044 290.997 107.762 288.681 101.952Z" fill="#694E4E"/>
<path fill-rule="evenodd" clip-rule="evenodd" d="M100.855 93.6977C87.547 106.044 68.3993 92.9224 80.1765 82.1659C93.6711 69.8392 114.438 81.106 100.855 93.6977Z" fill="#765858"/>
<path fill-rule="evenodd" clip-rule="evenodd" d="M80.0783 121.345C80.0783 121.345 75.0632 125.388 73.4537 122.817C70.8234 118.577 72.698 107.732 73.1789 109.273C73.6696 110.833 79.1852 116.271 80.0685 121.345H80.0783ZM89.7061 116.231C89.657 111.079 85.0934 104.817 84.8579 103.198C84.6419 101.588 81.0205 111.992 82.9244 116.604C84.0825 119.401 89.6963 116.231 89.6963 116.231H89.7061ZM72.2858 126.585C70.4014 121.786 63.9044 117.576 63.1192 116.153C62.3341 114.73 62.6776 125.741 66.1028 129.353C68.1932 131.551 72.2858 126.585 72.2858 126.585Z" fill="#765858"/>
<path fill-rule="evenodd" clip-rule="evenodd" d="M72.4331 168.777C103.358 202.224 148.425 154.762 121.082 125.683C89.7455 92.3728 40.89 134.653 72.4331 168.777Z" fill="white"/>
<path fill-rule="evenodd" clip-rule="evenodd" d="M85.8393 155.243C107.882 179.082 140.004 145.262 120.503 124.524C98.1758 100.784 63.345 130.923 85.8393 155.243Z" fill="#765858"/>
<path fill-rule="evenodd" clip-rule="evenodd" d="M102.612 138.873C110.218 147.107 121.318 135.428 114.585 128.264C106.871 120.069 94.8489 130.482 102.612 138.873Z" fill="white"/>
<path fill-rule="evenodd" clip-rule="evenodd" d="M264.557 135.389C264.557 135.389 269.572 139.432 271.172 136.851C273.802 132.611 271.918 121.767 271.437 123.317C270.956 124.868 265.431 130.305 264.548 135.389H264.557ZM254.93 130.276C254.969 125.133 259.542 118.862 259.758 117.242C259.984 115.633 263.605 126.036 261.692 130.649C260.534 133.455 254.92 130.285 254.92 130.276H254.93ZM272.34 140.63C274.234 135.84 280.741 131.63 281.526 130.197C282.311 128.774 281.968 139.786 278.533 143.397C276.452 145.596 272.34 140.62 272.34 140.62V140.63Z" fill="#765858"/>
<path fill-rule="evenodd" clip-rule="evenodd" d="M223.897 182.164C254.812 215.611 299.889 168.149 272.527 139.059C241.19 105.75 192.334 148.03 223.897 182.164Z" fill="white"/>
<path fill-rule="evenodd" clip-rule="evenodd" d="M237.303 168.63C259.346 192.479 291.468 158.649 271.967 137.911C249.63 114.17 214.809 144.31 237.303 168.63Z" fill="#765858"/>
<path fill-rule="evenodd" clip-rule="evenodd" d="M254.066 152.26C261.672 160.494 272.782 148.805 266.039 141.65C258.325 133.446 246.303 143.859 254.066 152.26Z" fill="white"/>
</svg>
