<svg width="250" height="361" viewBox="0 0 250 361" fill="none" xmlns="http://www.w3.org/2000/svg">
<path d="M79.3595 313.865C79.3595 313.865 79.8888 337.406 68.2108 341.117C56.5329 344.836 60.4234 357.4 77.5929 356.335C94.7624 355.276 94.9345 355.098 106.262 341.468C117.589 327.838 122.187 322.175 122.187 322.175L79.3595 313.858V313.865Z" fill="#DCABAD"/>
<path d="M151.458 323.081C151.458 323.081 169.686 337.981 164.909 349.275C160.139 360.563 172.214 365.777 182.569 352.048C192.923 338.319 192.903 338.067 189.919 320.6C186.935 303.133 185.625 295.955 185.625 295.955L151.452 323.081H151.458Z" fill="#DCABAD"/>
<path fill-rule="evenodd" clip-rule="evenodd" d="M76.1771 182.756C57.1087 194.302 33.5609 260.868 46.3041 287.717C71.2942 340.35 154.231 337.445 186.671 313.924C235.976 278.17 202.762 227.158 175.092 192.469C156.13 168.703 160.219 162.451 122.809 166.745C66.1136 173.255 99.3014 168.743 76.1705 182.756H76.1771Z" fill="#DCABAD"/>
<path fill-rule="evenodd" clip-rule="evenodd" d="M93.3729 231.452C75.416 250.944 72.3327 272.857 78.3206 285.878C93.4655 318.801 146.675 317.53 172.392 300.249C192.467 286.764 180.021 249.918 170.56 238.062C151.557 214.25 114.267 208.771 93.3729 231.452Z" fill="#CC8787"/>
<path d="M170.944 184.212C170.944 184.212 212.058 204.021 224.272 210.624C236.479 217.227 240.846 228.19 239.35 235.541C237.855 242.892 212.435 241.522 191.759 232.299C171.076 223.076 152.014 220.568 152.51 212.232C153.007 203.895 162.819 180.275 170.95 184.212H170.944Z" fill="#DCABAD"/>
<path d="M69.693 185.859C69.693 185.859 28.5788 205.668 16.3649 212.272C4.15765 218.875 -0.202556 229.838 1.29275 237.189C2.78805 244.539 28.2082 243.17 48.8845 233.947C69.5673 224.723 88.6291 222.216 88.1329 213.879C87.6367 205.543 77.8246 181.923 69.693 185.859Z" fill="#DCABAD"/>
<path d="M96.2907 19.6774C52.7217 23.9118 15.2465 75.1882 13.1028 113.464C10.9591 151.739 29.8224 180.897 98.8578 186.898C167.893 192.899 220.202 170.179 226.634 135.873C233.065 101.574 215.485 8.09885 96.2841 19.6774H96.2907Z" fill="#E8B4B5"/>
<path fill-rule="evenodd" clip-rule="evenodd" d="M185.096 42.2919C187.59 2.25003 231.708 3.44097 238.609 5.24722C245.093 21.6755 237.207 57.6947 197.581 59.9575C196.681 60.0104 185.05 42.9866 185.096 42.2919Z" fill="#E8B4B5"/>
<path fill-rule="evenodd" clip-rule="evenodd" d="M194.425 42.5961C204.224 21.7018 226.31 9.85865 233.799 14.0865C236.201 20.5109 215.889 53.083 199.93 53.9299C199.189 53.9762 194.18 43.1188 194.425 42.5961Z" fill="#D18C8C"/>
<path fill-rule="evenodd" clip-rule="evenodd" d="M55.5405 40.9686C53.0461 0.926689 8.92797 2.11763 2.02707 3.91726C-4.457 20.3456 3.42974 56.3647 43.0553 58.6275C43.9552 58.6804 55.5868 41.6567 55.5405 40.962V40.9686Z" fill="#E8B4B5"/>
<path fill-rule="evenodd" clip-rule="evenodd" d="M46.2115 41.273C36.4126 20.372 14.3337 8.53547 6.83737 12.7633C4.43562 19.1877 24.7479 51.7598 40.7067 52.6067C41.4477 52.653 46.4563 41.7957 46.2115 41.273Z" fill="#D18C8C"/>
<path d="M127.13 168.551C131.53 167.095 134.381 166.765 136.194 166.851C137.623 163 136.657 162.153 135.102 162.497C133.342 162.887 122.928 165.276 114.181 165.031C105.434 164.786 101.518 162.682 100.214 163.9C97.6205 166.321 102.847 175.597 108.676 179.719C112.177 174.684 119.646 171.032 127.13 168.551Z" fill="#AF300F"/>
<path d="M126.494 182.022C130.332 180.163 133.184 173.745 135.526 168.485C135.79 167.883 136.009 167.347 136.194 166.851C134.381 166.764 131.53 167.095 127.13 168.551C119.646 171.032 112.177 174.684 108.677 179.719C109.497 180.301 110.331 180.778 111.151 181.122C117.827 183.888 122.657 183.881 126.494 182.022Z" fill="#E38072"/>
<path fill-rule="evenodd" clip-rule="evenodd" d="M182.251 146.254C198.825 157.68 222.995 141.464 208.319 131.526C191.527 120.146 165.339 134.596 182.251 146.254Z" fill="#EF99B0"/>
<path fill-rule="evenodd" clip-rule="evenodd" d="M24.9327 143.118C41.5068 154.544 65.6765 138.328 51.0013 128.39C34.2089 117.01 8.02123 131.46 24.9327 143.118Z" fill="#EF99B0"/>
<path fill-rule="evenodd" clip-rule="evenodd" d="M195.662 67.2023C189.853 52.6596 169.104 57.2712 174.357 64.1786C183.382 76.0284 197.224 71.1191 195.662 67.2023Z" fill="#694E4E"/>
<path fill-rule="evenodd" clip-rule="evenodd" d="M68.1112 62.9017C59.1394 71.225 46.2308 62.379 54.1705 55.1276C63.268 46.8175 77.2683 54.413 68.1112 62.9017Z" fill="#765858"/>
<path d="M114.579 160.479C132.634 160.479 147.27 149.359 147.27 135.641C147.27 121.924 132.634 110.804 114.579 110.804C96.5235 110.804 81.887 121.924 81.887 135.641C81.887 149.359 96.5235 160.479 114.579 160.479Z" fill="#CC8787"/>
<path d="M100.598 147.696C104.672 147.696 107.975 142.581 107.975 136.27C107.975 129.959 104.672 124.844 100.598 124.844C96.5236 124.844 93.2207 129.959 93.2207 136.27C93.2207 142.581 96.5236 147.696 100.598 147.696Z" fill="#694E4E"/>
<path d="M127.745 147.068C131.819 147.068 135.122 141.952 135.122 135.641C135.122 129.331 131.819 124.215 127.745 124.215C123.671 124.215 120.368 129.331 120.368 135.641C120.368 141.952 123.671 147.068 127.745 147.068Z" fill="#694E4E"/>
<path d="M91.977 17.4675C93.0422 17.3748 94.1604 16.9646 95.3447 16.3295C98.6132 17.9968 105.375 20.1934 115.558 24.1433C124.278 27.5243 133.151 29.7076 140.012 31.064C136.525 31.1897 130.994 31.2426 120.891 31.322C91.5271 31.5602 75.4426 32.4468 74.6817 26.2208C73.9274 19.9949 85.8171 17.9968 91.977 17.4675Z" fill="#F2645D"/>
<path d="M120.103 0.542991C120.289 0.470211 120.494 0.410664 120.705 0.351118C128.678 -1.7661 154.972 6.10069 162.342 12.975C163.262 13.8352 163.891 14.682 164.149 15.4826C166.511 22.9127 169.323 26.4922 155.157 28.8012C145.868 30.3098 146.648 30.8258 140.005 31.064C133.144 29.7077 124.272 27.5309 115.551 24.1434C105.362 20.1934 98.6066 17.9968 95.3381 16.3295C100.995 13.2992 108.286 5.0487 120.103 0.542991Z" fill="#F59288"/>
<path fill-rule="evenodd" clip-rule="evenodd" d="M150.942 122.263C171.784 144.812 202.173 112.815 183.726 93.2044C162.6 70.7486 129.664 99.2517 150.942 122.263Z" fill="white"/>
<path fill-rule="evenodd" clip-rule="evenodd" d="M158.32 112.345C173.18 128.423 194.836 105.617 181.689 91.6363C166.63 75.6315 143.155 95.9501 158.32 112.345Z" fill="#765858"/>
<path fill-rule="evenodd" clip-rule="evenodd" d="M168.443 99.9331C173.57 105.484 181.06 97.6042 176.515 92.7809C171.314 87.2497 163.209 94.2696 168.443 99.9331Z" fill="white"/>
<path fill-rule="evenodd" clip-rule="evenodd" d="M48.8314 113.239C69.6797 135.787 100.062 103.79 81.6289 84.1863C60.5028 61.7306 27.5663 90.2336 48.8314 113.239Z" fill="white"/>
<path fill-rule="evenodd" clip-rule="evenodd" d="M56.5923 105.292C71.4527 121.363 93.1082 98.5636 79.9614 84.5833C64.9091 68.5785 41.4275 88.8972 56.5923 105.292Z" fill="#765858"/>
<path fill-rule="evenodd" clip-rule="evenodd" d="M67.2052 91.5636C72.3329 97.1146 79.816 89.2412 75.2772 84.4113C70.0767 78.8867 61.9716 85.9066 67.2052 91.5636Z" fill="white"/>
<path d="M246.397 284.164C245.232 290.972 235.328 291.634 235.328 291.634C235.328 291.634 235.983 290.278 237.703 285.448C239.423 280.618 236.737 269.463 222.545 273.28C208.353 277.098 221.572 292.799 221.572 292.799C221.572 292.799 221.334 293.222 216.729 293.189C212.124 293.156 204.231 287.479 204.231 287.479L203.801 296.153C203.801 296.153 206.705 298.515 214.632 300.368C222.558 302.22 230.776 296.146 230.776 296.146C230.776 296.146 240.297 296.662 245.411 291.634C250.532 286.606 250.327 283.205 249.646 279.864C248.964 276.522 247.555 277.349 246.39 284.158L246.397 284.164ZM228.758 289.987C225.476 290.728 219.382 281.723 223.021 279.864C226.667 278.004 230.266 277.422 231.239 282.563C232.211 287.704 231.312 289.411 228.758 289.987Z" fill="#DCABAD"/>
<path d="M54.2302 267.809C49.5789 268.464 42.6714 268.629 43.6506 262.635C44.5571 257.123 47.0448 239.544 48.163 236.639C47.2235 237.096 46.317 237.46 43.2536 238.77C33.2629 243.024 33.8319 237.189 30.881 227.443C27.9367 217.697 21.3865 207.554 28.9159 202.638C36.4454 197.729 69.2759 182.75 69.2759 182.75C75.052 180.672 78.2941 182.683 88.9663 184.562C99.579 186.435 84.5135 206.998 126.753 206.998C158.194 206.998 153.337 185.184 160.47 183.319C168.416 181.234 167.516 179.534 174.404 180.328C184.355 178.899 227.256 201.725 225.648 207.984C224.014 214.369 217.086 236.322 215.121 240.252C214.506 241.482 207.221 238.704 206.103 238.869C189.628 233.854 194.683 233.854 194.683 233.854C194.683 233.854 207.089 258.691 196.046 260.233C185.01 261.775 54.217 267.802 54.217 267.802L54.2302 267.809Z" fill="#91C8EC"/>
<path d="M126.329 220.132C96.8729 221.991 73.1333 218.471 63.0168 218.253C52.907 218.034 49.387 223.969 46.5288 233.424C43.6705 242.879 39.6543 259.353 44.2726 282.001C48.8908 304.642 74.139 331.577 123.974 330.756C173.808 329.936 195.126 314.09 204.998 297.086C214.87 280.082 213.189 262.053 210.112 244.242C207.036 226.437 193.373 216.03 175.787 217.035C158.2 218.041 126.322 220.138 126.322 220.138L126.329 220.132Z" fill="#3A71B9"/>
<path d="M84.5334 183.504C70.983 179.752 74.0133 182.022 71.3205 195.261C68.6276 208.507 63.4734 226.516 71.3205 226.669C79.1675 226.814 83.7791 230.936 86.8094 215.745C89.8398 200.554 92.7642 185.025 89.7008 184.37C86.6308 183.715 84.5334 183.497 84.5334 183.497V183.504Z" fill="#3A71B9"/>
<path d="M75.5352 307.857C75.5352 307.857 68.7931 325.827 68.8989 330.326C69.0048 334.825 103.8 344.267 110 344.267C116.2 344.267 123.755 327.812 124.834 320.263C125.912 312.714 75.5352 307.857 75.5352 307.857Z" fill="#3A71B9"/>
<path d="M164.221 312.211C151.068 316.617 147.7 318.701 149.149 323.187C150.592 327.68 156.044 339.543 158.452 339.384C160.86 339.225 173.643 333.925 181.603 330.32C189.562 326.714 194.438 327.514 193.281 321.904C192.129 316.293 190.039 304.265 183.144 306.508C176.25 308.75 164.221 312.204 164.221 312.204V312.211Z" fill="#3A71B9"/>
<path d="M75.2175 209.314C74.7411 209.407 74.2846 209.546 73.8479 209.711C77.5663 209.691 80.8877 212.311 81.6023 216.096C82.3169 219.88 80.193 223.539 76.7194 224.876C77.1892 224.876 77.6656 224.836 78.1419 224.743C82.4029 223.936 85.2016 219.827 84.3944 215.566C83.5872 211.305 79.4785 208.507 75.2175 209.314Z" fill="#CBA270"/>
<path d="M81.6022 216.096C80.8876 212.311 77.5662 209.691 73.8478 209.711C70.3808 211.047 68.2503 214.706 68.9649 218.491C69.6795 222.275 73.0009 224.895 76.7193 224.876C80.1863 223.539 82.3168 219.88 81.6022 216.096Z" fill="#E2DF90"/>
<path d="M165.803 180.857C179.353 177.516 175.026 179.852 177.719 191.635C180.412 203.419 193.453 227.29 173.756 220.132C166.378 217.452 165.26 223.38 162.23 209.863C159.2 196.346 156.996 183.001 160.066 182.419C163.136 181.836 165.803 180.857 165.803 180.857Z" fill="#3A71B9"/>
<path d="M172.194 209.248C171.718 209.34 171.261 209.479 170.825 209.645C174.543 209.625 177.864 212.245 178.579 216.029C179.294 219.814 177.17 223.473 173.696 224.809C174.166 224.809 174.642 224.77 175.119 224.677C179.38 223.87 182.178 219.761 181.371 215.5C180.564 211.239 176.455 208.441 172.194 209.248Z" fill="#CBA270"/>
<path d="M178.573 216.03C177.858 212.245 174.537 209.625 170.818 209.645C167.351 210.981 165.221 214.64 165.935 218.425C166.65 222.209 169.971 224.829 173.69 224.809C177.157 223.473 179.287 219.814 178.573 216.03Z" fill="#E2DF90"/>
<path d="M92.9098 227.694C93.0024 227.092 98.9241 227.463 126.574 227.463C143.433 227.463 152.212 227.105 156.513 226.827C158.644 226.688 160.384 228.475 160.218 230.605C159.656 237.804 155.527 251.996 131.761 252.426C99.8834 253.002 90.4154 244.208 92.9098 227.694Z" stroke="#84AAD6" stroke-width="5" stroke-miterlimit="10"/>
</svg>
