<svg width="912" height="812" viewBox="0 0 912 812" fill="none" xmlns="http://www.w3.org/2000/svg">
<path fill-rule="evenodd" clip-rule="evenodd" d="M339.131 507.665C335.954 512.225 351.032 522.196 351.032 522.196L362.189 513.426C362.189 513.426 344.77 499.594 339.131 507.665Z" fill="#C3C3C3"/>
<path fill-rule="evenodd" clip-rule="evenodd" d="M326.982 524.415C324.52 529.401 340.936 536.985 340.936 536.985L350.649 526.634C350.649 526.634 331.345 515.584 326.982 524.43V524.415Z" fill="#C3C3C3"/>
<path fill-rule="evenodd" clip-rule="evenodd" d="M324.186 553.858C324.824 559.391 342.729 556.822 342.729 556.822L345.253 542.853C345.253 542.853 323.046 544.069 324.186 553.843V553.858Z" fill="#C3C3C3"/>
<path fill-rule="evenodd" clip-rule="evenodd" d="M553.476 489.972C537.774 465.804 528.472 479.271 499.196 496.949C480.774 508.075 476.731 517.454 462.124 521.01C454.584 521.983 446.772 522.485 438.852 522.257C433.578 521.938 427.513 521.329 420.445 520.387C415.079 519.429 409.744 518.092 404.5 516.283C359.752 500.855 343.472 514.125 336.845 549.754C332.118 575.183 394.636 581.993 447.015 573.572C447.015 573.572 485.775 570.745 522.057 553.052C558.339 535.359 569.922 515.31 553.46 489.972H553.476Z" fill="#929497"/>
<path d="M650.148 363.842C622.864 349.843 614.671 362.626 562.125 374.3C485.319 391.37 470.545 385.487 470.545 385.487C470.545 385.487 439.689 591.082 452.715 679.835C457.99 715.829 464.009 740.498 474.39 756.945C478.084 762.797 482.325 767.646 487.295 771.537C496.75 778.939 508.834 783.043 524.642 784.761C529.536 785.293 534.75 785.612 540.389 785.718C546.378 785.825 552.807 785.718 559.738 785.399C586.034 784.214 610.202 784.244 630.586 779.912C654.298 774.866 672.872 763.846 683.77 738.173C684.88 735.558 685.944 732.838 686.886 729.904C688.665 724.386 690.139 718.261 691.325 711.542C693.498 699.17 694.638 684.684 694.578 667.614C694.213 546.349 677.432 377.826 650.163 363.842H650.148Z" fill="#808184"/>
<path d="M720.131 260.026C719.067 255.147 717.608 250.632 715.83 246.422C673.513 262.443 618.854 284.65 594.959 291.171C556.914 301.552 441.181 340.403 358.797 354.828C352.413 355.938 346.226 356.926 340.298 357.716L327.895 360.224C327.895 360.224 276.641 388.572 281.505 421.207C281.687 422.468 282.143 423.563 282.782 424.535C283.633 425.843 284.894 426.907 286.49 427.758C290.914 430.099 300.778 433.488 309.777 432.941C345.193 431.801 360.758 428.563 379.408 421.891C414.535 413.044 423.944 410.688 451.821 406.904C485.033 402.389 533.247 410.658 570.168 413.713C576.43 414.23 582.769 414.199 589.183 413.333C633.461 407.39 642.049 389.545 651.959 358.476C661.87 327.423 731.85 313.545 720.101 260.011L720.131 260.026Z" fill="#EFEFEF"/>
<path d="M842.257 513.775C808.041 479.56 734.109 481.764 760.587 500.536C787.081 519.293 795.897 593.788 781.563 639.038C781.137 640.376 780.651 641.698 780.134 643.021C796.915 633.779 813.468 619.795 816.341 599.883C822.466 557.369 823.181 589.441 823.91 602.406C824.625 615.372 823.91 630.146 823.91 630.146C823.91 630.146 841.922 625.465 840.478 602.756C839.034 580.062 842.637 571.778 847.318 591.584C852 611.405 858.125 626.893 849.841 652.84C841.557 678.786 870.012 625.449 870.741 612.119C871.456 598.789 880.135 622.303 877.946 650.317C877.217 659.634 876.335 669.621 875.484 678.832C897.585 626.62 871.714 543.233 842.272 513.775H842.257Z" fill="#D0D2D3"/>
<path d="M870.729 612.119C870.014 625.45 841.545 678.771 849.829 652.84C858.113 626.894 851.987 611.405 847.305 591.584C842.624 571.763 839.021 580.047 840.465 602.756C841.909 625.45 823.897 630.146 823.897 630.146C823.897 630.146 824.612 615.372 823.897 602.406C823.183 589.441 822.453 557.369 816.328 599.883C813.455 619.795 796.902 633.779 780.121 643.021C762.976 685.87 694.925 711.33 694.925 711.33C694.925 711.33 693.527 711.39 691.308 711.558C690.122 718.276 688.648 724.402 686.869 729.919C685.927 732.853 684.863 735.574 683.753 738.188C684.893 738.614 685.973 739.039 687.189 739.48C756.166 764.317 815.75 747.764 860.833 701.404C867.111 694.944 871.884 687.298 875.471 678.847C876.322 669.636 877.204 659.634 877.933 650.332C880.122 622.334 871.443 598.804 870.729 612.134V612.119Z" fill="#929497"/>
<path fill-rule="evenodd" clip-rule="evenodd" d="M578.404 681.628C581.338 685.307 593.072 675.457 593.072 675.457L588.634 664.285C588.634 664.285 573.206 675.108 578.404 681.628Z" fill="#C3C3C3"/>
<path fill-rule="evenodd" clip-rule="evenodd" d="M589.087 695.536C592.553 698.744 602.661 687.222 602.661 687.222L596.581 676.84C596.581 676.84 582.962 689.867 589.087 695.536Z" fill="#C3C3C3"/>
<path fill-rule="evenodd" clip-rule="evenodd" d="M612.328 704.9C616.979 705.705 619.213 690.551 619.213 690.551L608.467 685.14C608.467 685.14 604.105 703.471 612.328 704.9Z" fill="#C3C3C3"/>
<path d="M648.631 481.414C613.2 485.503 638.751 526.528 604.809 599.989C570.868 673.451 597.939 689.776 614.689 691.934C631.44 694.077 657.219 668.298 663.664 599.138C670.109 529.963 670.975 478.845 648.631 481.414Z" fill="#929497"/>
<path d="M474.39 756.945C468.629 779.623 461.668 805.585 456.348 820.694C446.27 849.315 417.056 822.958 394.484 833.75C392.569 834.662 390.699 835.818 388.905 837.307C387.902 838.143 387.005 839.025 386.154 839.937C385.394 840.758 384.695 841.594 384.072 842.445C382.035 845.257 380.728 848.236 380.181 851.306C379.892 852.918 379.801 854.544 379.937 856.186C380.165 859.134 381.062 862.083 382.628 864.941C390.091 878.575 412.709 889.93 449.781 887.589C512.299 883.652 507.055 882.345 512.299 846.929C514.564 831.592 519.625 807.348 524.626 784.761C508.818 783.043 496.734 778.954 487.28 771.537C482.309 767.646 478.069 762.797 474.375 756.945H474.39Z" fill="#929497"/>
<path d="M686.885 729.903C676.641 761.611 656.713 774.363 630.585 779.911C628.806 785.961 627.195 792.33 625.918 798.835C619.002 834.236 616.038 821.878 604.653 827.898C603.544 828.475 602.237 829.205 600.823 830.056C598.345 831.531 595.533 833.385 592.767 835.513C591.901 836.182 591.049 836.866 590.213 837.58C587.705 839.708 585.365 842.049 583.48 844.542C582.233 846.183 581.215 847.886 580.455 849.619C579.148 852.659 578.737 855.835 579.695 859.058C580.941 863.298 584.559 867.585 591.673 871.674C621.556 888.85 658.568 882.694 671.077 863.663C683.572 844.648 666.396 838.994 673.099 799.185C678.51 767.037 688.36 740.467 686.885 729.903Z" fill="#929497"/>
<path d="M740.602 174.815C734.324 167.352 728.046 160.406 721.617 153.991C715.491 147.881 709.244 142.272 702.738 137.195C682.735 121.57 660.406 111.021 632.438 106.628C627.042 105.777 621.434 105.154 615.597 104.774C610.854 104.47 605.975 104.287 600.898 104.302C564.738 92.9176 523.059 93.7992 488.844 101.065C480.651 102.813 472.914 104.926 465.755 107.312C456.042 110.55 447.409 114.289 440.386 118.362C416.097 132.468 407.038 144.37 396.595 153.505C393.874 155.876 391.062 158.08 387.855 160.071C382.915 163.142 377.063 165.756 369.19 167.854C336.631 176.533 341.404 176.974 347.925 180.439C352.257 182.75 361.924 182.947 364.766 186.139C363.505 188.662 362.684 191.292 362.198 193.952C355.008 201.415 337.133 218.074 327.906 229.307C417.526 225.69 526.069 220.248 573.341 205.854C620.598 191.459 705.505 193.283 720.127 260.026C731.877 313.561 661.896 327.438 651.986 358.492C642.075 389.546 633.487 407.39 589.21 413.349C582.795 414.215 576.457 414.246 570.194 413.729C577.202 419.246 583.358 427.895 582.37 441.165C580.196 470.455 582.81 471.322 592.782 453.522C602.768 435.723 604.075 420.523 604.075 420.523C604.075 420.523 628.38 443.536 610.581 467.841C592.782 492.146 636.193 470.045 640.099 441.165L644.006 412.27C644.006 412.27 655.299 417.088 660.498 441.165C665.711 465.242 659.19 481.308 669.177 478.268C679.163 475.228 691.323 443.536 691.749 423.563C692.19 403.59 687.402 392.738 687.402 392.738C687.402 392.738 722.134 407.056 720.826 437.456C719.519 467.841 728.639 454.586 736.893 442.761C745.146 430.935 763.371 364.511 757.291 343.246C751.211 321.982 766.837 357.58 768.585 364.952C770.318 372.339 775.212 395.337 777.538 394.47C779.863 393.604 789.85 348.019 784.651 322.833C780.502 302.754 772.476 282.948 769.406 275.758C770.88 275.5 772.78 276.214 774.832 277.567C775.79 278.282 776.808 279.057 777.872 279.908C784.742 286.003 792.251 297.555 793.163 306.356C794.045 314.959 796.963 321.176 799.988 310.901C802.146 306.341 805.247 292.296 804.198 283.328C804.274 282.553 804.335 281.808 804.411 281.002C808.424 235.098 740.617 174.83 740.617 174.83L740.602 174.815Z" fill="#A6A8AB"/>
<path fill-rule="evenodd" clip-rule="evenodd" d="M429.81 213.195C428.928 226.297 411.752 236.664 389.819 244.294C367.885 251.94 362.626 235.25 359.601 227.027C356.576 218.804 353.886 192.249 365.179 193.693C376.473 195.137 394.713 200.777 409.381 204.318C424.049 207.86 430.403 204.379 429.81 213.18V213.195Z" fill="white"/>
<path fill-rule="evenodd" clip-rule="evenodd" d="M379.526 233.335C400.046 246.27 415.656 215.095 397.553 203.923C376.835 191.125 358.565 220.142 379.526 233.335Z" fill="#1D1D1B"/>
<path fill-rule="evenodd" clip-rule="evenodd" d="M391.474 217.572C398.558 222.041 403.954 211.279 397.706 207.418C390.547 202.995 384.239 213.027 391.474 217.572Z" fill="white"/>
<path d="M573.33 205.853C526.073 220.248 417.53 225.689 327.911 229.307C238.292 232.924 174.71 197.539 127.529 224.808C80.3484 252.092 47.9724 290.411 91.5812 331.39C129.429 366.943 181.55 359.708 195.169 361.486C227.469 362.368 276.535 361.121 282.402 361.547C304.883 360.179 319.049 360.574 340.299 357.716C422.789 346.605 553.965 302.358 594.96 291.171C618.839 284.65 673.498 262.443 715.83 246.422C693.288 193.116 617.152 192.523 573.345 205.853H573.33Z" fill="#D0D2D3"/>
<path d="M621.281 105.518C591.884 80.1948 576.973 50.3572 564.22 52.6372C561.834 53.0628 566.303 58.5956 570.954 68.5668C577.399 82.3988 577.004 83.8732 576.578 83.6452C573.736 82.1556 576.973 72.3212 545.95 61.9548C514.942 51.5884 503.785 57.0908 503.603 59.8268C503.42 62.5628 518.028 63.566 529.321 73.1572C540.6 82.7484 544.612 86.746 545.129 87.9468C545.646 89.1628 521.964 74.7988 505.108 75.0116C488.251 75.2244 459.492 91.838 459.234 95.7444C459.234 95.7444 455.069 98.0092 468.567 96.0028C478.857 94.4676 484.42 100.624 486.609 103.208L624.899 108.512C623.668 107.54 622.467 106.552 621.296 105.548L621.281 105.518Z" fill="#A6A8AB"/>
<path fill-rule="evenodd" clip-rule="evenodd" d="M121.476 260.421C119.075 242.668 107.705 237.88 74.5235 239.384C41.342 240.889 22.4332 244.02 29.8204 271.32C37.2076 298.619 54.2316 311.265 76.8947 307.252C99.5579 303.24 123.969 278.95 121.476 260.421Z" fill="#58595B"/>
<path d="M465.755 107.312C453.427 88.1601 435.172 67.1233 425.551 60.0249C404.803 67.0625 389.314 119.837 396.595 153.505C407.037 144.37 416.096 132.468 440.386 118.363C447.408 114.289 456.042 110.55 465.755 107.312Z" fill="#929497"/>
<path d="M693.511 60.04C702.494 75.2856 705.443 114.046 702.738 137.195C709.228 142.272 715.49 147.881 721.616 153.991C728.851 122.406 725.158 50.3728 709.684 24.1528C708.909 22.8456 616.037 52.4704 615.596 104.774C621.433 105.154 627.042 105.777 632.438 106.628C639.551 76.2432 693.04 59.2496 693.511 60.04ZM716.144 123.394C715.673 123.515 715.232 123.622 714.791 123.713C715.232 123.622 715.673 123.515 716.144 123.394Z" fill="#A6A8AB"/>
<path d="M693.51 60.0401C693.039 59.2345 639.55 76.2433 632.437 106.628C660.405 111.021 682.734 121.585 702.737 137.195C705.458 114.046 702.509 75.2857 693.51 60.0401Z" fill="#E6E7E8"/>
<path fill-rule="evenodd" clip-rule="evenodd" d="M591.082 155.131C583.178 153.398 562.415 142.439 536.636 142.074C503.773 141.633 466.929 153.717 483.527 173.143C490.063 180.789 566.58 157.958 584.835 156.803C585.747 156.742 592.709 155.481 591.082 155.116V155.131Z" fill="#58595B"/>
<path fill-rule="evenodd" clip-rule="evenodd" d="M374.561 178.129C378.969 176.882 391.266 168.279 405.006 168.583C422.547 168.963 440.757 179.831 429.706 195.517C425.359 201.689 387.268 181.032 377.692 179.664C377.221 179.603 373.664 178.387 374.561 178.129Z" fill="#58595B"/>
<path fill-rule="evenodd" clip-rule="evenodd" d="M520.61 200.381C481.333 213.043 470.845 214.502 469.066 221.798C467.288 229.094 481.652 247.927 515.153 254.053C548.654 260.178 563.565 254.341 578.765 243.945C593.965 233.548 586.198 194.56 581.273 185.105C576.348 175.666 552.089 190.228 520.61 200.381Z" fill="white"/>
<path fill-rule="evenodd" clip-rule="evenodd" d="M507.506 241.831C529.698 265.847 562.074 231.769 542.42 210.884C519.924 186.975 484.843 217.329 507.506 241.831Z" fill="#1D1D1B"/>
<path fill-rule="evenodd" clip-rule="evenodd" d="M525.899 226.677C533.559 234.976 544.747 223.212 537.952 215.992C530.185 207.738 518.071 218.211 525.899 226.677Z" fill="white"/>
<path d="M622.637 250.268C618.883 250.085 611.222 262.26 609.58 272.505C607.939 282.735 612.408 289.438 623.108 296.734C633.809 304.03 643.932 303.559 644.16 302.844L644.388 302.145C644.388 302.145 625.206 296.962 620.98 280.728C616.74 264.495 621.68 256.028 623.458 254.265C625.236 252.502 624.993 250.389 622.637 250.268Z" fill="#58595B"/>
<path d="M342.167 369.39C329.156 375.653 317.498 382.873 310.825 390.761C297.251 406.797 311.174 414.975 341.468 411.449C314.184 406.706 326.39 386.277 342.167 369.405V369.39Z" fill="#8C1D0E"/>
<path d="M524.989 312.147C489.193 321.328 422.906 342 404.408 347.047C392.597 350.269 365.222 358.31 342.164 369.391C326.401 386.263 314.196 406.707 341.465 411.434C352.439 410.157 365.557 407.345 380.301 402.8C382.52 402.116 384.754 401.402 387.004 400.657C385.803 395.094 383.371 381.201 387.749 377.006C388.281 376.504 388.889 376.124 389.633 375.942C398.89 373.51 407.904 386.84 410.974 392.069C458.489 373.692 507.661 347.472 531.708 332.759C561.013 314.823 616.797 288.77 616.797 288.77V281.899C616.797 281.899 554.189 304.654 524.974 312.147H524.989Z" fill="#A0260E"/>
<path d="M329.836 361.806C363.231 357.048 425.459 348.171 448.366 339.568C471.272 330.95 539.824 310.11 553.778 304.942C567.731 299.774 579.268 296.157 594.939 291.171C610.611 286.17 620.521 287.143 620.521 287.143C620.521 287.143 617.496 280.379 616.812 280.197C616.128 280.014 602.175 280.835 581.503 288.754C560.831 296.674 495.866 318.455 470.755 326.739C445.645 335.008 385.331 347.077 332.086 358.218C327.815 359.115 326.568 362.262 329.836 361.806Z" fill="#58595B"/>
<path d="M401.263 386.201C397.418 380.714 391.794 378.176 387.751 377.005C383.373 381.201 385.805 395.093 387.006 400.657C393.268 398.605 399.637 396.355 406.067 393.938C404.987 391.901 403.467 389.333 401.263 386.201Z" fill="white"/>
<path d="M389.639 375.942C388.91 376.139 388.287 376.504 387.755 377.006C391.798 378.176 397.407 380.714 401.267 386.202C403.471 389.333 404.991 391.902 406.071 393.939C407.712 393.331 409.339 392.692 410.98 392.069C407.91 386.84 398.896 373.525 389.639 375.942Z" fill="#D0D2D3"/>
<path d="M390.09 360.985C390.09 360.985 370.74 365.773 382.353 337.774C393.966 309.776 399.484 292.828 370.193 292.281C340.903 291.734 280.483 297.069 309.956 343.307C323.468 364.511 349.08 370.682 369.342 370.834C370.984 370.834 372.595 370.834 374.145 370.758C395.349 369.907 408.376 362.672 390.09 361V360.985Z" fill="#AF300F" stroke="#A0260E" stroke-width="2" stroke-miterlimit="10"/>
<path d="M370.542 358.279C354.081 350.314 345.082 331.953 349.11 314.047C349.536 312.147 346.602 311.326 346.177 313.241C341.86 332.409 351.284 352.336 369.007 360.909C370.755 361.76 372.305 359.13 370.542 358.279Z" fill="#A0260E"/>
<path d="M473.874 399.562C466.654 388.056 466.456 362.064 466.654 352.396C465.529 352.7 464.876 354.327 464.921 357.656C464.921 357.656 463.052 394.272 472.02 408.545C480.288 421.708 494.774 419.732 494.044 404.061C489.956 410.795 480.136 409.503 473.874 399.547V399.562Z" fill="#92D8EA"/>
<path d="M473.872 399.562C480.119 409.518 489.939 410.81 494.043 404.077C493.982 402.754 493.815 401.341 493.526 399.805C490.379 383.496 472.367 350.831 466.667 352.397C466.47 362.064 466.667 388.056 473.887 399.562H473.872Z" fill="white"/>
<path d="M418.559 440.556C417.829 426.998 430.293 404.183 435.172 395.823C434.048 395.549 432.695 396.644 431.099 399.577C431.099 399.577 411.673 430.676 412.57 447.503C413.406 463.022 427.025 468.342 433.987 454.282C427.132 458.188 419.182 452.276 418.559 440.541V440.556Z" fill="#92D8EA"/>
<path d="M418.562 440.557C419.185 452.291 427.135 458.189 433.99 454.298C434.583 453.112 435.13 451.79 435.616 450.315C440.784 434.538 440.921 397.237 435.176 395.823C430.296 404.183 417.832 426.983 418.562 440.557Z" fill="white"/>
</svg>
