<svg width="352" height="370" viewBox="0 0 352 370" fill="none" xmlns="http://www.w3.org/2000/svg">
<path fill-rule="evenodd" clip-rule="evenodd" d="M34.7167 0.791016C18.1481 0.791016 4.71667 14.2225 4.71667 30.791V287.547H347.627V30.791C347.627 14.2225 334.195 0.791016 317.627 0.791016H34.7167Z" fill="url(#paint0_radial_1195_4)"/>
<g filter="url(#filter0_d_1195_4)">
<path fill-rule="evenodd" clip-rule="evenodd" d="M347.627 287.548V331.174C347.627 347.743 334.195 361.174 317.627 361.174H34.7167C18.1481 361.174 4.71671 347.743 4.71671 331.174V287.548H347.627Z" fill="white"/>
<path d="M139.877 322.828C140.17 322.695 140.623 322.548 141.237 322.388C141.877 322.202 142.517 322.108 143.157 322.108C144.277 322.108 145.21 322.282 145.957 322.628C146.703 322.948 147.157 323.428 147.317 324.068C147.61 325.162 147.877 326.188 148.117 327.148C148.383 328.082 148.637 328.988 148.877 329.868C149.117 330.722 149.343 331.575 149.557 332.428C149.797 333.282 150.023 334.175 150.237 335.108H150.437C150.677 333.482 150.89 331.935 151.077 330.468C151.263 328.975 151.437 327.522 151.597 326.108C151.757 324.668 151.917 323.255 152.077 321.868C152.237 320.455 152.397 319.028 152.557 317.588C153.543 317.028 154.597 316.748 155.717 316.748C156.703 316.748 157.557 316.962 158.277 317.388C158.997 317.815 159.357 318.535 159.357 319.548C159.357 320.135 159.29 320.975 159.157 322.068C159.05 323.135 158.89 324.335 158.677 325.668C158.49 327.002 158.263 328.402 157.997 329.868C157.73 331.335 157.45 332.735 157.157 334.068C156.863 335.402 156.557 336.615 156.237 337.708C155.943 338.775 155.663 339.602 155.397 340.188C154.997 340.562 154.343 340.868 153.437 341.108C152.53 341.348 151.597 341.468 150.637 341.468C149.383 341.468 148.317 341.308 147.437 340.988C146.583 340.642 146.063 340.162 145.877 339.548C145.53 338.482 145.157 337.215 144.757 335.748C144.357 334.282 143.93 332.668 143.477 330.908C143.103 332.642 142.717 334.335 142.317 335.988C141.917 337.642 141.557 339.042 141.237 340.188C140.837 340.562 140.237 340.868 139.437 341.108C138.637 341.348 137.757 341.468 136.797 341.468C135.597 341.468 134.503 341.308 133.517 340.988C132.557 340.642 131.93 340.162 131.637 339.548C131.397 339.068 131.13 338.362 130.837 337.428C130.57 336.468 130.29 335.388 129.997 334.188C129.703 332.962 129.397 331.642 129.077 330.228C128.783 328.815 128.503 327.402 128.237 325.988C127.997 324.575 127.77 323.202 127.557 321.868C127.343 320.508 127.183 319.268 127.077 318.148C127.45 317.802 127.97 317.482 128.637 317.188C129.303 316.895 130.023 316.748 130.797 316.748C131.81 316.748 132.637 316.975 133.277 317.428C133.943 317.855 134.357 318.588 134.517 319.628C134.943 322.348 135.29 324.615 135.557 326.428C135.85 328.242 136.077 329.735 136.237 330.908C136.423 332.055 136.557 332.948 136.637 333.588C136.717 334.228 136.797 334.735 136.877 335.108H137.077C137.317 334.042 137.543 333.055 137.757 332.148C137.97 331.242 138.183 330.335 138.397 329.428C138.637 328.495 138.877 327.508 139.117 326.468C139.357 325.402 139.61 324.188 139.877 322.828ZM162.372 316.308C162.372 315.295 162.705 314.442 163.372 313.748C164.065 313.055 164.972 312.708 166.092 312.708C167.212 312.708 168.105 313.055 168.772 313.748C169.465 314.442 169.812 315.295 169.812 316.308C169.812 317.322 169.465 318.175 168.772 318.868C168.105 319.562 167.212 319.908 166.092 319.908C164.972 319.908 164.065 319.562 163.372 318.868C162.705 318.175 162.372 317.322 162.372 316.308ZM169.492 341.108C169.198 341.162 168.758 341.228 168.172 341.308C167.612 341.415 167.038 341.468 166.452 341.468C165.865 341.468 165.332 341.428 164.852 341.348C164.398 341.268 164.012 341.108 163.692 340.868C163.372 340.628 163.118 340.308 162.932 339.908C162.772 339.482 162.692 338.935 162.692 338.268V321.988C162.985 321.935 163.412 321.868 163.972 321.788C164.558 321.682 165.145 321.628 165.732 321.628C166.318 321.628 166.838 321.668 167.292 321.748C167.772 321.828 168.172 321.988 168.492 322.228C168.812 322.468 169.052 322.802 169.212 323.228C169.398 323.628 169.492 324.162 169.492 324.828V341.108ZM180.741 341.108C180.448 341.162 180.008 341.228 179.421 341.308C178.861 341.415 178.288 341.468 177.701 341.468C177.114 341.468 176.581 341.428 176.101 341.348C175.648 341.268 175.261 341.108 174.941 340.868C174.621 340.628 174.368 340.308 174.181 339.908C174.021 339.482 173.941 338.935 173.941 338.268V315.068C174.234 315.015 174.661 314.948 175.221 314.868C175.808 314.762 176.394 314.708 176.981 314.708C177.568 314.708 178.088 314.748 178.541 314.828C179.021 314.908 179.421 315.068 179.741 315.308C180.061 315.548 180.301 315.882 180.461 316.308C180.648 316.708 180.741 317.242 180.741 317.908V341.108ZM191.952 341.108C191.658 341.162 191.218 341.228 190.632 341.308C190.072 341.415 189.498 341.468 188.912 341.468C188.325 341.468 187.792 341.428 187.312 341.348C186.858 341.268 186.472 341.108 186.152 340.868C185.832 340.628 185.578 340.308 185.392 339.908C185.232 339.482 185.152 338.935 185.152 338.268V315.068C185.445 315.015 185.872 314.948 186.432 314.868C187.018 314.762 187.605 314.708 188.192 314.708C188.778 314.708 189.298 314.748 189.752 314.828C190.232 314.908 190.632 315.068 190.952 315.308C191.272 315.548 191.512 315.882 191.672 316.308C191.858 316.708 191.952 317.242 191.952 317.908V341.108ZM196.083 316.308C196.083 315.295 196.416 314.442 197.083 313.748C197.776 313.055 198.683 312.708 199.803 312.708C200.923 312.708 201.816 313.055 202.483 313.748C203.176 314.442 203.523 315.295 203.523 316.308C203.523 317.322 203.176 318.175 202.483 318.868C201.816 319.562 200.923 319.908 199.803 319.908C198.683 319.908 197.776 319.562 197.083 318.868C196.416 318.175 196.083 317.322 196.083 316.308ZM203.203 341.108C202.909 341.162 202.469 341.228 201.883 341.308C201.323 341.415 200.749 341.468 200.163 341.468C199.576 341.468 199.043 341.428 198.563 341.348C198.109 341.268 197.723 341.108 197.403 340.868C197.083 340.628 196.829 340.308 196.643 339.908C196.483 339.482 196.403 338.935 196.403 338.268V321.988C196.696 321.935 197.123 321.868 197.683 321.788C198.269 321.682 198.856 321.628 199.443 321.628C200.029 321.628 200.549 321.668 201.003 321.748C201.483 321.828 201.883 321.988 202.203 322.228C202.523 322.468 202.763 322.802 202.923 323.228C203.109 323.628 203.203 324.162 203.203 324.828V341.108ZM223.932 335.348C223.932 337.375 223.172 338.962 221.652 340.108C220.132 341.255 217.892 341.828 214.932 341.828C213.812 341.828 212.772 341.748 211.812 341.588C210.852 341.428 210.025 341.188 209.332 340.868C208.665 340.522 208.132 340.095 207.732 339.588C207.358 339.082 207.172 338.482 207.172 337.788C207.172 337.148 207.305 336.615 207.572 336.188C207.838 335.735 208.158 335.362 208.532 335.068C209.305 335.495 210.185 335.882 211.172 336.228C212.185 336.548 213.345 336.708 214.652 336.708C215.478 336.708 216.105 336.588 216.532 336.348C216.985 336.108 217.212 335.788 217.212 335.388C217.212 335.015 217.052 334.722 216.732 334.508C216.412 334.295 215.878 334.122 215.132 333.988L213.932 333.748C211.612 333.295 209.878 332.588 208.732 331.628C207.612 330.642 207.052 329.242 207.052 327.428C207.052 326.442 207.265 325.548 207.692 324.748C208.118 323.948 208.718 323.282 209.492 322.748C210.265 322.215 211.185 321.802 212.252 321.508C213.345 321.215 214.545 321.068 215.852 321.068C216.838 321.068 217.758 321.148 218.612 321.308C219.492 321.442 220.252 321.655 220.892 321.948C221.532 322.242 222.038 322.628 222.412 323.108C222.785 323.562 222.972 324.108 222.972 324.748C222.972 325.362 222.852 325.895 222.612 326.348C222.398 326.775 222.118 327.135 221.772 327.428C221.558 327.295 221.238 327.162 220.812 327.028C220.385 326.868 219.918 326.735 219.412 326.628C218.905 326.495 218.385 326.388 217.852 326.308C217.345 326.228 216.878 326.188 216.452 326.188C215.572 326.188 214.892 326.295 214.412 326.508C213.932 326.695 213.692 327.002 213.692 327.428C213.692 327.722 213.825 327.962 214.092 328.148C214.358 328.335 214.865 328.508 215.612 328.668L216.852 328.948C219.412 329.535 221.225 330.348 222.292 331.388C223.385 332.402 223.932 333.722 223.932 335.348Z" fill="#54C2F7"/>
</g>
<mask id="mask0_1195_4" style="mask-type:alpha" maskUnits="userSpaceOnUse" x="4" y="0" width="344" height="288">
<path fill-rule="evenodd" clip-rule="evenodd" d="M34.7167 0.791016C18.1481 0.791016 4.71667 14.2225 4.71667 30.791V287.547H347.627V30.791C347.627 14.2225 334.195 0.791016 317.627 0.791016H34.7167Z" fill="url(#paint1_radial_1195_4)"/>
</mask>
<g mask="url(#mask0_1195_4)">
<path d="M272.434 190.662C260.697 184.642 257.171 190.14 234.564 195.162C201.517 202.506 195.161 199.974 195.161 199.974C195.161 199.974 181.89 288.434 187.485 326.616C189.756 342.097 192.344 352.72 196.812 359.794C198.402 362.312 200.225 364.396 202.361 366.07C206.427 369.26 211.626 371.018 218.43 371.759C220.533 371.988 222.776 372.128 225.205 372.17C227.784 372.216 230.549 372.17 233.529 372.034C244.842 371.526 255.241 371.54 264.012 369.675C274.215 367.507 282.208 362.764 286.899 351.717C287.374 350.589 287.831 349.423 288.242 348.159C289.007 345.786 289.641 343.151 290.149 340.26C291.082 334.939 291.571 328.705 291.553 321.36C291.399 269.184 284.175 196.682 272.438 190.662H272.434Z" fill="#808184"/>
<path d="M271.777 241.247C256.533 243.005 267.524 260.655 252.924 292.267C238.319 323.874 249.967 330.901 257.176 331.824C264.386 332.747 275.474 321.659 278.249 291.898C281.024 262.138 281.392 240.142 271.781 241.252L271.777 241.247Z" fill="#929497"/>
<path d="M355.088 255.171C340.366 240.45 308.554 241.401 319.951 249.473C331.348 257.545 335.143 289.595 328.974 309.063C328.792 309.641 328.582 310.21 328.358 310.775C335.577 306.797 342.698 300.781 343.933 292.211C346.568 273.917 346.88 287.715 347.188 293.297C347.496 298.879 347.188 305.235 347.188 305.235C347.188 305.235 354.938 303.22 354.318 293.451C353.698 283.686 355.246 280.119 357.265 288.648C359.28 297.172 361.914 303.84 358.352 314.999C354.784 326.158 367.035 303.216 367.342 297.485C367.655 291.749 371.385 301.868 370.443 313.917C370.131 317.923 369.753 322.223 369.385 326.191C378.893 303.724 367.762 267.846 355.092 255.176L355.088 255.171Z" fill="#D0D2D3"/>
<path d="M367.338 297.481C367.03 303.216 354.78 326.159 358.347 314.995C361.915 303.832 359.275 297.168 357.261 288.644C355.246 280.12 353.694 283.682 354.314 293.447C354.934 303.212 347.184 305.231 347.184 305.231C347.184 305.231 347.492 298.875 347.184 293.293C346.876 287.711 346.564 273.918 343.929 292.207C342.693 300.777 335.573 306.793 328.354 310.771C320.977 329.204 291.697 340.158 291.697 340.158C291.697 340.158 291.096 340.186 290.144 340.256C289.636 343.147 289.002 345.781 288.237 348.155C287.832 349.419 287.375 350.584 286.894 351.713C287.384 351.895 287.846 352.077 288.372 352.268C318.049 362.951 343.687 355.83 363.081 335.886C365.781 333.112 367.837 329.815 369.376 326.182C369.744 322.219 370.122 317.919 370.434 313.909C371.376 301.859 367.646 291.74 367.333 297.476L367.338 297.481Z" fill="#929497"/>
<path fill-rule="evenodd" clip-rule="evenodd" d="M138.616 252.543C137.245 254.506 143.736 258.792 143.736 258.792L148.535 255.019C148.535 255.019 141.041 249.069 138.616 252.543Z" fill="#C3C3C3"/>
<path fill-rule="evenodd" clip-rule="evenodd" d="M133.389 259.747C132.33 261.892 139.39 265.151 139.39 265.151L143.564 260.698C143.564 260.698 135.259 255.946 133.384 259.747H133.389Z" fill="#C3C3C3"/>
<path fill-rule="evenodd" clip-rule="evenodd" d="M132.186 272.417C132.465 274.795 140.16 273.694 140.16 273.694L141.246 267.684C141.246 267.684 131.691 268.206 132.181 272.417H132.186Z" fill="#C3C3C3"/>
<path fill-rule="evenodd" clip-rule="evenodd" d="M230.839 244.931C224.086 234.537 220.081 240.324 207.486 247.934C199.558 252.723 197.819 256.757 191.538 258.282C188.297 258.702 184.93 258.916 181.521 258.818C179.255 258.683 176.644 258.417 173.603 258.016C171.295 257.601 168.996 257.027 166.739 256.249C147.49 249.613 140.481 255.316 137.627 270.648C135.594 281.588 162.491 284.521 185.033 280.898C185.033 280.898 201.708 279.681 217.32 272.071C232.932 264.46 237.917 255.834 230.834 244.931H230.839Z" fill="#929497"/>
<path d="M311.352 109.332C308.652 106.124 305.947 103.135 303.182 100.374C300.548 97.7489 297.857 95.3334 295.064 93.151C286.46 86.4315 276.849 81.8896 264.819 79.9963C262.496 79.6326 260.081 79.3668 257.572 79.1989C255.53 79.0637 253.431 78.9891 251.249 78.9938C235.688 74.0975 217.754 74.4799 203.037 77.6042C199.511 78.3549 196.182 79.2642 193.1 80.2901C188.917 81.6844 185.205 83.2885 182.183 85.0418C171.733 91.1086 167.835 96.2287 163.339 100.16C162.169 101.181 160.961 102.128 159.581 102.986C157.455 104.31 154.936 105.434 151.551 106.334C137.543 110.069 139.595 110.255 142.397 111.752C144.258 112.746 148.422 112.834 149.644 114.2C149.103 115.287 148.748 116.415 148.539 117.563C145.442 120.775 137.757 127.943 133.784 132.774C172.344 131.216 219.045 128.875 239.381 122.683C259.717 116.49 296.248 117.273 302.534 145.989C307.589 169.02 277.479 174.989 273.217 188.354C268.95 201.718 265.257 209.394 246.203 211.954C243.443 212.327 240.715 212.341 238.02 212.117C241.037 214.49 243.681 218.216 243.256 223.919C242.324 236.519 243.443 236.892 247.738 229.235C252.032 221.578 252.592 215.041 252.592 215.041C252.592 215.041 263.051 224.941 255.394 235.4C247.738 245.859 266.413 236.351 268.097 223.919L269.775 211.487C269.775 211.487 274.63 213.558 276.873 223.919C279.116 234.276 276.313 241.187 280.608 239.881C284.903 238.576 290.135 224.941 290.321 216.346C290.508 207.752 288.451 203.084 288.451 203.084C288.451 203.084 303.392 209.249 302.832 222.325C302.273 235.4 306.195 229.697 309.743 224.609C313.292 219.522 321.135 190.946 318.524 181.793C315.908 172.639 322.632 187.957 323.378 191.133C324.124 194.308 326.227 204.208 327.23 203.835C328.233 203.462 332.527 183.849 330.289 173.017C328.503 164.376 325.052 155.856 323.728 152.765C324.362 152.653 325.178 152.96 326.064 153.539C326.475 153.846 326.913 154.182 327.375 154.546C330.331 157.171 333.562 162.137 333.95 165.929C334.327 169.631 335.582 172.308 336.887 167.882C337.815 165.919 339.149 159.876 338.701 156.019C338.734 155.688 338.762 155.362 338.795 155.017C340.52 135.268 311.343 109.337 311.343 109.337L311.352 109.332Z" fill="#A6A8AB"/>
<path d="M302.534 145.994C296.243 117.278 259.712 116.495 239.381 122.687C219.045 128.88 172.344 131.221 133.785 132.778C95.2251 134.336 67.8665 119.106 47.5678 130.843C27.2646 142.58 13.3358 159.069 32.1002 176.7C50.8647 194.327 77.7896 187.505 78.1207 190.349C78.4471 193.194 64.1033 192.793 65.3064 203.938C66.5095 215.083 83.6232 203.709 88.1185 205.7C92.6137 207.692 107.167 217.358 135.319 217.927C163.465 218.496 176.387 205.132 193.1 202.856C207.387 200.911 222.142 210.807 238.024 212.122C240.72 212.345 243.443 212.327 246.208 211.958C265.257 209.398 268.955 201.723 273.222 188.358C277.488 174.994 307.598 169.025 302.539 145.994H302.534Z" fill="#D0D2D3"/>
<path d="M193.095 80.2903C187.793 72.0506 179.936 62.9994 175.795 59.9404C166.87 62.9715 160.201 85.6716 163.335 100.16C167.83 96.2289 171.729 91.1088 182.179 85.0421C185.196 83.2887 188.912 81.68 193.095 80.2903Z" fill="#929497"/>
<path d="M291.091 59.9545C294.957 66.5108 296.225 83.1862 295.059 93.1513C297.852 95.3337 300.543 97.7492 303.178 100.375C306.293 86.7815 304.698 55.7949 298.044 44.5102C297.713 43.9459 257.749 56.6903 257.563 79.1992C260.076 79.3624 262.492 79.6282 264.809 79.9966C267.873 66.9259 290.886 59.6094 291.086 59.9545H291.091ZM300.828 87.2105C300.627 87.2618 300.431 87.3084 300.245 87.3457C300.431 87.3037 300.627 87.2571 300.828 87.2105Z" fill="#A6A8AB"/>
<path d="M291.09 59.955C290.885 59.61 267.873 66.9264 264.814 79.9972C276.849 81.8904 286.455 86.4277 295.059 93.1519C296.229 83.1914 294.961 66.5114 291.09 59.955Z" fill="#E6E7E8"/>
<path d="M134.661 190.187C134.661 190.187 134.022 192.635 122.826 202.144C111.63 211.652 101.823 211.059 96.6707 205.114C91.518 199.168 101.506 193.158 93.6817 191.572C85.8569 189.987 106.198 191.442 119.618 190.183C133.039 188.924 134.661 190.183 134.661 190.183V190.187Z" fill="#BC2B20"/>
<path d="M300.776 87.8071C300.962 87.7651 301.158 87.7232 301.359 87.6719C301.158 87.7232 300.962 87.7698 300.776 87.8071Z" fill="#33B5E5"/>
<path fill-rule="evenodd" clip-rule="evenodd" d="M53.9376 139.079C52.907 131.44 48.0107 129.384 33.7369 130.028C19.463 130.671 11.3258 132.019 14.5061 143.765C17.6864 155.512 25.0121 160.949 34.7628 159.228C44.5134 157.507 55.0194 147.053 53.9422 139.079H53.9376Z" fill="#58595B"/>
<path d="M230.68 165.5C230.302 165.3 229.831 165.337 229.481 165.58C229.43 165.617 228.162 166.461 222.976 167.916C217.679 169.403 215.636 169.473 215.576 169.445C215.24 169.45 214.909 169.595 214.69 169.856C214.466 170.117 214.377 170.467 214.438 170.802C215.072 174.342 220.528 180.982 224.501 183.057C225.382 183.514 226.175 183.738 226.87 183.719C227.238 183.71 227.583 183.631 227.9 183.486C231.085 182.022 231.347 171.12 231.314 166.503C231.314 166.074 231.062 165.692 230.68 165.496V165.5Z" fill="white"/>
<path d="M188.437 178.413C188.036 178.203 187.537 178.241 187.164 178.497C187.108 178.534 185.76 179.434 180.253 180.983C174.624 182.563 172.451 182.638 172.391 182.61C172.032 182.615 171.682 182.769 171.449 183.048C171.211 183.328 171.113 183.697 171.178 184.056C171.855 187.814 177.646 194.874 181.871 197.075C182.804 197.565 183.648 197.798 184.389 197.779C184.781 197.77 185.144 197.686 185.48 197.532C188.861 195.979 189.145 184.396 189.108 179.486C189.108 179.033 188.838 178.623 188.437 178.413Z" fill="white"/>
<path d="M130.782 188.886C96.9461 191.358 96.4518 190.178 87.5592 189.982C78.6666 189.786 78.3309 190.901 78.3309 190.901C78.3309 190.901 76.5449 191.493 81.5065 191.717C86.4681 191.936 118.63 192.393 133.006 190.42C147.383 188.448 175.762 183.925 185.62 180.222C195.478 176.515 224.968 167.552 230.969 165.328C236.971 163.104 241.937 161.551 248.68 159.401C255.423 157.252 258.09 157.769 258.09 157.769C258.09 157.769 257.349 155.545 257.055 155.47C256.761 155.396 251.795 154.953 242.902 158.361C234.01 161.77 206.059 171.143 195.254 174.706C184.45 178.268 154.125 187.189 130.786 188.896L130.782 188.886Z" fill="#58595B"/>
<path d="M260.594 141.793C258.981 141.714 255.684 146.955 254.975 151.357C254.266 155.759 256.188 158.645 260.795 161.784C265.402 164.922 269.753 164.722 269.855 164.414L269.958 164.111C269.958 164.111 261.709 161.882 259.885 154.901C258.062 147.92 260.189 144.274 260.949 143.514C261.709 142.753 261.606 141.844 260.594 141.793Z" fill="#58595B"/>
<path fill-rule="evenodd" clip-rule="evenodd" d="M247.015 100.865C243.611 100.123 234.676 95.4041 223.592 95.2502C209.448 95.059 193.598 100.263 200.738 108.619C203.55 111.907 236.471 102.082 244.324 101.592C244.716 101.569 247.709 101.023 247.01 100.869L247.015 100.865Z" fill="#58595B"/>
<path fill-rule="evenodd" clip-rule="evenodd" d="M153.859 110.755C155.753 110.219 161.045 106.521 166.963 106.647C174.508 106.815 182.342 111.482 177.59 118.235C175.715 120.888 159.329 112.005 155.207 111.417C155.002 111.389 153.472 110.867 153.859 110.755Z" fill="#58595B"/>
<path fill-rule="evenodd" clip-rule="evenodd" d="M180.346 131.464C178.169 137.311 168.698 139.778 157.357 140.394C146.016 141.009 145.788 132.741 145.48 128.605C145.168 124.469 147.476 112.046 152.591 114.177C157.707 116.309 165.517 121.247 171.934 124.767C178.35 128.288 181.81 127.533 180.346 131.464Z" fill="white"/>
<path fill-rule="evenodd" clip-rule="evenodd" d="M153.994 134.07C161.903 142.622 173.43 130.484 166.431 123.047C158.415 114.527 145.923 125.341 153.994 134.07Z" fill="#1D1D1B"/>
<path fill-rule="evenodd" clip-rule="evenodd" d="M161.736 128.46C164.468 131.412 168.451 127.224 166.03 124.655C163.26 121.713 158.947 125.448 161.736 128.46Z" fill="white"/>
<path fill-rule="evenodd" clip-rule="evenodd" d="M216.7 120.333C199.8 125.785 195.287 126.409 194.526 129.552C193.766 132.695 199.94 140.795 214.354 143.43C228.768 146.065 235.18 143.551 241.722 139.079C248.26 134.607 244.921 117.829 242.804 113.763C240.687 109.697 230.251 115.964 216.7 120.333Z" fill="white"/>
<path fill-rule="evenodd" clip-rule="evenodd" d="M211.067 138.17C220.617 148.504 234.546 133.843 226.091 124.857C216.411 114.565 201.321 127.627 211.067 138.17Z" fill="#1D1D1B"/>
<path fill-rule="evenodd" clip-rule="evenodd" d="M218.975 131.646C222.272 135.214 227.08 130.154 224.165 127.048C220.822 123.495 215.609 128.004 218.975 131.646Z" fill="white"/>
</g>
<defs>
<filter id="filter0_d_1195_4" x="0.716705" y="287.548" width="350.91" height="81.627" filterUnits="userSpaceOnUse" color-interpolation-filters="sRGB">
<feFlood flood-opacity="0" result="BackgroundImageFix"/>
<feColorMatrix in="SourceAlpha" type="matrix" values="0 0 0 0 0 0 0 0 0 0 0 0 0 0 0 0 0 0 127 0" result="hardAlpha"/>
<feOffset dy="4"/>
<feGaussianBlur stdDeviation="2"/>
<feComposite in2="hardAlpha" operator="out"/>
<feColorMatrix type="matrix" values="0 0 0 0 0 0 0 0 0 0 0 0 0 0 0 0 0 0 0.25 0"/>
<feBlend mode="normal" in2="BackgroundImageFix" result="effect1_dropShadow_1195_4"/>
<feBlend mode="normal" in="SourceGraphic" in2="effect1_dropShadow_1195_4" result="shape"/>
</filter>
<radialGradient id="paint0_radial_1195_4" cx="0" cy="0" r="1" gradientUnits="userSpaceOnUse" gradientTransform="translate(176.54 145.798) rotate(90.0652) scale(323.823 387.235)">
<stop stop-color="#91D5E7"/>
<stop offset="1" stop-color="#AFE8FE"/>
</radialGradient>
<radialGradient id="paint1_radial_1195_4" cx="0" cy="0" r="1" gradientUnits="userSpaceOnUse" gradientTransform="translate(176.54 145.798) rotate(90.0652) scale(323.823 387.235)">
<stop stop-color="#91D5E7"/>
<stop offset="1" stop-color="#AFE8FE"/>
</radialGradient>
</defs>
</svg>
