<svg width="351" height="369" viewBox="0 0 351 369" fill="none" xmlns="http://www.w3.org/2000/svg">
<g filter="url(#filter0_d_1195_73)">
<path fill-rule="evenodd" clip-rule="evenodd" d="M34.0001 0C17.4316 0 4.00012 13.4315 4.00012 30V286.756H346.91V30C346.91 13.4315 333.479 0 316.91 0H34.0001Z" fill="url(#paint0_radial_1195_73)"/>
<mask id="mask0_1195_73" style="mask-type:alpha" maskUnits="userSpaceOnUse" x="4" y="0" width="343" height="287">
<path fill-rule="evenodd" clip-rule="evenodd" d="M34.0001 0C17.4316 0 4.00012 13.4315 4.00012 30V286.756H346.91V30C346.91 13.4315 333.479 0 316.91 0H34.0001Z" fill="url(#paint1_radial_1195_73)"/>
</mask>
<g mask="url(#mask0_1195_73)">
<path fill-rule="evenodd" clip-rule="evenodd" d="M122.48 258.949C99.836 272.66 74.3788 349.966 89.5195 381.843C119.196 444.346 215.179 442.649 253.702 414.717C312.254 372.257 272.811 311.678 239.952 270.484C217.434 242.261 222.289 234.836 177.865 239.935C110.537 247.666 149.949 242.308 122.48 258.949Z" fill="#DCABAD"/>
<path d="M235.018 260.677C235.018 260.677 283.842 284.202 298.347 292.043C312.843 299.885 318.029 312.904 316.253 321.633C314.477 330.362 284.29 328.736 259.737 317.783C235.175 306.83 212.539 303.852 213.128 293.952C213.717 284.052 225.369 256.002 235.026 260.677H235.018Z" fill="#DCABAD"/>
<path d="M114.78 262.634C114.78 262.634 65.9559 286.159 51.4516 294C36.9552 301.842 31.7773 314.861 33.553 323.59C35.3288 332.319 65.5159 330.693 90.0694 319.74C114.631 308.787 137.267 305.809 136.678 295.909C136.089 286.009 124.437 257.959 114.78 262.634Z" fill="#DCABAD"/>
<path fill-rule="evenodd" clip-rule="evenodd" d="M251.825 92.1421C254.787 44.5907 307.178 46.005 315.373 48.1421C323.073 67.6514 313.707 110.426 266.651 113.113C265.582 113.176 251.77 92.9592 251.825 92.1342V92.1421Z" fill="#E8B4B5"/>
<path fill-rule="evenodd" clip-rule="evenodd" d="M262.903 92.5036C274.539 67.6907 300.767 53.6265 309.661 58.6472C312.513 66.2764 288.392 104.957 269.44 105.963C268.56 106.018 262.612 93.1243 262.903 92.5036Z" fill="#D18C8C"/>
<path fill-rule="evenodd" clip-rule="evenodd" d="M97.9738 90.5708C95.0117 43.0194 42.6203 44.4337 34.4253 46.5708C26.7253 66.0801 36.091 108.854 83.1474 111.542C84.2159 111.604 98.0288 91.388 97.9738 90.563V90.5708Z" fill="#E8B4B5"/>
<path fill-rule="evenodd" clip-rule="evenodd" d="M86.8955 90.9319C75.2591 66.1112 49.0398 52.0548 40.1377 57.0676C37.2855 64.6969 61.4069 103.378 80.3584 104.383C81.2384 104.438 87.1862 91.5447 86.8955 90.924V90.9319Z" fill="#D18C8C"/>
<path d="M144.952 68.0602C93.2203 73.0809 48.7174 133.982 46.1717 179.435C43.626 224.889 66.0267 259.515 148.008 266.642C229.989 273.768 292.108 246.787 299.745 206.047C307.382 165.316 286.506 54.3102 144.952 68.0602Z" fill="#E8B4B5"/>
<path fill-rule="evenodd" clip-rule="evenodd" d="M211.266 187.111C236.016 213.888 272.104 175.891 250.198 152.603C225.11 125.936 185.997 159.784 211.266 187.111Z" fill="white"/>
<path fill-rule="evenodd" clip-rule="evenodd" d="M220.027 175.333C237.674 194.426 263.39 167.342 247.778 150.74C229.895 131.734 202.018 155.863 220.027 175.333Z" fill="#765858"/>
<path fill-rule="evenodd" clip-rule="evenodd" d="M232.048 160.585C238.137 167.177 247.032 157.819 241.634 152.092C235.458 145.523 225.833 153.859 232.048 160.585Z" fill="white"/>
<path fill-rule="evenodd" clip-rule="evenodd" d="M90.0068 176.395C114.765 203.172 150.845 165.175 128.955 141.894C103.867 115.227 64.754 149.075 90.0068 176.395Z" fill="white"/>
<path fill-rule="evenodd" clip-rule="evenodd" d="M99.2232 166.958C116.87 186.043 142.587 158.967 126.975 142.365C109.1 123.359 81.2146 147.488 99.2232 166.958Z" fill="#765858"/>
<path fill-rule="evenodd" clip-rule="evenodd" d="M111.826 150.655C117.915 157.247 126.802 147.897 121.412 142.161C115.236 135.601 105.611 143.937 111.826 150.655Z" fill="white"/>
<path fill-rule="evenodd" clip-rule="evenodd" d="M264.372 121.724C257.473 104.454 232.833 109.93 239.072 118.133C249.789 132.205 266.226 126.375 264.372 121.724Z" fill="#694E4E"/>
<path fill-rule="evenodd" clip-rule="evenodd" d="M112.902 116.617C102.248 126.502 86.9188 115.997 96.3474 107.385C107.151 97.5168 123.777 106.537 112.902 116.617Z" fill="#765858"/>
<path fill-rule="evenodd" clip-rule="evenodd" d="M63.8973 196.509C73.6873 204.798 87.9637 193.036 79.2973 185.831C69.3737 177.581 53.903 188.055 63.8973 196.509Z" fill="#EF99B0"/>
<path fill-rule="evenodd" clip-rule="evenodd" d="M246.442 207.336C256.232 215.617 270.509 203.863 261.842 196.658C251.927 188.408 236.456 198.882 246.442 207.336Z" fill="#EF99B0"/>
<path d="M168.083 232.494C189.524 232.494 206.905 219.289 206.905 202.999C206.905 186.709 189.524 173.503 168.083 173.503C146.642 173.503 129.261 186.709 129.261 202.999C129.261 219.289 146.642 232.494 168.083 232.494Z" fill="#CC8787"/>
<path d="M151.481 217.307C156.319 217.307 160.242 211.231 160.242 203.737C160.242 196.243 156.319 190.168 151.481 190.168C146.642 190.168 142.72 196.243 142.72 203.737C142.72 211.231 146.642 217.307 151.481 217.307Z" fill="#694E4E"/>
<path d="M183.719 216.568C188.557 216.568 192.479 210.493 192.479 202.999C192.479 195.505 188.557 189.43 183.719 189.43C178.88 189.43 174.958 195.505 174.958 202.999C174.958 210.493 178.88 216.568 183.719 216.568Z" fill="#694E4E"/>
<path d="M225.943 104.485C225.943 104.485 186.822 97.7361 189.517 78.6275C192.212 59.519 213.128 58.1676 205.931 53.6733C198.734 49.179 182.548 54.7968 176.027 63.3454C176.027 63.3454 185.471 49.6268 177.15 47.3797C168.829 45.1326 156.242 56.5961 153.539 62.4418C150.844 68.2875 149.941 69.1911 149.941 69.1911C149.941 69.1911 155.787 56.3761 149.941 54.8047C144.095 53.2333 139.145 66.724 138.022 73.4654C136.898 80.2147 131.5 109.443 170.401 110.119C209.302 110.795 230.437 108.548 225.935 104.501L225.943 104.485Z" fill="#E8B4B5"/>
<path d="M182.988 242.08C188.213 240.351 191.6 239.958 193.752 240.061C195.45 235.488 194.302 234.482 192.456 234.891C190.366 235.354 177.999 238.191 167.612 237.9C157.225 237.609 152.573 235.111 151.025 236.556C147.945 239.432 154.152 250.448 161.075 255.343C165.231 249.363 174.102 245.026 182.988 242.08Z" fill="#AF300F"/>
<path d="M182.234 258.077C186.791 255.869 190.177 248.248 192.959 242.002C193.273 241.287 193.532 240.65 193.752 240.061C191.599 239.959 188.213 240.352 182.988 242.08C174.102 245.027 165.231 249.364 161.074 255.343C162.049 256.034 163.039 256.6 164.013 257.009C171.941 260.293 177.677 260.285 182.234 258.077Z" fill="#E38072"/>
</g>
<path fill-rule="evenodd" clip-rule="evenodd" d="M346.91 286.756V330.382C346.91 346.951 333.478 360.382 316.91 360.382H34C17.4314 360.382 4 346.951 4 330.382V286.756H346.91Z" fill="white"/>
<path d="M142.039 320.996C139.985 320.996 138.412 321.623 137.319 322.876C136.225 324.13 135.679 325.903 135.679 328.196C135.679 330.516 136.279 332.303 137.479 333.556C138.705 334.81 140.345 335.436 142.399 335.436C143.492 335.436 144.412 335.29 145.159 334.996C145.932 334.703 146.665 334.37 147.359 333.996C147.812 334.37 148.159 334.823 148.399 335.356C148.665 335.863 148.799 336.463 148.799 337.156C148.799 338.25 148.185 339.183 146.959 339.956C145.759 340.703 143.919 341.076 141.439 341.076C139.652 341.076 137.972 340.823 136.399 340.316C134.825 339.81 133.452 339.036 132.279 337.996C131.105 336.93 130.172 335.596 129.479 333.996C128.812 332.37 128.479 330.436 128.479 328.196C128.479 326.116 128.799 324.29 129.439 322.716C130.105 321.116 130.999 319.77 132.119 318.676C133.265 317.583 134.599 316.756 136.119 316.196C137.639 315.636 139.265 315.356 140.999 315.356C143.452 315.356 145.345 315.756 146.679 316.556C148.039 317.356 148.719 318.383 148.719 319.636C148.719 320.33 148.545 320.93 148.199 321.436C147.852 321.943 147.452 322.343 146.999 322.636C146.305 322.183 145.559 321.796 144.759 321.476C143.985 321.156 143.079 320.996 142.039 320.996ZM151.815 321.196C152.082 321.116 152.495 321.036 153.055 320.956C153.642 320.876 154.242 320.836 154.855 320.836C155.442 320.836 155.962 320.876 156.415 320.956C156.895 321.036 157.295 321.196 157.615 321.436C157.935 321.676 158.175 322.01 158.335 322.436C158.522 322.836 158.615 323.37 158.615 324.036V332.636C158.615 333.73 158.882 334.516 159.415 334.996C159.948 335.45 160.722 335.676 161.735 335.676C162.348 335.676 162.842 335.623 163.215 335.516C163.615 335.41 163.922 335.303 164.135 335.196V321.196C164.402 321.116 164.815 321.036 165.375 320.956C165.962 320.876 166.562 320.836 167.175 320.836C167.762 320.836 168.282 320.876 168.735 320.956C169.215 321.036 169.615 321.196 169.935 321.436C170.255 321.676 170.495 322.01 170.655 322.436C170.842 322.836 170.935 323.37 170.935 324.036V336.196C170.935 337.53 170.375 338.53 169.255 339.196C168.322 339.783 167.202 340.223 165.895 340.516C164.615 340.836 163.215 340.996 161.695 340.996C160.255 340.996 158.922 340.836 157.695 340.516C156.495 340.196 155.455 339.703 154.575 339.036C153.695 338.37 153.015 337.516 152.535 336.476C152.055 335.41 151.815 334.13 151.815 332.636V321.196ZM181.896 340.316C181.63 340.396 181.203 340.476 180.616 340.556C180.056 340.636 179.47 340.676 178.856 340.676C178.27 340.676 177.736 340.636 177.256 340.556C176.803 340.476 176.416 340.316 176.096 340.076C175.776 339.836 175.523 339.516 175.336 339.116C175.176 338.69 175.096 338.143 175.096 337.476V325.476C175.096 324.863 175.203 324.343 175.416 323.916C175.656 323.463 175.99 323.063 176.416 322.716C176.843 322.37 177.363 322.063 177.976 321.796C178.616 321.503 179.296 321.25 180.016 321.036C180.736 320.823 181.483 320.663 182.256 320.556C183.03 320.423 183.803 320.356 184.576 320.356C185.856 320.356 186.87 320.61 187.616 321.116C188.363 321.596 188.736 322.396 188.736 323.516C188.736 323.89 188.683 324.263 188.576 324.636C188.47 324.983 188.336 325.303 188.176 325.596C187.616 325.596 187.043 325.623 186.456 325.676C185.87 325.73 185.296 325.81 184.736 325.916C184.176 326.023 183.643 326.143 183.136 326.276C182.656 326.383 182.243 326.516 181.896 326.676V340.316ZM198.461 340.316C198.168 340.37 197.728 340.436 197.141 340.516C196.581 340.623 196.008 340.676 195.421 340.676C194.835 340.676 194.301 340.636 193.821 340.556C193.368 340.476 192.981 340.316 192.661 340.076C192.341 339.836 192.088 339.516 191.901 339.116C191.741 338.69 191.661 338.143 191.661 337.476V314.276C191.955 314.223 192.381 314.156 192.941 314.076C193.528 313.97 194.115 313.916 194.701 313.916C195.288 313.916 195.808 313.956 196.261 314.036C196.741 314.116 197.141 314.276 197.461 314.516C197.781 314.756 198.021 315.09 198.181 315.516C198.368 315.916 198.461 316.45 198.461 317.116V340.316ZM205.792 335.396C205.499 334.73 205.179 333.983 204.832 333.156C204.512 332.33 204.166 331.383 203.792 330.316C203.446 329.25 203.072 328.036 202.672 326.676C202.299 325.29 201.899 323.703 201.472 321.916C201.846 321.543 202.339 321.223 202.952 320.956C203.592 320.663 204.286 320.516 205.032 320.516C205.966 320.516 206.739 320.716 207.352 321.116C207.966 321.49 208.419 322.21 208.712 323.276L211.872 334.276H212.032C212.352 333.37 212.659 332.383 212.952 331.316C213.272 330.25 213.579 329.156 213.872 328.036C214.166 326.89 214.432 325.756 214.672 324.636C214.939 323.49 215.166 322.37 215.352 321.276C216.312 320.77 217.366 320.516 218.512 320.516C219.446 320.516 220.219 320.716 220.832 321.116C221.446 321.516 221.752 322.21 221.752 323.196C221.752 323.916 221.659 324.756 221.472 325.716C221.286 326.65 221.032 327.65 220.712 328.716C220.419 329.783 220.059 330.89 219.632 332.036C219.232 333.156 218.806 334.263 218.352 335.356C217.899 336.45 217.432 337.49 216.952 338.476C216.472 339.436 216.006 340.303 215.552 341.076C214.806 342.383 214.112 343.45 213.472 344.276C212.832 345.103 212.219 345.743 211.632 346.196C211.046 346.676 210.459 346.996 209.872 347.156C209.286 347.343 208.672 347.436 208.032 347.436C206.912 347.436 206.006 347.103 205.312 346.436C204.619 345.77 204.206 344.903 204.072 343.836C204.926 343.17 205.779 342.423 206.632 341.596C207.486 340.796 208.259 339.97 208.952 339.116C208.499 338.983 208.006 338.676 207.472 338.196C206.966 337.69 206.406 336.756 205.792 335.396Z" fill="#54C2F7"/>
</g>
<defs>
<filter id="filter0_d_1195_73" x="0" y="0" width="350.91" height="368.383" filterUnits="userSpaceOnUse" color-interpolation-filters="sRGB">
<feFlood flood-opacity="0" result="BackgroundImageFix"/>
<feColorMatrix in="SourceAlpha" type="matrix" values="0 0 0 0 0 0 0 0 0 0 0 0 0 0 0 0 0 0 127 0" result="hardAlpha"/>
<feOffset dy="4"/>
<feGaussianBlur stdDeviation="2"/>
<feComposite in2="hardAlpha" operator="out"/>
<feColorMatrix type="matrix" values="0 0 0 0 0 0 0 0 0 0 0 0 0 0 0 0 0 0 0.25 0"/>
<feBlend mode="normal" in2="BackgroundImageFix" result="effect1_dropShadow_1195_73"/>
<feBlend mode="normal" in="SourceGraphic" in2="effect1_dropShadow_1195_73" result="shape"/>
</filter>
<radialGradient id="paint0_radial_1195_73" cx="0" cy="0" r="1" gradientUnits="userSpaceOnUse" gradientTransform="translate(175.824 145.007) rotate(90.0652) scale(323.823 387.235)">
<stop stop-color="#91D5E7"/>
<stop offset="1" stop-color="#AFE8FE"/>
</radialGradient>
<radialGradient id="paint1_radial_1195_73" cx="0" cy="0" r="1" gradientUnits="userSpaceOnUse" gradientTransform="translate(175.824 145.007) rotate(90.0652) scale(323.823 387.235)">
<stop stop-color="#91D5E7"/>
<stop offset="1" stop-color="#AFE8FE"/>
</radialGradient>
</defs>
</svg>
